<?xml version="1.0" encoding="utf-8"?>
<svg viewBox="267.5886 105.6727 161.436 161.436" width="161.436" height="161.436" xmlns="http://www.w3.org/2000/svg">
  <rect x="51.771" y="98.788" style="fill:#FFC955;" width="161.436" height="161.436" transform="matrix(1, 0, 0, 1, 215.8175811767578, 6.884695053100586)"/>
  <g transform="matrix(1, 0, 0, 1, 215.8175811767578, 6.884695053100586)">
    <g>
      <path style="fill:#FFC955;" d="M140.76,229.723c-27.576-1.199-40.868,6.491-40.967,30.501h68.373 C169.31,246.416,161.006,230.603,140.76,229.723z"/>
      <path style="fill:#FFD98A;" d="M152.624,260.224c-1.83-8.39-9.255-14.671-18.142-14.671c-8.887,0-16.312,6.281-18.142,14.671 H152.624z"/>
      <path style="fill:none;stroke:#482725;stroke-width:2;stroke-miterlimit:10;" d="M168.165,260.224 c1.145-13.809-7.159-29.621-27.405-30.501c-27.576-1.199-40.868,6.491-40.967,30.501"/>
    </g>
    <g>
      <g>
        <path style="fill:#FFD98A;" d="M60.193,198.053c-0.886-52.159,26.66-68.771,84.998-66.235 c71.736,3.118,71.244,96.599,24.171,105.405C134.215,243.798,61.078,250.147,60.193,198.053z"/>
      </g>
      <path style="fill:none;stroke:#482725;stroke-width:1.5;stroke-linejoin:round;stroke-miterlimit:10;" d="M112.713,147.87 c0,0,3.213,13.175,8.033,14.781c4.82,1.607,4.177-5.784,4.177-5.784s0.964,7.712,7.391,7.069 c6.427-0.643,3.856-10.925,3.856-10.925s7.391,12.532,10.925,6.748c3.535-5.784-3.856-16.067-3.856-16.067"/>
      <g>
        <path style="fill:none;stroke:#482725;stroke-width:2;stroke-miterlimit:10;" d="M60.193,198.053 c-0.886-52.159,26.66-68.771,84.998-66.235c71.736,3.118,71.244,96.599,24.171,105.405 C134.215,243.798,61.078,250.147,60.193,198.053z"/>
      </g>
      <g>
        <path style="fill:#F3F3F3;" d="M104.871,194.928L104.871,194.928c-7.431,0.195-13.638-4.946-13.862-11.481l-0.216-6.265 c-0.225-6.535,5.617-11.991,13.048-12.186l0,0c7.431-0.195,13.637,4.946,13.863,11.481l0.215,6.265 C118.144,189.278,112.302,194.733,104.871,194.928"/>
        <path style="fill:none;stroke:#482725;stroke-width:1.5;stroke-miterlimit:10;" d="M104.871,194.928L104.871,194.928 c-7.431,0.195-13.638-4.946-13.862-11.481l-0.216-6.265c-0.225-6.535,5.617-11.991,13.048-12.186l0,0 c7.431-0.195,13.637,4.946,13.863,11.481l0.215,6.265C118.144,189.278,112.302,194.733,104.871,194.928"/>
        <path style="fill:#482725;" d="M117.702,176.477c-0.121-3.536-2.003-6.655-4.874-8.75c-1.073-0.31-2.2-0.47-3.363-0.439 c-6.556,0.172-11.673,6.076-11.429,13.188c0.245,7.112,5.759,12.739,12.316,12.567c0.595-0.016,1.173-0.094,1.742-0.201 c3.635-2.203,5.969-5.929,5.826-10.1L117.702,176.477z"/>
      </g>
      <g>
        <path style="fill:#F3F3F3;" d="M159.67,192.818L159.67,192.818c7.613-0.056,13.836-5.536,13.9-12.238l0.061-6.425 c0.064-6.702-6.057-12.089-13.669-12.033l0,0c-7.613,0.056-13.836,5.536-13.9,12.237l-0.061,6.425 C145.937,187.488,152.057,192.875,159.67,192.818"/>
        <path style="fill:none;stroke:#482725;stroke-width:1.5;stroke-miterlimit:10;" d="M159.67,192.818L159.67,192.818 c7.613-0.056,13.836-5.536,13.9-12.238l0.061-6.425c0.064-6.702-6.057-12.089-13.669-12.033l0,0 c-7.613,0.056-13.836,5.536-13.9,12.237l-0.061,6.425C145.937,187.488,152.057,192.875,159.67,192.818"/>
        <path style="fill:#482725;" d="M146.063,174.36c0.033-3.626,1.881-6.886,4.767-9.131c1.091-0.354,2.241-0.557,3.432-0.566 c6.717-0.05,12.106,5.822,12.037,13.115c-0.07,7.294-5.571,13.247-12.289,13.297c-0.609,0.004-1.204-0.056-1.788-0.146 c-3.778-2.132-6.263-5.867-6.222-10.145L146.063,174.36z"/>
      </g>
      <ellipse style="fill:#FFD98A;" cx="132.802" cy="189.439" rx="15.686" ry="10.998"/>
      <path style="fill:#FFC955;" d="M117.122,189.367c0,0.024-0.005,0.048-0.005,0.072c0,6.074,7.023,10.998,15.686,10.998 s15.686-4.924,15.686-10.998c0-0.266-0.03-0.526-0.057-0.787c-4.155-1.847-9.318-2.943-14.915-2.943 C127.232,185.71,121.498,187.092,117.122,189.367z"/>
      <path style="fill:none;stroke:#482725;stroke-width:1.5;stroke-miterlimit:10;" d="M117.117,189.439c0,0,16.497-9.124,31.371,0"/>
      <ellipse style="fill:none;stroke:#482725;stroke-width:2;stroke-miterlimit:10;" cx="132.802" cy="189.439" rx="15.686" ry="10.998"/>
    </g>
  </g>
</svg>