<?xml version="1.0" encoding="utf-8"?>
<svg viewBox="447.6136 56.373 161.436 210.7357" width="161.436" height="210.7357" xmlns="http://www.w3.org/2000/svg">
  <rect x="231.796" y="98.788" style="fill:#A48080;" width="161.436" height="161.436" transform="matrix(1, 0, 0, 1, 215.8175811767578, 6.884695053100586)"/>
  <g transform="matrix(1, 0, 0, 1, 215.8175811767578, 6.884695053100586)">
    <g>
      <path style="fill:#FFB980;" d="M325.718,224.007c-32.744-1.424-48.527,7.707-48.645,36.217h81.186 C359.618,243.828,349.758,225.052,325.718,224.007z"/>
      <path style="fill:#F0A36B;" d="M339.805,260.224c-2.173-9.962-10.989-17.42-21.542-17.42s-19.369,7.458-21.542,17.42H339.805z"/>
      <path style="fill:none;stroke:#482725;stroke-width:2;stroke-miterlimit:10;" d="M358.259,260.224 c1.36-16.396-8.501-35.172-32.541-36.217c-32.744-1.424-48.527,7.707-48.645,36.217"/>
    </g>
    <g>
      <g>
        <path style="fill:#FFB980;" d="M351.517,135.051c0,0,21.804-36.429,26.325-32.914c4.52,3.515,18.04,37.418-17.55,45.377"/>
        <path style="fill:#F3F3F3;" d="M357.862,148.164c0,0,12.97-8.286,12.97-18.734c0-10.448,6.845-22.697,6.845-22.697 S393.529,136.275,357.862,148.164z"/>
        <path style="fill:#703F58;" d="M373.602,115.9c-1.468,4.076-2.77,8.974-2.77,13.53c0,10.448-12.97,18.734-12.97,18.734 c9.066-3.022,14.799-7.186,18.314-11.714C377.125,128.549,375.244,120.801,373.602,115.9z"/>
        <path style="fill:none;stroke:#482725;stroke-width:1.5;stroke-miterlimit:10;" d="M357.862,148.164 c0,0,12.97-8.286,12.97-18.734c0-10.448,6.845-22.697,6.845-22.697S393.529,136.275,357.862,148.164z"/>
        <path style="fill:none;stroke:#482725;stroke-width:2;stroke-miterlimit:10;" d="M351.517,135.051 c0,0,21.804-36.429,26.325-32.914c4.52,3.515,18.04,37.418-17.55,45.377"/>
      </g>
      <g>
        <path style="fill:#FFB980;" d="M276.867,135.051c0,0-21.804-36.429-26.325-32.914c-4.52,3.515-18.04,37.418,17.55,45.377"/>
        <path style="fill:#F3F3F3;" d="M270.522,148.164c0,0-12.97-8.286-12.97-18.734c0-10.448-6.845-22.697-6.845-22.697 S234.855,136.275,270.522,148.164z"/>
        <path style="fill:#703F58;" d="M254.782,115.9c1.468,4.076,2.77,8.974,2.77,13.53c0,10.448,12.97,18.734,12.97,18.734 c-9.066-3.022-14.799-7.186-18.314-11.714C251.259,128.549,253.14,120.801,254.782,115.9z"/>
        <path style="fill:none;stroke:#482725;stroke-width:1.5;stroke-miterlimit:10;" d="M270.522,148.164 c0,0-12.97-8.286-12.97-18.734c0-10.448-6.845-22.697-6.845-22.697S234.855,136.275,270.522,148.164z"/>
        <path style="fill:none;stroke:#482725;stroke-width:2;stroke-miterlimit:10;" d="M276.867,135.051 c0,0-21.804-36.429-26.325-32.914c-4.52,3.515-18.04,37.418,17.55,45.377"/>
      </g>
      <g>
        <path style="fill:#FFB980;" d="M243.889,193.574c-0.886-52.159,26.66-68.771,84.998-66.235 c71.736,3.118,71.244,96.599,24.171,105.405C317.912,239.318,244.774,245.668,243.889,193.574z"/>
      </g>
      <path style="fill:#F3F3F3;" d="M360.811,136.84c-0.688,5.844,4.963,19.942-9.683,21.773 c-12.344,1.543-23.337,12.07-22.191,30.005c0.783,12.262,26.141,2.492,26.141,2.492s6.387,3.083,6.607,10.572 c0.2,6.799-2.002,14.147,1.982,13.215c6.271-1.467,20.731-19.688,21.128-41.645C382.009,159.023,374.211,145.496,360.811,136.84 z"/>
      <path style="fill:#F3F3F3;" d="M245.814,170.544c-0.823,23.15,14.586,42.826,21.113,44.353 c3.984,0.932,1.782-6.416,1.982-13.215c0.22-7.489,6.607-10.572,6.607-10.572s25.358,9.77,26.141-2.492 c1.146-17.935-9.847-28.462-22.191-30.005c-15.003-1.875-8.704-16.627-9.741-22.189 C257.127,143.318,249.216,154.364,245.814,170.544z"/>
      <path style="fill:#F0A36B;" d="M301.903,204.355c0,0-1.512-34.769,14.109-34.265c15.621,0.504,14.109,38.801,14.109,38.801 L301.903,204.355z"/>
      <g>
        <path style="fill:none;stroke:#482725;stroke-width:2;stroke-miterlimit:10;" d="M243.889,193.574 c-0.886-52.159,26.66-68.771,84.998-66.235c71.736,3.118,71.244,96.599,24.171,105.405 C317.912,239.318,244.774,245.668,243.889,193.574z"/>
      </g>
      <g>
        <path style="fill:#F3F3F3;" d="M288.567,197.539L288.567,197.539c-7.431,0.195-13.638-4.945-13.862-11.481l-0.216-6.265 c-0.225-6.535,5.617-11.991,13.048-12.186l0,0c7.431-0.195,13.637,4.946,13.862,11.481l0.215,6.265 C301.84,191.889,295.999,197.344,288.567,197.539"/>
        <path style="fill:none;stroke:#482725;stroke-width:1.5;stroke-miterlimit:10;" d="M288.567,197.539L288.567,197.539 c-7.431,0.195-13.638-4.945-13.862-11.481l-0.216-6.265c-0.225-6.535,5.617-11.991,13.048-12.186l0,0 c7.431-0.195,13.637,4.946,13.862,11.481l0.215,6.265C301.84,191.889,295.999,197.344,288.567,197.539"/>
        <path style="fill:#482725;" d="M301.399,179.088c-0.121-3.536-2.003-6.655-4.874-8.75c-1.073-0.31-2.2-0.47-3.363-0.439 c-6.556,0.172-11.673,6.076-11.429,13.188c0.245,7.112,5.759,12.739,12.316,12.567c0.595-0.016,1.173-0.094,1.741-0.201 c3.635-2.203,5.97-5.928,5.826-10.1L301.399,179.088z"/>
      </g>
      <g>
        <path style="fill:#F3F3F3;" d="M343.079,195.666L343.079,195.666c7.604-0.371,13.596-6.102,13.382-12.802l-0.204-6.422 c-0.213-6.699-6.551-11.829-14.154-11.458l0,0c-7.604,0.371-13.595,6.102-13.382,12.801l0.205,6.422 C329.138,190.908,335.475,196.037,343.079,195.666"/>
        <path style="fill:none;stroke:#482725;stroke-width:1.5;stroke-miterlimit:10;" d="M343.079,195.666L343.079,195.666 c7.604-0.371,13.596-6.102,13.382-12.802l-0.204-6.422c-0.213-6.699-6.551-11.829-14.154-11.458l0,0 c-7.604,0.371-13.595,6.102-13.382,12.801l0.205,6.422C329.138,190.908,335.475,196.037,343.079,195.666"/>
        <path style="fill:#482725;" d="M328.722,177.786c-0.117-3.625,1.595-6.958,4.385-9.32c1.075-0.399,2.216-0.649,3.406-0.707 c6.709-0.327,12.336,5.317,12.569,12.607c0.232,7.29-5.019,13.466-11.729,13.793c-0.609,0.029-1.205-0.006-1.792-0.072 c-3.863-1.974-6.5-5.603-6.635-9.879L328.722,177.786z"/>
      </g>
      <g>
        <ellipse transform="matrix(0.9992 -0.0411 0.0411 0.9992 -7.9218 13.1383)" style="fill:#F3F3F3;" cx="315.715" cy="199.318" rx="20.252" ry="19.777"/>
        <ellipse transform="matrix(0.9992 -0.0411 0.0411 0.9992 -7.9218 13.1383)" style="fill:none;stroke:#482725;stroke-width:1.5;stroke-miterlimit:10;" cx="315.715" cy="199.318" rx="20.252" ry="19.777"/>
        <path style="fill:none;stroke:#482725;stroke-width:1.5;stroke-miterlimit:10;" d="M316.503,189.83c0,0-0.016,6.354,0.083,9.83 "/>
        <g>
          <path style="fill:none;stroke:#482725;stroke-width:1.75;stroke-miterlimit:10;" d="M307.105,184.426 c0,0,6.915,6.072,9.445,5.734c2.53-0.337,8.239-5.734,8.239-5.734"/>
        </g>
        <g>
          <path style="fill:none;stroke:#482725;stroke-width:1.5;stroke-miterlimit:10;" d="M306.357,196.78 c8.243,4.667,14.684,3.447,20.359-0.993"/>
          <path style="fill:none;stroke:#482725;stroke-miterlimit:10;" d="M324.872,198.101"/>
        </g>
      </g>
      <g>
        <path style="fill:#703F58;" d="M285.692,141.273c0,0-12.146-64.611-8.139-75.966c5.09-14.426,22.679-17.985,19.884-14.671 c-4.123,4.889-7.614,15.281-7.614,15.281l17.688,74.022C307.512,139.939,292.844,147.351,285.692,141.273z"/>
        <g>
          <path style="fill:#C2C2C2;" d="M282.569,123.357c0.087,0.53,0.173,1.051,0.259,1.566l20.751-1.445l-0.39-1.631 L282.569,123.357z"/>
          <path style="fill:#C2C2C2;" d="M276.811,76.386l15.26-1.063l-0.386-1.617l-14.92,1.093 C276.776,75.316,276.791,75.843,276.811,76.386z"/>
          <path style="fill:#C2C2C2;" d="M277.553,65.307c-0.129,0.365-0.241,0.788-0.337,1.259l12.688-0.883 c0.106-0.305,0.316-0.898,0.613-1.687l-12.819,0.939C277.651,65.06,277.598,65.18,277.553,65.307z"/>
          <path style="fill:#C2C2C2;" d="M284.21,133.034c0.095,0.545,0.187,1.066,0.275,1.565l21.395-1.49l-0.391-1.634L284.21,133.034 z"/>
          <path style="fill:#C2C2C2;" d="M279.615,103.98c0.073,0.523,0.146,1.046,0.219,1.568l19.141-1.333l-0.388-1.625 L279.615,103.98z"/>
          <path style="fill:#C2C2C2;" d="M281.031,113.673c0.08,0.525,0.161,1.048,0.241,1.567l20.005-1.393l-0.389-1.628 L281.031,113.673z"/>
          <path style="fill:#C2C2C2;" d="M284.866,54.946c-0.584,0.489-1.16,1.012-1.72,1.573l10.5,0.222 c0.273-0.546,0.555-1.091,0.846-1.626L284.866,54.946z"/>
          <path style="fill:#C2C2C2;" d="M277.346,84.553c0.046,0.52,0.093,1.046,0.143,1.576l16.884-1.176l-0.387-1.619L277.346,84.553 z"/>
          <path style="fill:#C2C2C2;" d="M278.361,94.276c0.062,0.522,0.125,1.046,0.19,1.571l18.124-1.262l-0.388-1.622L278.361,94.276 z"/>
        </g>
        <path style="fill:none;stroke:#482725;stroke-width:2;stroke-miterlimit:10;" d="M285.692,141.273 c0,0-12.146-64.611-8.139-75.966c5.09-14.426,22.679-17.985,19.884-14.671c-4.123,4.889-7.614,15.281-7.614,15.281 l17.688,74.022C307.512,139.939,292.844,147.351,285.692,141.273z"/>
      </g>
      <g>
        <path style="fill:#703F58;" d="M347.159,141.636c0,0,14.911-64.065,11.395-75.572c-4.466-14.619-21.887-18.884-19.237-15.46 c3.91,5.051,6.951,15.575,6.951,15.575l-20.853,73.244C325.415,139.423,339.751,147.421,347.159,141.636z"/>
        <g>
          <path style="fill:#C2C2C2;" d="M351.048,123.862c-0.11,0.526-0.218,1.043-0.326,1.554l-20.671-2.28l0.46-1.614 L351.048,123.862z"/>
          <path style="fill:#C2C2C2;" d="M358.819,77.163l-15.201-1.677l0.455-1.6l14.86,1.694 C358.9,76.096,358.863,76.622,358.819,77.163z"/>
          <path style="fill:#C2C2C2;" d="M358.554,66.064c0.113,0.37,0.206,0.797,0.283,1.272l-12.639-1.394 c-0.093-0.309-0.277-0.91-0.539-1.711l12.767,1.455C358.467,65.813,358.515,65.935,358.554,66.064z"/>
          <path style="fill:#C2C2C2;" d="M348.993,133.464c-0.119,0.541-0.232,1.057-0.342,1.553l-21.312-2.351l0.46-1.617 L348.993,133.464z"/>
          <path style="fill:#C2C2C2;" d="M354.832,104.621c-0.095,0.52-0.191,1.039-0.287,1.558l-19.067-2.104l0.458-1.608 L354.832,104.621z"/>
          <path style="fill:#C2C2C2;" d="M353.001,114.248c-0.103,0.522-0.206,1.04-0.308,1.556l-19.928-2.199l0.459-1.611 L353.001,114.248z"/>
          <path style="fill:#C2C2C2;" d="M351.692,55.417c0.563,0.513,1.115,1.058,1.651,1.641l-10.501-0.201 c-0.249-0.557-0.507-1.113-0.775-1.659L351.692,55.417z"/>
          <path style="fill:#C2C2C2;" d="M357.934,85.302c-0.068,0.518-0.138,1.041-0.21,1.569l-16.819-1.856l0.456-1.603 L357.934,85.302z"/>
          <path style="fill:#C2C2C2;" d="M356.502,94.975c-0.084,0.519-0.17,1.04-0.257,1.562l-18.054-1.992l0.457-1.605L356.502,94.975 z"/>
        </g>
        <path style="fill:none;stroke:#482725;stroke-width:2;stroke-miterlimit:10;" d="M347.159,141.636 c0,0,14.911-64.065,11.395-75.572c-4.466-14.619-21.887-18.884-19.237-15.46c3.91,5.051,6.951,15.575,6.951,15.575 l-20.853,73.244C325.415,139.423,339.751,147.421,347.159,141.636z"/>
      </g>
    </g>
  </g>
</svg>