<?xml version="1.0" encoding="utf-8"?>
<svg viewBox="242.1488 298.7667 210.9965 161.437" width="210.9965" height="161.437" xmlns="http://www.w3.org/2000/svg">
  <rect x="50.516" y="291.882" style="fill:#FF7777;" width="161.436" height="161.436" transform="matrix(1, 0, 0, 1, 215.8175811767578, 6.884695053100586)"/>
  <g transform="matrix(1, 0, 0, 1, 215.8175811767578, 6.884695053100586)">
    <g>
      <path style="fill:#C2C2C2;" d="M140.666,417.101c-32.744-1.423-48.527,7.707-48.645,36.217h81.186 C174.567,436.922,164.706,418.146,140.666,417.101z"/>
      <path style="fill:none;stroke:#482725;stroke-width:2;stroke-miterlimit:10;" d="M173.207,453.319 c1.36-16.397-8.501-35.172-32.541-36.217c-32.744-1.423-48.527,7.707-48.645,36.217"/>
    </g>
    <g>
      <g>
        <path style="fill:#C2C2C2;" d="M178.329,359.824c0,0,10.361-40.432,46.618-21.052c28.571,15.271-1.161,52.667-1.846,60.741 c-0.685,8.074,6.045,22.513-16.146,26.466c-22.303,3.973-26.164-16.442-26.164-16.442"/>
        <path style="fill:#FF7777;" d="M186.924,368.724c0,0,2.578-30.027,23.915-20.482c19.171,8.576,1.982,25.727-0.008,35.955 c-1.686,8.667,7.626,25.549-5.933,27.267c-19.972,2.531-25.032-15.796-25.032-15.796L186.924,368.724z"/>
        <path style="fill:none;stroke:#482725;stroke-width:1.5;stroke-miterlimit:10;" d="M186.924,368.724 c0,0,2.578-30.027,23.915-20.482c19.171,8.576,1.982,25.727-0.008,35.955c-1.686,8.667,7.626,25.549-5.933,27.267 c-19.972,2.531-25.032-15.796-25.032-15.796L186.924,368.724z"/>
        <path style="fill:none;stroke:#482725;stroke-width:2;stroke-miterlimit:10;" d="M178.003,359.499 c0,0,10.361-40.432,46.618-21.052c28.571,15.271-1.161,52.667-1.846,60.741c-0.685,8.074,6.045,22.513-16.146,26.466 c-22.303,3.973-26.164-16.443-26.164-16.443"/>
      </g>
      <g>
        <path style="fill:#C2C2C2;" d="M85.33,359.499c0,0-10.361-40.432-46.618-21.052c-28.571,15.271,1.161,52.667,1.846,60.741 c0.685,8.074-6.045,22.513,16.146,26.466c22.303,3.973,26.164-16.443,26.164-16.443"/>
        <path style="fill:#FF7777;" d="M76.409,368.724c0,0-2.578-30.027-23.915-20.482c-19.17,8.576-1.982,25.727,0.008,35.955 c1.686,8.667-7.626,25.549,5.933,27.267c19.972,2.531,25.032-15.796,25.032-15.796L76.409,368.724z"/>
        <path style="fill:none;stroke:#482725;stroke-width:1.5;stroke-miterlimit:10;" d="M76.409,368.724 c0,0-2.578-30.027-23.915-20.482c-19.17,8.576-1.982,25.727,0.008,35.955c1.686,8.667-7.626,25.549,5.933,27.267 c19.972,2.531,25.032-15.796,25.032-15.796L76.409,368.724z"/>
        <path style="fill:none;stroke:#482725;stroke-width:2;stroke-miterlimit:10;" d="M85.33,359.499 c0,0-10.361-40.432-46.618-21.052c-28.571,15.271,1.161,52.667,1.846,60.741c0.685,8.074-6.045,22.513,16.146,26.466 c22.303,3.973,26.164-16.443,26.164-16.443"/>
      </g>
      <g>
        <path style="fill:#C2C2C2;" d="M58.838,386.668c-0.886-52.159,26.66-68.771,84.998-66.235 c71.736,3.118,71.244,96.599,24.171,105.405C132.86,432.413,59.722,438.762,58.838,386.668z"/>
      </g>
      <ellipse transform="matrix(0.2286 -0.9735 0.9735 0.2286 -316.346 395.9207)" style="fill:#FF7777;" cx="91.647" cy="397.57" rx="12.128" ry="12.128"/>
      <ellipse transform="matrix(0.1608 -0.987 0.987 0.1608 -248.3401 500.3479)" style="fill:#FF7777;" cx="170.058" cy="396.209" rx="12.128" ry="12.128"/>
      <g>
        <path style="fill:none;stroke:#482725;stroke-width:2;stroke-miterlimit:10;" d="M58.838,386.668 c-0.886-52.159,26.66-68.771,84.998-66.235c71.736,3.118,71.244,96.599,24.171,105.405 C132.86,432.413,59.722,438.762,58.838,386.668z"/>
      </g>
      <g>
        <path style="fill:#F3F3F3;" d="M103.515,383.543L103.515,383.543c-7.431,0.195-13.638-4.946-13.862-11.481l-0.216-6.265 c-0.225-6.535,5.617-11.991,13.048-12.186l0,0c7.431-0.195,13.637,4.946,13.862,11.481l0.215,6.265 C116.789,377.892,110.947,383.348,103.515,383.543"/>
        <path style="fill:none;stroke:#482725;stroke-width:1.5;stroke-miterlimit:10;" d="M103.515,383.543L103.515,383.543 c-7.431,0.195-13.638-4.946-13.862-11.481l-0.216-6.265c-0.225-6.535,5.617-11.991,13.048-12.186l0,0 c7.431-0.195,13.637,4.946,13.862,11.481l0.215,6.265C116.789,377.892,110.947,383.348,103.515,383.543"/>
        <path style="fill:#482725;" d="M116.347,365.091c-0.121-3.536-2.003-6.655-4.874-8.75c-1.073-0.31-2.2-0.47-3.363-0.44 c-6.556,0.172-11.673,6.076-11.429,13.188c0.245,7.112,5.759,12.739,12.316,12.567c0.595-0.016,1.173-0.094,1.742-0.201 c3.635-2.203,5.969-5.928,5.826-10.1L116.347,365.091z"/>
      </g>
      <g>
        <path style="fill:#F3F3F3;" d="M158.141,381.641L158.141,381.641c7.603,0.392,14.139-4.71,14.597-11.397l0.44-6.41 c0.459-6.686-5.333-12.425-12.936-12.818l0,0c-7.603-0.392-14.138,4.71-14.597,11.397l-0.439,6.41 C144.746,375.511,150.538,381.249,158.141,381.641"/>
        <path style="fill:none;stroke:#482725;stroke-width:1.5;stroke-miterlimit:10;" d="M158.141,381.641L158.141,381.641 c7.603,0.392,14.139-4.71,14.597-11.397l0.44-6.41c0.459-6.686-5.333-12.425-12.936-12.818l0,0 c-7.603-0.392-14.138,4.71-14.597,11.397l-0.439,6.41C144.746,375.511,150.538,381.249,158.141,381.641"/>
        <path style="fill:#482725;" d="M145.646,362.413c0.247-3.618,2.284-6.763,5.297-8.834c1.11-0.289,2.27-0.424,3.46-0.363 c6.708,0.346,11.741,6.526,11.243,13.802c-0.5,7.277-6.343,12.895-13.051,12.549c-0.609-0.032-1.198-0.127-1.776-0.251 c-3.646-2.351-5.906-6.226-5.613-10.494L145.646,362.413z"/>
      </g>
      <g>
        <path style="fill:#F3F3F3;" d="M149.141,412.992c0,0,20.418,12.877,24.115,5.456c2.343-4.702-22.23-22.083-22.23-22.083 S152.558,413.099,149.141,412.992z"/>
        <path style="fill:none;stroke:#482725;stroke-width:2;stroke-linejoin:round;stroke-miterlimit:10;" d="M149.141,412.992 c0,0,20.418,12.877,24.115,5.456c2.343-4.702-22.23-22.083-22.23-22.083S152.558,413.099,149.141,412.992z"/>
      </g>
      <g>
        <path style="fill:#F3F3F3;" d="M115.276,412.594c0,0-20.535,12.691-24.163,5.236c-2.3-4.724,22.43-21.88,22.43-21.88 S111.858,412.671,115.276,412.594z"/>
        <path style="fill:none;stroke:#482725;stroke-width:2;stroke-linejoin:round;stroke-miterlimit:10;" d="M115.276,412.594 c0,0-20.535,12.691-24.163,5.236c-2.3-4.724,22.43-21.88,22.43-21.88S111.858,412.671,115.276,412.594z"/>
      </g>
      <g>
        <path style="fill:#C2C2C2;" d="M112.867,384.081c0,0-4.928,28.781-1.792,44.014c0,0-12.543-2.419-15.679,1.793 c-3.136,4.212,1.79,8.946,1.79,8.946s-5.455,2.837-0.974,8.733c4.48,5.896,34.128,9.525,48.465-6.48 c14.337-16.005,7.616-58.691,7.616-58.691"/>
        <path style="fill:none;stroke:#482725;stroke-width:2;stroke-miterlimit:10;" d="M112.867,384.081 c0,0-4.928,28.781-1.792,44.014c0,0-12.543-2.419-15.679,1.793c-3.136,4.212,1.79,8.946,1.79,8.946s-5.455,2.837-0.974,8.733 c4.48,5.896,34.128,9.525,48.465-6.48c14.337-16.005,7.616-58.691,7.616-58.691"/>
        <path style="fill:none;stroke:#482725;stroke-width:1.5;stroke-miterlimit:10;" d="M120.185,376.42 c0,0,12.899-3.775,21.079-0.629"/>
        <path style="fill:none;stroke:#482725;stroke-width:1.5;stroke-miterlimit:10;" d="M124.905,391.522 c0,0,7.865-2.832,13.528-0.315"/>
        <path style="fill:#703F58;" d="M98.064,432.342c0,0,13.4,9.969,5.393,12.583c-8.007,2.615-2.288-7.19-2.288-7.19 L98.064,432.342z"/>
        <path style="fill:none;stroke:#482725;stroke-width:1.5;stroke-linejoin:round;stroke-miterlimit:10;" d="M98.064,432.342 c0,0,13.4,9.969,5.393,12.583c-8.007,2.615-2.288-7.19-2.288-7.19L98.064,432.342z"/>
      </g>
    </g>
    <g>
      <path style="fill:#703F58;" d="M105.452,312.667c1.78-2.492,7.477,1.78,10.86,1.958c0,0-3.146-18.427,13.352-20.829 c18.337-2.67,17.091,18.159,17.091,20.829c0,0,4.629-2.492,7.655-3.739c6.454-2.658,11.572,16.023-22.966,17.447 C101.987,329.548,103.672,315.159,105.452,312.667z"/>
      <path style="fill:#FF7777;" d="M131.623,318.364c6.77-0.624,11.801-2.54,15.14-4.299c0.019-1.133,0.047-3.309-0.261-5.845 c-5.01,3.1-14.631,6.11-30.276,0.103c-0.382,3.53,0.087,6.302,0.087,6.302c-0.149-0.008-0.308-0.033-0.465-0.056 C120.003,316.926,125.48,318.93,131.623,318.364z"/>
      <path style="fill:none;stroke:#482725;stroke-width:1.5;stroke-miterlimit:10;" d="M131.623,318.364 c6.77-0.624,11.801-2.54,15.14-4.299c0.019-1.133,0.047-3.309-0.261-5.845c-5.01,3.1-14.631,6.11-30.276,0.103 c-0.382,3.53,0.087,6.302,0.087,6.302c-0.149-0.008-0.308-0.033-0.465-0.056C120.003,316.926,125.48,318.93,131.623,318.364z"/>
      <path style="fill:none;stroke:#482725;stroke-width:2;stroke-miterlimit:10;" d="M105.452,312.667 c1.78-2.492,7.477,1.78,10.86,1.958c0,0-3.146-18.427,13.352-20.829c18.337-2.67,17.091,18.159,17.091,20.829 c0,0,4.629-2.492,7.655-3.739c6.454-2.658,11.572,16.023-22.966,17.447C101.987,329.548,103.672,315.159,105.452,312.667z"/>
    </g>
  </g>
</svg>