<?xml version="1.0" encoding="utf-8"?>
<svg viewBox="447.6676 280.6001 161.436 179.6396" width="161.436" height="179.6396" xmlns="http://www.w3.org/2000/svg">
  <rect x="231.85" y="291.919" style="fill:#BD908C;" width="161.436" height="161.436" transform="matrix(1, 0, 0, 1, 215.8175811767578, 6.884695053100586)"/>
  <g transform="matrix(1, 0, 0, 1, 215.8175811767578, 6.884695053100586)">
    <path style="fill:#FFC955;" d="M318.038,378.119c-16.904-2.957-25.051,16.011-25.113,75.236h41.911 C335.539,419.294,330.449,380.289,318.038,378.119z"/>
    <path style="fill:#FF9144;" d="M297.929,396.388c-2.996,10.827-4.631,26.859-4.946,49.301 c41.597-2.926,35.311-34.835,35.311-34.835L297.929,396.388z"/>
    <path style="fill:#FF9144;" d="M334.837,453.355c0.131-6.343,0.06-12.858-0.221-19.275l-0.203-0.265 c0,0-13.524,6.099-16.867,19.539H334.837z"/>
    <path style="fill:none;stroke:#482725;stroke-width:2;stroke-miterlimit:10;" d="M334.837,453.355 c0.702-34.061-4.388-73.065-16.799-75.236c-16.904-2.957-25.051,16.011-25.113,75.236"/>
  </g>
  <g transform="matrix(1, 0, 0, 1, 215.8175811767578, 6.884695053100586)">
    <g>
      <path style="fill:#FF9144;" d="M244.707,375.568c-0.831-48.924,25.006-64.506,79.727-62.128 c67.287,2.925,66.825,90.608,22.672,98.868C314.139,418.476,245.537,424.431,244.707,375.568z"/>
    </g>
    <g>
      <path style="fill:#FF9144;" d="M292.194,319.036c0,0,5.884-18.754,4.362-30.016c0,0-10.117-5.152-4.87-12.225 c3.329-4.488,14.259-3.797,17.654,0.304c5.074,6.129-4.87,11.871-4.87,11.871s1.222,21.915,5.788,28.307"/>
      <line style="fill:none;stroke:#482725;stroke-miterlimit:10;" x1="298.506" y1="289.063" x2="298.506" y2="291.465"/>
      <line style="fill:none;stroke:#482725;stroke-miterlimit:10;" x1="302.075" y1="289.132" x2="301.869" y2="291.259"/>
      <path style="fill:none;stroke:#482725;stroke-width:2;stroke-miterlimit:10;" d="M292.194,319.036 c0,0,5.884-18.754,4.362-30.016c0,0-10.117-5.152-4.87-12.225c3.329-4.488,14.259-3.797,17.654,0.304 c5.074,6.129-4.87,11.871-4.87,11.871s1.222,21.915,5.788,28.307"/>
    </g>
    <g>
      <path style="fill:#FF9144;" d="M338.089,319.036c0,0-5.884-18.754-4.362-30.016c0,0,10.117-5.152,4.87-12.225 c-3.329-4.488-14.259-3.797-17.654,0.304c-5.074,6.129,4.87,11.871,4.87,11.871s-1.222,21.915-5.788,28.307"/>
      <line style="fill:none;stroke:#482725;stroke-miterlimit:10;" x1="328.672" y1="288.066" x2="328.458" y2="290.205"/>
      <path style="fill:none;stroke:#482725;stroke-width:2;stroke-miterlimit:10;" d="M338.089,319.036 c0,0-5.884-18.754-4.362-30.016c0,0,10.117-5.152,4.87-12.225c-3.329-4.488-14.259-3.797-17.654,0.304 c-5.074,6.129,4.87,11.871,4.87,11.871s-1.222,21.915-5.788,28.307"/>
    </g>
    <g>
      <path style="fill:#FFC955;" d="M342.149,323.905c0,0,4.407-17.737,11.775-23.786s25.703-7.959,27.574-2.053 c1.871,5.906-7.517,34.878-32.189,33.783"/>
      <path style="fill:#FF9144;" d="M348.813,324.083c0,0,14.975-23.816,24.68-19.934 C380.613,306.997,361.153,332.152,348.813,324.083z"/>
      <path style="fill:none;stroke:#482725;stroke-width:1.5;stroke-miterlimit:10;" d="M348.813,324.083 c0,0,14.975-23.816,24.68-19.934C380.613,306.997,361.153,332.152,348.813,324.083z"/>
      <path style="fill:none;stroke:#482725;stroke-width:2;stroke-miterlimit:10;" d="M342.149,323.905 c0,0,4.407-17.737,11.775-23.786s25.703-7.959,27.574-2.053c1.871,5.906-7.517,34.878-32.189,33.783"/>
    </g>
    <path style="fill:#FFC955;" d="M285.684,324.609c0,0-4.407-17.737-11.774-23.786c-7.368-6.048-25.703-7.959-27.574-2.053 c-1.872,5.906,7.517,34.878,32.189,33.783"/>
    <path style="fill:#FF9144;" d="M279.02,324.787c0,0-14.975-23.816-24.68-19.934C247.22,307.701,266.68,332.856,279.02,324.787z"/>
    <path style="fill:none;stroke:#482725;stroke-width:1.5;stroke-miterlimit:10;" d="M279.02,324.787 c0,0-14.975-23.816-24.68-19.934C247.22,307.701,266.68,332.856,279.02,324.787z"/>
    <path style="fill:none;stroke:#482725;stroke-width:2;stroke-miterlimit:10;" d="M285.684,324.609 c0,0-4.407-17.737-11.774-23.786c-7.368-6.048-25.703-7.959-27.574-2.053c-1.872,5.906,7.517,34.878,32.189,33.783"/>
    <g>
      <path style="fill:#FFD98A;" d="M244.707,375.568c-0.831-48.924,25.006-64.506,79.727-62.128 c67.287,2.925,66.825,90.608,22.672,98.868C314.139,418.476,245.537,424.431,244.707,375.568z"/>
    </g>
    <g>
      <path style="fill:none;stroke:#482725;stroke-width:1.5;stroke-miterlimit:10;" d="M357.313,356.028 c0,0-4.77,2.462-7.386,0.769"/>
      <path style="fill:#F3F3F3;" d="M337.42,377.196L337.42,377.196c6.971,0.183,12.792-4.639,13.003-10.769l0.202-5.876 c0.211-6.13-5.269-11.247-12.239-11.43l0,0c-6.97-0.183-12.792,4.639-13.003,10.769l-0.202,5.877 C324.97,371.896,330.45,377.013,337.42,377.196"/>
      <path style="fill:none;stroke:#482725;stroke-width:1.5;stroke-miterlimit:10;" d="M357.09,358.81c0,0-4.816,1.817-6.451-0.636 "/>
      <path style="fill:none;stroke:#482725;stroke-width:1.5;stroke-miterlimit:10;" d="M337.42,377.196L337.42,377.196 c6.971,0.183,12.792-4.639,13.003-10.769l0.202-5.876c0.211-6.13-5.269-11.247-12.239-11.43l0,0 c-6.97-0.183-12.792,4.639-13.003,10.769l-0.202,5.877C324.97,371.896,330.45,377.013,337.42,377.196"/>
      <path style="fill:#482725;" d="M325.385,359.889c0.113-3.317,1.879-6.242,4.572-8.208c1.007-0.291,2.064-0.441,3.155-0.412 c6.15,0.161,10.949,5.7,10.72,12.371c-0.23,6.671-5.402,11.949-11.552,11.788c-0.558-0.015-1.1-0.088-1.633-0.188 c-3.41-2.067-5.599-5.561-5.464-9.474L325.385,359.889z"/>
      <path style="fill:#FFC955;" d="M350.634,356.531c0,0-2.609-8.857-13.48-8.057c-10.536,0.775-11.156,7.902-11.156,7.902 S330.181,360.25,350.634,356.531z"/>
      <path style="fill:none;stroke:#482725;stroke-width:1.5;stroke-linejoin:round;stroke-miterlimit:10;" d="M350.634,356.531 c0,0-2.609-8.857-13.48-8.057c-10.536,0.775-11.156,7.902-11.156,7.902S330.181,360.25,350.634,356.531z"/>
      <path style="fill:none;stroke:#482725;stroke-width:1.5;stroke-miterlimit:10;" d="M356.277,353.917 c0,0-16.941,8.351-30.255,1.943"/>
    </g>
    <path style="fill:#FFC955;" d="M324.434,313.441c-13.68-0.595-25.555-0.067-35.659,1.824 c7.277,12.028,15.589,32.668,15.589,64.207l16.361,2.337c0,0-3.295-41.232,11.583-67.586 C329.791,313.833,327.174,313.56,324.434,313.441z"/>
    <circle style="fill:#FF7777;" cx="276.869" cy="391.718" r="11.376"/>
    <circle style="fill:#FF7777;" cx="348.949" cy="389.977" r="11.376"/>
    <g>
      <path style="fill:none;stroke:#482725;stroke-width:2;stroke-miterlimit:10;" d="M244.707,375.568 c-0.831-48.924,25.006-64.506,79.727-62.128c67.287,2.925,66.825,90.608,22.672,98.868 C314.139,418.476,245.537,424.431,244.707,375.568z"/>
    </g>
    <g>
      <path style="fill:none;stroke:#482725;stroke-width:1.5;stroke-miterlimit:10;" d="M266.721,358.12c0,0,4.77,2.462,7.386,0.769 "/>
      <path style="fill:#F3F3F3;" d="M286.614,379.288L286.614,379.288c-6.971,0.183-12.792-4.639-13.003-10.769l-0.202-5.876 c-0.211-6.13,5.269-11.247,12.239-11.43l0,0c6.97-0.183,12.792,4.639,13.003,10.769l0.202,5.877 C299.064,373.988,293.584,379.105,286.614,379.288"/>
      <path style="fill:none;stroke:#482725;stroke-width:1.5;stroke-miterlimit:10;" d="M266.945,360.902 c0,0,4.816,1.817,6.451-0.636"/>
      <path style="fill:none;stroke:#482725;stroke-width:1.5;stroke-miterlimit:10;" d="M286.614,379.288L286.614,379.288 c-6.971,0.183-12.792-4.639-13.003-10.769l-0.202-5.876c-0.211-6.13,5.269-11.247,12.239-11.43l0,0 c6.97-0.183,12.792,4.639,13.003,10.769l0.202,5.877C299.064,373.988,293.584,379.105,286.614,379.288"/>
      <path style="fill:#482725;" d="M298.649,361.981c-0.113-3.317-1.879-6.242-4.572-8.208c-1.007-0.291-2.064-0.441-3.155-0.412 c-6.15,0.161-10.949,5.7-10.72,12.37c0.23,6.671,5.402,11.949,11.552,11.788c0.558-0.015,1.1-0.088,1.633-0.188 c3.41-2.067,5.599-5.561,5.464-9.473L298.649,361.981z"/>
      <path style="fill:#FFC955;" d="M273.401,358.623c0,0,2.609-8.857,13.48-8.057c10.536,0.775,11.156,7.902,11.156,7.902 S293.854,362.341,273.401,358.623z"/>
      <path style="fill:none;stroke:#482725;stroke-width:1.5;stroke-linejoin:round;stroke-miterlimit:10;" d="M273.401,358.623 c0,0,2.609-8.857,13.48-8.057c10.536,0.775,11.156,7.902,11.156,7.902S293.854,362.341,273.401,358.623z"/>
      <path style="fill:none;stroke:#482725;stroke-width:1.5;stroke-miterlimit:10;" d="M267.758,356.009 c0,0,16.941,8.351,30.255,1.943"/>
    </g>
    <g>
      <ellipse transform="matrix(0.983 -0.1834 0.1834 0.983 -67.8125 64.1239)" style="fill:#FF9144;" cx="312.768" cy="398.678" rx="22.869" ry="23.129"/>
      <path style="fill:none;stroke:#482725;stroke-width:1.5;stroke-miterlimit:10;" d="M302.434,398.737 c8.369,6.822,14.89,5.071,20.621-1.368"/>
      <path style="fill:none;stroke:#482725;stroke-width:1.5;stroke-miterlimit:10;" d="M320.95,396.313c0,0,3.533,0.566,3.68,3.257 "/>
      <path style="fill:none;stroke:#482725;stroke-width:1.5;stroke-miterlimit:10;" d="M301.225,401.268 c0,0,0.294-3.965,3.975-3.965"/>
      <path style="fill:#482725;" d="M304.032,382.45c3.316-2.684,9.544,4.087,6.107,6.574 C306.701,391.511,300.715,385.134,304.032,382.45z"/>
      <path style="fill:#482725;" d="M321.943,382.112c-3.316-2.684-9.544,4.087-6.107,6.574S325.259,384.796,321.943,382.112z"/>
      <path style="fill:none;stroke:#482725;stroke-miterlimit:10;" d="M301.362,383.754c0,0,6.159-4.671,9.094,1.395 c1.725,3.565,0.862,7.895,0.862,7.895"/>
      <path style="fill:none;stroke:#482725;stroke-miterlimit:10;" d="M324.442,383.754c0,0-6.159-4.671-9.094,1.395 c-1.725,3.565-0.862,8.145-0.862,8.145"/>
      <ellipse transform="matrix(0.983 -0.1834 0.1834 0.983 -67.8125 64.1239)" style="fill:none;stroke:#482725;stroke-width:1.5;stroke-miterlimit:10;" cx="312.768" cy="398.678" rx="22.869" ry="23.129"/>
    </g>
    <g>
      <path style="fill:none;stroke:#482725;stroke-miterlimit:10;" d="M302.872,386.733"/>
    </g>
  </g>
</svg>