<?xml version="1.0" encoding="utf-8"?>
<svg viewBox="616.4516 53.4837 187.4931 214.915" width="187.4931" height="214.915" xmlns="http://www.w3.org/2000/svg">
  <rect x="414.028" y="100.077" style="fill:#BD908C;" width="161.436" height="161.436" transform="matrix(1, 0, 0, 1, 215.8175811767578, 6.884695053100586)"/>
  <g transform="matrix(1, 0, 0, 1, 215.8175811767578, 6.884695053100586)">
    <g>
      <path style="fill:#FFC955;" d="M504.184,225.296c-32.744-1.423-48.527,7.707-48.645,36.217h81.186 C538.084,245.117,528.224,226.341,504.184,225.296z"/>
      <path style="fill:#FFD98A;" d="M516.826,261.514c-2.027-9.294-10.252-16.251-20.096-16.251c-9.844,0-18.069,6.958-20.096,16.251 H516.826z"/>
      <path style="fill:none;stroke:#482725;stroke-width:2;stroke-miterlimit:10;" d="M536.725,261.514 c1.36-16.396-8.501-35.172-32.541-36.217c-32.744-1.423-48.527,7.707-48.645,36.217"/>
    </g>
    <g>
      <g>
        <path style="fill:#DD6C26;" d="M434.115,107.806c49.388-32.185,126.522-9.988,142.615,13.873 c16.093,23.862,20.532,108.21-23.307,124.857c-43.839,16.648-117.643,12.208-133.181-2.22 C404.705,229.889,384.727,139.992,434.115,107.806z"/>
        <g>
          <path style="fill:#FF9144;" d="M447.245,156.672c-1.244,0-16.8-14.962-31.702-29.694 c-10.955,17.683-13.809,40.501-12.446,61.443c17.65-2.291,36.9-5.131,41.768-7.16 C444.865,181.261,449.624,156.672,447.245,156.672z"/>
          <path style="fill:#FF9144;" d="M522.598,228.059c-2.38-0.793-16.657,4.759-16.657,4.759l8.107,22.699 c11.28-1.325,22.259-3.458,32.12-6.5C535.215,238.863,523.805,228.462,522.598,228.059z"/>
          <path style="fill:#FF9144;" d="M536.875,163.811c0,0,22.673-17.51,47.251-23.893c-1.935-7.562-4.471-13.902-7.396-18.239 c-1.425-2.113-3.337-4.212-5.658-6.262l-39.749,38.876L536.875,163.811z"/>
          <path style="fill:#FF9144;" d="M420.242,244.317c4.421,4.105,13.564,7.401,25.388,9.633 c9.363-15.153,19.79-32.397,20.651-35.409l-18.243-14.277c0,0-17.83,13.668-36.937,23.728 C413.944,235.684,417.179,241.472,420.242,244.317z"/>
          <path style="fill:#FF9144;" d="M545.6,201.091c0,0,15.907,13.183,32.797,21.114c4.401-8.911,7.147-19.291,8.557-30.018 l-38.974-6.96L545.6,201.091z"/>
          <path style="fill:#FF9144;" d="M485.318,142.395l26.968-3.966l6.781-44.503c-14.721-2.533-30.69-3.063-46.183-0.562 C476.014,112.63,480.547,135.456,485.318,142.395z"/>
          <path style="fill:none;stroke:#482725;stroke-width:1.5;stroke-miterlimit:10;" d="M472.884,93.364 c0,0,4.281,30.436,7.753,35.451"/>
          <path style="fill:none;stroke:#482725;stroke-width:1.5;stroke-miterlimit:10;" d="M489.509,110.685 c0,0,1.157,14.273,2.7,17.359"/>
          <path style="fill:none;stroke:#482725;stroke-width:1.5;stroke-miterlimit:10;" d="M528.084,106.442 c0,0,0,20.445-5.015,23.531"/>
          <path style="fill:none;stroke:#482725;stroke-width:1.5;stroke-miterlimit:10;" d="M579.388,145.016 c0,0-10.415,13.115-20.83,16.587"/>
          <path style="fill:none;stroke:#482725;stroke-width:1.5;stroke-miterlimit:10;" d="M411.974,138.073 c0,0,10.801,15.43,18.902,16.202"/>
          <path style="fill:none;stroke:#482725;stroke-width:1.5;stroke-miterlimit:10;" d="M413.902,151.574 c0,0,11.187,8.101,15.43,7.329"/>
          <path style="fill:none;stroke:#482725;stroke-width:1.5;stroke-miterlimit:10;" d="M448.234,250.326 c0,0,6.172-11.573,9.258-15.43"/>
          <path style="fill:none;stroke:#482725;stroke-width:1.5;stroke-miterlimit:10;" d="M443.219,240.296 c0,0,3.857-6.943,5.4-8.486"/>
          <line style="fill:none;stroke:#482725;stroke-width:1.5;stroke-miterlimit:10;" x1="531.524" y1="234.033" x2="546.167" y2="249.017"/>
          <path style="fill:none;stroke:#482725;stroke-width:1.5;stroke-miterlimit:10;" d="M522.298,236.053 c0,0,0.386,3.857,4.243,6.558"/>
          <path style="fill:none;stroke:#482725;stroke-width:1.5;stroke-miterlimit:10;" d="M564.344,187.835 c0,0,15.43,5.015,19.673,3.472"/>
          <path style="fill:none;stroke:#482725;stroke-width:1.5;stroke-miterlimit:10;" d="M564.344,193.235 c0,0,3.857,5.015,10.415,4.629"/>
          <path style="fill:none;stroke:#482725;stroke-width:1.5;stroke-miterlimit:10;" d="M408.502,186.677 c0,0,12.73,1.157,14.658-1.543"/>
          <path style="fill:none;stroke:#482725;stroke-width:1.5;stroke-miterlimit:10;" d="M413.902,192.464 c0,0,8.487,1.157,8.872-2.7"/>
        </g>
        <path style="fill:none;stroke:#482725;stroke-width:1.5;stroke-miterlimit:10;" d="M479.927,99.95 c0,0-0.991-10.572-0.33-14.207"/>
        <path style="fill:none;stroke:#482725;stroke-width:1.5;stroke-miterlimit:10;" d="M571.444,131.998 c0,0,7.929-4.956,9.911-7.929"/>
        <path style="fill:none;stroke:#482725;stroke-width:1.5;stroke-miterlimit:10;" d="M428.387,236.069 c0,0-7.268,6.277-7.929,11.233"/>
        <path style="fill:none;stroke:#482725;stroke-width:1.5;stroke-miterlimit:10;" d="M554.594,233.096 c0,0,7.929,5.617,8.92,10.242"/>
        <path style="fill:none;stroke:#482725;stroke-width:1.5;stroke-miterlimit:10;" d="M426.075,122.416 c0,0-3.304-2.643-3.634-7.268"/>
        <path style="fill:none;stroke:#482725;stroke-width:1.5;stroke-miterlimit:10;" d="M414.841,208.647 c0,0-11.563,2.313-14.207,1.322"/>
        <path style="fill:none;stroke:#482725;stroke-width:2;stroke-miterlimit:10;" d="M434.115,107.806 c49.388-32.185,126.522-9.988,142.615,13.873c16.093,23.862,20.532,108.21-23.307,124.857 c-43.839,16.648-117.643,12.208-133.181-2.22C404.705,229.889,384.727,139.992,434.115,107.806z"/>
        <g>
          <path style="fill:#FFC955;" d="M534.037,142.645c0,0-2.405-17.863,12.71-18.55c15.115-0.687,27.482,21.985,0,27.481 L534.037,142.645z"/>
          <path style="fill:none;stroke:#482725;stroke-width:2;stroke-miterlimit:10;" d="M534.037,142.645 c0,0-2.405-17.863,12.71-18.55c15.115-0.687,27.482,21.985,0,27.481"/>
          <path style="fill:#FF9144;" d="M537.674,144.173c0,0-1.991-13.439,9.208-12.692s9.208,15.181-2.738,18.167L537.674,144.173z"/>
          <path style="fill:none;stroke:#482725;stroke-width:1.5;stroke-miterlimit:10;" d="M537.674,144.173 c0,0-1.991-13.439,9.208-12.692s9.208,15.181-2.738,18.167L537.674,144.173z"/>
          <path style="fill:#FFC955;" d="M455.874,140.658c0,0,2.405-17.863-12.71-18.55c-15.115-0.687-27.482,21.985,0,27.481 L455.874,140.658z"/>
          <path style="fill:none;stroke:#482725;stroke-width:2;stroke-miterlimit:10;" d="M455.874,140.658 c0,0,2.405-17.863-12.71-18.55c-15.115-0.687-27.482,21.985,0,27.481"/>
          <path style="fill:#FF9144;" d="M450.481,142.624c0,0,1.991-13.439-9.208-12.692c-11.199,0.747-9.208,15.181,2.738,18.167 L450.481,142.624z"/>
          <path style="fill:none;stroke:#482725;stroke-width:1.5;stroke-miterlimit:10;" d="M450.481,142.624 c0,0,1.991-13.439-9.208-12.692c-11.199,0.747-9.208,15.181,2.738,18.167L450.481,142.624z"/>
          <g>
            <path style="fill:#FF9144;" d="M422.355,194.863c-0.886-52.159,26.66-68.771,84.998-66.235 c71.736,3.118,71.244,96.599,24.171,105.405C496.378,240.608,423.24,246.957,422.355,194.863z"/>
          </g>
          <g>
            <path style="fill:#FFC955;" d="M422.355,194.863c-0.886-52.159,26.66-68.771,84.998-66.235 c71.736,3.118,71.244,96.599,24.171,105.405C496.378,240.608,423.24,246.957,422.355,194.863z"/>
          </g>
          <g>
            <path style="fill:#FF9144;" d="M516.152,145.155c2.619-1.12,12.154,0.121,13.455,2.928c1.301,2.807-0.557,8.049-2.283,8.57 s-11.011-1.477-13.611-3.187C511.113,151.757,513.533,146.275,516.152,145.155z"/>
            <path style="fill:none;stroke:#482725;stroke-width:1.3;stroke-miterlimit:10;" d="M516.236,154.009 c0,0,5.17-7.211,8.707-8.299"/>
            <path style="fill:none;stroke:#482725;stroke-width:1.3;stroke-miterlimit:10;" d="M522.369,156.363 c0,0,5.432-3.442,7.608-4.258"/>
            <path style="fill:none;stroke:#482725;stroke-width:1.5;stroke-miterlimit:10;" d="M516.152,145.155 c2.619-1.12,12.154,0.121,13.455,2.928c1.301,2.807-0.557,8.049-2.283,8.57s-11.011-1.477-13.611-3.187 C511.113,151.757,513.533,146.275,516.152,145.155z"/>
          </g>
          <g>
            <path style="fill:#FF9144;" d="M467.496,147.083c-2.897-0.636-12.892,2.454-13.984,5.558 c-1.092,3.104,1.422,8.078,3.308,8.276c1.886,0.198,11.539-3.614,14.124-5.851S470.392,147.719,467.496,147.083z"/>
            <path style="fill:none;stroke:#482725;stroke-width:1.3;stroke-miterlimit:10;" d="M461.407,148.159 c0,0,7.778,4.02,9.535,6.908"/>
            <path style="fill:none;stroke:#482725;stroke-width:1.3;stroke-miterlimit:10;" d="M453.108,156.186 c0,0,5.442,1.497,6.53,3.81"/>
            <path style="fill:none;stroke:#482725;stroke-width:1.5;stroke-miterlimit:10;" d="M467.496,147.083 c-2.897-0.636-12.892,2.454-13.984,5.558c-1.092,3.104,1.422,8.078,3.308,8.276c1.886,0.198,11.539-3.614,14.124-5.851 S470.392,147.719,467.496,147.083z"/>
          </g>
          <ellipse transform="matrix(0.1608 -0.987 0.987 0.1608 173.8999 628.6826)" style="fill:#FF7777;" cx="456.644" cy="212.08" rx="12.128" ry="12.128"/>
          <ellipse transform="matrix(0.7071 -0.7071 0.7071 0.7071 8.0405 439.3961)" style="fill:#FF7777;" cx="534.418" cy="209.992" rx="12.128" ry="12.128"/>
          <g>
            <path style="fill:none;stroke:#482725;stroke-width:2;stroke-miterlimit:10;" d="M422.355,194.863 c-0.886-52.159,26.66-68.771,84.998-66.235c71.736,3.118,71.244,96.599,24.171,105.405 C496.378,240.608,423.24,246.957,422.355,194.863z"/>
          </g>
          <g>
            <path style="fill:#F3F3F3;" d="M467.033,198.828L467.033,198.828c-7.431,0.195-13.638-4.946-13.862-11.481l-0.216-6.265 c-0.225-6.535,5.617-11.991,13.048-12.186l0,0c7.431-0.195,13.637,4.946,13.863,11.481l0.215,6.265 C480.306,193.178,474.465,198.634,467.033,198.828"/>
            <path style="fill:none;stroke:#482725;stroke-width:1.5;stroke-miterlimit:10;" d="M467.033,198.828L467.033,198.828 c-7.431,0.195-13.638-4.946-13.862-11.481l-0.216-6.265c-0.225-6.535,5.617-11.991,13.048-12.186l0,0 c7.431-0.195,13.637,4.946,13.863,11.481l0.215,6.265C480.306,193.178,474.465,198.634,467.033,198.828"/>
            <path style="fill:#482725;" d="M479.865,180.377c-0.121-3.536-2.003-6.655-4.874-8.75c-1.073-0.31-2.2-0.47-3.363-0.44 c-6.556,0.172-11.673,6.077-11.429,13.188c0.245,7.112,5.759,12.739,12.316,12.567c0.595-0.016,1.173-0.094,1.741-0.201 c3.635-2.203,5.969-5.928,5.826-10.1L479.865,180.377z"/>
          </g>
          <g>
            <path style="fill:#F3F3F3;" d="M521.659,196.927L521.659,196.927c7.603,0.393,14.139-4.71,14.597-11.397l0.44-6.41 c0.459-6.686-5.333-12.425-12.936-12.818l0,0c-7.603-0.393-14.138,4.71-14.597,11.397l-0.439,6.41 C508.264,190.796,514.055,196.535,521.659,196.927"/>
            <path style="fill:none;stroke:#482725;stroke-width:1.5;stroke-miterlimit:10;" d="M521.659,196.927L521.659,196.927 c7.603,0.393,14.139-4.71,14.597-11.397l0.44-6.41c0.459-6.686-5.333-12.425-12.936-12.818l0,0 c-7.603-0.393-14.138,4.71-14.597,11.397l-0.439,6.41C508.264,190.796,514.055,196.535,521.659,196.927"/>
            <path style="fill:#482725;" d="M509.164,177.699c0.247-3.618,2.284-6.763,5.297-8.834c1.11-0.289,2.27-0.424,3.46-0.363 c6.708,0.346,11.741,6.526,11.243,13.802c-0.5,7.277-6.342,12.895-13.051,12.549c-0.609-0.032-1.198-0.126-1.776-0.251 c-3.646-2.351-5.906-6.226-5.613-10.494L509.164,177.699z"/>
          </g>
          <ellipse transform="matrix(0.9992 -0.0411 0.0411 0.9992 -7.9559 20.5131)" style="fill:#FFD98A;" cx="494.802" cy="203.706" rx="20.341" ry="19.575"/>
          <ellipse transform="matrix(0.9992 -0.0411 0.0411 0.9992 -7.9559 20.5131)" style="fill:none;stroke:#482725;stroke-width:1.5;stroke-miterlimit:10;" cx="494.802" cy="203.706" rx="20.341" ry="19.575"/>
          <g>
            <path style="fill:#482725;" d="M504.867,185.849c-1.63-4.969-19.781-4.748-20.086,1.087 c-0.305,5.835,5.093,9.282,10.843,9.36C500.69,196.364,506.498,190.818,504.867,185.849z"/>
            <path style="fill:none;stroke:#FFFFFF;stroke-miterlimit:10;" d="M497.303,185.006c-1.689-0.142-3.824-0.102-6.006,0.51"/>
            <path style="fill:none;stroke:#FFFFFF;stroke-miterlimit:10;" d="M500.76,185.622c0,0-0.737-0.234-1.932-0.428"/>
          </g>
          <path style="fill:none;stroke:#482725;stroke-width:1.5;stroke-miterlimit:10;" d="M495.585,194.438 c0,0-0.449,9.196,0.004,13.289"/>
          <g>
            <g>
              <path style="fill:#482725;" d="M484.249,198.446c4.85-3.416,7.315,4.879,10.759,3.705c3.444-1.173,4.747-6.772,10.053-4.737 c5.306,2.036,3.991,18.085-10.02,17.839C481.029,215.008,479.399,201.862,484.249,198.446z"/>
              <path style="fill:#FF7777;" d="M489.735,214.402c1.525,0.506,3.282,0.817,5.306,0.852c5.846,0.103,9.475-2.634,11.342-6.003 C494.507,205.546,490.768,209.979,489.735,214.402z"/>
              <path style="fill:none;stroke:#482725;stroke-width:2;stroke-miterlimit:10;" d="M484.249,198.446 c4.85-3.416,7.315,4.879,10.759,3.705c3.444-1.173,4.747-6.772,10.053-4.737c5.306,2.036,3.991,18.085-10.02,17.839 C481.029,215.008,479.399,201.862,484.249,198.446z"/>
            </g>
            <path style="fill:#F3F3F3;" d="M505.289,197.525c-0.076-0.036-0.149-0.08-0.228-0.11c-5.306-2.036-6.609,3.563-10.053,4.737 c-3.385,1.153-5.825-6.83-10.512-3.863c0.376,1.577,1.08,3.468,2.37,5.005c0.166,1.879,0.579,4.602,1.597,4.849 c0.893,0.217,1.482-1.204,1.824-2.465c1.606,0.558,3.621,0.69,6.162,0.119c1.307-0.294,2.434-0.722,3.413-1.248 c0.621,1.569,1.552,3.214,2.574,2.554c1.245-0.804,1.221-3.896,1.082-5.768C504.357,200.143,504.921,198.835,505.289,197.525 z"/>
          </g>
          <g>
            <path style="fill:none;stroke:#482725;stroke-miterlimit:10;" d="M484.366,206.767"/>
          </g>
        </g>
      </g>
      <g>
        <path style="fill:#FFC955;" d="M427.981,105.85c0,0-14.378-25.282-13.689-25.69c0.689-0.407,11.685,1.654,11.221,1.575 c-0.463-0.079-1.229-13.796-0.054-13.977c1.175-0.182,11.078,7.462,11.078,7.462s-4.379-28.609-3.328-28.621 c1.051-0.012,17.63,23.855,17.63,23.855s2.682-11.844,4.219-11.63c1.537,0.214,7.816,12.628,7.816,12.628 s5.055-12.06,6.558-11.089c1.503,0.971,4.986,26.013,4.986,26.013S443.107,87.523,427.981,105.85z"/>
        <path style="fill:#FFD98A;" d="M427.981,105.85c15.127-18.327,46.437-19.474,46.437-19.474s-0.466-3.35-1.13-7.646 c-26.883,1.15-42.246,11.369-49.965,18.838C425.879,102.155,427.981,105.85,427.981,105.85z"/>
        <path style="fill:none;stroke:#482725;stroke-width:2;stroke-miterlimit:10;" d="M427.981,105.85 c0,0-14.378-25.282-13.689-25.69c0.689-0.407,11.685,1.654,11.221,1.575c-0.463-0.079-1.229-13.796-0.054-13.977 c1.175-0.182,11.078,7.462,11.078,7.462s-4.379-28.609-3.328-28.621c1.051-0.012,17.63,23.855,17.63,23.855 s2.682-11.844,4.219-11.63c1.537,0.214,7.816,12.628,7.816,12.628s5.055-12.06,6.558-11.089 c1.503,0.971,4.986,26.013,4.986,26.013S443.107,87.523,427.981,105.85z"/>
        <g>
          <polygon style="fill:#FF7777;" points="440.6,68.688 439.439,77.492 445.801,80.887 447.392,74.007 &#9;&#9;&#9;&#9;&#9;&#9;"/>
          <polygon style="fill:none;stroke:#482725;stroke-width:1.5;stroke-linecap:round;stroke-linejoin:round;stroke-miterlimit:10;" points="&#10;&#9;&#9;&#9;&#9;&#9;&#9;&#9;440.6,68.688 439.439,77.492 445.801,80.887 447.392,74.007 &#9;&#9;&#9;&#9;&#9;&#9;"/>
        </g>
        <g>
          <polygon style="fill:#FFD98A;" points="432.072,77.81 431.426,82.707 434.965,84.595 435.85,80.769 &#9;&#9;&#9;&#9;&#9;&#9;"/>
          <polygon style="fill:none;stroke:#482725;stroke-width:1.5;stroke-linecap:round;stroke-linejoin:round;stroke-miterlimit:10;" points="&#10;&#9;&#9;&#9;&#9;&#9;&#9;&#9;432.072,77.81 431.426,82.707 434.965,84.595 435.85,80.769 &#9;&#9;&#9;&#9;&#9;&#9;"/>
        </g>
        <g>
          <polygon style="fill:#FFD98A;" points="456.103,69.555 453.982,74.016 456.768,76.902 458.787,73.533 &#9;&#9;&#9;&#9;&#9;&#9;"/>
          <polygon style="fill:none;stroke:#482725;stroke-width:1.5;stroke-linecap:round;stroke-linejoin:round;stroke-miterlimit:10;" points="&#10;&#9;&#9;&#9;&#9;&#9;&#9;&#9;456.103,69.555 453.982,74.016 456.768,76.902 458.787,73.533 &#9;&#9;&#9;&#9;&#9;&#9;"/>
        </g>
      </g>
    </g>
  </g>
</svg>