<?xml version="1.0" encoding="utf-8"?>
<svg viewBox="270.2382 76.406 165.4139 158.8005" width="165.4139" height="158.8005" xmlns="http://www.w3.org/2000/svg">
  <g transform="matrix(1, 0, 0, 1, 3.552713678800501e-15, 0)">
    <path style="fill:#FFD780;" d="M353.731,76.406c40.437,0,47.08,26.35,52.603,40.883c5.523,14.534,13.488-9.349,23.409,10.696 c9.812,19.825,18.54,100.912-71.321,102.363c-19.947,0.322-57.471-6.141-73.931-30.504c-3.768-5.576-4.903-13.808,1.625-14.659 c6.528-0.851,3.308-7.397-0.958-24.346C273.526,114.611,308.605,76.406,353.731,76.406z"/>
    <path style="fill:#FFD780;" d="M271.184,164.773c-0.415,7.503,11.29,22.601,13.72,15.107S271.599,157.27,271.184,164.773z"/>
    <path style="fill:#FFD780;" d="M270.839,181.887c1.045,2.964,7.962,5.465,8.381,3.162 C279.638,182.747,267.433,172.23,270.839,181.887z"/>
    <path style="fill:#FFD780;" d="M411.573,117.289c-6.256-2.75,0.284-21.798,6.528-17.256 C424.346,104.575,417.829,120.039,411.573,117.289z"/>
    <path style="fill:#FFD780;" d="M406.334,102.588c-4.809,1.8-7.06-15.895-1.62-14.476S411.233,100.754,406.334,102.588z"/>
  </g>
  <g transform="matrix(1, 0, 0, 1, 3.552713678800501e-15, 0)">
    <g>
      <path style="fill:#92CA5F;" d="M377.102,193.64h-43.687c-21.844,2.01-31.965,26.653-31.965,26.653 c17.134,15.23,53.808,14.913,53.808,14.913s36.674,0.317,53.808-14.913C409.067,220.293,398.946,195.649,377.102,193.64z"/>
      <g>
        <g>
          <path style="fill:#0F663C;" d="M409.79,220.094c-2.914-6.996-7.769-13.623-13.465-18.581c-7.1-6.182-15.102-8.623-24.286-8.623 c-10.216,0-20.432,0-30.648,0c-8.814,0-16.422,0.705-23.981,6.076c-7.231,5.138-13.266,12.923-16.683,21.128 c-0.371,0.89,1.08,1.278,1.447,0.399c2.705-6.496,7.612-13.161,13.079-17.919c7.342-6.391,15.314-8.183,24.62-8.183 c9.208,0,18.417,0,27.626,0c8.529,0,15.839,0.011,23.431,4.913c7.563,4.883,14.045,13.1,17.414,21.189 C408.71,221.371,410.161,220.985,409.79,220.094L409.79,220.094z"/>
        </g>
      </g>
      <path style="opacity:0.6;fill:#92CA5F;" d="M308.493,221.652c-4.402-1.942-4.402-6.732,0.647-4.661 C314.19,219.063,312.895,223.594,308.493,221.652z M314.967,217.38c-2.33,0.777-0.647,3.495,1.553,1.924 C318.721,217.732,317.297,216.603,314.967,217.38z M311.283,213.061c-3.066-0.253-2.448,3.233,1.116,3.422 C315.029,216.621,314.349,213.313,311.283,213.061z M386.33,201.4c-4.365-1.104-4.838,2.944-0.789,3.997 C390.8,206.764,390.695,202.505,386.33,201.4z M387.855,207.29c-2.84,0-1.736,2.84,0.789,2.524 C391.168,209.499,390.485,207.29,387.855,207.29z M391.143,205.06c-1.315,0.696,0.368,2.787,2.314,1.63 C395.403,205.534,392.931,204.114,391.143,205.06z"/>
      <path style="fill:#CEEDAE;" d="M379.471,206.29c-7.589-5.638-9.335-10.955-9.715-12.65h-28.993 c-0.38,1.696-2.126,7.013-9.715,12.65c-8.108,6.024-13.391,10.71-14.224,22.658c17.6,6.435,38.436,6.258,38.436,6.258 s20.836,0.176,38.436-6.258C392.861,217,387.579,212.314,379.471,206.29z"/>
      <path style="opacity:0.5;fill:#92CA5F;" d="M333.415,193.64c-5.939,0.546-11.004,2.772-15.242,5.715 c16.477,7.903,30.981,8.559,37.086,8.559c6.105,0,20.609-0.655,37.086-8.559c-4.238-2.943-9.304-5.168-15.242-5.715H333.415z"/>
      <g>
        <g>
          <g>
            <path style="fill:#0F663C;" d="M317.786,222.712c22.349,10.492,52.028,8.059,74.998,0.281c0.455-0.154,0.26-0.879-0.199-0.723 c-23.89,8.09-50.931,8.465-74.726,0.271C317.759,222.506,317.689,222.667,317.786,222.712L317.786,222.712z"/>
          </g>
        </g>
        <g>
          <g>
            <path style="fill:#0F663C;" d="M321.455,214.848c20.13,8.905,46.503,6.87,67.064-0.063c0.455-0.153,0.26-0.878-0.199-0.723 c-21.457,7.235-45.276,7.184-66.793,0.615C321.428,214.646,321.357,214.804,321.455,214.848L321.455,214.848z"/>
          </g>
        </g>
        <g>
          <g>
            <path style="fill:#0F663C;" d="M330.03,207.123c15.433,5.644,35.141,5.321,50.874,0.529c0.46-0.14,0.264-0.864-0.199-0.723 c-16.555,5.042-33.973,3.236-50.625,0.014C329.961,206.919,329.917,207.082,330.03,207.123L330.03,207.123z"/>
          </g>
        </g>
      </g>
    </g>
    <g>
      <g>
        <path style="fill:#0F663C;" d="M333.074,113.021c0,0,4.4-17.126,9.293-17.942c4.893-0.815,6.408,22.485,6.408,22.485 L333.074,113.021z"/>
        <g>
          <path style="fill:#0F663C;" d="M377.443,113.021c0,0-4.4-17.126-9.293-17.942c-4.893-0.815-6.408,22.485-6.408,22.485 L377.443,113.021z"/>
          <path style="fill:#0F663C;" d="M364.27,115.366c2.377-4.104,1.509-21.306-4.546-25.849s-13.122,2.272-15.938,20.825 c0,0,4.815,2.051,8.503,6.082C356.756,121.304,361.988,119.305,364.27,115.366z"/>
          <g>
            <g>
              <path style="fill:#92CA5F;" d="M344.801,108.704c0.199-2.322,0.766-4.654,1.459-6.872c1.25-3.999,4.011-10.977,8.18-12.702 c6.248-2.584,8.942,7.672,9.676,11.884c0.474,2.723,0.749,5.513,0.763,8.28c0.005,0.965,1.505,0.967,1.5,0 c-0.033-6.427-1.346-22.846-10.904-21.968c-4.784,0.439-7.982,7.218-9.552,11.04c-1.342,3.265-2.321,6.807-2.623,10.338 C343.219,109.666,344.72,109.66,344.801,108.704L344.801,108.704z"/>
            </g>
          </g>
        </g>
      </g>
      <g>
        <g>
          <path style="fill:#92CA5F;" d="M410.848,145.673c-1.98-2.347-7.356-3.371-7.356-3.371s-1.281-20.825-11.646-29.882 c-15.784-13.792-22.22,2.145-36.655,2.145c-14.435,0-20.871-15.937-36.655-2.145c-10.366,9.057-11.646,29.882-11.646,29.882 s-5.375,1.024-7.356,3.371c-2.715,3.218-4.291,8.851-1.532,22.067c3.488,16.711,11.558,21.247,17.661,24.411 c17.476,9.06,33.123,9.762,39.529,9.762c6.406,0,22.053-0.702,39.529-9.762c6.103-3.164,14.173-7.7,17.661-24.411 C415.139,154.524,413.563,148.891,410.848,145.673z"/>
          <path style="opacity:0.5;fill:#92CA5F;" d="M412.381,158.611c-3.488,16.711-11.558,21.247-17.661,24.411 c-17.476,9.06-33.123,9.762-39.529,9.762c-6.406,0-22.053-0.702-39.529-9.762c-6.102-3.164-14.173-7.7-17.661-24.411 c-0.527-2.525-0.893-4.769-1.126-6.776c-0.599,3.549-0.409,8.55,1.126,15.905c3.488,16.711,11.558,21.247,17.661,24.411 c17.476,9.06,33.123,9.762,39.529,9.762c6.406,0,22.053-0.702,39.529-9.762c6.103-3.164,14.173-7.7,17.661-24.411 c1.535-7.355,1.725-12.357,1.126-15.905C413.274,153.842,412.908,156.086,412.381,158.611z"/>
          <g style="opacity:0.4;">
            <g>
              <path style="fill:#FFFFFF;" d="M310.302,142.111c2.263-12.637,5.614-25.299,17.986-31.386c0.427-0.21,0.127-0.889-0.321-0.76 c-12.659,3.628-17.473,20.556-17.873,32.119C310.09,142.2,310.28,142.23,310.302,142.111L310.302,142.111z"/>
            </g>
          </g>
          <g>
            <g>
              <path style="fill:#0F663C;" d="M411.515,145.143c-1.553-1.473-4.033-2.991-6.22-3.212c-1.152-0.116-1.323-0.555-0.93,0.173 c-0.247-0.459-0.143-1.525-0.202-2.04c-0.613-5.331-1.768-10.673-3.685-15.691c-3.964-10.377-13.91-21.48-26.096-17.324 c-6.265,2.137-11.546,6.555-18.428,6.746c-7.061,0.196-12.446-3.946-18.726-6.388c-11.997-4.666-22.299,5.34-26.603,15.828 c-2.115,5.153-3.364,10.674-4.056,16.192c-0.084,0.666-0.043,1.464-0.232,2.107c-0.282,0.961-0.076,0.373,0.302,0.083 c-1.79,1.377-4.795,1.17-6.726,2.792c-3.043,2.556-3.824,6.924-3.952,10.677c-0.258,7.565,1.486,15.97,4.619,22.828 c5.49,12.015,18.033,17.452,30.053,21.064c11.758,3.534,24.182,4.569,36.342,2.858c13.34-1.877,31.127-6.653,39.695-18.09 c4.993-6.665,6.972-15.359,7.798-23.497C414.997,155.035,414.917,149.413,411.515,145.143 c-0.601-0.755-1.656,0.313-1.061,1.061c3.573,4.485,2.979,10.958,2.226,16.269c-1.079,7.613-3.102,15.641-8.202,21.622 c-8.153,9.564-23.254,13.818-35.098,15.859c-10.704,1.844-21.699,1.554-32.297-0.833c-11.831-2.664-26.719-7.51-33.419-18.54 c-4.386-7.222-6.515-17.097-6.203-25.494c0.246-6.625,2.999-10.674,9.763-12.061c0.336-0.069,0.53-0.408,0.551-0.723 c0.669-10.129,3.651-22.353,11.427-29.352c6.583-5.925,13.153-6.411,20.772-2.656c4.907,2.418,9.724,5.021,15.353,5.021 c5.628,0,10.446-2.603,15.353-5.021c7.605-3.748,14.204-3.256,20.772,2.656c7.776,6.999,10.758,19.223,11.427,29.352 c0.021,0.313,0.217,0.655,0.551,0.723c2.534,0.52,5.113,1.366,7.025,3.178C411.154,146.867,412.217,145.809,411.515,145.143z "/>
            </g>
          </g>
          <g style="opacity:0.6;">
            <path style="fill:#92CA5F;" d="M355.783,122.309c-6.694-0.942-6.011,4.235,0.613,4.848 C363.02,127.771,361.425,123.103,355.783,122.309z"/>
            <path style="fill:#92CA5F;" d="M350.081,119.429c-4.216-1.142-3.151-4.661,1.152-2.944S353.703,120.411,350.081,119.429z"/>
            <path style="fill:#92CA5F;" d="M358.64,117.846c-3.103,0.356-2.811,3.423,1.152,3.3 C363.756,121.024,361.743,117.49,358.64,117.846z"/>
            <path style="fill:#92CA5F;" d="M363.208,122.741c-1.123,1.812,1.152,3.773,2.568,1.948 C367.191,122.864,364.5,120.656,363.208,122.741z"/>
          </g>
        </g>
        <g>
          <g>
            <g>
              <path style="fill:#FFFFFF;" d="M333.206,127.989c-11.696-0.296-13.917,13.769-9.919,20.135 c1.999,3.183,4.498,5.395,9.919,5.395c5.247,0,7.921-2.212,9.919-5.395C347.122,141.758,344.902,127.693,333.206,127.989z"/>
              <g>
                <g>
                  <path style="fill:#0F663C;" d="M345.143,136.56c-2.411-8.08-11.94-12.562-19.274-7.157 c-5.666,4.176-6.611,13.248-3.231,19.1c0.483,0.836,1.779,0.081,1.295-0.757c-2.718-4.705-2.338-11.769,1.417-15.853 c5.96-6.482,16.039-2.668,18.347,5.065C343.972,137.881,345.421,137.488,345.143,136.56L345.143,136.56z"/>
                </g>
              </g>
              <ellipse style="fill:#0F663C;" cx="336.25" cy="141.172" rx="7.399" ry="9.146"/>
            </g>
            <g>
              <path style="fill:#FFFFFF;" d="M377.312,127.989c11.696-0.296,13.917,13.769,9.919,20.135 c-1.999,3.183-4.498,5.395-9.919,5.395c-5.247,0-7.921-2.212-9.92-5.395C363.395,141.758,365.616,127.693,377.312,127.989z"/>
              <g>
                <g>
                  <path style="fill:#0F663C;" d="M366.821,136.958c2.313-7.75,12.393-11.539,18.347-5.065 c3.753,4.081,4.133,11.15,1.417,15.853c-0.484,0.837,0.812,1.594,1.295,0.757c3.38-5.852,2.434-14.925-3.231-19.1 c-7.329-5.402-16.864-0.921-19.274,7.157C365.098,137.487,366.545,137.883,366.821,136.958L366.821,136.958z"/>
                </g>
              </g>
              <ellipse style="fill:#0F663C;" cx="374.268" cy="141.172" rx="7.399" ry="9.146"/>
            </g>
            <g>
              <path style="fill:#FFB6C3;" d="M321.648,161.906c-11.275-2.585-7.669-10.295,0-8.461 C332.264,155.983,330.873,164.021,321.648,161.906z"/>
              <path style="fill:#FFB6C3;" d="M388.87,161.906c11.275-2.585,7.669-10.295,0-8.461 C378.254,155.983,379.644,164.021,388.87,161.906z"/>
            </g>
            <path style="fill:#0F663C;" d="M328.063,126.579c1.98-0.848,4.688-1.446,7.824-0.319c2.244,0.806,3.487-0.991,1.843-2.278 c-1.893-1.482-6.642-2.342-9.962-0.712c-3.32,1.63-3.092,2.743-2.827,3.376C325.207,127.279,326.202,127.376,328.063,126.579z "/>
            <path style="fill:#0F663C;" d="M382.455,126.579c-1.98-0.848-4.688-1.446-7.824-0.319c-2.244,0.806-3.487-0.991-1.843-2.278 c1.893-1.482,6.642-2.342,9.962-0.712c3.32,1.63,3.092,2.743,2.827,3.376C385.311,127.279,384.316,127.376,382.455,126.579z"/>
          </g>
          <g>
            <path style="opacity:0.5;fill:#92CA5F;" d="M403.263,155.48c0,0-3.718,8.766-5.441,10.605 c-1.723,1.839-17.657,14.73-42.563,16.826c-24.906-2.096-40.841-14.987-42.563-16.826c-1.723-1.839-5.441-10.605-5.441-10.605 l-6.283-3.525c0,0,4.825,4.343,5.591,6.359c0.766,2.017,2.481,7.213,5.108,10.169c1.595,1.794,9.098,7.66,19.775,11.995 c0.599,1.966,1.713,5.239,2.472,5.131c0.727-0.104,1.982-2.005,2.728-3.243c5.704,1.83,12.069,3.083,18.784,3.083 c6.464,0,12.762-1.212,18.481-3.019c0.75,1.238,1.974,3.076,2.689,3.178c0.743,0.106,1.828-3.031,2.435-5.008 c9.605-3.827,16.889-8.989,19.364-11.898c4.269-5.019,5.254-9.022,6.02-10.992c0.766-1.97,5.127-5.755,5.127-5.755 L403.263,155.48z"/>
            <g>
              <path style="fill:#FFFFFF;" d="M368.171,180.85c0,0-2.605-7.306-4.597-7.613c-1.992-0.307-4.141,9.213-4.141,9.213 L368.171,180.85z"/>
              <path style="fill:#FFFFFF;" d="M337.255,179.315c0,0-2.255,4.14-3.337,4.294c-1.082,0.155-2.89-6.572-2.89-6.572 L337.255,179.315z"/>
              <path style="fill:#FFFFFF;" d="M320.47,171.735c0,0,2.05-4.765,3.209-4.301c1.159,0.464,2.191,7.263,2.191,7.263 L320.47,171.735z"/>
              <path style="fill:#FFFFFF;" d="M342.347,180.85c0,0,2.605-7.306,4.597-7.613c1.992-0.307,5.189,9.213,5.189,9.213 L342.347,180.85z"/>
              <path style="fill:#FFFFFF;" d="M373.263,179.315c0,0,2.255,4.14,3.337,4.294c1.082,0.155,2.89-6.572,2.89-6.572 L373.263,179.315z"/>
              <path style="fill:#FFFFFF;" d="M390.047,171.735c0,0-0.114-4.765-1.273-4.301c-1.159,0.464-4.127,7.263-4.127,7.263 L390.047,171.735z"/>
            </g>
            <g>
              <g>
                <path style="fill:#0F663C;" d="M300.593,152.604c2.636,1.479,5.441,2.423,6.699,4.828c1.651,3.156,2.68,6.897,5.206,9.51 c5.156,5.333,13.237,8.871,19.995,11.486c6.222,2.408,12.732,4.036,19.35,4.873c6.902,0.874,14.301-0.995,20.881-3.029 c8.507-2.63,17.173-6.597,24.092-12.301c2.813-2.319,4.18-5.644,5.676-8.909c0.676-1.476,1.03-2.601,1.997-3.41 c1.496-1.251,3.727-2.091,5.436-3.049c0.842-0.472,0.087-1.768-0.757-1.295c-1.998,1.121-5.02,2.094-6.552,3.794 c-2.183,2.423-2.701,6.798-4.659,9.537c-4.069,5.692-12.898,9.336-19.091,11.851c-6.006,2.439-12.312,4.163-18.726,5.109 c-7.804,1.152-15.888-0.764-23.323-3.213c-7.685-2.531-17.34-6.394-23.141-12.398c-2.837-2.936-3.257-7.289-5.588-10.455 c-1.465-1.989-4.558-3.001-6.737-4.224C300.507,150.835,299.75,152.131,300.593,152.604L300.593,152.604z"/>
              </g>
            </g>
          </g>
          <g>
            <g>
              <path style="fill:#0F663C;" d="M337.946,160.904c10.347-6.122,24.265-4.104,34.805,0.076 c0.897,0.356,1.287-1.094,0.399-1.446c-10.901-4.322-25.285-6.242-35.961,0.076 C336.358,160.1,337.112,161.397,337.946,160.904L337.946,160.904z"/>
            </g>
          </g>
          <g>
            <path style="fill:#0F663C;" d="M350.403,160.839c0,0-7.679,1.166-6.754,3.302 C344.575,166.278,350.403,160.839,350.403,160.839z"/>
            <path style="fill:#0F663C;" d="M360.115,160.839c0,0,7.679,1.166,6.754,3.302 C365.942,166.278,360.115,160.839,360.115,160.839z"/>
          </g>
        </g>
      </g>
    </g>
  </g>
</svg>