<?xml version="1.0" encoding="utf-8"?>
<svg viewBox="51.1259 269.1702 156.3531 166.6913" width="156.3531" height="166.6913" xmlns="http://www.w3.org/2000/svg">
  <g transform="matrix(1, 0, 0, 1, 3.552713678800501e-15, 0)">
    <path style="fill:#B6E698;" d="M127.321,430.504c25.968,0.761,52.595-8.38,64.046-22.328 c11.452-13.948-13.237-11.153-3.139-28.403c9.066-15.488,19.251-27.321,15.682-53.765c-4.033-29.877-26.828-54.134-64.012-56.581 c-34.749-2.286-63.735,10.85-65.753,32.956c-2.181,23.891,14.576,27.105-5.631,44.267c-14.039,11.924-21.791,21.163-14.741,42.203 C62.925,416.159,83.391,429.216,127.321,430.504z"/>
    <path style="fill:#B6E698;" d="M192.835,392.321c7.799,6.33,20.969-14.479,11.142-20.083 C194.15,366.633,185.036,385.991,192.835,392.321z"/>
    <path style="fill:#B6E698;" d="M74.258,332.187c0.978,7.485-14.18,22.138-20.183,10.624 C48.072,331.296,72.909,321.859,74.258,332.187z"/>
    <path style="fill:#B6E698;" d="M60.087,304.747c-5.211,4.58,3.007,23.457,8.974,19.008 C75.027,319.306,67.262,298.441,60.087,304.747z"/>
  </g>
  <g transform="matrix(1, 0, 0, 1, 3.552713678800501e-15, 0)">
    <g>
      <path style="fill:#C98B62;" d="M151.147,394.294H107.46c-21.843,2.01-31.965,26.653-31.965,26.653 c17.134,15.23,53.808,14.913,53.808,14.913s36.674,0.317,53.808-14.913C183.112,420.947,172.99,396.303,151.147,394.294z"/>
      <path style="fill:#F7DFBD;" d="M164.72,430.632c-0.905-17.548-12.618-31.956-28.04-35.497h-14.755 c-15.421,3.541-27.135,17.949-28.04,35.497c16.876,5.383,35.417,5.229,35.417,5.229S147.845,436.015,164.72,430.632z"/>
      <path style="opacity:0.3;fill:#C98B62;" d="M129.304,407.241c0,0,19.525-0.32,36.131-7.882c-4.038-2.619-8.791-4.56-14.288-5.066 H107.46c-5.497,0.506-10.25,2.446-14.288,5.066C109.778,406.921,129.304,407.241,129.304,407.241z"/>
      <g>
        <g>
          <path style="fill:#702624;" d="M183.835,420.748c-2.914-6.996-7.769-13.623-13.465-18.581 c-7.101-6.182-15.102-8.623-24.287-8.623c-10.216,0-20.432,0-30.648,0c-8.814,0-16.422,0.705-23.981,6.076 c-7.231,5.138-13.266,12.923-16.683,21.128c-0.371,0.89,1.08,1.278,1.446,0.399c2.705-6.496,7.612-13.161,13.079-17.919 c7.342-6.391,15.314-8.183,24.62-8.183c9.208,0,18.417,0,27.625,0c8.529,0,15.839,0.011,23.431,4.913 c7.563,4.884,14.045,13.1,17.414,21.19C182.754,422.025,184.206,421.639,183.835,420.748L183.835,420.748z"/>
        </g>
      </g>
      <g>
        <g>
          <g>
            <path style="fill:#702624;" d="M98.148,410.001c-2,2.015-3.479,4.61-4.47,7.256c-0.181,0.484,0.582,0.681,0.768,0.212 c1.043-2.628,2.447-4.883,4.088-7.169C98.7,410.069,98.34,409.807,98.148,410.001L98.148,410.001z"/>
          </g>
        </g>
        <g>
          <g>
            <path style="fill:#702624;" d="M93.773,413.193c-1.706,1.807-2.729,4.873-3.306,7.253c-0.13,0.537,0.656,0.751,0.825,0.227 c0.402-1.248,0.78-2.499,1.267-3.717c0.48-1.201,1.178-2.332,1.537-3.575C94.149,413.198,93.907,413.052,93.773,413.193 L93.773,413.193z"/>
          </g>
        </g>
        <g>
          <g>
            <path style="fill:#702624;" d="M94.498,409.401c-2.079,1.797-3.52,4.631-4.586,7.116c-0.162,0.377,0.354,0.71,0.567,0.331 c1.4-2.487,2.682-4.867,4.36-7.184C94.991,409.453,94.673,409.25,94.498,409.401L94.498,409.401z"/>
          </g>
        </g>
      </g>
      <g>
        <g>
          <g>
            <path style="fill:#702624;" d="M156.01,404.568c2.178,2.601,3.907,5.359,5.485,8.349c0.355,0.673,1.286,0.081,0.998-0.584 c-1.352-3.122-3.5-5.96-6.008-8.241C156.162,403.798,155.735,404.239,156.01,404.568L156.01,404.568z"/>
          </g>
        </g>
        <g>
          <g>
            <path style="fill:#702624;" d="M160.635,407.182c0.766,1.326,1.576,2.622,2.29,3.978c0.709,1.348,1.262,2.811,2.073,4.097 c0.303,0.481,1.118,0.18,0.943-0.397c-0.87-2.868-2.902-5.777-4.754-8.104C160.934,406.438,160.44,406.845,160.635,407.182 L160.635,407.182z"/>
          </g>
        </g>
        <g>
          <g>
            <path style="fill:#702624;" d="M161.164,404.311c1.624,2.242,2.846,4.659,4.294,7.002c0.31,0.501,1.188,0.184,0.985-0.415 c-0.897-2.65-2.807-5.038-4.826-6.937C161.39,403.747,160.963,404.034,161.164,404.311L161.164,404.311z"/>
          </g>
        </g>
      </g>
    </g>
    <g>
      <path style="fill:#C98B62;" d="M163.216,302.598c-7.803-5.493-17.834-8.654-28.207-9.502c3.16-1.096,6.533-2.517,6.25-3.516 c-0.523-1.849-9.063-0.439-9.063-0.439s5.753-4.882,3.945-5.605c-1.809-0.724-8.362,3.472-8.362,3.472s-2.05-4.662-3.014-4.22 c-0.965,0.442-0.201,5.506-0.201,5.506s-4.582-4.18-5.265-3.537c-0.683,0.643,0.804,4.542,0.804,4.542s-9.978-8.903-10.426-6.661 c-0.448,2.242,4.633,8.669,4.633,8.669s-7.473-1.943-6.427,0c0.696,1.293,3.902,2.583,5.973,3.303 c-6.79,1.586-13.145,4.244-18.462,7.988c-27.511,19.366-30.204,56.985-22.012,73.369c12.281,24.562,55.924,25.274,55.924,25.274 s43.643-0.712,55.923-25.274C193.419,359.583,190.727,321.964,163.216,302.598z"/>
      <g>
        <g>
          <path style="fill:#F7DFBD;" d="M179.962,340.856c-4.777-23.767-24.037-27.634-33.251-22.951 c-10.088,5.126-11.719,9.553-17.407,9.553c-5.688,0-7.319-4.427-17.407-9.553c-9.214-4.682-28.475-0.815-33.252,22.951 c-4.777,23.767-3.15,32.272,9.225,41.836c14.575,11.266,41.434,10.707,41.434,10.707s26.859,0.558,41.434-10.707 C183.112,373.128,184.739,364.623,179.962,340.856z"/>
          <g>
            <path style="fill:#A26145;" d="M117.196,357.585c1.916-6.318,1.502-17.448-12.546-22.044 c-11.801-3.861-21.412,1.462-25.918,4.934c-0.027,0.129-0.06,0.251-0.086,0.382c-1.739,8.653-2.624,15.276-2.456,20.67 c0,0,11.44-2.398,20.933,4.342C106.615,372.608,114.408,366.78,117.196,357.585z"/>
            <path style="fill:#A26145;" d="M141.411,357.585c-1.916-6.318-1.502-17.448,12.546-22.044 c11.801-3.861,21.412,1.462,25.918,4.934c0.027,0.129,0.06,0.251,0.086,0.382c1.739,8.653,2.624,15.276,2.456,20.67 c0,0-11.44-2.398-20.933,4.342C151.992,372.608,144.199,366.78,141.411,357.585z"/>
          </g>
        </g>
        <g>
          <g>
            <g>
              <path style="fill:#FFB6C3;" d="M88.692,373.431c-11.275-2.585-7.669-10.295,0-8.461 C99.309,367.508,97.918,375.546,88.692,373.431z"/>
              <path style="fill:#FFB6C3;" d="M169.915,373.431c11.275-2.585,7.669-10.295,0-8.461 C159.298,367.508,160.689,375.546,169.915,373.431z"/>
            </g>
            <g>
              <defs>
                <path id="SVGID_1_" d="M114.37,347.837c-14.49,2.11-25.151-1.556-27.682-2.548c-1.72,4.545-1.632,9.902-0.054,13.92 c2.274,0.094,11.53,0.92,19.06,8.081c3.148-1.114,5.21-3.233,6.887-5.904C114.75,357.93,115.454,352.666,114.37,347.837z"/>
              </defs>
              <clipPath id="SVGID_00000167363042338442324710000001328260408696776326_">
                <path d="M114.37,347.837c-14.49,2.11-25.151-1.556-27.682-2.548c-1.72,4.545-1.632,9.902-0.054,13.92 c2.274,0.094,11.53,0.92,19.06,8.081c3.148-1.114,5.21-3.233,6.887-5.904C114.75,357.93,115.454,352.666,114.37,347.837z" style="overflow: visible;"/>
              </clipPath>
              <g style="clip-path:url(#SVGID_00000167363042338442324710000001328260408696776326_);">
                <path style="fill:#FFFFFF;" d="M100.146,339.382c-11.696-0.296-13.917,13.769-9.919,20.135 c1.999,3.183,4.498,5.395,9.919,5.395c5.247,0,7.921-2.212,9.919-5.395C114.063,353.151,111.842,339.086,100.146,339.382z"/>
                <g>
                  <g>
                    <path style="fill:#702624;" d="M112.017,347.971c-2.397-8.034-11.87-12.497-19.166-7.121 c-5.639,4.155-6.576,13.189-3.213,19.011c0.438,0.759,1.615,0.074,1.176-0.687c-2.732-4.731-2.35-11.832,1.427-15.936 c5.998-6.517,16.14-2.688,18.462,5.096C110.954,349.171,112.269,348.814,112.017,347.971L112.017,347.971z"/>
                  </g>
                </g>
                <ellipse style="fill:#702624;" cx="103.191" cy="352.564" rx="7.399" ry="9.146"/>
              </g>
            </g>
            <path style="fill:#702624;" d="M96.108,343.104c1.98-0.848,4.688-1.446,7.824-0.319c2.244,0.806,3.487-0.991,1.843-2.278 c-1.894-1.482-6.643-2.342-9.962-0.712c-3.32,1.63-3.092,2.743-2.827,3.376C93.252,343.805,94.247,343.901,96.108,343.104z"/>
            <g>
              <g>
                <g>
                  <path style="fill:#702624;" d="M86.633,359.959c6.646,0.453,13.245,3.312,18.517,7.256 c0.773,0.578,1.522-0.723,0.757-1.295c-5.496-4.112-12.364-6.99-19.274-7.461C85.67,358.393,85.674,359.893,86.633,359.959 L86.633,359.959z"/>
                </g>
              </g>
              <g>
                <g>
                  <path style="fill:#702624;" d="M86.255,345.698c8.651,4.045,19.073,4.355,28.315,2.862 c0.951-0.154,0.547-1.599-0.399-1.446c-8.824,1.426-18.895,1.154-27.159-2.711 C86.142,343.996,85.38,345.289,86.255,345.698L86.255,345.698z"/>
                </g>
              </g>
            </g>
            <g>
              <defs>
                <path id="SVGID_00000010993050738922414150000012321602978232747173_" d="M144.305,347.837 c14.49,2.11,25.151-1.556,27.683-2.548c1.72,4.545,1.632,9.902,0.054,13.92c-2.274,0.094-11.53,0.92-19.06,8.081 c-3.148-1.114-5.21-3.233-6.887-5.904C143.925,357.93,143.22,352.666,144.305,347.837z"/>
              </defs>
              <clipPath id="SVGID_00000135680833441299970780000001869998503138318242_">
                <path d="M144.305,347.837 c14.49,2.11,25.151-1.556,27.683-2.548c1.72,4.545,1.632,9.902,0.054,13.92c-2.274,0.094-11.53,0.92-19.06,8.081 c-3.148-1.114-5.21-3.233-6.887-5.904C143.925,357.93,143.22,352.666,144.305,347.837z" style="overflow: visible;"/>
              </clipPath>
              <g style="clip-path:url(#SVGID_00000135680833441299970780000001869998503138318242_);">
                <path style="fill:#FFFFFF;" d="M158.529,339.382c11.696-0.296,13.917,13.769,9.92,20.135 c-1.999,3.183-4.498,5.395-9.92,5.395c-5.247,0-7.921-2.212-9.919-5.395C144.612,353.151,146.833,339.086,158.529,339.382z"/>
                <g>
                  <g>
                    <path style="fill:#702624;" d="M147.971,348.333c2.327-7.8,12.47-11.605,18.462-5.096 c3.776,4.102,4.159,11.207,1.427,15.936c-0.439,0.76,0.737,1.447,1.176,0.687c3.363-5.823,2.425-14.857-3.213-19.011 c-7.291-5.373-16.769-0.91-19.166,7.121C146.407,348.812,147.72,349.172,147.971,348.333L147.971,348.333z"/>
                  </g>
                </g>
                <ellipse style="fill:#702624;" cx="155.484" cy="352.564" rx="7.399" ry="9.146"/>
              </g>
            </g>
            <path style="fill:#702624;" d="M162.567,343.104c-1.98-0.848-4.688-1.446-7.824-0.319c-2.244,0.806-3.487-0.991-1.843-2.278 c1.893-1.482,6.642-2.342,9.962-0.712c3.32,1.63,3.092,2.743,2.827,3.376C165.423,343.805,164.428,343.901,162.567,343.104z"/>
            <g>
              <g>
                <g>
                  <path style="fill:#702624;" d="M172.042,358.459c-6.908,0.471-13.78,3.35-19.274,7.461 c-0.764,0.572-0.017,1.874,0.757,1.295c5.273-3.945,11.869-6.803,18.517-7.256 C173,359.894,173.007,358.393,172.042,358.459L172.042,358.459z"/>
                </g>
              </g>
              <g>
                <g>
                  <path style="fill:#702624;" d="M171.663,344.403c-8.261,3.863-18.342,4.135-27.159,2.711 c-0.944-0.153-1.351,1.293-0.399,1.446c9.249,1.494,19.66,1.185,28.315-2.862 C173.294,345.289,172.533,343.996,171.663,344.403L171.663,344.403z"/>
                </g>
              </g>
            </g>
          </g>
          <g>
            <g>
              <g>
                <g>
                  <path style="fill:#702624;" d="M128.554,365.295c0,3.502,0,7.003,0,10.505c0,0.965,1.5,0.967,1.5,0 c0-3.501,0-7.003,0-10.505C130.054,364.33,128.554,364.329,128.554,365.295L128.554,365.295z"/>
                </g>
              </g>
              <g>
                <g>
                  <path style="fill:#702624;" d="M116.472,375.102c1.086,2.678,3.548,4.842,6.484,5.098c2.943,0.256,6.137-1.265,7.07-4.223 c0.291-0.923-1.157-1.318-1.446-0.399c-0.77,2.443-3.695,3.49-6.027,3.062c-2.077-0.381-3.947-2.242-4.634-3.937 C117.561,373.82,116.109,374.206,116.472,375.102L116.472,375.102z"/>
                </g>
              </g>
              <g>
                <g>
                  <path style="fill:#702624;" d="M115.011,375.652c1.701,0.172,3.387-0.659,4.345-2.044c0.551-0.796-0.749-1.547-1.295-0.757 c-0.671,0.97-1.894,1.418-3.05,1.301C114.051,374.056,114.058,375.556,115.011,375.652L115.011,375.652z"/>
                </g>
              </g>
              <g>
                <g>
                  <path style="fill:#702624;" d="M140.688,374.703c-0.688,1.697-2.558,3.556-4.634,3.937 c-2.337,0.429-5.256-0.615-6.027-3.062c-0.289-0.917-1.738-0.525-1.446,0.399c0.932,2.955,4.127,4.486,7.07,4.223 c2.939-0.262,5.397-2.415,6.484-5.098C142.497,374.208,141.047,373.819,140.688,374.703L140.688,374.703z"/>
                </g>
              </g>
              <g>
                <g>
                  <path style="fill:#702624;" d="M143.596,374.152c-1.156,0.117-2.379-0.331-3.05-1.301 c-0.546-0.789-1.846-0.039-1.295,0.757c0.958,1.385,2.644,2.216,4.345,2.044 C144.548,375.556,144.558,374.055,143.596,374.152L143.596,374.152z"/>
                </g>
              </g>
            </g>
            <path style="fill:#702624;" d="M140.584,360.216c-1.981-3.845-20.579-3.845-22.56,0c-1.981,3.845,4.618,9.226,11.28,11.021 C135.965,369.442,142.564,364.06,140.584,360.216z"/>
            <g style="opacity:0.4;">
              <g>
                <path style="fill:#FFFFFF;" d="M120.557,361.205c6.113-1.004,11.36-1.361,17.396,0.299c0.5,0.138,0.691-0.6,0.212-0.768 c-5.554-1.948-12.27-2.221-17.635,0.405C120.491,361.159,120.521,361.211,120.557,361.205L120.557,361.205z"/>
              </g>
            </g>
          </g>
        </g>
      </g>
      <g>
        <g style="opacity:0.3;">
          <g>
            <path style="fill:#FFFFFF;" d="M72.584,364.76c-3.524-29.437,13.412-56.055,41.052-65.984c0.7-0.251,0.418-1.355-0.312-1.13 c-28.424,8.762-45.782,38.064-40.786,67.12C72.543,364.792,72.588,364.787,72.584,364.76L72.584,364.76z"/>
          </g>
        </g>
        <g style="opacity:0.3;">
          <g>
            <path style="fill:#FFFFFF;" d="M186.069,364.767c4.996-29.056-12.363-58.358-40.786-67.12 c-0.729-0.225-1.013,0.878-0.312,1.13c27.64,9.929,44.576,36.548,41.052,65.984 C186.02,364.786,186.064,364.793,186.069,364.767L186.069,364.767z"/>
          </g>
        </g>
      </g>
      <path style="opacity:0.3;fill:#C98B62;" d="M185.227,369.86c-12.281,24.562-55.923,25.274-55.923,25.274 s-43.643-0.712-55.924-25.274c-2.241-4.482-3.659-10.558-3.986-17.409c-0.427,9.323,1.099,17.74,3.986,23.516 c12.281,24.562,55.924,25.274,55.924,25.274s43.643-0.712,55.923-25.274c2.888-5.775,4.414-14.193,3.986-23.516 C188.886,359.302,187.468,365.379,185.227,369.86z"/>
      <g>
        <g>
          <g>
            <path style="fill:#702624;" d="M163.594,301.95c-8.553-5.789-18.366-8.64-28.586-9.604c0.066,0.491,0.133,0.982,0.199,1.473 c1.457-0.527,8.793-2.493,6.201-5.235c-1.779-1.881-7.206-0.519-9.413-0.167c0.243,0.418,0.486,0.836,0.73,1.254 c1.21-1.041,5.269-4.02,4.44-6.072c-1.047-2.591-6.365,0.789-7.585,1.468c-0.457,0.254-1.545,1.226-2.051,1.211 c1.374,0.04,0.396-0.891-0.249-1.925c-0.446-0.714-1.212-2.365-2.313-2.288c-2.425,0.167-1.334,4.968-1.128,6.428 c0.418-0.243,0.836-0.486,1.254-0.73c-1.105-0.998-4.119-4.342-5.838-3.758c-1.934,0.657-0.3,4.346,0.123,5.493 c0.418-0.243,0.836-0.487,1.254-0.73c-1.78-1.58-8.117-8.32-10.786-7.209c-3.402,1.417,2.802,8.832,3.932,10.277 c0.243-0.418,0.486-0.836,0.73-1.254c-1.47-0.372-6.127-1.993-7.25-0.215c-1.567,2.48,5.03,4.468,6.397,4.965 c0-0.482,0-0.964,0-1.446c-27.422,6.804-44.347,32.338-45.065,59.892c-0.246,9.439,1.264,19.541,7.07,27.263 c6.534,8.69,16.93,13.64,27.117,16.668c11.343,3.372,23.178,5.011,34.942,3.63c18.39-2.159,42.017-8.63,49.376-27.788 C196.701,348.543,184.564,317.103,163.594,301.95c-0.784-0.566-1.533,0.734-0.757,1.295 c19.508,14.097,29.733,40.686,24.471,64.316c-4.643,20.847-26.53,28.777-45.463,31.715 c-26.814,4.162-66.768-4.069-71.218-35.48c-4.235-29.893,13.479-61.033,43.426-68.463c0.766-0.19,0.656-1.208,0-1.446 c-1.106-0.402-3.66-0.991-4.396-1.957c-0.893-1.173-0.119-0.62,0.956-0.595c1.154,0.027,2.379,0.412,3.495,0.695 c0.784,0.199,1.169-0.691,0.73-1.254c-0.946-1.21-1.841-2.474-2.646-3.782c-1.189-1.932-2.728-4.287,0.347-2.753 c2.556,1.275,4.894,3.689,7.032,5.588c0.512,0.455,1.532,0.026,1.253-0.73c-0.376-1.019-1.324-2.946-0.112-2.971 c0.86-0.018,2.61,2.055,3.32,2.696c0.595,0.537,1.356-0.008,1.254-0.73c-0.094-0.665-0.757-3.553,0.208-3.787 c0.269-0.065,1.489,2.751,1.637,3.079c0.163,0.361,0.711,0.468,1.026,0.269c0.97-0.613,5.178-3.631,6.113-3.159 c1.742,0.879-1.813,3.433-2.605,4.114c-0.629,0.541,0.071,1.359,0.73,1.254c1.362-0.217,2.756-0.397,4.136-0.447 c0.704-0.026,2.823-0.342,3.251,0.101c0.749,0.775-4.329,2.622-4.973,2.855c-0.812,0.294-0.65,1.393,0.199,1.473 c9.965,0.94,19.488,3.754,27.829,9.399C163.639,303.788,164.39,302.489,163.594,301.95z"/>
          </g>
        </g>
        <g>
          <g>
            <g>
              <path style="fill:#702624;" d="M112.004,292.1c2.035,0.779,3.733,1.877,5.532,3.076c0.406,0.271,0.764-0.37,0.379-0.648 c-1.723-1.238-3.834-2.028-5.869-2.579C111.947,291.923,111.912,292.065,112.004,292.1L112.004,292.1z"/>
            </g>
          </g>
          <g>
            <g>
              <path style="fill:#702624;" d="M114.504,287.02c1.283,1.162,2.518,2.391,3.671,3.683c1.155,1.294,2.1,2.777,3.281,4.039 c0.212,0.227,0.554-0.062,0.417-0.322c-1.574-3-4.603-5.532-7.294-7.497C114.523,286.88,114.452,286.973,114.504,287.02 L114.504,287.02z"/>
            </g>
          </g>
          <g>
            <g>
              <path style="fill:#702624;" d="M121.474,288.072c0.705,2.068,1.449,4.128,2.07,6.223c0.126,0.423,0.794,0.241,0.663-0.183 c-0.661-2.14-1.452-4.165-2.576-6.106C121.583,287.923,121.442,287.978,121.474,288.072L121.474,288.072z"/>
            </g>
          </g>
          <g>
            <g>
              <path style="fill:#702624;" d="M126.286,287.008c0.194,2.362,0.057,4.76-0.322,7.096c-0.072,0.441,0.599,0.634,0.678,0.187 c0.438-2.49,0.35-4.843-0.187-7.306C126.435,286.892,126.278,286.91,126.286,287.008L126.286,287.008z"/>
            </g>
          </g>
          <g>
            <g>
              <path style="fill:#702624;" d="M131.345,287.199c-1.914,1.743-3.485,3.976-4.127,6.513c-0.111,0.441,0.54,0.617,0.678,0.187 c0.794-2.462,1.817-4.644,3.559-6.59C131.523,287.235,131.42,287.132,131.345,287.199L131.345,287.199z"/>
            </g>
          </g>
          <g>
            <g>
              <path style="fill:#702624;" d="M137.519,289.608c-3.156,0.528-6.45,1.92-8.661,4.305c-0.223,0.241,0.078,0.693,0.369,0.479 c2.664-1.963,5.143-3.599,8.342-4.603C137.686,289.752,137.636,289.588,137.519,289.608L137.519,289.608z"/>
            </g>
          </g>
        </g>
      </g>
    </g>
  </g>
</svg>