<?xml version="1.0" encoding="utf-8"?>
<svg viewBox="63.5861 56.6432 167.2557 174.8533" width="167.2557" height="174.8533" xmlns="http://www.w3.org/2000/svg">
  <g transform="matrix(1, 0, 0, 1, -3.552713678800501e-15, 0)">
    <path style="fill:#ABDFFC;" d="M71.494,135.495c12.809-15.773,56.062-8.448,47.322-55.654 c-4.276-23.098,34.712-29.707,62.852-16.385c29.629,14.027,53.031,44.075,48.643,93.341 c-3.037,34.099-25.592,67.981-86.187,67.981C69.566,224.778,50.702,161.099,71.494,135.495z"/>
    <path style="fill:#ABDFFC;" d="M87.012,82.576c-25.497,10.13-33.079,57.561,16.195,33.309 C125.607,104.86,118.425,70.096,87.012,82.576z"/>
    <path style="fill:#ABDFFC;" d="M105.219,64.31c-8.14,4.097,2.511,16.078,7.308,11.184C117.325,70.601,112.511,60.64,105.219,64.31 z"/>
  </g>
  <g transform="matrix(1, 0, 0, 1, -3.552713678800501e-15, 0)">
    <g>
      <path style="fill:#F0F0FF;" d="M169.075,189.93h-43.687c-21.843,2.01-31.965,26.653-31.965,26.653 c17.134,15.23,53.808,14.913,53.808,14.913s36.674,0.317,53.808-14.913C201.04,216.583,190.918,191.939,169.075,189.93z"/>
      <path style="opacity:0.8;fill:#F0F0FF;" d="M125.388,189.93c-5.517,0.508-10.285,2.462-14.332,5.096 c16.608,7.565,36.14,7.886,36.14,7.886s19.566-0.321,36.182-7.905c-4.041-2.625-8.799-4.57-14.304-5.077H125.388z"/>
      <g>
        <g>
          <path style="fill:#4D4D87;" d="M201.728,216.332c-2.914-6.996-7.769-13.623-13.465-18.581 c-7.101-6.182-15.102-8.622-24.286-8.622c-10.216,0-20.432,0-30.648,0c-8.814,0-16.422,0.705-23.981,6.076 c-7.231,5.138-13.266,12.923-16.683,21.128c-0.371,0.89,1.08,1.278,1.446,0.399c2.705-6.496,7.612-13.161,13.079-17.919 c7.342-6.391,15.314-8.183,24.62-8.183c9.208,0,18.417,0,27.626,0c8.529,0,15.839,0.011,23.431,4.913 c7.563,4.883,14.045,13.099,17.414,21.189C200.647,217.609,202.099,217.224,201.728,216.332L201.728,216.332z"/>
        </g>
      </g>
      <path style="fill:#FFFFFF;" d="M110.206,225.872c17.189,5.79,36.637,5.624,36.637,5.624s20.041,0.171,37.414-5.891 c-4.251-6.168-13.805-19.325-37.028-19.325C123.671,206.281,114.484,219.821,110.206,225.872z"/>
      <g>
        <g>
          <g>
            <path style="fill:#FFFFFF;" d="M114.99,196.81c-1.752,0.757-3.426,1.91-4.492,3.521c-0.16,0.242,0.172,0.605,0.417,0.417 c1.472-1.133,2.863-2.316,4.461-3.277C115.81,197.211,115.431,196.62,114.99,196.81L114.99,196.81z"/>
          </g>
        </g>
        <g>
          <g>
            <path style="fill:#FFFFFF;" d="M116.483,203.061c-1.296,0.738-2.417,1.885-3.128,3.195c-0.203,0.375,0.276,0.75,0.589,0.454 c1.033-0.974,2.054-1.984,3.032-3.011C117.291,203.367,116.89,202.829,116.483,203.061L116.483,203.061z"/>
          </g>
        </g>
        <g>
          <g>
            <path style="fill:#FFFFFF;" d="M110.113,204.216c-1.687,0.961-3.243,2.527-4.087,4.287c-0.185,0.385,0.325,0.874,0.638,0.492 c1.228-1.499,2.425-2.974,3.742-4.399C110.591,204.397,110.357,204.077,110.113,204.216L110.113,204.216z"/>
          </g>
        </g>
        <g>
          <g>
            <path style="fill:#FFFFFF;" d="M103.19,207.905c-1.747,1.366-3.21,3.271-3.985,5.354c-0.185,0.498,0.546,0.737,0.814,0.343 c1.215-1.788,2.396-3.561,3.711-5.281C103.988,207.984,103.467,207.688,103.19,207.905L103.19,207.905z"/>
          </g>
        </g>
        <g>
          <g>
            <path style="fill:#FFFFFF;" d="M103.701,213.894c-1.201,1.542-2.278,3.532-2.176,5.543c0.021,0.406,0.532,0.442,0.675,0.091 c0.713-1.752,1.131-3.538,2.029-5.228C104.398,213.982,103.946,213.579,103.701,213.894L103.701,213.894z"/>
          </g>
        </g>
        <g>
          <g>
            <path style="fill:#FFFFFF;" d="M110.944,211.988c-0.953,1.133-1.857,2.438-2.145,3.919c-0.073,0.375,0.415,0.608,0.628,0.265 c0.755-1.211,1.33-2.522,2.13-3.71C111.802,212.098,111.231,211.647,110.944,211.988L110.944,211.988z"/>
          </g>
        </g>
        <g>
          <g>
            <path style="fill:#FFFFFF;" d="M119.483,209.113c-1.251,1.456-2.359,3.071-2.828,4.957c-0.091,0.365,0.419,0.594,0.614,0.259 c0.928-1.595,1.744-3.239,2.853-4.724C120.396,209.238,119.783,208.764,119.483,209.113L119.483,209.113z"/>
          </g>
        </g>
        <g>
          <g>
            <path style="fill:#FFFFFF;" d="M124.26,199.868c-1.486,1.24-2.971,2.61-3.92,4.318c-0.148,0.267,0.195,0.527,0.417,0.322 c1.408-1.303,2.623-2.803,4.022-4.12C125.129,200.059,124.618,199.57,124.26,199.868L124.26,199.868z"/>
          </g>
        </g>
        <g>
          <g>
            <path style="fill:#FFFFFF;" d="M122.418,194.774c-1.211,0.962-2.313,1.974-3.149,3.284c-0.139,0.218,0.165,0.424,0.344,0.265 c1.12-0.997,2.152-2.088,3.292-3.062C123.245,194.969,122.758,194.504,122.418,194.774L122.418,194.774z"/>
          </g>
        </g>
        <g>
          <g>
            <path style="fill:#FFFFFF;" d="M128.353,203.289c-0.605,0.75-1.18,1.523-1.706,2.331c-0.503,0.772-1.124,1.662-1.256,2.59 c-0.041,0.289,0.293,0.569,0.535,0.312c0.609-0.646,0.961-1.547,1.397-2.317c0.485-0.857,1.021-1.681,1.595-2.48 C129.153,203.396,128.61,202.971,128.353,203.289L128.353,203.289z"/>
          </g>
        </g>
        <g>
          <g>
            <path style="fill:#FFFFFF;" d="M129.918,196.908c-1.36,0.969-2.746,2.247-3.246,3.891c-0.078,0.258,0.272,0.467,0.457,0.266 c1.104-1.195,1.948-2.591,3.102-3.752C130.43,197.112,130.163,196.733,129.918,196.908L129.918,196.908z"/>
          </g>
        </g>
        <g>
          <g>
            <path style="fill:#FFFFFF;" d="M132.754,200.775c-0.689,1.126-1.382,2.325-1.524,3.657c-0.027,0.254,0.333,0.308,0.451,0.122 c0.68-1.071,1.091-2.299,1.707-3.409C133.618,200.731,133.001,200.371,132.754,200.775L132.754,200.775z"/>
          </g>
        </g>
        <g>
          <g>
            <path style="fill:#FFFFFF;" d="M136.939,197.651c-0.516,1.028-1.052,2.072-1.219,3.221c-0.053,0.369,0.427,0.644,0.643,0.271 c0.557-0.963,0.891-2.029,1.345-3.042C137.938,197.587,137.2,197.131,136.939,197.651L136.939,197.651z"/>
          </g>
        </g>
        <g>
          <g>
            <path style="fill:#FFFFFF;" d="M138.587,202.052c-0.113,0.932-0.416,2.031-0.182,2.953c0.059,0.232,0.415,0.293,0.528,0.069 c0.444-0.88,0.386-2.059,0.482-3.022C139.468,201.518,138.649,201.532,138.587,202.052L138.587,202.052z"/>
          </g>
        </g>
        <g>
          <g>
            <path style="fill:#FFFFFF;" d="M142.95,198.581c-0.057,0.857-0.169,1.735-0.025,2.586c0.063,0.373,0.69,0.373,0.753,0 c0.144-0.852,0.032-1.728-0.025-2.586C143.622,198.129,142.98,198.128,142.95,198.581L142.95,198.581z"/>
          </g>
        </g>
        <g>
          <g>
            <path style="fill:#FFFFFF;" d="M112.318,217.657c-0.783,1.097-1.669,2.558-1.57,3.96c0.021,0.301,0.433,0.456,0.597,0.162 c0.658-1.185,0.912-2.572,1.553-3.783C113.104,217.609,112.567,217.309,112.318,217.657L112.318,217.657z"/>
          </g>
        </g>
        <g>
          <g>
            <path style="fill:#FFFFFF;" d="M179.017,197.471c1.598,0.96,2.99,2.144,4.461,3.277c0.245,0.188,0.577-0.174,0.417-0.417 c-1.065-1.611-2.74-2.764-4.492-3.521C178.963,196.62,178.582,197.21,179.017,197.471L179.017,197.471z"/>
          </g>
        </g>
        <g>
          <g>
            <path style="fill:#FFFFFF;" d="M177.418,203.699c0.978,1.028,1.999,2.037,3.032,3.011c0.311,0.293,0.794-0.076,0.589-0.454 c-0.711-1.31-1.832-2.457-3.128-3.195C177.507,202.831,177.099,203.364,177.418,203.699L177.418,203.699z"/>
          </g>
        </g>
        <g>
          <g>
            <path style="fill:#FFFFFF;" d="M183.987,204.596c1.318,1.425,2.514,2.9,3.742,4.399c0.31,0.378,0.824-0.104,0.638-0.492 c-0.844-1.76-2.4-3.327-4.087-4.287C184.038,204.078,183.801,204.395,183.987,204.596L183.987,204.596z"/>
          </g>
        </g>
        <g>
          <g>
            <path style="fill:#FFFFFF;" d="M190.663,208.322c1.315,1.72,2.496,3.493,3.711,5.281c0.265,0.39,1.001,0.16,0.814-0.343 c-0.775-2.084-2.237-3.988-3.985-5.354C190.929,207.691,190.403,207.981,190.663,208.322L190.663,208.322z"/>
          </g>
        </g>
        <g>
          <g>
            <path style="fill:#FFFFFF;" d="M190.164,214.301c0.897,1.69,1.315,3.476,2.029,5.228c0.142,0.348,0.654,0.318,0.675-0.091 c0.102-2.012-0.975-4.001-2.176-5.543C190.449,213.582,189.993,213.979,190.164,214.301L190.164,214.301z"/>
          </g>
        </g>
        <g>
          <g>
            <path style="fill:#FFFFFF;" d="M182.835,212.461c0.8,1.188,1.375,2.499,2.13,3.71c0.212,0.34,0.702,0.113,0.628-0.265 c-0.288-1.48-1.192-2.786-2.145-3.919C183.165,211.65,182.588,212.094,182.835,212.461L182.835,212.461z"/>
          </g>
        </g>
        <g>
          <g>
            <path style="fill:#FFFFFF;" d="M174.271,209.605c1.109,1.485,1.924,3.128,2.852,4.724c0.193,0.332,0.706,0.11,0.614-0.259 c-0.469-1.886-1.577-3.501-2.829-4.957C174.613,208.768,173.994,209.234,174.271,209.605L174.271,209.605z"/>
          </g>
        </g>
        <g>
          <g>
            <path style="fill:#FFFFFF;" d="M169.614,200.388c1.399,1.317,2.614,2.818,4.022,4.12c0.22,0.203,0.566-0.053,0.417-0.322 c-0.949-1.708-2.434-3.078-3.92-4.318C169.776,199.571,169.264,200.059,169.614,200.388L169.614,200.388z"/>
          </g>
        </g>
        <g>
          <g>
            <path style="fill:#FFFFFF;" d="M171.489,195.26c1.14,0.974,2.172,2.065,3.292,3.062c0.177,0.158,0.484-0.045,0.343-0.265 c-0.836-1.31-1.939-2.322-3.149-3.284C171.635,194.504,171.148,194.969,171.489,195.26L171.489,195.26z"/>
          </g>
        </g>
        <g>
          <g>
            <path style="fill:#FFFFFF;" d="M165.475,203.724c0.574,0.8,1.11,1.623,1.595,2.48c0.437,0.772,0.786,1.668,1.397,2.317 c0.242,0.257,0.577-0.023,0.535-0.312c-0.133-0.93-0.753-1.817-1.256-2.59c-0.526-0.808-1.101-1.58-1.706-2.331 C165.786,202.974,165.237,203.392,165.475,203.724L165.475,203.724z"/>
          </g>
        </g>
        <g>
          <g>
            <path style="fill:#FFFFFF;" d="M164.163,197.313c1.154,1.161,1.998,2.558,3.102,3.752c0.185,0.2,0.535-0.008,0.457-0.266 c-0.5-1.645-1.886-2.922-3.246-3.891C164.233,196.735,163.961,197.11,164.163,197.313L164.163,197.313z"/>
          </g>
        </g>
        <g>
          <g>
            <path style="fill:#FFFFFF;" d="M161.005,201.145c0.617,1.11,1.028,2.338,1.707,3.409c0.118,0.186,0.479,0.132,0.451-0.122 c-0.142-1.332-0.836-2.533-1.524-3.657C161.393,200.372,160.775,200.731,161.005,201.145L161.005,201.145z"/>
          </g>
        </g>
        <g>
          <g>
            <path style="fill:#FFFFFF;" d="M156.685,198.1c0.454,1.013,0.788,2.079,1.345,3.042c0.214,0.37,0.696,0.101,0.643-0.271 c-0.166-1.149-0.702-2.192-1.219-3.221C157.193,197.132,156.455,197.587,156.685,198.1L156.685,198.1z"/>
          </g>
        </g>
        <g>
          <g>
            <path style="fill:#FFFFFF;" d="M154.978,202.052c0.096,0.964,0.037,2.143,0.482,3.022c0.113,0.224,0.469,0.164,0.528-0.069 c0.235-0.925-0.069-2.021-0.182-2.953C155.744,201.533,154.925,201.517,154.978,202.052L154.978,202.052z"/>
          </g>
        </g>
        <g>
          <g>
            <path style="fill:#FFFFFF;" d="M150.74,198.581c-0.058,0.857-0.169,1.735-0.025,2.586c0.063,0.373,0.69,0.373,0.753,0 c0.144-0.852,0.032-1.728-0.025-2.586C151.413,198.129,150.771,198.128,150.74,198.581L150.74,198.581z"/>
          </g>
        </g>
        <g>
          <g>
            <path style="fill:#FFFFFF;" d="M181.495,217.996c0.642,1.211,0.895,2.597,1.553,3.783c0.163,0.294,0.576,0.14,0.597-0.162 c0.099-1.403-0.787-2.863-1.57-3.96C181.827,217.31,181.289,217.608,181.495,217.996L181.495,217.996z"/>
          </g>
        </g>
        <g>
          <g>
            <path style="fill:#FFFFFF;" d="M146.766,201.075c-0.151,1.045-0.497,2.566,0.084,3.52c0.111,0.182,0.424,0.214,0.526,0 c0.458-0.963,0.116-2.407,0.034-3.433C147.383,200.823,146.822,200.683,146.766,201.075L146.766,201.075z"/>
          </g>
        </g>
      </g>
    </g>
    <g>
      <g>
        <g>
          <path style="fill:#F0F0FF;" d="M181.126,97.268c-18.455-12.991-49.369-12.991-67.824,0 c-27.511,19.367-30.204,56.985-22.011,73.369c12.281,24.562,55.924,25.274,55.924,25.274s43.643-0.712,55.923-25.274 C211.33,154.253,208.637,116.635,181.126,97.268z"/>
          <path style="opacity:0.8;fill:#F0F0FF;" d="M203.137,161.587c-12.281,24.562-55.923,25.274-55.923,25.274 s-43.642-0.712-55.924-25.274c-2.084-4.168-3.459-9.715-3.904-15.981c-0.676,9.924,0.861,18.945,3.904,25.032 c12.281,24.562,55.924,25.274,55.924,25.274s43.643-0.712,55.923-25.274c3.044-6.088,4.58-15.108,3.905-25.033 C206.596,151.872,205.222,157.418,203.137,161.587z"/>
          <g>
            <g>
              <g>
                <path style="fill:#FFFFFF;" d="M125.159,94.521c-1.829,0.48-3.566,1.642-4.562,3.268c-0.255,0.416,0.334,0.871,0.675,0.521 c1.258-1.29,2.522-2.384,4.116-3.246C125.687,94.902,125.481,94.437,125.159,94.521L125.159,94.521z"/>
              </g>
            </g>
            <g>
              <g>
                <path style="fill:#FFFFFF;" d="M124.623,97.367c-1.736,1.527-3.292,3.348-4.083,5.548c-0.138,0.382,0.443,0.605,0.642,0.271 c1.15-1.928,2.229-3.834,3.761-5.498C125.142,97.472,124.841,97.175,124.623,97.367L124.623,97.367z"/>
              </g>
            </g>
            <g>
              <g>
                <path style="fill:#FFFFFF;" d="M128.688,95.287c-1.505,1.708-2.822,3.661-3.431,5.874c-0.111,0.405,0.512,0.698,0.7,0.295 c0.932-1.998,1.867-3.907,3.283-5.617C129.557,95.457,129.024,94.906,128.688,95.287L128.688,95.287z"/>
              </g>
            </g>
            <g>
              <g>
                <path style="fill:#FFFFFF;" d="M92.078,137.7c-0.928,3.055-1.52,6.301-1.106,9.494c0.051,0.393,0.592,0.41,0.625,0 c0.25-3.143,0.392-6.239,1.069-9.332C92.749,137.48,92.193,137.323,92.078,137.7L92.078,137.7z"/>
              </g>
            </g>
            <g>
              <g>
                <path style="fill:#FFFFFF;" d="M92.814,144.523c-0.299,2.385-0.32,4.871,0.481,7.164c0.121,0.347,0.74,0.325,0.691-0.094 c-0.279-2.366-0.666-4.677-0.609-7.07C93.385,144.151,92.857,144.175,92.814,144.523L92.814,144.523z"/>
              </g>
            </g>
            <g>
              <g>
                <path style="fill:#FFFFFF;" d="M94.972,141.165c-0.241,1.818-0.37,3.788,0.259,5.541c0.125,0.349,0.681,0.317,0.675-0.091 c-0.027-1.833-0.303-3.609-0.153-5.45C95.794,140.655,95.036,140.681,94.972,141.165L94.972,141.165z"/>
              </g>
            </g>
            <g>
              <g>
                <path style="fill:#FFFFFF;" d="M192.189,116.461c1.847,2.21,2.723,4.723,3.938,7.277c0.169,0.355,0.795,0.191,0.757-0.205 c-0.282-2.91-2.217-5.532-4.253-7.514C192.338,115.734,191.935,116.157,192.189,116.461L192.189,116.461z"/>
              </g>
            </g>
            <g>
              <g>
                <path style="fill:#FFFFFF;" d="M192.65,121.351c0.65,1.225,1.194,2.513,1.591,3.843c0.326,1.093,0.506,2.225,0.957,3.275 c0.152,0.355,0.605,0.115,0.641-0.173c0.315-2.521-1.24-5.285-2.662-7.251C192.95,120.73,192.463,120.998,192.65,121.351 L192.65,121.351z"/>
              </g>
            </g>
            <g>
              <g>
                <path style="fill:#FFFFFF;" d="M188.799,119.926c0.995,1.608,1.735,3.431,2.878,4.932c0.21,0.276,0.677,0.13,0.585-0.247 c-0.453-1.859-1.662-3.548-2.708-5.126C189.246,119.018,188.5,119.443,188.799,119.926L188.799,119.926z"/>
              </g>
            </g>
            <g>
              <g>
                <path style="fill:#FFFFFF;" d="M139.096,106.644c-1.441,1.839-2.271,3.951-2.619,6.253 c-0.057,0.378,0.475,0.549,0.588,0.162c0.619-2.119,1.453-4.154,2.35-6.169 C139.499,106.701,139.251,106.447,139.096,106.644L139.096,106.644z"/>
              </g>
            </g>
            <g>
              <g>
                <path style="fill:#FFFFFF;" d="M139.436,110.814c-1.22,2.208-2.202,4.711-2.156,7.268c0.006,0.361,0.559,0.457,0.645,0.087 c0.564-2.424,0.994-4.761,2.038-7.048C140.122,110.772,139.629,110.464,139.436,110.814L139.436,110.814z"/>
              </g>
            </g>
            <g>
              <g>
                <path style="fill:#FFFFFF;" d="M142.85,108.759c-0.948,2.118-1.838,4.643-1.588,6.999c0.028,0.266,0.442,0.377,0.506,0.069 c0.489-2.348,0.674-4.601,1.553-6.869C143.425,108.688,142.969,108.493,142.85,108.759L142.85,108.759z"/>
              </g>
            </g>
            <g>
              <g>
                <path style="fill:#FFFFFF;" d="M165.491,94.421c2.598,1.694,4.867,3.538,6.97,5.817c0.293,0.318,0.761-0.086,0.577-0.445 c-1.458-2.843-4.594-4.36-7.302-5.791C165.459,93.857,165.23,94.251,165.491,94.421L165.491,94.421z"/>
              </g>
            </g>
            <g>
              <g>
                <path style="fill:#FFFFFF;" d="M167.711,98.6c1.745,1.875,3.078,4.101,4.84,5.941c0.232,0.242,0.744-0.008,0.601-0.35 c-1.002-2.389-3.044-4.379-4.9-6.133C167.893,97.719,167.375,98.239,167.711,98.6L167.711,98.6z"/>
              </g>
            </g>
            <g>
              <g>
                <path style="fill:#FFFFFF;" d="M164.361,98.215c1.313,1.823,2.525,3.719,4.02,5.4c0.296,0.332,0.807-0.093,0.601-0.464 c-1.092-1.975-2.571-3.681-4.032-5.391C164.676,97.441,164.111,97.868,164.361,98.215L164.361,98.215z"/>
              </g>
            </g>
          </g>
        </g>
        <g>
          <g>
            <path style="fill:#4D4D87;" d="M181.505,96.62c-26.225-17.865-65.225-11.269-83.254,14.845 c-12.811,18.555-19.025,51.853-0.414,68.939c12.526,11.499,32.983,16.401,49.73,16.248 c18.394-0.168,42.462-5.836,53.72-21.522c7.501-10.451,7.728-25.114,5.549-37.293 C203.883,121.332,195.15,106.481,181.505,96.62c-0.784-0.566-1.533,0.735-0.757,1.295 c20.408,14.747,32.486,46.014,22.659,70.302c-8.004,19.783-34.366,25.598-53.45,26.814 c-13.296,0.848-28.288-2.596-40.116-8.417c-10.653-5.242-18.444-13.5-20.828-25.321c-2.449-12.14-0.666-25.294,3.916-36.716 c6.425-16.019,19.265-28.979,36.024-33.794c17.043-4.897,36.972-2.967,51.796,7.132 C181.548,98.461,182.299,97.161,181.505,96.62z"/>
          </g>
        </g>
        <g>
          <path style="fill:#DBDBFC;" d="M160.583,150.757c-3.538-4.651-8.106-5.823-13.369-5.981c-5.263,0.158-9.831,1.33-13.369,5.981 c-3.077,4.045-6.27,19.436-3.037,26.934c3.233,7.499,16.407,7.167,16.407,7.167s13.173,0.332,16.406-7.167 C166.853,170.193,163.66,154.802,160.583,150.757z"/>
          <path style="opacity:0.8;fill:#F0F0FF;" d="M163.62,171.757c-3.233,7.499-16.406,7.167-16.406,7.167 s-13.174,0.332-16.407-7.167c-0.659-1.528-1.047-3.387-1.227-5.408c-0.319,4.221-0.044,8.392,1.227,11.342 c3.233,7.498,16.407,7.167,16.407,7.167s13.173,0.332,16.406-7.167c1.272-2.95,1.546-7.121,1.228-11.342 C164.668,168.37,164.279,170.229,163.62,171.757z"/>
          <g>
            <g>
              <path style="fill:#4D4D87;" d="M161.113,150.227c-6.351-7.594-19.824-8.674-26.809-1.184 c-5.673,6.084-6.92,19.145-4.899,26.82c3.158,11.993,26.688,13.12,33.691,4.143c5.463-7.004,2.824-22.76-1.866-29.627 c-0.541-0.792-1.842-0.043-1.295,0.757c4.65,6.807,7.66,24.224,0.026,29.772c-4.387,3.188-10.866,3.6-16.156,3.02 c-5.032-0.551-10.7-2.222-12.646-7.413c-1.872-4.994-0.983-11.55,0.109-16.61c1.248-5.783,3.378-11.151,9.43-13.329 c6.804-2.449,14.694-0.86,19.354,4.712C160.673,152.029,161.729,150.963,161.113,150.227z"/>
            </g>
          </g>
          <g>
            <path style="fill:#4D4D87;" d="M157.55,151.755c-2.928-3.947-17.744-3.947-20.673,0c-2.928,3.947,10.337,12.223,10.337,12.223 S160.479,155.703,157.55,151.755z"/>
            <g style="opacity:0.5;">
              <g>
                <path style="fill:#FFFFFF;" d="M138.973,152.794c5.547-1.706,10.451-0.254,15.997-0.53c0.431-0.021,0.52-0.619,0.102-0.752 c-5.041-1.604-11.443-1.265-16.195,1.053C138.749,152.628,138.839,152.835,138.973,152.794L138.973,152.794z"/>
              </g>
            </g>
            <g>
              <g>
                <g>
                  <path style="fill:#4D4D87;" d="M146.447,161.099c0,3.107,0,6.214,0,9.32c0,0.965,1.5,0.967,1.5,0c0-3.107,0-6.214,0-9.32 C147.947,160.133,146.447,160.132,146.447,161.099L146.447,161.099z"/>
                </g>
              </g>
              <g>
                <g>
                  <path style="fill:#4D4D87;" d="M136.74,169.753c0.804,1.264,2.025,2.365,3.389,2.981c2.79,1.259,5.464-0.001,7.598-1.897 c0.723-0.643-0.341-1.7-1.061-1.061c-2.844,2.528-6.49,2.588-8.631-0.78C137.519,168.184,136.22,168.935,136.74,169.753 L136.74,169.753z"/>
                </g>
              </g>
              <g>
                <g>
                  <path style="fill:#4D4D87;" d="M156.393,168.996c-2.14,3.366-5.786,3.309-8.631,0.78c-0.719-0.639-1.784,0.418-1.061,1.061 c2.134,1.897,4.807,3.156,7.598,1.897c1.364-0.616,2.585-1.716,3.389-2.981 C158.207,168.936,156.91,168.183,156.393,168.996L156.393,168.996z"/>
                </g>
              </g>
            </g>
          </g>
        </g>
        <g>
          <g>
            <path style="fill:#FFB6C3;" d="M106.603,163.495c-11.275-2.585-7.669-10.295,0-8.461 C117.219,157.572,115.828,165.611,106.603,163.495z"/>
            <path style="fill:#FFB6C3;" d="M187.825,163.495c11.275-2.585,7.669-10.295,0-8.461 C177.209,157.572,178.6,165.611,187.825,163.495z"/>
          </g>
          <path style="fill:#4D4D87;" d="M113.018,138.257c1.98-0.848,4.688-1.446,7.824-0.319c2.244,0.806,3.487-0.991,1.843-2.278 c-1.893-1.482-6.642-2.342-9.962-0.712c-3.32,1.63-3.092,2.743-2.827,3.376C110.162,138.957,111.157,139.054,113.018,138.257z"/>
          <path style="fill:#4D4D87;" d="M181.41,138.257c-1.98-0.848-4.688-1.446-7.824-0.319c-2.244,0.806-3.487-0.991-1.843-2.278 c1.893-1.482,6.642-2.342,9.962-0.712c3.32,1.63,3.092,2.743,2.827,3.376C184.266,138.957,183.271,139.054,181.41,138.257z"/>
          <g>
            <path style="fill:#4D4D87;" d="M165.151,149.683c1.17-2.007,2.614-3.734,4.4-5.233c1.774-1.477,3.96-2.646,6.406-3.041 c2.44-0.408,5.01,0.044,7.211,1.023c2.227,0.965,4.178,2.353,5.909,3.895l0.013,0.012c0.826,0.736,0.899,2.002,0.163,2.827 c-0.736,0.826-2.002,0.899-2.828,0.163c-0.047-0.042-0.093-0.088-0.136-0.133c-1.376-1.482-2.907-2.781-4.592-3.708 c-1.676-0.941-3.532-1.442-5.41-1.316c-1.878,0.12-3.754,0.867-5.424,2.011c-1.662,1.134-3.195,2.659-4.369,4.302 l-0.033,0.046c-0.251,0.351-0.739,0.433-1.09,0.182C165.042,150.477,164.952,150.028,165.151,149.683z"/>
          </g>
          <g>
            <path style="fill:#4D4D87;" d="M128.419,150.486c-1.174-1.644-2.707-3.168-4.369-4.302c-1.67-1.144-3.546-1.891-5.424-2.011 c-1.879-0.126-3.734,0.376-5.41,1.316c-1.685,0.927-3.216,2.226-4.592,3.708c-0.753,0.811-2.02,0.858-2.83,0.105 c-0.811-0.752-0.858-2.02-0.105-2.83c0.043-0.046,0.087-0.09,0.133-0.131l0.015-0.014c1.73-1.542,3.682-2.93,5.909-3.895 c2.2-0.979,4.77-1.432,7.211-1.023c2.447,0.395,4.632,1.565,6.406,3.041c1.786,1.499,3.231,3.226,4.4,5.233 c0.217,0.373,0.091,0.852-0.282,1.069c-0.351,0.204-0.795,0.105-1.028-0.218L128.419,150.486z"/>
          </g>
        </g>
      </g>
      <g>
        <g>
          <path style="fill:#F0F0FF;" d="M99.436,114.534c0,0-9.336-3.858-8.834-17.134c0.571-15.092,18.947-15.546,23.451,2.454 L99.436,114.534z"/>
          <g>
            <path style="fill:#DBDBFC;" d="M102.317,108.416c0,0-6.879-3.415-6.603-10.717c0.314-8.3,11.517-5.476,14.074,3.214"/>
            <g>
              <path style="fill:#4D4D87;" d="M102.696,107.769c-3.958-2.019-7.428-7.068-5.99-11.63c0.859-2.726,3.625-3.068,6.009-2.172 c3.15,1.185,5.334,4.029,6.35,7.146c0.298,0.914,1.747,0.523,1.446-0.399c-1.129-3.464-3.473-6.536-6.894-7.988 c-2.446-1.039-5.585-1.151-7.391,1.108c-4.022,5.029,0.933,12.792,5.712,15.23 C102.797,109.502,103.557,108.208,102.696,107.769L102.696,107.769z"/>
            </g>
          </g>
          <g>
            <g>
              <g>
                <path style="fill:#FFFFFF;" d="M92.67,94.119c-0.691,1.548-1.02,3.263-0.742,4.948c0.053,0.32,0.519,0.218,0.537-0.073 c0.101-1.597,0.257-3.124,0.69-4.67C93.234,94.043,92.795,93.838,92.67,94.119L92.67,94.119z"/>
              </g>
            </g>
            <g>
              <g>
                <path style="fill:#FFFFFF;" d="M93.684,96.586c-0.544,1.77-0.65,3.907-0.044,5.672c0.1,0.29,0.556,0.256,0.552-0.075 c-0.02-1.851-0.175-3.697-0.187-5.554C94.005,96.443,93.738,96.41,93.684,96.586L93.684,96.586z"/>
              </g>
            </g>
            <g>
              <g>
                <path style="fill:#FFFFFF;" d="M92.468,101.999c0.02,1.829,0.501,3.815,1.619,5.295c0.269,0.356,0.811,0.06,0.607-0.355 c-0.809-1.647-1.537-3.177-1.95-4.978C92.709,101.807,92.466,101.842,92.468,101.999L92.468,101.999z"/>
              </g>
            </g>
            <g>
              <g>
                <path style="fill:#FFFFFF;" d="M94.665,104.292c0.669,1.59,1.636,3.132,3.035,4.177c0.267,0.199,0.512-0.209,0.331-0.429 c-1.048-1.28-2.128-2.485-2.995-3.905C94.921,103.948,94.572,104.072,94.665,104.292L94.665,104.292z"/>
              </g>
            </g>
          </g>
        </g>
        <g>
          <g>
            <path style="fill:#4D4D87;" d="M99.814,113.887c-7.569-3.271-10.638-14.641-7.263-21.732 c1.984-4.169,6.303-6.098,10.737-4.734c5.61,1.726,8.59,7.357,10.04,12.634c0.256,0.93,1.703,0.535,1.446-0.399 c-1.563-5.685-4.794-11.543-10.711-13.564c-4.171-1.425-8.787-0.311-11.545,3.207c-5.881,7.503-2.313,22.059,6.537,25.884 C99.934,115.561,100.699,114.269,99.814,113.887L99.814,113.887z"/>
          </g>
        </g>
      </g>
      <g>
        <g>
          <path style="fill:#F0F0FF;" d="M194.992,114.534c0,0,9.336-3.858,8.834-17.134c-0.571-15.092-18.947-15.546-23.451,2.454 L194.992,114.534z"/>
          <g>
            <path style="fill:#DBDBFC;" d="M192.111,108.416c0,0,6.879-3.415,6.603-10.717c-0.314-8.3-11.517-5.476-14.074,3.214"/>
            <g>
              <path style="fill:#4D4D87;" d="M192.489,109.064c4.787-2.442,9.724-10.196,5.712-15.23c-1.736-2.179-4.744-2.157-7.139-1.211 c-3.546,1.401-5.989,4.54-7.146,8.091c-0.3,0.92,1.148,1.314,1.446,0.399c0.978-3.002,2.99-5.67,5.937-6.962 c2.437-1.068,5.498-0.954,6.422,1.987c1.434,4.564-2.029,9.609-5.99,11.63C190.872,108.207,191.63,109.502,192.489,109.064 L192.489,109.064z"/>
            </g>
          </g>
          <g>
            <g>
              <g>
                <path style="fill:#FFFFFF;" d="M201.273,94.324c0.433,1.547,0.589,3.074,0.69,4.67c0.018,0.287,0.484,0.395,0.537,0.073 c0.278-1.685-0.05-3.4-0.742-4.948C201.634,93.841,201.193,94.04,201.273,94.324L201.273,94.324z"/>
              </g>
            </g>
            <g>
              <g>
                <path style="fill:#FFFFFF;" d="M200.422,96.63c-0.012,1.856-0.167,3.704-0.187,5.554c-0.004,0.328,0.452,0.367,0.552,0.075 c0.606-1.765,0.5-3.902-0.044-5.672C200.691,96.411,200.423,96.441,200.422,96.63L200.422,96.63z"/>
              </g>
            </g>
            <g>
              <g>
                <path style="fill:#FFFFFF;" d="M201.684,101.962c-0.413,1.801-1.141,3.331-1.95,4.978c-0.204,0.414,0.338,0.712,0.607,0.355 c1.117-1.48,1.599-3.466,1.619-5.295C201.962,101.843,201.72,101.805,201.684,101.962L201.684,101.962z"/>
              </g>
            </g>
            <g>
              <g>
                <path style="fill:#FFFFFF;" d="M199.392,104.135c-0.867,1.419-1.947,2.625-2.995,3.905 c-0.179,0.218,0.062,0.631,0.331,0.429c1.399-1.045,2.366-2.587,3.035-4.177 C199.855,104.074,199.508,103.946,199.392,104.135L199.392,104.135z"/>
              </g>
            </g>
          </g>
        </g>
        <g>
          <g>
            <path style="fill:#4D4D87;" d="M195.371,115.182c8.835-3.818,12.442-18.395,6.537-25.884 c-2.772-3.515-7.363-4.625-11.545-3.207c-5.917,2.007-9.151,7.89-10.711,13.564c-0.256,0.932,1.19,1.33,1.446,0.399 c1.419-5.162,4.268-10.635,9.663-12.516c4.513-1.574,9.061,0.302,11.115,4.617c3.377,7.096,0.31,18.46-7.262,21.732 C193.73,114.269,194.493,115.561,195.371,115.182L195.371,115.182z"/>
          </g>
        </g>
      </g>
    </g>
  </g>
</svg>