<?xml version="1.0" encoding="utf-8"?>
<svg viewBox="39.1383 64.1393 180.3303 171.0681" width="180.3303" height="171.0681" xmlns="http://www.w3.org/2000/svg">
  <g transform="matrix(1, 0, 0, 1, 3.552713678800501e-15, 0)">
    <path style="fill:#BFB8FF;" d="M197.898,204.751c-21.548,23.613-49.244,23.698-66.825,23.698 c-21.653,0-55.809-5.617-66.459-23.378c-10.65-17.761,14.874-3.847-1.383-25.251c-16.257-21.404-20.132-45.709,0.497-80.483 c8.258-13.921,52.801-50.284,84.186-28.298c14.844,10.399,2.405,25.659,31.273,31.677 C214.937,110.17,223.187,177.038,197.898,204.751z"/>
    <path style="fill:#BFB8FF;" d="M63.725,189.243c-0.23,7.593-19.985-6.529-19.376-13.663 C44.958,168.446,63.983,180.708,63.725,189.243z"/>
    <path style="fill:#BFB8FF;" d="M177.339,99.344c-11.559-5.5,2.812-25.591,10.535-17.433S186.302,103.609,177.339,99.344z"/>
    <path style="fill:#BFB8FF;" d="M163.558,70.816c-4.939,0.377-1.844,16.301,4.998,16.735 C175.396,87.986,172.656,70.121,163.558,70.816z"/>
    <path style="fill:#BFB8FF;" d="M48.15,192.423c0.555,3.17,8.16,5.671,8.42,2.546C56.831,191.843,47.021,185.97,48.15,192.423z"/>
  </g>
  <g transform="matrix(1, 0, 0, 1, 3.552713678800501e-15, 0)">
    <path style="fill:#8A312D;" d="M151.164,193.64h-43.687c-21.843,2.01-31.965,26.653-31.965,26.653 c17.134,15.23,53.808,14.913,53.808,14.913s36.674,0.317,53.808-14.913C183.129,220.293,173.008,195.649,151.164,193.64z"/>
    <path style="fill:#FFD2A8;" d="M143.046,194.112h-27.449c-7.376,4.953-19.995,16.199-21.773,35.841 c16.897,5.409,35.498,5.254,35.498,5.254s18.601,0.156,35.497-5.254C163.04,210.311,150.422,199.065,143.046,194.112z"/>
    <path style="opacity:0.4;fill:#8A312D;" d="M129.286,205.621c0,0,19.775-0.513,35.127-7.555 c-3.809-2.29-8.214-3.964-13.249-4.427h-43.687c-5.049,0.464-9.463,2.146-13.279,4.445 C109.546,205.109,129.286,205.621,129.286,205.621z"/>
    <g>
      <g>
        <g>
          <g>
            <path style="fill:#511110;" d="M100.292,206.385c-3.263,3.407-5.63,7.67-6.969,12.188c-0.162,0.545,0.659,0.758,0.844,0.233 c1.561-4.444,3.7-8.359,6.432-12.184C100.729,206.44,100.444,206.227,100.292,206.385L100.292,206.385z"/>
          </g>
        </g>
        <g>
          <g>
            <path style="fill:#511110;" d="M93.634,211.927c-1.873,2.802-3.281,5.907-4.102,9.179c-0.152,0.605,0.763,0.858,0.934,0.257 c0.91-3.199,2.087-6.215,3.64-9.161C94.271,211.89,93.829,211.635,93.634,211.927L93.634,211.927z"/>
          </g>
        </g>
        <g>
          <g>
            <path style="fill:#511110;" d="M94.739,207.258c-2.015,2.374-3.623,5.096-4.702,8.019c-0.152,0.411,0.531,0.705,0.714,0.301 c1.266-2.802,2.698-5.441,4.393-8.007C95.303,207.329,94.93,207.033,94.739,207.258L94.739,207.258z"/>
          </g>
        </g>
      </g>
      <g>
        <g>
          <g>
            <path style="fill:#511110;" d="M173.013,208.103c2.329,3.837,4.765,7.604,7.11,11.425c0.189,0.308,0.585,0.088,0.543-0.229 c-0.291-2.163-1.669-3.924-2.922-5.648c-1.428-1.967-2.977-3.834-4.534-5.699 C173.117,207.842,172.94,207.984,173.013,208.103L173.013,208.103z"/>
          </g>
        </g>
        <g>
          <g>
            <path style="fill:#511110;" d="M174.423,213.452c0.702,1.383,1.355,2.786,2.009,4.192c0.641,1.378,1.162,2.914,2.05,4.149 c0.21,0.292,0.663,0.121,0.585-0.247c-0.615-2.927-2.74-5.796-4.334-8.275C174.608,213.076,174.319,213.246,174.423,213.452 L174.423,213.452z"/>
          </g>
        </g>
        <g>
          <g>
            <path style="fill:#511110;" d="M171.111,211.443c0.699,1.18,1.331,2.388,1.936,3.618c0.536,1.09,0.952,2.306,1.702,3.266 c0.194,0.249,0.508-0.035,0.47-0.274c-0.385-2.43-2.378-4.856-3.811-6.784C171.279,211.097,170.995,211.248,171.111,211.443 L171.111,211.443z"/>
          </g>
        </g>
      </g>
    </g>
    <g>
      <g>
        <path style="fill:#451816;" d="M183.817,220.042c-2.914-6.996-7.769-13.623-13.465-18.581 c-7.101-6.182-15.102-8.622-24.286-8.622c-10.216,0-20.432,0-30.648,0c-8.814,0-16.422,0.705-23.981,6.076 c-7.231,5.138-13.266,12.923-16.683,21.128c-0.371,0.89,1.08,1.278,1.446,0.399c2.705-6.496,7.612-13.161,13.079-17.919 c7.342-6.391,15.314-8.183,24.62-8.183c9.208,0,18.417,0,27.626,0c8.529,0,15.839,0.011,23.431,4.913 c7.563,4.883,14.045,13.099,17.414,21.189C182.737,221.319,184.189,220.934,183.817,220.042L183.817,220.042z"/>
      </g>
    </g>
  </g>
  <g transform="matrix(1, 0, 0, 1, 3.552713678800501e-15, 0)">
    <g>
      <path style="fill:#8A312D;" d="M186.339,156.96c0,0,14.913,5.673,25.631-4.853s9.398-35.196-9.32-42.215 c-16.777-6.291-25.568,8.621-25.568,13.748L186.339,156.96z"/>
      <path style="opacity:0.4;fill:#8A312D;" d="M210.385,148.404c6.358-6.243,8.479-17.463,5.247-27.024 c5.296,10.199,3.541,23.654-3.662,30.727c-10.718,10.526-25.631,4.853-25.631,4.853l-0.971-3.495 C188.271,154.385,200.95,157.669,210.385,148.404z"/>
      <path style="fill:#FFD2A8;" d="M188.436,154.164c0,0,9.786,3.961,18.874-4.427c9.087-8.388,6.291-25.631-6.058-28.194 s-17.01,7.492-18.175,11.552L188.436,154.164z"/>
      <g>
        <g>
          <path style="fill:#511110;" d="M188.237,154.887c14.795,5.679,29.5-10.476,23.903-24.73 c-2.664-6.785-9.428-10.553-16.641-9.654c-6.696,0.834-11.26,6.22-13.145,12.392c-0.283,0.925,1.165,1.321,1.446,0.399 c1.596-5.226,5.28-10.023,10.896-11.155c7.638-1.54,14.734,3.038,16.662,10.46c3.338,12.851-9.932,25.751-22.722,20.842 C187.734,153.095,187.343,154.544,188.237,154.887L188.237,154.887z"/>
        </g>
      </g>
      <g>
        <g>
          <path style="fill:#511110;" d="M189.395,158.573c9.199,1.777,19.089-0.348,25.009-8.115c4.899-6.426,6.084-15.36,4.243-23.094 c-4.382-18.402-29.888-28.059-40.577-9.298c-0.479,0.84,0.817,1.597,1.295,0.757c10.373-18.206,34.589-7.548,38.065,9.998 c1.327,6.697,0.27,14.236-3.637,19.933c-5.38,7.847-15.097,10.093-24,8.373C188.851,156.944,188.447,158.39,189.395,158.573 L189.395,158.573z"/>
        </g>
      </g>
      <g style="opacity:0.2;">
        <g>
          <path style="fill:#FFFFFF;" d="M214.961,127.428c-1.615-15.727-23.014-22.75-32.937-9.703 c-0.394,0.518,0.418,1.043,0.856,0.66c5.327-4.666,11.52-7.437,18.69-5.457c6.826,1.884,11.532,7.905,13.345,14.506 C214.921,127.458,214.964,127.455,214.961,127.428L214.961,127.428z"/>
        </g>
      </g>
    </g>
    <g>
      <path style="fill:#8A312D;" d="M72.268,156.96c0,0-14.913,5.673-25.631-4.853c-10.719-10.526-9.398-35.196,9.32-42.215 c16.777-6.291,25.568,8.621,25.568,13.748L72.268,156.96z"/>
      <path style="opacity:0.4;fill:#8A312D;" d="M48.222,148.404c-6.358-6.243-8.479-17.463-5.247-27.024 c-5.296,10.199-3.541,23.654,3.662,30.727c10.718,10.526,25.631,4.853,25.631,4.853l0.971-3.495 C70.336,154.385,57.657,157.669,48.222,148.404z"/>
      <path style="fill:#FFD2A8;" d="M70.171,154.164c0,0-9.786,3.961-18.874-4.427c-9.087-8.388-6.291-25.631,6.058-28.194 s17.01,7.492,18.175,11.552L70.171,154.164z"/>
      <g>
        <g>
          <path style="fill:#511110;" d="M69.972,153.441c-12.798,4.912-26.059-7.995-22.722-20.842 c1.926-7.414,9.046-11.996,16.662-10.46c5.62,1.133,9.298,5.923,10.896,11.155c0.281,0.921,1.729,0.528,1.446-0.399 c-1.823-5.968-6.132-11.226-12.544-12.297c-7.378-1.233-14.504,2.589-17.242,9.56c-5.598,14.252,9.107,30.409,23.903,24.73 C71.262,154.545,70.875,153.094,69.972,153.441L69.972,153.441z"/>
        </g>
      </g>
      <g>
        <g>
          <path style="fill:#511110;" d="M68.813,157.127c-8.629,1.667-17.948-0.328-23.474-7.67 c-4.338-5.763-5.547-13.654-4.162-20.636c3.478-17.542,27.685-28.216,38.065-9.998c0.478,0.839,1.774,0.084,1.295-0.757 c-10.689-18.761-36.194-9.108-40.577,9.298c-1.836,7.71-0.66,16.588,4.184,23.018c5.902,7.833,15.842,9.973,25.068,8.191 C70.159,158.39,69.758,156.944,68.813,157.127L68.813,157.127z"/>
        </g>
      </g>
      <g style="opacity:0.2;">
        <g>
          <path style="fill:#FFFFFF;" d="M43.693,127.434c1.842-6.706,6.524-12.47,13.345-14.506c7.094-2.118,13.449,0.867,18.69,5.457 c0.433,0.379,1.253-0.138,0.856-0.66c-9.924-13.048-31.323-6.023-32.938,9.703C43.644,127.454,43.686,127.459,43.693,127.434 L43.693,127.434z"/>
        </g>
      </g>
    </g>
    <g>
      <g>
        <path style="fill:#8A312D;" d="M193.686,163.124c-1.405-5.268-4.331-13.813-6.321-24.933 c-1.99-11.121-5.496-23.479-24.348-36.873c-5.16-3.666-11.527-6.464-18.37-8.173l0.028-0.002 c8.034-0.276,9.292-0.489,5.199-3.548c-4.093-3.06-11.36-3.748-11.36-3.748c4.211-2.807,7.196-5.912,2.07-5.912 s-12.594,3.16-12.594,3.16s-2.901-2.985-5.387-9.22c-2.486-6.234-5.699-4.59-6.579,2.371 c-0.88,6.961,1.874,12.316,1.874,12.316s-5.584-1.912-6.196-0.65c-0.612,1.262,1.645,4.284,1.645,4.284 c-7.152,0.612-6.401,3.142-6.401,3.142h0.001c-4.16,1.589-8.011,3.603-11.356,5.98c-18.852,13.395-22.358,25.753-24.348,36.873 c-1.99,11.121-4.916,19.666-6.321,24.933c-1.405,5.268,2.458,2.341,2.458,2.341c-2.458,13.93,3.278,10.184,3.278,10.184 c3.395,14.398,6.321,8.311,6.321,8.311c8.428,9.599,8.817,3.14,8.817,3.14c15.164,11.794,43.508,12.521,43.508,12.521 s28.344-0.727,43.508-12.521c0,0,0.389,6.459,8.817-3.14c0,0,2.926,6.087,6.321-8.311c0,0,5.736,3.746,3.278-10.184 C191.228,165.465,195.091,168.391,193.686,163.124z"/>
        <path style="opacity:0.4;fill:#8A312D;" d="M193.686,163.124c-0.389-1.459-0.897-3.178-1.467-5.124 c-0.144,2.163-2.678,0.248-2.678,0.248c2.391,13.551-3.188,9.906-3.188,9.906c-3.302,14.006-6.149,8.085-6.149,8.085 c-8.199,9.337-8.577,3.054-8.577,3.054c-14.751,11.473-42.323,12.18-42.323,12.18s-27.572-0.707-42.323-12.18 c0,0-0.378,6.283-8.577-3.054c0,0-2.847,5.921-6.149-8.085c0,0-5.58,3.644-3.188-9.906c0,0-2.534,1.915-2.679-0.248 c-0.57,1.947-1.078,3.666-1.467,5.124c-1.405,5.268,2.458,2.341,2.458,2.341c-2.458,13.93,3.278,10.184,3.278,10.184 c3.395,14.398,6.321,8.311,6.321,8.311c8.428,9.599,8.817,3.14,8.817,3.14c15.164,11.794,43.508,12.521,43.508,12.521 s28.344-0.727,43.508-12.521c0,0,0.389,6.459,8.817-3.14c0,0,2.926,6.087,6.321-8.311c0,0,5.736,3.746,3.278-10.184 C191.228,165.465,195.091,168.391,193.686,163.124z"/>
        <g>
          <g>
            <g>
              <g>
                <path style="fill:#511110;" d="M71.352,159.279c-2.029,4.335-3.309,9.538-2.333,14.319c0.077,0.377,0.658,0.283,0.66-0.089 c0.022-4.943,0.19-9.407,1.973-14.103C71.717,159.233,71.431,159.11,71.352,159.279L71.352,159.279z"/>
              </g>
            </g>
            <g>
              <g>
                <path style="fill:#511110;" d="M72.149,169.356c0.008,4.392,0.69,9.556,3.284,13.228c0.19,0.269,0.658,0.117,0.557-0.235 c-1.267-4.419-3-8.355-3.591-12.993C72.38,169.202,72.149,169.19,72.149,169.356L72.149,169.356z"/>
              </g>
            </g>
            <g>
              <g>
                <path style="fill:#511110;" d="M75.543,173.095c1.189,4.935,3.598,9.923,7.258,13.503c0.342,0.334,0.987-0.114,0.687-0.53 c-3.028-4.194-5.662-8.232-7.568-13.077C75.83,172.762,75.483,172.845,75.543,173.095L75.543,173.095z"/>
              </g>
            </g>
            <g>
              <g>
                <path style="fill:#511110;" d="M71.836,146.979c-1.594,4.882-3.439,10.012-4.244,15.091 c-0.055,0.348,0.399,0.476,0.527,0.145c1.856-4.797,2.838-10.158,3.913-15.182 C72.059,146.905,71.877,146.855,71.836,146.979L71.836,146.979z"/>
              </g>
            </g>
          </g>
          <g>
            <g>
              <g>
                <path style="fill:#511110;" d="M186.955,159.405c1.782,4.693,1.951,9.158,1.973,14.103c0.002,0.368,0.582,0.47,0.66,0.089 c0.976-4.78-0.304-9.985-2.333-14.319C187.177,159.112,186.889,159.231,186.955,159.405L186.955,159.405z"/>
              </g>
            </g>
            <g>
              <g>
                <path style="fill:#511110;" d="M186.208,169.356c-0.591,4.635-2.324,8.572-3.591,12.993 c-0.1,0.348,0.365,0.506,0.557,0.235c2.594-3.672,3.276-8.831,3.284-13.228 C186.458,169.191,186.228,169.201,186.208,169.356L186.208,169.356z"/>
              </g>
            </g>
            <g>
              <g>
                <path style="fill:#511110;" d="M182.687,172.992c-1.906,4.845-4.54,8.882-7.568,13.077 c-0.297,0.412,0.342,0.868,0.687,0.53c3.66-3.579,6.069-8.568,7.258-13.503 C183.124,172.846,182.777,172.762,182.687,172.992L182.687,172.992z"/>
              </g>
            </g>
            <g>
              <g>
                <path style="fill:#511110;" d="M186.575,147.033c1.075,5.022,2.057,10.386,3.913,15.182 c0.128,0.33,0.583,0.203,0.527-0.145c-0.806-5.079-2.649-10.207-4.244-15.091 C186.73,146.855,186.548,146.905,186.575,147.033L186.575,147.033z"/>
              </g>
            </g>
          </g>
        </g>
        <g>
          <g>
            <g>
              <path style="fill:#511110;" d="M114.526,89.733c1.258,1.036,2.453,2.16,3.565,3.351c0.995,1.066,1.807,2.576,2.998,3.397 c0.214,0.148,0.51-0.097,0.436-0.335c-0.433-1.39-1.888-2.601-2.919-3.577c-1.213-1.149-2.528-2.127-3.938-3.02 C114.557,89.48,114.422,89.648,114.526,89.733L114.526,89.733z"/>
            </g>
          </g>
          <g>
            <g>
              <path style="fill:#511110;" d="M119.37,73.862c0.253,7.908,1.442,16.085,6.094,22.704c0.296,0.421,0.976,0.045,0.701-0.41 c-4.208-6.967-5.885-14.228-6.483-22.294C119.668,73.664,119.363,73.659,119.37,73.862L119.37,73.862z"/>
            </g>
          </g>
          <g>
            <g>
              <path style="fill:#511110;" d="M139.621,81.657c-4.979,1.556-9.968,4.852-12.766,9.348c-0.211,0.34,0.298,0.752,0.564,0.435 c3.521-4.188,7.145-7.402,12.276-9.512C139.858,81.862,139.799,81.602,139.621,81.657L139.621,81.657z"/>
            </g>
          </g>
          <g>
            <g>
              <path style="fill:#511110;" d="M146.912,90.577c-6.148-1.518-12.629-0.164-17.06,4.583 c-0.276,0.295,0.144,0.712,0.442,0.442c4.572-4.139,10.423-6.268,16.601-4.965 C146.935,90.646,146.952,90.587,146.912,90.577L146.912,90.577z"/>
            </g>
          </g>
          <g>
            <g>
              <path style="fill:#511110;" d="M109.784,94.947c1.447,0.034,2.918,0.181,4.326,0.524c1.264,0.307,2.432,0.896,3.687,1.194 c0.328,0.078,0.462-0.328,0.217-0.514c-2.184-1.662-5.661-1.795-8.255-1.388C109.652,94.78,109.682,94.945,109.784,94.947 L109.784,94.947z"/>
            </g>
          </g>
        </g>
        <g>
          <g>
            <g>
              <path style="fill:#511110;" d="M181.074,118.407c-8.326-12.822-21.518-22.095-36.228-25.987 c-0.066,0.491-0.133,0.982-0.199,1.473c1.787-0.103,9.522,0.749,7.836-2.979c-1.844-4.078-10.166-5.418-13.968-5.819 c0.126,0.466,0.252,0.932,0.379,1.398c3.135-2.19,8.564-7.481,1.082-7.283c-3.404,0.09-7.256,1.051-10.348,2.447 c-0.199,0.09-1.199,0.585-1.524,0.586c-0.68,0.003,0.859,0.443,0.151,0.023c-1.123-0.666-2.328-3.27-2.943-4.389 c-1.24-2.255-4.399-12.389-8.389-7.104c-3.448,4.566-2.009,13.401,0.33,18.167c0.282-0.367,0.565-0.734,0.847-1.102 c-5.026-1.669-9.649-1.206-5.398,4.735c0.216-0.376,0.432-0.752,0.648-1.129c-1.914,0.224-7.831,0.763-7.124,4.092 c0.065,0.305,0.411,0.568,0.723,0.551c0,0,0.001,0,0.001,0c-0.067-0.491-0.133-0.982-0.199-1.473 c-11.814,4.708-22.414,13.232-29.316,23.957c-0.524,0.814,0.774,1.567,1.295,0.757c6.68-10.38,16.98-18.709,28.42-23.268 c0.722-0.288,0.717-1.524-0.199-1.473c0.242,0.187,0.484,0.373,0.726,0.56c0.145-0.561,0.508-0.911,1.088-1.05 c1.685-0.741,2.472-0.905,4.585-1.152c0.502-0.059,1.016-0.614,0.648-1.129c-0.968-1.353-1.735-2.913,0.833-3.324 c0.778-0.125,2.11,0.54,2.871,0.792c0.667,0.221,1.116-0.554,0.847-1.102c-0.699-1.425-1.147-2.995-1.468-4.543 c-0.492-2.371-0.805-16.013,4.56-10.085c1.665,1.84,2.454,5.457,3.936,7.626c0.577,0.846,1.185,1.693,1.886,2.443 c0.164,0.175,0.497,0.29,0.73,0.193c1.818-0.755,3.688-1.402,5.582-1.939c1.564-0.444,4.011-1.366,5.593-1.14 c4.327,0.618,0.61,3.177-1.229,4.461c-0.634,0.443-0.368,1.319,0.378,1.398c3.139,0.331,6.537,1.115,9.308,2.618 c1.528,0.828,3.968,1.882,2.173,2.856c-1.245,0.676-3.97,0.245-5.348,0.325c-0.818,0.047-1.05,1.248-0.199,1.473 c14.339,3.794,27.212,12.794,35.331,25.298C180.302,119.971,181.601,119.22,181.074,118.407L181.074,118.407z"/>
            </g>
          </g>
          <g>
            <g>
              <path style="fill:#511110;" d="M65.954,156.812c-0.505,1.724-4.468,13.805,1.804,9.301 c-0.367-0.282-0.735-0.565-1.102-0.847c-0.676,4.219-2.123,10.191,2.8,11.57c0.359,0.1,0.956-0.452,1.225-0.354 c-0.119-0.044,0.126,2.794,0.552,4.014c0.561,1.606,1.477,4.803,3.416,5.347c1.228,0.344,1.438-0.503,2.388-0.672 c0.201-0.036,0.426-0.799,0.573-0.8c-1.008,0.01,3.073,4.306,3.924,4.777c2.271,1.257,4.762,0.903,5.012-2.048 c-0.376,0.216-0.752,0.432-1.128,0.648c11.828,8.857,29.221,12.648,43.887,12.624c14.69-0.024,32.029-3.744,43.887-12.624 c-0.376-0.216-0.752-0.432-1.129-0.648c0.25,2.95,2.74,3.305,5.012,2.048c0.492-0.273,0.926-0.655,1.37-0.995 c0.499-0.383,0.972-0.797,1.42-1.242c0.881-0.387,1.251-0.993,1.112-1.819c1.617-1.012-1.065-0.271,0.512-0.011 c0.987,0.162,1.153,1.131,2.47,0.762c1.783-0.5,2.657-3.294,3.207-4.774c0.327-0.881,1.12-4.834,0.667-4.628 c0.228-0.103,0.975,0.465,1.318,0.396c5.02-1.012,3.416-7.723,2.8-11.57c-0.367,0.282-0.734,0.565-1.102,0.847 c6.301,4.525,2.295-7.623,1.803-9.301c-0.271-0.924-1.719-0.531-1.446,0.399c0.266,0.91,2.935,9.428,0.4,7.607 c-0.593-0.426-1.193,0.276-1.102,0.847c0.139,0.867,1.924,11.883-2.176,9.337c-0.405-0.252-0.987-0.014-1.102,0.448 c-0.18,0.723-3.123,11.737-4.95,8.132c-0.213-0.42-0.865-0.495-1.178-0.152c-0.854,0.937-7.19,7.75-7.537,3.67 c-0.042-0.5-0.63-1.021-1.128-0.648c-11.598,8.684-28.739,12.443-43.13,12.419c-14.414-0.024-31.503-3.713-43.13-12.419 c-0.499-0.374-1.086,0.148-1.129,0.648c-0.351,4.139-6.801-2.863-7.537-3.67c-0.313-0.343-0.965-0.268-1.178,0.152 c-1.807,3.564-4.743-7.302-4.95-8.132c-0.115-0.462-0.696-0.7-1.102-0.448c-4.103,2.547-2.328-8.388-2.176-9.337 c0.091-0.568-0.511-1.271-1.102-0.847c-2.535,1.821,0.134-6.697,0.4-7.607C67.673,156.282,66.225,155.886,65.954,156.812 L65.954,156.812z"/>
            </g>
          </g>
        </g>
      </g>
      <g>
        <path style="fill:#FFD2A8;" d="M181.446,154.164c-2.238-2.53-2.595-3.643-2.796-9.628c-0.296-8.784-5.596-27.667-18.731-32.314 c-20.415-7.223-23.677,6.99-30.615,6.291c-6.939,0.699-10.201-13.515-30.615-6.291c-13.135,4.647-18.435,23.53-18.731,32.314 c-0.201,5.985-0.559,7.098-2.796,9.628c-2.17,2.453-9.782,11.301,6.524,24.699c16.306,13.398,36.129,13.725,45.618,13.725 c9.489,0,29.312-0.327,45.618-13.725C191.228,165.465,183.616,156.617,181.446,154.164z"/>
        <path style="opacity:0.4;fill:#FFD2A8;" d="M174.922,174.491c-16.306,13.398-36.129,13.725-45.618,13.725 c-9.489,0-29.312-0.327-45.618-13.725c-6.578-5.404-9.26-10.067-9.981-13.87c-0.858,4.344,0.606,10.539,9.981,18.243 c16.306,13.398,36.129,13.725,45.618,13.725c9.489,0,29.312-0.327,45.618-13.725c9.375-7.703,10.839-13.898,9.981-18.243 C184.182,164.423,181.499,169.086,174.922,174.491z"/>
      </g>
      <g>
        <g>
          <g>
            <path style="fill:#FFB6C3;" d="M88.692,167.205c-11.275-2.585-7.669-10.295,0-8.461 C99.309,161.282,97.918,169.321,88.692,167.205z"/>
            <path style="fill:#FFB6C3;" d="M169.915,167.205c11.275-2.585,7.669-10.295,0-8.461 C159.298,161.282,160.689,169.321,169.915,167.205z"/>
          </g>
          <path style="fill:#511110;" d="M95.108,143.966c1.98-0.848,4.688-1.446,7.824-0.319c2.244,0.806,3.487-0.991,1.843-2.277 c-1.894-1.482-6.643-2.342-9.962-0.712c-3.32,1.63-3.092,2.743-2.827,3.376C92.252,144.667,93.247,144.764,95.108,143.966z"/>
          <path style="fill:#511110;" d="M163.499,143.966c-1.98-0.848-4.688-1.446-7.824-0.319c-2.244,0.806-3.487-0.991-1.843-2.277 c1.893-1.482,6.642-2.342,9.962-0.712c3.32,1.63,3.092,2.743,2.827,3.376C166.356,144.667,165.36,144.764,163.499,143.966z"/>
          <g>
            <g>
              <path style="fill:#511110;" d="M147.241,155.393c1.17-2.007,2.614-3.734,4.4-5.233c1.774-1.477,3.96-2.646,6.406-3.041 c2.44-0.408,5.01,0.044,7.21,1.023c2.227,0.965,4.178,2.353,5.909,3.895l0.013,0.012c0.826,0.736,0.899,2.002,0.163,2.827 c-0.736,0.826-2.002,0.899-2.827,0.163c-0.047-0.042-0.094-0.088-0.136-0.133c-1.376-1.482-2.907-2.781-4.592-3.708 c-1.676-0.941-3.532-1.442-5.41-1.316c-1.878,0.12-3.754,0.867-5.424,2.011c-1.662,1.134-3.195,2.659-4.369,4.302 l-0.033,0.046c-0.251,0.351-0.739,0.433-1.09,0.182C147.132,156.187,147.042,155.738,147.241,155.393z"/>
            </g>
          </g>
          <g>
            <g>
              <path style="fill:#511110;" d="M110.509,156.195c-1.174-1.643-2.707-3.168-4.369-4.302c-1.67-1.144-3.546-1.891-5.424-2.011 c-1.878-0.126-3.734,0.376-5.41,1.316c-1.685,0.927-3.216,2.226-4.592,3.708c-0.752,0.811-2.02,0.858-2.83,0.105 c-0.811-0.752-0.858-2.02-0.105-2.83c0.043-0.046,0.087-0.09,0.133-0.131l0.015-0.014c1.73-1.542,3.682-2.93,5.909-3.895 c2.2-0.979,4.77-1.432,7.211-1.023c2.446,0.395,4.632,1.564,6.406,3.041c1.786,1.499,3.231,3.226,4.4,5.233 c0.217,0.373,0.091,0.852-0.282,1.069c-0.351,0.204-0.795,0.105-1.028-0.218L110.509,156.195z"/>
            </g>
          </g>
        </g>
        <g>
          <g>
            <g>
              <g>
                <g>
                  <path style="fill:#511110;" d="M128.536,161.851c0,3.489,0,6.978,0,10.467c0,0.965,1.5,0.967,1.5,0 c0-3.489,0-6.978,0-10.467C130.036,160.886,128.536,160.884,128.536,161.851L128.536,161.851z"/>
                </g>
              </g>
              <g>
                <g>
                  <path style="fill:#511110;" d="M128.908,171.98c-4.106,2.594-7.781,0.003-9.389-4.097c-0.21-0.535-0.803-0.73-1.254-0.331 c-0.613,0.552-1.388,0.513-2.324-0.117c-0.794-0.553-1.544,0.747-0.757,1.295c1.375,0.958,2.838,1.038,4.142-0.117 c-0.418-0.11-0.836-0.221-1.254-0.331c1.939,4.947,6.556,8.175,11.592,4.994 C130.479,172.76,129.727,171.462,128.908,171.98L128.908,171.98z"/>
                </g>
              </g>
              <g>
                <g>
                  <path style="fill:#511110;" d="M128.942,173.275c5.037,3.182,9.653-0.046,11.592-4.994 c-0.418,0.11-0.836,0.221-1.254,0.331c1.302,1.154,2.763,1.078,4.142,0.117c0.786-0.548,0.038-1.849-0.757-1.295 c-0.936,0.63-1.711,0.669-2.324,0.117c-0.45-0.399-1.044-0.204-1.254,0.331c-1.604,4.092-5.287,6.688-9.388,4.097 C128.881,171.462,128.128,172.76,128.942,173.275L128.942,173.275z"/>
                </g>
              </g>
            </g>
            <path style="fill:#511110;" d="M121.631,158.487c-0.349,1.968,7.672,4.764,7.672,4.764s8.022-2.796,7.672-4.764 C136.626,156.519,121.981,156.519,121.631,158.487z"/>
            <g style="opacity:0.7;">
              <g>
                <path style="fill:#FFFFFF;" d="M123.203,158.606c1.953-0.032,3.906-0.149,5.859-0.112c1.959,0.037,3.898,0.42,5.848,0.401 c0.219-0.002,0.245-0.299,0.05-0.368c-3.527-1.249-8.202-0.969-11.766,0.011 C123.155,158.548,123.163,158.607,123.203,158.606L123.203,158.606z"/>
              </g>
            </g>
          </g>
          <g>
            <g>
              <path style="fill:#511110;" d="M121.021,156.442c5.096-2.654,11.39-2.408,16.486,0c0.868,0.41,1.63-0.883,0.757-1.295 c-5.62-2.656-12.384-2.925-18,0C119.408,155.593,120.165,156.888,121.021,156.442L121.021,156.442z"/>
            </g>
          </g>
        </g>
      </g>
    </g>
  </g>
</svg>