<?xml version="1.0" encoding="utf-8"?>
<svg viewBox="60.2144 272.2601 169.2957 171.0964" width="169.2957" height="171.0964" xmlns="http://www.w3.org/2000/svg">
  <g transform="matrix(1, 0, 0, 1, -3.552713678800501e-15, 0)">
    <path style="fill:#FFC97D;" d="M151.634,439.335c68.815,0.358,88.69-62.577,72.63-89.283 c-10.472-17.413-56.062-8.448-47.322-55.655c4.276-23.098-39.743-27.355-67.184-16.326 c-30.416,12.225-53.532,38.361-40.034,77.727c9.94,28.988,15.438,33.953,6.773,46.032 C70.105,410.744,92.208,439.026,151.634,439.335z"/>
    <path style="fill:#FFC97D;" d="M208.747,297.133c25.497,10.13,33.079,57.561-16.195,33.309 C170.152,319.417,177.334,284.652,208.747,297.133z"/>
    <path style="fill:#FFC97D;" d="M190.54,278.866c8.14,4.097-2.511,16.078-7.309,11.185 C178.434,285.157,183.248,275.196,190.54,278.866z"/>
    <path style="fill:#FFC97D;" d="M60.455,373.115c-2.522,7.729,15.589,27.927,16.825,20.052 C78.515,385.292,63.735,363.062,60.455,373.115z"/>
    <path style="fill:#FFC97D;" d="M69.532,402.913c-6.723,1.938-9.014-4.404-1.307-5.429 C75.933,396.459,76.445,400.92,69.532,402.913z"/>
  </g>
  <g transform="matrix(1, 0, 0, 1, -3.552713678800501e-15, 0)">
    <g>
      <path style="fill:#7A2F2F;" d="M169.075,401.79h-43.687c-21.843,2.009-31.965,26.653-31.965,26.653 c17.134,15.23,53.808,14.913,53.808,14.913s36.674,0.317,53.808-14.913C201.04,428.443,190.918,403.8,169.075,401.79z"/>
      <path style="opacity:0.3;fill:#7A2F2F;" d="M182.936,406.59c-3.946-2.482-8.555-4.312-13.861-4.8h-43.687 c-5.32,0.49-9.939,2.327-13.892,4.819c16.574,7.66,35.7,7.163,35.7,7.163S166.354,414.27,182.936,406.59z"/>
      <path style="fill:#A1423F;" d="M110.206,437.732c17.189,5.79,36.637,5.624,36.637,5.624s20.041,0.172,37.414-5.891 c-4.251-6.168-13.805-19.325-37.028-19.325C123.671,418.141,114.484,431.681,110.206,437.732z"/>
      <g>
        <g>
          <path style="fill:#3F0D0D;" d="M201.728,428.192c-2.914-6.996-7.769-13.623-13.465-18.581 c-7.101-6.182-15.102-8.622-24.286-8.622c-10.216,0-20.432,0-30.648,0c-8.814,0-16.422,0.705-23.981,6.076 c-7.231,5.138-13.266,12.923-16.683,21.128c-0.371,0.89,1.08,1.278,1.446,0.399c2.705-6.496,7.612-13.161,13.079-17.919 c7.342-6.391,15.314-8.183,24.62-8.183c9.208,0,18.417,0,27.626,0c8.529,0,15.839,0.011,23.431,4.913 c7.563,4.883,14.045,13.099,17.414,21.189C200.647,429.469,202.099,429.084,201.728,428.192L201.728,428.192z"/>
        </g>
      </g>
      <g style="opacity:0.5;">
        <g>
          <g>
            <path style="fill:#702624;" d="M103.913,419.706c-1.537,1.5-3.003,3.236-3.813,5.246c-0.108,0.269,0.305,0.412,0.45,0.19 c1.159-1.783,2.215-3.559,3.67-5.129C104.409,419.808,104.114,419.51,103.913,419.706L103.913,419.706z"/>
          </g>
        </g>
        <g>
          <g>
            <path style="fill:#702624;" d="M103.382,423.059c-1.453,1.307-2.516,3.095-2.585,5.081c-0.011,0.31,0.466,0.375,0.541,0.073 c0.45-1.807,1.103-3.424,2.417-4.782C103.993,423.186,103.634,422.833,103.382,423.059L103.382,423.059z"/>
          </g>
        </g>
        <g>
          <g>
            <path style="fill:#702624;" d="M107.591,420.793c-1.403,1.064-2.597,2.444-3.123,4.151c-0.087,0.283,0.342,0.469,0.482,0.203 c0.785-1.491,1.646-2.864,2.925-3.987C108.072,420.989,107.805,420.631,107.591,420.793L107.591,420.793z"/>
          </g>
        </g>
        <g>
          <g>
            <path style="fill:#702624;" d="M124.881,413.583c-0.832,1.212-1.571,2.664-1.571,4.162c0,0.266,0.367,0.299,0.449,0.061 c0.474-1.376,0.809-2.696,1.597-3.945C125.548,413.559,125.079,413.294,124.881,413.583L124.881,413.583z"/>
          </g>
        </g>
        <g>
          <g>
            <path style="fill:#702624;" d="M126.665,413.978c-0.492,0.71-0.808,1.513-0.82,2.383c-0.004,0.301,0.498,0.387,0.541,0.073 c0.106-0.786,0.301-1.517,0.724-2.196C127.288,413.953,126.851,413.709,126.665,413.978L126.665,413.978z"/>
          </g>
        </g>
        <g>
          <g>
            <path style="fill:#702624;" d="M182.562,425.256c0.957,1.482,1.719,3.084,2.688,4.553c0.205,0.311,0.806,0.116,0.643-0.271 c-0.696-1.649-1.817-3.12-2.906-4.53C182.799,424.765,182.385,424.982,182.562,425.256L182.562,425.256z"/>
          </g>
        </g>
        <g>
          <g>
            <path style="fill:#702624;" d="M186.334,426.754c0.598,1.186,1.195,2.373,1.792,3.559c0.202,0.402,0.83,0.043,0.607-0.355 c-0.648-1.157-1.296-2.314-1.944-3.47C186.622,426.189,186.182,426.452,186.334,426.754L186.334,426.754z"/>
          </g>
        </g>
        <g>
          <g>
            <path style="fill:#702624;" d="M186.413,423.371c0.939,1.161,1.687,2.414,2.409,3.716c0.255,0.459,0.927,0.055,0.698-0.408 c-0.682-1.378-1.618-2.633-2.627-3.788C186.602,422.557,186.142,423.037,186.413,423.371L186.413,423.371z"/>
          </g>
        </g>
        <g>
          <g>
            <path style="fill:#702624;" d="M171.307,415.42c0.89,0.94,1.627,1.999,2.224,3.147c0.229,0.44,0.91,0.047,0.668-0.39 c-0.658-1.189-1.492-2.237-2.486-3.162C171.443,414.762,171.052,415.151,171.307,415.42L171.307,415.42z"/>
          </g>
        </g>
        <g>
          <g>
            <path style="fill:#702624;" d="M173.68,415.719c0.975,1.264,1.789,2.61,2.618,3.97c0.255,0.418,0.899,0.044,0.658-0.384 c-0.789-1.402-1.821-2.686-2.889-3.884C173.884,415.216,173.508,415.496,173.68,415.719L173.68,415.719z"/>
          </g>
        </g>
        <g>
          <g>
            <path style="fill:#702624;" d="M124.497,411.025c-1.053,1.426-2.189,3.114-2.492,4.892c-0.038,0.225,0.274,0.401,0.396,0.167 c0.848-1.621,1.403-3.324,2.41-4.875C124.941,411.009,124.633,410.841,124.497,411.025L124.497,411.025z"/>
          </g>
        </g>
      </g>
    </g>
    <g>
      <g>
        <path style="fill:#7A2F2F;" d="M181.126,309.128c-8.889-7.122-21.346-10.365-33.912-10.159 c-12.566-0.206-25.023,3.037-33.912,10.159c-38.396,30.765-30.208,71.561-27.594,74.426c0.908,0.996,2.339-1.978,2.339-1.978 c7.018,21.415,9.503,12.943,9.503,12.943c5.263,6.871,9.201,3.609,9.201,3.608c17.417,10.249,40.463,9.644,40.463,9.644 s23.046,0.604,40.463-9.644c0.001,0.001,3.938,3.263,9.201-3.608c0,0,2.485,8.472,9.503-12.943c0,0,1.431,2.974,2.339,1.978 C211.334,380.689,219.522,339.893,181.126,309.128z"/>
        <path style="opacity:0.3;fill:#7A2F2F;" d="M209.429,352.457c1.502,12.472-0.833,21.657-2.012,22.949 c-0.889,0.975-2.29-1.936-2.29-1.936c-6.869,20.961-9.301,12.668-9.301,12.668c-5.151,6.725-9.006,3.532-9.006,3.531 c-17.048,10.031-39.605,9.44-39.605,9.44s-22.557,0.591-39.605-9.44c0,0.001-3.855,3.194-9.006-3.531 c0,0-2.433,8.292-9.302-12.668c0,0-1.4,2.91-2.29,1.936c-1.179-1.293-3.514-10.477-2.012-22.95 c-3.842,16.51-0.727,29.525,0.708,31.098c0.908,0.996,2.339-1.978,2.339-1.978c7.018,21.415,9.503,12.943,9.503,12.943 c5.263,6.871,9.201,3.609,9.201,3.608c17.417,10.249,40.463,9.644,40.463,9.644s23.046,0.604,40.463-9.644 c0.001,0.001,3.938,3.263,9.201-3.608c0,0,2.485,8.472,9.503-12.943c0,0,1.431,2.974,2.339,1.978 C210.156,381.981,213.27,368.966,209.429,352.457z"/>
        <g style="opacity:0.5;">
          <g>
            <g>
              <g>
                <path style="fill:#702624;" d="M85.492,373.314c-0.245,2.125-0.289,4.543,0.74,6.487c0.218,0.412,0.899,0.13,0.757-0.319 c-0.651-2.062-0.895-4.074-1.205-6.208C85.757,373.095,85.509,373.164,85.492,373.314L85.492,373.314z"/>
              </g>
            </g>
            <g>
              <g>
                <path style="fill:#702624;" d="M98.139,391.164c0.694,1.556,1.7,3.441,3.228,4.32c0.211,0.121,0.479-0.126,0.342-0.342 c-0.454-0.713-1.061-1.311-1.574-1.981c-0.556-0.727-1.024-1.508-1.43-2.327C98.517,390.45,97.971,390.786,98.139,391.164 L98.139,391.164z"/>
              </g>
            </g>
            <g>
              <g>
                <path style="fill:#702624;" d="M92.691,388.452c0.469,1.55,1.155,3.096,2.206,4.343c0.262,0.311,0.746-0.088,0.552-0.426 c-0.784-1.369-1.61-2.683-2.258-4.128C93.063,387.957,92.603,388.159,92.691,388.452L92.691,388.452z"/>
              </g>
            </g>
            <g>
              <g>
                <path style="fill:#702624;" d="M93.874,383.939c0.395,1.516,0.998,3.516,2.241,4.558c0.221,0.185,0.654,0.017,0.535-0.312 c-0.254-0.705-0.698-1.319-1.044-1.982c-0.413-0.793-0.745-1.611-1.01-2.464C94.454,383.28,93.751,383.47,93.874,383.939 L93.874,383.939z"/>
              </g>
            </g>
            <g>
              <g>
                <path style="fill:#702624;" d="M90.732,381.82c0.262,1.506,0.709,3.183,1.691,4.39c0.187,0.23,0.59-0.017,0.496-0.289 c-0.496-1.441-1.236-2.77-1.675-4.243C91.145,381.346,90.674,381.488,90.732,381.82L90.732,381.82z"/>
              </g>
            </g>
            <g>
              <g>
                <path style="fill:#702624;" d="M91.582,376.311c0.128,1.721,0.482,3.521,1.446,4.982c0.195,0.295,0.724,0.117,0.6-0.253 c-0.541-1.607-1.172-3.125-1.478-4.806C92.092,375.916,91.558,375.986,91.582,376.311L91.582,376.311z"/>
              </g>
            </g>
            <g>
              <g>
                <path style="fill:#702624;" d="M88.511,373.862c-0.009,1.526,0.189,3.958,1.448,5.012c0.177,0.148,0.553,0.073,0.52-0.216 c-0.091-0.808-0.559-1.504-0.812-2.272c-0.277-0.844-0.488-1.719-0.619-2.597C89.002,373.478,88.513,373.562,88.511,373.862 L88.511,373.862z"/>
              </g>
            </g>
            <g>
              <g>
                <path style="fill:#702624;" d="M86.663,367.36c-0.309,1.609-0.42,3.549,0.414,5.024c0.139,0.246,0.606,0.157,0.568-0.154 c-0.204-1.636-0.648-3.131-0.536-4.81C87.125,367.168,86.712,367.108,86.663,367.36L86.663,367.36z"/>
              </g>
            </g>
            <g>
              <g>
                <path style="fill:#702624;" d="M98.155,386.721c0.528,1.64,1.287,3.325,2.553,4.524c0.294,0.278,0.673-0.07,0.528-0.407 c-0.66-1.533-1.686-2.926-2.595-4.322C98.483,386.275,98.058,386.422,98.155,386.721L98.155,386.721z"/>
              </g>
            </g>
            <g>
              <g>
                <path style="fill:#702624;" d="M102.107,392.809c0.59,0.928,1.448,2.174,2.573,2.461c0.22,0.056,0.444-0.195,0.309-0.402 c-0.294-0.448-0.715-0.754-1.099-1.122c-0.424-0.406-0.83-0.818-1.188-1.284 C102.44,392.123,101.862,392.425,102.107,392.809L102.107,392.809z"/>
              </g>
            </g>
          </g>
          <g>
            <g>
              <g>
                <path style="fill:#702624;" d="M208.645,373.275c-0.311,2.133-0.554,4.146-1.205,6.208c-0.14,0.445,0.536,0.736,0.757,0.319 c1.03-1.945,0.985-4.362,0.74-6.487C208.919,373.165,208.671,373.094,208.645,373.275L208.645,373.275z"/>
              </g>
            </g>
            <g>
              <g>
                <path style="fill:#702624;" d="M195.722,390.833c-0.405,0.819-0.873,1.601-1.43,2.327c-0.513,0.669-1.12,1.269-1.574,1.981 c-0.137,0.216,0.131,0.463,0.342,0.342c1.528-0.879,2.535-2.764,3.228-4.32C196.457,390.786,195.912,390.45,195.722,390.833 L195.722,390.833z"/>
              </g>
            </g>
            <g>
              <g>
                <path style="fill:#702624;" d="M201.237,388.241c-0.648,1.445-1.474,2.759-2.258,4.128c-0.192,0.335,0.287,0.74,0.552,0.426 c1.051-1.247,1.737-2.793,2.206-4.343C201.824,388.162,201.366,387.954,201.237,388.241L201.237,388.241z"/>
              </g>
            </g>
            <g>
              <g>
                <path style="fill:#702624;" d="M199.831,383.74c-0.265,0.853-0.596,1.672-1.01,2.464c-0.346,0.663-0.79,1.277-1.044,1.982 c-0.118,0.329,0.314,0.497,0.535,0.312c1.243-1.043,1.846-3.043,2.241-4.558C200.676,383.471,199.974,383.28,199.831,383.74 L199.831,383.74z"/>
              </g>
            </g>
            <g>
              <g>
                <path style="fill:#702624;" d="M203.184,381.679c-0.439,1.473-1.179,2.802-1.675,4.243 c-0.093,0.271,0.309,0.519,0.496,0.289c0.982-1.207,1.429-2.883,1.691-4.39 C203.754,381.488,203.283,381.345,203.184,381.679L203.184,381.679z"/>
              </g>
            </g>
            <g>
              <g>
                <path style="fill:#702624;" d="M202.278,376.234c-0.306,1.681-0.937,3.199-1.478,4.806c-0.124,0.367,0.403,0.551,0.6,0.253 c0.964-1.462,1.317-3.26,1.446-4.982C202.87,375.99,202.337,375.913,202.278,376.234L202.278,376.234z"/>
              </g>
            </g>
            <g>
              <g>
                <path style="fill:#702624;" d="M205.38,373.789c-0.132,0.879-0.342,1.753-0.619,2.597c-0.253,0.768-0.72,1.465-0.812,2.272 c-0.033,0.29,0.342,0.365,0.52,0.216c1.26-1.055,1.457-3.487,1.448-5.012C205.915,373.565,205.426,373.475,205.38,373.789 L205.38,373.789z"/>
              </g>
            </g>
            <g>
              <g>
                <path style="fill:#702624;" d="M207.319,367.42c0.112,1.679-0.333,3.174-0.536,4.81c-0.039,0.31,0.429,0.4,0.568,0.154 c0.834-1.476,0.723-3.413,0.414-5.024C207.717,367.111,207.302,367.165,207.319,367.42L207.319,367.42z"/>
              </g>
            </g>
            <g>
              <g>
                <path style="fill:#702624;" d="M195.788,386.516c-0.91,1.396-1.935,2.789-2.595,4.322c-0.144,0.334,0.231,0.687,0.528,0.407 c1.266-1.199,2.025-2.885,2.553-4.524C196.369,386.424,195.947,386.272,195.788,386.516L195.788,386.516z"/>
              </g>
            </g>
            <g>
              <g>
                <path style="fill:#702624;" d="M191.727,392.462c-0.358,0.466-0.765,0.879-1.188,1.284 c-0.384,0.368-0.805,0.674-1.099,1.122c-0.135,0.206,0.088,0.458,0.309,0.402c1.125-0.287,1.982-1.532,2.573-2.461 C192.565,392.425,191.988,392.123,191.727,392.462L191.727,392.462z"/>
              </g>
            </g>
          </g>
          <g>
            <g>
              <g>
                <path style="fill:#702624;" d="M131.528,303.451c-1.037,0.478-1.874,1.151-2.598,2.038c-0.583,0.714-1.335,1.737-1.25,2.705 c0.024,0.273,0.347,0.446,0.56,0.232c0.607-0.609,0.882-1.53,1.387-2.23c0.605-0.841,1.388-1.587,2.209-2.218 C132.144,303.74,131.891,303.283,131.528,303.451L131.528,303.451z"/>
              </g>
            </g>
            <g>
              <g>
                <path style="fill:#702624;" d="M136.883,303.553c-1.065,1.274-2.109,2.872-2.257,4.568 c-0.033,0.381,0.586,0.561,0.742,0.201c0.652-1.505,1.095-2.989,2.067-4.343 C137.666,303.657,137.139,303.246,136.883,303.553L136.883,303.553z"/>
              </g>
            </g>
            <g>
              <g>
                <path style="fill:#702624;" d="M142.625,303.153c-0.988,1.173-2.105,3.021-1.644,4.613c0.073,0.252,0.493,0.359,0.614,0.08 c0.282-0.65,0.366-1.345,0.583-2.018c0.252-0.783,0.649-1.484,1.146-2.136C143.629,303.294,142.95,302.767,142.625,303.153 L142.625,303.153z"/>
              </g>
            </g>
            <g>
              <g>
                <path style="fill:#702624;" d="M138.254,309.407c-0.919,1.388-1.643,3.242-1.446,4.93c0.05,0.424,0.623,0.547,0.767,0.104 c0.513-1.578,0.807-3.165,1.421-4.721C139.173,309.272,138.495,309.043,138.254,309.407L138.254,309.407z"/>
              </g>
            </g>
            <g>
              <g>
                <path style="fill:#702624;" d="M132.05,310.107c-1.333,1.193-2.347,2.982-2.27,4.814c0.019,0.446,0.603,0.502,0.752,0.102 c0.592-1.583,1.116-3.075,2.07-4.49C132.835,310.188,132.335,309.852,132.05,310.107L132.05,310.107z"/>
              </g>
            </g>
            <g>
              <g>
                <path style="fill:#702624;" d="M141.153,313.863c-0.858,1.591-1.195,3.514-0.52,5.233c0.156,0.397,0.816,0.386,0.798-0.108 c-0.061-1.66-0.03-3.203,0.493-4.8C142.073,313.734,141.38,313.442,141.153,313.863L141.153,313.863z"/>
              </g>
            </g>
            <g>
              <g>
                <path style="fill:#702624;" d="M145.164,308.465c-0.899,1.606-1.17,3.631-0.811,5.432c0.056,0.28,0.495,0.271,0.557,0 c0.395-1.725,0.289-3.48,0.825-5.191C145.842,308.367,145.337,308.156,145.164,308.465L145.164,308.465z"/>
              </g>
            </g>
            <g>
              <g>
                <path style="fill:#702624;" d="M134.451,313.622c-1.092,1.158-1.563,3.077-1.316,4.638c0.062,0.391,0.745,0.399,0.799,0 c0.102-0.755,0.105-1.518,0.261-2.267c0.156-0.747,0.381-1.47,0.518-2.22C134.738,313.631,134.566,313.5,134.451,313.622 L134.451,313.622z"/>
              </g>
            </g>
            <g>
              <g>
                <path style="fill:#702624;" d="M146.958,301.705c-0.701,1.393-0.65,3.142-0.12,4.586c0.14,0.382,0.813,0.366,0.767-0.104 c-0.139-1.433-0.209-2.898-0.094-4.333C147.534,301.563,147.087,301.448,146.958,301.705L146.958,301.705z"/>
              </g>
            </g>
            <g>
              <g>
                <path style="fill:#702624;" d="M146.917,314.768c0.18,1.426,0.068,2.907-0.094,4.333c-0.053,0.47,0.622,0.482,0.767,0.104 c0.548-1.426,0.643-3.223-0.12-4.586C147.336,314.378,146.879,314.466,146.917,314.768L146.917,314.768z"/>
              </g>
            </g>
            <g>
              <g>
                <path style="fill:#702624;" d="M162.592,303.977c0.821,0.631,1.603,1.377,2.209,2.218c0.505,0.701,0.779,1.621,1.387,2.23 c0.214,0.215,0.536,0.041,0.56-0.232c0.085-0.97-0.665-1.991-1.25-2.705c-0.726-0.887-1.558-1.558-2.598-2.038 C162.538,303.283,162.284,303.739,162.592,303.977L162.592,303.977z"/>
              </g>
            </g>
            <g>
              <g>
                <path style="fill:#702624;" d="M156.992,303.979c0.972,1.354,1.415,2.84,2.067,4.343c0.156,0.36,0.776,0.18,0.743-0.201 c-0.148-1.696-1.192-3.295-2.257-4.568C157.291,303.25,156.759,303.654,156.992,303.979L156.992,303.979z"/>
              </g>
            </g>
            <g>
              <g>
                <path style="fill:#702624;" d="M151.103,303.693c0.497,0.652,0.894,1.352,1.147,2.136c0.217,0.673,0.301,1.368,0.583,2.018 c0.121,0.279,0.54,0.174,0.614-0.08c0.461-1.592-0.657-3.441-1.644-4.613C151.481,302.772,150.796,303.29,151.103,303.693 L151.103,303.693z"/>
              </g>
            </g>
            <g>
              <g>
                <path style="fill:#702624;" d="M155.432,309.72c0.613,1.556,0.907,3.143,1.421,4.721c0.143,0.44,0.717,0.323,0.767-0.104 c0.198-1.687-0.526-3.542-1.445-4.93C155.936,309.047,155.253,309.267,155.432,309.72L155.432,309.72z"/>
              </g>
            </g>
            <g>
              <g>
                <path style="fill:#702624;" d="M161.825,310.533c0.954,1.415,1.478,2.907,2.07,4.49c0.148,0.397,0.733,0.347,0.752-0.102 c0.077-1.832-0.937-3.621-2.27-4.814C162.095,309.855,161.591,310.185,161.825,310.533L161.825,310.533z"/>
              </g>
            </g>
            <g>
              <g>
                <path style="fill:#702624;" d="M152.504,314.188c0.522,1.594,0.554,3.14,0.493,4.8c-0.018,0.49,0.641,0.508,0.798,0.108 c0.674-1.718,0.337-3.642-0.52-5.233C153.05,313.447,152.353,313.729,152.504,314.188L152.504,314.188z"/>
              </g>
            </g>
            <g>
              <g>
                <path style="fill:#702624;" d="M148.692,308.706c0.536,1.711,0.431,3.467,0.825,5.191c0.062,0.271,0.502,0.28,0.557,0 c0.358-1.801,0.087-3.827-0.812-5.432C149.092,308.159,148.585,308.364,148.692,308.706L148.692,308.706z"/>
              </g>
            </g>
            <g>
              <g>
                <path style="fill:#702624;" d="M159.716,313.774c0.137,0.75,0.363,1.473,0.518,2.22c0.156,0.749,0.159,1.511,0.261,2.267 c0.054,0.399,0.737,0.392,0.799,0c0.247-1.562-0.224-3.479-1.316-4.638C159.862,313.5,159.689,313.631,159.716,313.774 L159.716,313.774z"/>
              </g>
            </g>
          </g>
        </g>
        <g style="opacity:0.3;">
          <g>
            <path style="fill:#FFFFFF;" d="M86.916,363.915c1.462-13.702,6.414-25.859,14.136-37.19c0.187-0.275-0.258-0.627-0.466-0.36 c-8.363,10.713-13.004,24.063-13.92,37.55C86.655,364.077,86.899,364.072,86.916,363.915L86.916,363.915z"/>
          </g>
        </g>
      </g>
      <g>
        <path style="fill:#A1423F;" d="M158.936,368.788c-3.655-2.485-11.687-1.901-11.687-1.901s-8.032-0.585-11.687,1.901 c-3.655,2.485-8.041,16.521-4.094,25.293c3.947,8.772,15.781,7.71,15.781,7.71s11.833,1.063,15.781-7.71 C166.977,385.309,162.591,371.273,158.936,368.788z"/>
        <path style="opacity:0.5;fill:#A1423F;" d="M163.029,389.344c-3.947,8.772-15.781,7.71-15.781,7.71s-11.833,1.063-15.781-7.71 c-0.808-1.797-1.263-3.815-1.45-5.909c-0.303,3.709,0.04,7.513,1.45,10.645c3.947,8.772,15.781,7.71,15.781,7.71 s11.833,1.063,15.781-7.71c1.41-3.133,1.753-6.936,1.45-10.645C164.292,385.529,163.838,387.548,163.029,389.344z"/>
        <g>
          <g>
            <path style="fill:#3F0D0D;" d="M159.314,368.14c-5.301-3.015-16.865-3.203-22.518-0.807 c-7.433,3.15-8.531,16.568-7.191,23.283c1.69,8.467,8.901,11.82,16.878,11.959c5.788,0.101,12.2-0.904,15.88-5.891 c5.084-6.89,4.048-22.808-2.898-28.426c-0.744-0.602-1.812,0.453-1.061,1.061c3.803,3.076,5.031,9.811,5.35,14.406 c0.435,6.255-1.093,12.916-7.256,15.751c-4.299,1.978-10.823,2.183-15.464,1.02c-12.415-3.11-12.738-19.839-6.752-29.073 c3.563-5.496,19.037-4.966,24.273-1.987C159.398,369.913,160.154,368.618,159.314,368.14z"/>
          </g>
        </g>
        <path style="fill:#3F0D0D;" d="M157.404,365.425c-1.901-3.801-18.48-3.801-20.38,0s4.444,11.388,10.19,12.127 C152.96,376.813,159.305,369.226,157.404,365.425z"/>
        <g style="opacity:0.7;">
          <g>
            <path style="fill:#FFFFFF;" d="M139.648,366.507c5.157-2.097,10.359-0.401,15.579,0.175c0.383,0.042,0.535-0.565,0.197-0.728 c-4.346-2.098-11.818-2.653-15.98,0.067C139.206,366.176,139.354,366.626,139.648,366.507L139.648,366.507z"/>
          </g>
        </g>
        <g>
          <g>
            <path style="fill:#3F0D0D;" d="M146.464,377.552c0,2.683,0,5.366,0,8.049c0,0.965,1.5,0.967,1.5,0c0-2.683,0-5.366,0-8.049 C147.964,376.587,146.464,376.585,146.464,377.552L146.464,377.552z"/>
          </g>
        </g>
        <g>
          <g>
            <path style="fill:#3F0D0D;" d="M153.955,378.369c-0.464,8.623-12.947,8.643-13.412,0c-0.052-0.96-1.552-0.966-1.5,0 c0.239,4.438,3.565,8.227,8.206,8.206c4.642-0.021,7.965-3.737,8.206-8.206C155.507,377.405,154.007,377.408,153.955,378.369 L153.955,378.369z"/>
          </g>
        </g>
        <g>
          <g>
            <path style="fill:#A1423F;" d="M106.603,381.444c-11.275-2.585-7.669-10.295,0-8.461 C117.219,375.521,115.828,383.559,106.603,381.444z"/>
            <path style="fill:#A1423F;" d="M187.825,381.444c11.275-2.585,7.669-10.295,0-8.461 C177.209,375.521,178.6,383.559,187.825,381.444z"/>
          </g>
          <path style="fill:#3F0D0D;" d="M113.018,346.117c1.98-0.848,4.688-1.446,7.824-0.319c2.244,0.806,3.487-0.991,1.843-2.278 c-1.893-1.482-6.642-2.342-9.962-0.712c-3.32,1.63-3.092,2.743-2.827,3.376C110.162,346.818,111.157,346.914,113.018,346.117z"/>
          <path style="fill:#3F0D0D;" d="M181.41,346.117c-1.98-0.848-4.688-1.446-7.824-0.319c-2.244,0.806-3.487-0.991-1.843-2.278 c1.893-1.482,6.642-2.342,9.962-0.712c3.32,1.63,3.092,2.743,2.827,3.376C184.266,346.818,183.271,346.914,181.41,346.117z"/>
          <g>
            <g>
              <path style="fill:#FFFFFF;" d="M118.057,347.395c-11.696-0.296-13.917,13.769-9.919,20.135 c1.999,3.183,4.498,5.395,9.919,5.395c5.247,0,7.921-2.212,9.919-5.395C131.973,361.164,129.753,347.099,118.057,347.395z"/>
              <g>
                <g>
                  <path style="fill:#3F0D0D;" d="M129.994,355.965c-2.411-8.08-11.94-12.562-19.274-7.157 c-5.666,4.176-6.611,13.248-3.231,19.1c0.483,0.836,1.779,0.081,1.295-0.757c-2.718-4.705-2.338-11.769,1.416-15.853 c5.959-6.482,16.039-2.668,18.347,5.065C128.823,357.287,130.271,356.894,129.994,355.965L129.994,355.965z"/>
                </g>
              </g>
              <ellipse style="fill:#3F0D0D;" cx="121.101" cy="360.577" rx="7.399" ry="9.146"/>
            </g>
            <g>
              <path style="fill:#7A2F2F;" d="M104.018,367.21c0,0,10.954-0.135,19.609,8.114 C123.627,375.324,107.94,376.811,104.018,367.21z"/>
              <g>
                <g>
                  <path style="fill:#3F0D0D;" d="M104.018,367.96c7.002-0.02,13.993,3.269,19.079,7.894c0.713,0.648,1.777-0.41,1.061-1.061 c-5.381-4.893-12.734-8.354-20.139-8.334C103.053,366.462,103.051,367.962,104.018,367.96L104.018,367.96z"/>
                </g>
              </g>
            </g>
          </g>
          <g>
            <g>
              <path style="fill:#FFFFFF;" d="M176.163,347.395c11.696-0.296,13.917,13.769,9.919,20.135 c-1.999,3.183-4.498,5.395-9.919,5.395c-5.247,0-7.921-2.212-9.919-5.395C162.246,361.164,164.467,347.099,176.163,347.395z"/>
              <g>
                <g>
                  <path style="fill:#3F0D0D;" d="M165.672,356.364c2.312-7.75,12.393-11.539,18.347-5.065 c3.753,4.081,4.133,11.15,1.417,15.853c-0.484,0.837,0.812,1.594,1.295,0.757c3.38-5.852,2.434-14.925-3.231-19.1 c-7.329-5.402-16.864-0.921-19.274,7.157C163.949,356.892,165.396,357.288,165.672,356.364L165.672,356.364z"/>
                </g>
              </g>
              <ellipse style="fill:#3F0D0D;" cx="173.119" cy="360.577" rx="7.399" ry="9.146"/>
            </g>
            <g>
              <path style="fill:#7A2F2F;" d="M190.48,367.21c0,0-10.954-0.135-19.609,8.114C170.871,375.324,186.558,376.811,190.48,367.21 z"/>
              <g>
                <g>
                  <path style="fill:#3F0D0D;" d="M190.48,366.46c-7.405-0.021-14.759,3.441-20.139,8.334 c-0.716,0.651,0.348,1.709,1.061,1.061c5.088-4.627,12.076-7.914,19.079-7.894 C191.445,367.962,191.447,366.462,190.48,366.46L190.48,366.46z"/>
                </g>
              </g>
            </g>
          </g>
        </g>
      </g>
      <g>
        <g>
          <path style="fill:#3F0D0D;" d="M181.505,308.481c-12.252-9.405-28.625-11.63-43.639-9.757 c-15.168,1.893-26.918,9.681-36.796,21.071c-13.25,15.278-20.971,36.26-18.134,56.575c0.396,2.834,2.216,12.423,5.758,5.586 c-0.457-0.06-0.914-0.119-1.371-0.179c1.04,3.103,3.605,14.492,8.162,15.097c1.43,0.19,2.389-0.869,2.787-2.155 c-0.418,0.11-0.836,0.221-1.254,0.331c1.619,1.921,3.484,3.995,6.091,4.467c1.272,0.23,2.178-0.318,3.333-0.347 c1.821-0.045,4.901,2.228,7.032,3.113c2.903,1.206,5.888,2.198,8.922,3.017c8.06,2.177,16.472,3.221,24.818,3.221 c8.349,0,16.752-1.052,24.818-3.221c3.034-0.816,6.02-1.812,8.922-3.017c2.051-0.852,5.204-3.157,6.942-3.151 c1.017,0.004,1.855,0.597,2.998,0.465c2.797-0.323,4.812-2.528,6.514-4.548c-0.418-0.11-0.836-0.221-1.254-0.331 c0.398,1.287,1.357,2.345,2.787,2.155c4.538-0.603,7.143-12.055,8.162-15.097c-0.457,0.06-0.914,0.119-1.371,0.179 c2.295,4.43,4.168,1.687,5.004-1.548c1.474-5.707,1.538-11.898,1.052-17.731c-1.805-21.67-13.488-40.499-30.133-54.078 c-0.742-0.605-1.809,0.45-1.061,1.061c14.827,12.097,25.767,28.277,28.981,47.343c0.99,5.876,1.268,11.942,0.602,17.872 c-0.217,1.931-0.503,3.902-1.056,5.771c-0.549,1.852-0.801,3.05-2.094,0.554c-0.314-0.607-1.178-0.397-1.371,0.179 c-1.085,3.239-2.187,6.512-3.7,9.582c-0.534,1.083-1.436,3.491-2.613,4.017c-0.944,0.422-1.4,0.451-1.743-0.656 c-0.154-0.499-0.872-0.783-1.254-0.331c-1.794,2.129-5.249,5.789-8.292,3.491c-0.209-0.158-0.544-0.121-0.757,0 c-22.992,13.049-57.178,13.049-80.169,0c-0.213-0.121-0.548-0.158-0.757,0c-3.043,2.298-6.498-1.362-8.292-3.491 c-0.381-0.452-1.099-0.168-1.254,0.331c-0.346,1.117-0.808,1.073-1.743,0.656c-1.103-0.492-2.119-3.026-2.613-4.017 c-1.526-3.06-2.617-6.348-3.7-9.582c-0.192-0.574-1.057-0.785-1.371-0.179c-1.769,3.414-2.192-0.712-2.586-2.64 c-0.734-3.587-0.947-7.293-0.909-10.947c0.12-11.505,3.208-22.931,8.69-33.031c7.74-14.26,20.565-27.943,36.484-32.555 c16.786-4.863,37.543-3.092,51.669,7.752C181.513,310.363,182.261,309.061,181.505,308.481z"/>
        </g>
      </g>
      <g>
        <path style="fill:#7A2F2F;" d="M101.351,324.05c0,0-11.404,1.023-16.082-11.55c-4.678-12.573,6.433-21.638,16.082-18.714 c9.649,2.924,12.337,12.719,12.455,19.006L101.351,324.05z"/>
        <g>
          <path style="fill:#A1423F;" d="M104.275,318.495c0,0-8.772-1.754-9.795-9.211c-1.023-7.456,4.825-10.819,9.795-6.14 c4.971,4.678,3.07,13.012,3.07,13.012"/>
          <g>
            <path style="fill:#3F0D0D;" d="M104.474,317.772c-5.827-1.222-12.11-7.448-8.524-13.772c3.171-5.593,9.237,0.172,10.415,4.073 c0.745,2.467,0.807,5.36,0.257,7.884c-0.205,0.941,1.241,1.343,1.446,0.399c0.83-3.811,0.514-8.332-1.587-11.688 c-2.15-3.434-7.03-6.167-10.574-3.011c-3.482,3.1-2.721,9.255-0.095,12.617c1.968,2.518,5.145,4.291,8.263,4.945 C105.017,319.415,105.42,317.97,104.474,317.772L104.474,317.772z"/>
          </g>
        </g>
        <g style="opacity:0.5;">
          <g>
            <g>
              <path style="fill:#702624;" d="M89.297,314.145c0.179,2.009,1.468,4.741,3.681,5.152c0.349,0.065,0.652-0.348,0.365-0.627 c-0.666-0.647-1.474-1.102-2.07-1.83c-0.66-0.806-1.125-1.768-1.362-2.778C89.832,313.725,89.265,313.789,89.297,314.145 L89.297,314.145z"/>
            </g>
          </g>
          <g>
            <g>
              <path style="fill:#702624;" d="M85.701,308.424c-0.157,1.483,0.175,3.029,1.101,4.221c0.192,0.247,0.655-0.022,0.535-0.312 c-0.541-1.311-1.037-2.551-1.283-3.957C86.016,308.161,85.72,308.239,85.701,308.424L85.701,308.424z"/>
            </g>
          </g>
          <g>
            <g>
              <path style="fill:#702624;" d="M89.777,309.033c0.025,1.874,0.723,3.798,2.288,4.915c0.274,0.196,0.67-0.196,0.47-0.47 c-1.02-1.404-1.882-2.779-2.145-4.527C90.338,308.598,89.772,308.688,89.777,309.033L89.777,309.033z"/>
            </g>
          </g>
          <g>
            <g>
              <path style="fill:#702624;" d="M88.452,303.183c-0.763,1.713-1.143,3.847-0.46,5.649c0.121,0.319,0.638,0.3,0.629-0.085 c-0.04-1.853-0.135-3.527,0.33-5.353C89.025,303.106,88.583,302.89,88.452,303.183L88.452,303.183z"/>
            </g>
          </g>
          <g>
            <g>
              <path style="fill:#702624;" d="M91.938,302.719c-0.506,1.732-0.646,3.821,0.219,5.466c0.176,0.334,0.628,0.088,0.571-0.241 c-0.301-1.756-0.596-3.283-0.188-5.059C92.63,302.494,92.051,302.332,91.938,302.719L91.938,302.719z"/>
            </g>
          </g>
          <g>
            <g>
              <path style="fill:#702624;" d="M89.164,298.452c-1.568,1.042-2.805,2.815-2.718,4.763c0.014,0.32,0.478,0.4,0.568,0.077 c0.482-1.733,1.047-3.292,2.32-4.619C89.441,298.562,89.301,298.361,89.164,298.452L89.164,298.452z"/>
            </g>
          </g>
          <g>
            <g>
              <path style="fill:#702624;" d="M93.2,297.621c-1.747,0.509-2.705,2.797-2.774,4.469c-0.014,0.328,0.484,0.389,0.568,0.077 c0.372-1.384,0.822-3.495,2.339-4.064C93.628,297.992,93.514,297.529,93.2,297.621L93.2,297.621z"/>
            </g>
          </g>
        </g>
        <g>
          <g>
            <path style="fill:#3F0D0D;" d="M98.764,323.181c-10.818-1.82-18.932-16.49-10.297-25.319 c4.381-4.479,11.124-4.94,16.363-1.701c4.811,2.974,7.098,8.282,7.989,13.65c0.158,0.95,1.604,0.547,1.446-0.399 c-1.117-6.726-4.552-13.117-11.152-15.788c-5.394-2.183-11.601-1.005-15.707,3.178c-9.39,9.566-1.002,25.813,10.959,27.826 C99.31,324.786,99.716,323.341,98.764,323.181L98.764,323.181z"/>
          </g>
        </g>
        <g style="opacity:0.3;">
          <g>
            <path style="fill:#FFFFFF;" d="M97.582,295.72c6.948,1.148,11.702,6.159,13.21,12.908c0.075,0.337,0.659,0.27,0.614-0.083 c-0.912-7.163-6.744-12.305-13.809-12.932C97.535,295.607,97.521,295.71,97.582,295.72L97.582,295.72z"/>
          </g>
        </g>
      </g>
      <g>
        <path style="fill:#7A2F2F;" d="M192.734,324.05c0,0,11.404,1.023,16.082-11.55c4.678-12.573-6.433-21.638-16.082-18.714 c-9.649,2.924-12.337,12.719-12.455,19.006L192.734,324.05z"/>
        <g>
          <path style="fill:#A1423F;" d="M189.81,318.495c0,0,8.772-1.754,9.795-9.211c1.023-7.456-4.825-10.819-9.795-6.14 c-4.971,4.678-3.07,13.012-3.07,13.012"/>
          <g>
            <path style="fill:#3F0D0D;" d="M190.009,319.218c3.117-0.654,6.296-2.427,8.263-4.945c2.641-3.38,3.37-9.495-0.095-12.617 c-3.528-3.178-8.437-0.403-10.574,3.011c-2.1,3.355-2.417,7.876-1.587,11.688c0.205,0.943,1.652,0.544,1.447-0.399 c-0.55-2.524-0.487-5.421,0.257-7.884c1.188-3.933,7.252-9.651,10.415-4.073c3.586,6.324-2.697,12.55-8.524,13.772 C188.666,317.97,189.066,319.416,190.009,319.218L190.009,319.218z"/>
          </g>
        </g>
        <g style="opacity:0.5;">
          <g>
            <g>
              <path style="fill:#702624;" d="M204.174,314.062c-0.236,1.01-0.702,1.973-1.362,2.778c-0.597,0.728-1.404,1.182-2.07,1.83 c-0.286,0.278,0.016,0.691,0.365,0.627c2.213-0.411,3.501-3.143,3.681-5.152 C204.819,313.793,204.254,313.722,204.174,314.062L204.174,314.062z"/>
            </g>
          </g>
          <g>
            <g>
              <path style="fill:#702624;" d="M208.031,308.376c-0.246,1.406-0.743,2.646-1.283,3.957c-0.119,0.289,0.343,0.559,0.535,0.312 c0.925-1.192,1.257-2.739,1.101-4.221C208.365,308.241,208.069,308.16,208.031,308.376L208.031,308.376z"/>
            </g>
          </g>
          <g>
            <g>
              <path style="fill:#702624;" d="M203.694,308.95c-0.263,1.75-1.125,3.125-2.145,4.527c-0.199,0.275,0.196,0.666,0.47,0.47 c1.566-1.116,2.263-3.041,2.288-4.915C204.313,308.692,203.748,308.594,203.694,308.95L203.694,308.95z"/>
            </g>
          </g>
          <g>
            <g>
              <path style="fill:#702624;" d="M205.133,303.394c0.465,1.827,0.37,3.501,0.33,5.353c-0.008,0.382,0.507,0.407,0.629,0.085 c0.684-1.803,0.304-3.935-0.46-5.649C205.503,302.893,205.059,303.103,205.133,303.394L205.133,303.394z"/>
            </g>
          </g>
          <g>
            <g>
              <path style="fill:#702624;" d="M201.545,302.885c0.407,1.775,0.113,3.308-0.188,5.059c-0.056,0.325,0.394,0.577,0.571,0.241 c0.865-1.646,0.726-3.734,0.219-5.466C202.034,302.332,201.455,302.493,201.545,302.885L201.545,302.885z"/>
            </g>
          </g>
          <g>
            <g>
              <path style="fill:#702624;" d="M204.75,298.673c1.274,1.327,1.838,2.887,2.32,4.619c0.089,0.32,0.553,0.246,0.568-0.077 c0.087-1.948-1.15-3.72-2.718-4.763C204.785,298.362,204.642,298.561,204.75,298.673L204.75,298.673z"/>
            </g>
          </g>
          <g>
            <g>
              <path style="fill:#702624;" d="M200.752,298.103c1.517,0.569,1.967,2.68,2.339,4.064c0.083,0.309,0.582,0.254,0.568-0.077 c-0.069-1.673-1.027-3.96-2.774-4.469C200.571,297.53,200.456,297.992,200.752,298.103L200.752,298.103z"/>
            </g>
          </g>
        </g>
        <g>
          <g>
            <path style="fill:#3F0D0D;" d="M195.719,324.628c11.961-2.013,20.349-18.258,10.959-27.826 c-4.064-4.141-10.259-5.376-15.618-3.216c-6.644,2.678-10.116,9.046-11.242,15.826c-0.157,0.944,1.288,1.35,1.446,0.399 c0.888-5.343,3.161-10.718,7.989-13.65c5.287-3.21,11.928-2.755,16.364,1.701c8.728,8.769,0.455,23.509-10.297,25.319 C194.371,323.341,194.774,324.787,195.719,324.628L195.719,324.628z"/>
          </g>
        </g>
        <g style="opacity:0.3;">
          <g>
            <path style="fill:#FFFFFF;" d="M197.982,295.659c-8.738-1.378-15.6,7.414-15.727,15.562c-0.005,0.346,0.505,0.41,0.598,0.081 c1.114-3.91,1.826-7.687,4.576-10.89c2.664-3.102,6.458-4.783,10.538-4.646C198.027,295.768,198.043,295.669,197.982,295.659 L197.982,295.659z"/>
          </g>
        </g>
      </g>
    </g>
  </g>
</svg>