<?xml version="1.0" encoding="utf-8"?>
<svg viewBox="223.55 275.7551 241.6823 175.7514" width="241.6823" height="175.7514" xmlns="http://www.w3.org/2000/svg">
  <g transform="matrix(1, 0, 0, 1, 3.552713678800501e-15, 0)">
    <path style="fill:#EBA9BD;" d="M365.065,278.273c-39.797-8.382-76.87,10.112-92.069,39.21 c-18.159,34.764-3.668,58.092,7.19,78.198c10.857,20.105-14.741,3.957-4.313,22.998c10.428,19.041,43.442,28.362,65.015,28.362 c25.217,0,51.703-7.433,69.415-27.49c15.538-17.595,18.714-46.634,9.393-46.088c-9.32,0.545,5.482-26.158-4.94-48.943 C404.335,301.734,388.654,283.241,365.065,278.273z"/>
    <path style="fill:#EBA9BD;" d="M279.823,400.891c-0.04,7.536-17.355-2.041-15.28-10.749 C266.618,381.434,279.862,393.485,279.823,400.891z"/>
    <path style="fill:#EBA9BD;" d="M268.535,408.84c-6.266,0.448-7.764-6.361,0.725-5.057 C277.749,405.087,273.973,408.451,268.535,408.84z"/>
    <path style="fill:#EBA9BD;" d="M420.272,369.989c-4.039-1.875,1.763-20.394,6.732-19.089 C431.973,352.204,426.825,373.032,420.272,369.989z"/>
    <path style="fill:#EBA9BD;" d="M424.579,372.946c-0.495-3.694,11.636-7.087,11.58-1.988 C436.103,376.058,424.998,376.081,424.579,372.946z"/>
  </g>
  <g transform="matrix(1, 0, 0, 1, 3.552713678800501e-15, 0)">
    <g>
      <path style="fill:#FFD2A8;" d="M366.393,409.94h-43.687c-21.844,2.009-31.965,26.653-31.965,26.653 c17.134,15.23,53.808,14.913,53.808,14.913s36.674,0.317,53.808-14.913C398.357,436.593,388.236,411.949,366.393,409.94z"/>
      <g>
        <g>
          <g>
            <g>
              <path style="fill:#822F0C;" d="M317.125,419.698c-1.433,1.332-2.777,2.834-3.775,4.525c-0.272,0.461,0.433,0.869,0.715,0.418 c1.023-1.633,2.086-3.183,3.413-4.589C317.7,419.817,317.361,419.479,317.125,419.698L317.125,419.698z"/>
            </g>
          </g>
          <g>
            <g>
              <path style="fill:#822F0C;" d="M317.473,415.153c-1.644,1.433-3.274,3.079-4.242,5.059c-0.131,0.267,0.226,0.604,0.442,0.341 c1.388-1.692,2.612-3.481,4.154-5.046C318.055,415.275,317.714,414.944,317.473,415.153L317.473,415.153z"/>
            </g>
          </g>
          <g>
            <g>
              <path style="fill:#822F0C;" d="M312.934,416.665c-1.813,1.54-3.477,3.452-4.32,5.702c-0.146,0.389,0.434,0.588,0.643,0.271 c1.279-1.949,2.474-3.854,4.131-5.52C313.681,416.821,313.244,416.401,312.934,416.665L312.934,416.665z"/>
            </g>
          </g>
        </g>
        <g>
          <g>
            <g>
              <path style="fill:#822F0C;" d="M372.737,434.197c0.603,1.836,0.985,3.724,1.531,5.573c0.184,0.623,1.088,0.361,0.964-0.266 c-0.375-1.906-1.203-3.755-2.038-5.5C373.072,433.749,372.648,433.928,372.737,434.197L372.737,434.197z"/>
            </g>
          </g>
          <g>
            <g>
              <path style="fill:#822F0C;" d="M376.462,437.38c0.566,1.687,0.713,3.639,1.477,5.236c0.174,0.364,0.673,0.147,0.699-0.189 c0.138-1.786-0.838-3.716-1.562-5.306C376.919,436.776,376.341,437.021,376.462,437.38L376.462,437.38z"/>
            </g>
          </g>
          <g>
            <g>
              <path style="fill:#822F0C;" d="M377.012,432.65c0.995,1.69,1.473,3.616,2.454,5.293c0.159,0.273,0.626,0.166,0.611-0.166 c-0.09-2.028-1.419-3.917-2.636-5.458C377.247,432.071,376.858,432.388,377.012,432.65L377.012,432.65z"/>
            </g>
          </g>
          <g>
            <g>
              <path style="fill:#822F0C;" d="M380.62,434.517c0.747,1.471,1.149,3.031,1.371,4.66c0.074,0.544,1.029,0.421,0.967-0.131 c-0.197-1.763-0.823-3.366-1.784-4.852C380.949,433.846,380.434,434.149,380.62,434.517L380.62,434.517z"/>
            </g>
          </g>
        </g>
      </g>
      <path style="fill:#FFE8D3;" d="M368.678,429.112c0,0,3.437,2.792,4.401,2.204c0.963-0.588-2.343-6.613-6.09-9.332 c0,0,2.719,0.955,3.306,0.147c0.531-0.73-3.257-8.102-7.893-11.96h-35.705c-4.636,3.859-8.424,11.23-7.893,11.96 c0.588,0.808,3.306-0.147,3.306-0.147c-3.747,2.719-7.054,8.744-6.09,9.332c0.963,0.588,4.4-2.204,4.4-2.204 c-3.177,6.947-4.183,13.793-4.366,19.068c14.65,3.44,28.496,3.326,28.496,3.326s13.845,0.114,28.495-3.326 C372.862,442.904,371.855,436.059,368.678,429.112z"/>
      <path style="opacity:0.4;fill:#FFD2A8;" d="M309.51,414.334c21.039,8.817,50.473,8.209,70.078,0 c-3.797-2.273-8.184-3.934-13.196-4.395h-43.687C317.694,410.401,313.307,412.061,309.51,414.334z"/>
      <g>
        <g>
          <path style="fill:#822F0C;" d="M399.081,436.393c-2.914-6.996-7.769-13.623-13.465-18.581 c-7.1-6.182-15.102-8.622-24.286-8.622c-10.216,0-20.432,0-30.648,0c-8.814,0-16.422,0.705-23.981,6.076 c-7.231,5.138-13.266,12.923-16.683,21.128c-0.371,0.89,1.08,1.278,1.446,0.399c2.705-6.496,7.612-13.161,13.079-17.919 c7.342-6.391,15.314-8.183,24.62-8.183c9.209,0,18.417,0,27.626,0c8.529,0,15.839,0.011,23.431,4.913 c7.563,4.883,14.045,13.099,17.414,21.189C398,437.671,399.452,437.285,399.081,436.393L399.081,436.393z"/>
        </g>
      </g>
      <g>
        <g>
          <g>
            <g>
              <path style="fill:#FFD2A8;" d="M322.893,430.796c-1.245,2.291-2.306,5.026-2.326,7.663c-0.003,0.339,0.487,0.398,0.583,0.079 c0.761-2.536,1.271-5.049,2.242-7.531C323.507,430.716,323.039,430.527,322.893,430.796L322.893,430.796z"/>
            </g>
          </g>
          <g>
            <g>
              <path style="fill:#FFD2A8;" d="M323.385,434.433c-0.957,2.556-1.934,5.799-1.617,8.565c0.036,0.317,0.511,0.443,0.599,0.081 c0.671-2.786,0.789-5.711,1.456-8.525C323.89,434.265,323.486,434.163,323.385,434.433L323.385,434.433z"/>
            </g>
          </g>
          <g>
            <g>
              <path style="fill:#FFD2A8;" d="M326.569,430.715c-0.839,2.912-1.278,6.009-1.369,9.038c-0.014,0.484,0.678,0.455,0.734,0 c0.368-2.988,0.742-5.987,1.034-8.984C326.991,430.536,326.631,430.502,326.569,430.715L326.569,430.715z"/>
            </g>
          </g>
        </g>
        <g>
          <g>
            <g>
              <path style="fill:#FFD2A8;" d="M364.03,422.087c0.76,0.915,1.483,1.856,2.167,2.828c0.574,0.816,1.086,1.738,1.778,2.456 c0.38,0.395,0.943-0.105,0.724-0.559c-0.92-1.908-2.875-3.568-4.404-4.991C364.115,421.655,363.877,421.904,364.03,422.087 L364.03,422.087z"/>
            </g>
          </g>
          <g>
            <g>
              <path style="fill:#FFD2A8;" d="M363.651,424.588c0.86,1.904,1.5,3.885,2.25,5.831c0.185,0.48,0.905,0.303,0.784-0.216 c-0.493-2.105-1.463-4.041-2.562-5.891C363.94,424.003,363.509,424.273,363.651,424.588L363.651,424.588z"/>
            </g>
          </g>
          <g>
            <g>
              <path style="fill:#FFD2A8;" d="M360.874,422.747c0.942,2.319,1.525,4.733,2.268,7.117c0.105,0.335,0.686,0.297,0.645-0.087 c-0.279-2.57-1.264-4.946-2.442-7.228C361.214,422.294,360.763,422.474,360.874,422.747L360.874,422.747z"/>
            </g>
          </g>
        </g>
        <g>
          <g>
            <g>
              <path style="fill:#FFD2A8;" d="M347.8,440.527c-0.24,2.045-0.298,4.207,0.255,6.209c0.088,0.32,0.631,0.271,0.598-0.081 c-0.191-2.052-0.512-4.06-0.525-6.128C348.126,440.311,347.824,440.323,347.8,440.527L347.8,440.527z"/>
            </g>
          </g>
          <g>
            <g>
              <path style="fill:#FFD2A8;" d="M349.279,442.483c-0.046,2.085,0.161,4.761,1.483,6.471c0.166,0.214,0.464-0.025,0.418-0.243 c-0.21-0.983-0.692-1.899-0.95-2.877c-0.291-1.1-0.474-2.216-0.544-3.352C349.67,442.224,349.285,442.219,349.279,442.483 L349.279,442.483z"/>
            </g>
          </g>
          <g>
            <g>
              <path style="fill:#FFD2A8;" d="M350.237,440.326c0.365,1.616,0.693,3.295,1.344,4.823c0.161,0.379,0.729,0.1,0.643-0.271 c-0.372-1.589-1.014-3.129-1.504-4.685C350.623,439.886,350.167,440.012,350.237,440.326L350.237,440.326z"/>
            </g>
          </g>
        </g>
      </g>
    </g>
    <g>
      <g>
        <path style="fill:#FFD2A8;" d="M410.123,372.078c-2.712-6.162-2.608-24.978-23.512-46.417 c-5.298-5.434-10.974-9.404-16.663-12.243c1.407-0.426,2.597-1.243,2.298-2.815c-0.67-3.519-11.228-5.614-11.228-5.614 c6.62-4.19,5.614-6.284-2.598-5.363c-8.212,0.922-14.748,3.268-14.748,3.268c2.346-2.598-1.76-3.603-9.804,0.67 c-5.934,3.152-10.107,6.969-11.892,8.758c-6.452,2.877-12.951,7.171-18.964,13.338c-20.903,21.439-20.799,40.255-23.512,46.417 c-1.271,2.887,4.65,5.227,3.488,6.101c-1.163,0.874-3.488,2.093,0.387,7.393c3.875,5.3,6.479,5.881,4.305,7.238 c-2.071,1.292-0.623,4.891,19.578,14.413c22.037,10.388,54.821,9.612,75.106,0c20.181-9.563,21.649-13.121,19.578-14.413 c-2.174-1.357,0.43-1.938,4.305-7.238c3.875-5.3,1.55-6.519,0.388-7.393C405.473,377.305,411.394,374.965,410.123,372.078z"/>
        <path style="fill:#FFE8D3;" d="M401.598,372.826c-4.844,6.2-18.471,15.307-30.742,11.819 c-12.271-3.488-15.209-9.042-26.044-8.493c-10.835-0.549-13.772,5.005-26.044,8.493c-12.272,3.487-25.898-5.619-30.742-11.819 c-1.877-2.403-4.568-4.075-7.161-5.226c-0.458,1.936-0.864,3.507-1.364,4.645c-1.271,2.887,4.65,5.227,3.488,6.101 c-1.163,0.874-3.488,2.093,0.387,7.393c3.875,5.3,6.479,5.881,4.305,7.238c-2.071,1.292-0.623,4.891,19.578,14.413 c22.037,10.387,54.821,9.612,75.106,0c20.181-9.563,21.649-13.121,19.578-14.413c-2.174-1.356,0.43-1.938,4.305-7.238 c3.875-5.3,1.55-6.519,0.388-7.393c-1.163-0.874,4.758-3.214,3.487-6.101c-0.501-1.137-0.906-2.708-1.364-4.645 C406.166,368.75,403.475,370.423,401.598,372.826z"/>
        <g>
          <path style="fill:#F0A056;" d="M323.751,383.021c2.314-3.859,3.763-4.534,2.488-11.076c-0.708-3.632-3.688-7.573-3.688-7.573 l2.441-3.885c0,0,6.675,12.61,3.868,19.948c-1.107,2.894-6.816,6.628-3.72,12.711 C325.139,393.147,320.252,388.859,323.751,383.021z"/>
          <path style="fill:#F0A056;" d="M365.874,383.021c-2.314-3.859-3.763-4.534-2.487-11.076c0.708-3.632,3.688-7.573,3.688-7.573 l-2.441-3.885c0,0-6.675,12.61-3.868,19.948c1.107,2.894,6.816,6.628,3.72,12.711 C364.486,393.147,369.373,388.859,365.874,383.021z"/>
          <g>
            <g>
              <path style="fill:#FFB6C3;" d="M304.201,389.657c-11.275-2.585-7.669-10.295,0-8.461 C314.818,383.734,313.427,391.772,304.201,389.657z"/>
              <path style="fill:#FFB6C3;" d="M385.424,389.657c11.275-2.585,7.669-10.295,0-8.461 C374.807,383.734,376.198,391.772,385.424,389.657z"/>
            </g>
            <path style="fill:#822F0C;" d="M310.617,354.33c1.98-0.848,4.688-1.446,7.824-0.319c2.244,0.806,3.487-0.991,1.843-2.277 c-1.893-1.482-6.642-2.342-9.962-0.712c-3.32,1.63-3.092,2.743-2.827,3.376C307.76,355.031,308.756,355.127,310.617,354.33z"/>
            <path style="fill:#822F0C;" d="M379.008,354.33c-1.98-0.848-4.688-1.446-7.824-0.319c-2.244,0.806-3.487-0.991-1.843-2.277 c1.893-1.482,6.642-2.342,9.962-0.712c3.32,1.63,3.092,2.743,2.827,3.376C381.865,355.031,380.869,355.127,379.008,354.33z"/>
            <g>
              <g>
                <path style="fill:#FFFFFF;" d="M315.655,355.608c-11.696-0.296-13.917,13.769-9.919,20.135 c1.999,3.183,4.498,5.395,9.919,5.395c5.247,0,7.921-2.212,9.919-5.395C329.572,369.377,327.351,355.312,315.655,355.608z"/>
                <g>
                  <g>
                    <path style="fill:#822F0C;" d="M329.268,368.171c-2.411-8.737-11.045-17.702-20.503-11.469 c-6.075,4.004-7.123,13.422-3.677,19.419c0.481,0.837,1.777,0.082,1.295-0.757c-2.815-4.9-2.313-12.396,1.932-16.393 c2.726-2.566,7.027-3.258,10.549-2.142c5.055,1.602,7.659,7.033,8.958,11.741 C328.078,369.499,329.526,369.105,329.268,368.171L329.268,368.171z"/>
                  </g>
                </g>
                <ellipse style="fill:#822F0C;" cx="318.7" cy="368.79" rx="7.399" ry="9.146"/>
              </g>
              <g>
                <path style="fill:#FFD2A8;" d="M301.616,375.423c0,0,10.954-0.135,19.609,8.114 C321.225,383.537,305.538,385.024,301.616,375.423z"/>
                <g>
                  <g>
                    <path style="fill:#822F0C;" d="M301.616,376.173c7.002-0.02,13.992,3.269,19.079,7.894 c0.713,0.648,1.777-0.409,1.061-1.061c-5.381-4.893-12.735-8.354-20.139-8.334 C300.651,374.675,300.649,376.175,301.616,376.173L301.616,376.173z"/>
                  </g>
                </g>
              </g>
            </g>
            <g>
              <g>
                <path style="fill:#FFFFFF;" d="M373.762,355.608c11.696-0.296,13.917,13.769,9.919,20.135 c-1.999,3.183-4.498,5.395-9.919,5.395c-5.247,0-7.921-2.212-9.919-5.395C359.845,369.377,362.065,355.312,373.762,355.608z "/>
                <g>
                  <g>
                    <path style="fill:#822F0C;" d="M361.837,369.825c0.984-4.152,2.273-8.878,5.819-11.601 c3.103-2.383,8.06-2.529,11.477-0.686c6.017,3.246,7.076,12.299,3.9,17.827c-0.482,0.838,0.814,1.595,1.295,0.757 c3.747-6.521,2.122-16.992-5.255-20.276c-10.489-4.669-16.592,4.755-18.683,13.581 C360.168,370.365,361.614,370.765,361.837,369.825L361.837,369.825z"/>
                  </g>
                </g>
                <path style="fill:#822F0C;" d="M363.318,368.79c0,5.051,3.313,9.146,7.399,9.146c4.086,0,7.399-4.095,7.399-9.146 c0-5.051-3.313-9.146-7.399-9.146C366.63,359.644,363.318,363.739,363.318,368.79z"/>
              </g>
              <g>
                <path style="fill:#FFD2A8;" d="M388.078,375.423c0,0-10.954-0.135-19.609,8.114 C368.469,383.537,384.157,385.024,388.078,375.423z"/>
                <g>
                  <g>
                    <path style="fill:#822F0C;" d="M388.078,374.673c-7.405-0.021-14.759,3.441-20.139,8.334 c-0.716,0.651,0.347,1.709,1.061,1.061c5.088-4.627,12.076-7.914,19.079-7.894 C389.044,376.175,389.045,374.675,388.078,374.673L388.078,374.673z"/>
                  </g>
                </g>
              </g>
            </g>
          </g>
          <g>
            <g>
              <g>
                <g>
                  <path style="fill:#822F0C;" d="M344.077,391.107c0.178,7.37-26.87,8.259-16.771-6.669 c3.926-5.803,3.849-13.993,0.295-20.03c-0.489-0.831-1.786-0.078-1.295,0.757c1.925,3.269,2.622,7.206,2.369,10.972 c-0.308,4.591-3.064,6.806-4.667,10.728c-1.428,3.494-0.288,6.782,2.811,8.863c3.807,2.556,9.143,2.892,13.334,1.186 c2.289-0.932,5.495-2.898,5.424-5.806C345.554,390.144,344.054,390.14,344.077,391.107L344.077,391.107z"/>
                </g>
              </g>
              <g>
                <g>
                  <path style="fill:#822F0C;" d="M344.047,391.107c-0.194,8.033,13.847,7.622,18.357,4.861 c3.251-1.99,4.697-5.273,3.288-8.924c-1.203-3.116-3.956-5.076-4.639-8.495c-0.906-4.54,0.866-9.338,2.341-13.562 c0.319-0.913-1.13-1.306-1.446-0.399c-1.436,4.113-2.996,8.582-2.538,13.013c0.434,4.206,3.389,6.187,4.788,9.908 c4.208,11.187-18.838,11.36-18.65,3.599C345.571,390.142,344.071,390.142,344.047,391.107L344.047,391.107z"/>
                </g>
              </g>
            </g>
            <path style="fill:#822F0C;" d="M351.779,385.493c-1.099-3.295-12.835-3.295-13.934,0c-1.098,3.295,6.967,5.614,6.967,5.614 S352.878,388.788,351.779,385.493z"/>
            <g style="opacity:0.3;">
              <g>
                <path style="fill:#FFFFFF;" d="M339.146,386.331c1.751-0.578,3.518-1.003,5.373-1.051c1.881-0.049,3.601,0.468,5.441,0.72 c0.237,0.033,0.402-0.264,0.172-0.407c-3.219-1.998-7.964-1.404-11.18,0.277 C338.701,386.001,338.873,386.421,339.146,386.331L339.146,386.331z"/>
              </g>
            </g>
            <g>
              <g>
                <g>
                  <path style="fill:#822F0C;" d="M316.915,400.527c6.171-4.512,12.795-7.767,20.116-9.971 c0.401-0.121,0.234-0.741-0.174-0.63c-7.365,2.004-14.168,5.609-20.008,10.515 C316.802,400.481,316.865,400.564,316.915,400.527L316.915,400.527z"/>
                </g>
              </g>
              <g>
                <g>
                  <path style="fill:#822F0C;" d="M316.805,394.844c5.283-3.04,10.889-4.69,16.967-5.062c0.424-0.026,0.43-0.684,0-0.665 c-6.154,0.266-11.927,2.177-17.053,5.581C316.63,394.757,316.71,394.899,316.805,394.844L316.805,394.844z"/>
                </g>
              </g>
              <g>
                <g>
                  <path style="fill:#822F0C;" d="M319.075,389.727c5.272-1.373,9.965-1.936,15.395-1.597c0.316,0.02,0.391-0.497,0.076-0.558 c-5.042-0.977-10.932-0.306-15.54,1.99C318.911,389.608,318.977,389.753,319.075,389.727L319.075,389.727z"/>
                </g>
              </g>
            </g>
            <g>
              <g>
                <g>
                  <path style="fill:#822F0C;" d="M372.775,400.442c-5.84-4.905-12.643-8.511-20.008-10.515 c-0.407-0.111-0.576,0.509-0.174,0.63c7.321,2.204,13.945,5.458,20.116,9.971 C372.759,400.564,372.823,400.482,372.775,400.442L372.775,400.442z"/>
                </g>
              </g>
              <g>
                <g>
                  <path style="fill:#822F0C;" d="M372.905,394.698c-5.126-3.404-10.898-5.315-17.053-5.581c-0.429-0.019-0.425,0.639,0,0.665 c6.082,0.373,11.676,2.018,16.967,5.062C372.915,394.898,372.995,394.757,372.905,394.698L372.905,394.698z"/>
                </g>
              </g>
              <g>
                <g>
                  <path style="fill:#822F0C;" d="M370.62,389.562c-4.607-2.295-10.498-2.967-15.54-1.99 c-0.313,0.061-0.244,0.578,0.076,0.558c5.431-0.339,10.127,0.226,15.395,1.597 C370.646,389.753,370.715,389.609,370.62,389.562L370.62,389.562z"/>
                </g>
              </g>
            </g>
          </g>
        </g>
        <path style="opacity:0.3;fill:#FFD2A8;" d="M410.123,372.244c-1.503-3.414-2.147-10.716-5.972-20.192 c1.386,6.973,1.978,12.377,2.939,14.561c1.212,2.753-4.434,4.984-3.326,5.818c1.109,0.833,3.326,1.996-0.37,7.05 c-3.695,5.054-6.178,5.608-4.105,6.902c1.975,1.232,0.575,4.624-18.669,13.744c-19.343,9.166-50.605,9.905-71.618,0 c-19.263-9.08-20.643-12.512-18.669-13.744c2.073-1.294-0.41-1.848-4.105-6.902c-3.695-5.054-1.478-6.216-0.369-7.05 c1.108-0.833-4.537-3.065-3.326-5.818c0.961-2.184,1.553-7.587,2.94-14.561c-3.825,9.476-4.469,16.778-5.972,20.192 c-1.271,2.887,4.65,5.227,3.488,6.101c-1.163,0.874-3.488,2.093,0.387,7.393c3.875,5.3,6.479,5.881,4.305,7.238 c-2.071,1.292-0.623,4.891,19.578,14.413c22.037,10.387,54.821,9.612,75.106,0c20.181-9.563,21.649-13.121,19.578-14.413 c-2.174-1.356,0.43-1.938,4.305-7.238c3.875-5.3,1.55-6.519,0.388-7.393C405.473,377.471,411.394,375.131,410.123,372.244z"/>
        <g>
          <g>
            <path style="fill:#822F0C;" d="M317.003,314.129c-14.055,8.046-25.344,21.455-31.673,36.318 c-2.059,4.836-3.506,9.852-4.719,14.957c-0.569,2.393-2.615,6.505-1.77,8.878c0.456,1.281,3.362,2.715,3.394,3.692 c0.012,0.365-1.618,1.884-1.722,2.766c-0.292,2.469,1.96,5.107,3.337,6.831c1.571,1.965,3.308,2.954,3.052,5.061 c-0.178,1.462-0.983,1.589,0.038,3.265c1.726,2.834,5.872,4.803,8.598,6.355c26.06,14.834,59.428,18.614,87.206,5.785 c5.849-2.701,12.015-5.595,17.162-9.53c1.207-0.923,3.682-2.654,3.477-4.513c-0.058-0.525-0.507-0.871-0.584-1.296 c-0.089-0.496-0.556-0.472-0.441-1.332c0.109-0.82,2.841-3.077,3.359-3.72c1.342-1.665,3.483-4.19,3.427-6.549 c-0.028-1.18-1.681-2.453-1.677-3.065c0.007-1.038,2.961-2.469,3.394-3.93c0.464-1.568-0.422-3.073-0.846-4.567 c-1.472-5.182-2.432-10.439-4.3-15.517c-6.12-16.64-18.355-31.745-33.922-40.343c-0.846-0.467-1.603,0.828-0.757,1.295 c13.881,7.667,25.019,20.614,31.455,35.06c2.029,4.555,3.505,9.309,4.691,14.145c0.639,2.605,2.545,6.97,1.81,9.473 c-0.488,1.663-2.892,2.464-3.152,4.011c-0.116,0.689,0.314,0.782,0.42,1.331c0.384,1.997,1.705,2.447,0.327,4.895 c-1.029,1.829-2.528,3.407-3.916,4.964c-0.616,0.691-2.209,1.848-2.236,2.964c-0.048,1.954,1.777,1.348,0.873,3.4 c-1.317,2.99-7.687,5.596-10.299,7.003c-24.891,13.407-56.445,16.665-82.726,4.816c-5.489-2.475-11.066-5.192-16.066-8.571 c-1.65-1.115-4.616-2.786-4.153-4.841c0.126-0.561,1.037-0.779,1.132-1.61c0.121-1.062-1.289-2.126-1.852-2.76 c-1.325-1.491-2.738-2.933-3.807-4.629c-0.466-0.74-1.377-1.969-1.445-2.854c-0.087-1.135,1.133-2.051,1.28-2.777 c0.095-0.469,0.521-0.635,0.457-1.242c-0.225-2.166-3.673-2.451-3.6-5.308c0.03-1.18,0.938-2.904,1.232-4.093 c1.115-4.508,2.132-9.009,3.705-13.389c5.821-16.205,17.623-30.965,32.598-39.537 C318.598,314.944,317.843,313.648,317.003,314.129L317.003,314.129z"/>
          </g>
        </g>
      </g>
      <g>
        <path style="fill:#FFD2A8;" d="M365.304,311.545c0,0,20.921,1.2,44.333-12.649c23.412-13.849,41.877-27.039,51.769-20.114 c9.892,6.925-5.276,47.318-38.58,57.54c0,0,2.638,11.71-27.698,10.307L365.304,311.545z"/>
        <g style="opacity:0.5;">
          <g>
            <path style="fill:#FFFFFF;" d="M441.316,284.023c-19.832,13.495-40.092,27.332-63.615,33.126 c-0.372,0.092-0.303,0.707,0.092,0.681c11.621-0.779,22.764-7.301,32.612-13.01c10.78-6.25,21.134-13.069,30.991-20.692 C441.456,284.081,441.378,283.98,441.316,284.023L441.316,284.023z"/>
          </g>
        </g>
        <g>
          <g>
            <g>
              <path style="fill:#822F0C;" d="M458.069,292.72c-2.552,8.603-6.99,14.995-12.603,21.823c-0.26,0.316,0.132,0.708,0.448,0.448 c6.577-5.399,10.619-14.058,12.198-22.259C458.117,292.704,458.077,292.693,458.069,292.72L458.069,292.72z"/>
            </g>
          </g>
          <g>
            <g>
              <path style="fill:#822F0C;" d="M456.285,286.137c0.083,3.808-0.708,7.387-2.028,10.939c-0.188,0.506,0.595,0.696,0.796,0.219 c1.503-3.564,1.902-7.324,1.556-11.159C456.591,285.932,456.28,285.925,456.285,286.137L456.285,286.137z"/>
            </g>
          </g>
          <g>
            <g>
              <path style="fill:#822F0C;" d="M461.695,285.807c-0.501,7.263-2.626,13.623-6.602,19.72c-0.27,0.413,0.367,0.759,0.649,0.38 c4.309-5.796,6.495-12.887,6.174-20.1C461.91,285.664,461.705,285.665,461.695,285.807L461.695,285.807z"/>
            </g>
          </g>
        </g>
        <path style="opacity:0.5;fill:#FFD2A8;" d="M396.533,346.281c22.071-3.209,18.786-11.865,18.786-11.865 s10.472-2.615,27.152-16.139c13.029-10.564,18.476-30.938,20.138-38.687c7.216,9.446-8.032,46.591-39.783,56.337 C422.827,335.927,425.357,347.257,396.533,346.281z"/>
        <g>
          <path style="fill:#FFE8D3;" d="M451.679,284.109c5.939,4.335,0.495,19.173-11.541,29.725 c-12.035,10.552-31.49,19.949-30.171,21.433c1.319,1.484,4.616,3.462-1.979,5.111c-6.595,1.649-12.86,1.154-15.003,0 c-2.143-1.154-4.582-6.715-2.638-6.925c1.944-0.21,10.057-1.484,8.243-2.803s-5.771-1.319-5.771-1.319 s8.738-3.297,15.663-8.573c6.924-5.276,5.441-7.09-3.298-2.638c-8.738,4.451-20.312,7.254-22.356,5.935 c-2.044-1.319,1.753-3.129,16.091-10.057C419.681,303.968,447.228,280.86,451.679,284.109z"/>
          <g>
            <path style="fill:#822F0C;" d="M451.149,284.639c4.926,4.165,0.805,12.618-1.755,16.978 c-4.092,6.969-10.057,12.325-16.544,17.01c-5.257,3.797-10.794,7.174-16.292,10.606c-1.5,0.936-6.652,3.148-7.191,5.198 c-0.137,0.52-0.2,0.686-0.047,1.215c0.164,0.569,1.31,0.898,1.397,1.46c0.354,2.283-3.449,2.694-4.715,2.947 c-3.138,0.628-9.589,1.641-12.638-0.322c-1.095-0.705-3.313-3.456-2.644-4.937c0.496-1.099,0.748-0.539,1.961-0.919 c1.441-0.452,7.03-0.475,6.91-2.92c-0.108-2.206-5.349-2.348-6.77-2.372c0.066,0.491,0.133,0.982,0.199,1.473 c2.869-1.101,23.767-10.828,20.219-14.793c-2.187-2.444-12.204,3.992-14.032,4.705c-3.561,1.389-7.283,2.601-11.054,3.269 c-0.416,0.074-4.452,0.95-4.944,0.172c-0.262-0.414,0.827-0.836,1.075-1.109c1.375-1.507,4.385-2.456,6.166-3.345 c3.713-1.854,7.494-3.576,11.184-5.475c6.772-3.486,13.213-7.599,19.583-11.763c5.972-3.904,11.849-7.962,17.911-11.727 c2.272-1.412,9.285-6.872,12.175-5.233c0.841,0.477,1.598-0.819,0.757-1.295c-4.29-2.434-13.058,4.81-16.191,6.816 c-10.448,6.69-20.552,13.945-31.407,19.982c-5.517,3.068-11.311,5.587-16.916,8.485c-1.321,0.683-5.468,2.209-5.874,4.092 c-1.132,5.24,13.882,0.026,14.979-0.347c3.351-1.14,6.493-2.601,9.693-4.103c0.218-0.103,5.274-2.564,5.554-2.029 c0.259,0.494-1.872,2.16-2.24,2.491c-4.749,4.275-11.089,7.478-17.034,9.76c-0.759,0.292-0.694,1.458,0.199,1.473 c0.802,0.014,1.791-0.031,2.539,0.219c1.414,0.473,1.803,0.486,0.783,1.324c-1.418,1.164-4.314,0.312-5.894,1.092 c-1.976,0.976-1.388,2.871-0.543,4.694c1.473,3.18,3.692,4.289,7.072,4.643c3.715,0.39,12.28,0.563,15.096-2.493 c1.759-1.909-0.096-2.218-0.531-3.971c-0.332-1.34,0.757-1.678,2.157-2.629c1.906-1.295,3.891-2.479,5.848-3.694 c9.96-6.186,20.584-12.5,27.904-21.871c4.057-5.194,12.045-17.826,4.96-23.817 C451.477,282.959,450.41,284.015,451.149,284.639z"/>
          </g>
        </g>
        <g>
          <g>
            <path style="fill:#822F0C;" d="M372.288,311.943c26.484-1.238,46.297-20.383,69.321-30.942 c7.425-3.405,21.696-7.54,22.025,4.848c0.232,8.753-4.337,17.747-9.085,24.808c-7.68,11.422-18.763,20.328-31.922,24.546 c-0.404,0.13-0.609,0.511-0.524,0.922c0.382,1.842-1.073,3.932-2.477,5.118c-6.206,5.245-17.016,4.526-24.498,4.239 c-0.965-0.037-0.964,1.463,0,1.5c8.484,0.326,25.236,1.287,28.417-9.368c0.106-0.354-0.153-1.541,0.026-1.762 c-0.293,0.364,2.797-0.35,3.17-0.495c2.055-0.801,4.067-1.718,6.016-2.752c7.246-3.842,13.642-9.253,18.868-15.556 c7.049-8.502,15.309-21.918,13.301-33.615c-2.336-13.609-20.703-5.567-28.001-1.796c-20.86,10.78-40.15,27.658-64.638,28.803 C371.327,310.488,371.322,311.988,372.288,311.943L372.288,311.943z"/>
          </g>
        </g>
      </g>
      <g>
        <path style="fill:#FFD2A8;" d="M323.794,311.545c0,0-20.921,1.2-44.333-12.649c-23.412-13.849-41.877-27.039-51.769-20.114 c-9.892,6.925,5.276,47.318,38.58,57.54c0,0-2.638,11.71,27.698,10.307L323.794,311.545z"/>
        <g style="opacity:0.5;">
          <g>
            <path style="fill:#FFFFFF;" d="M247.702,284.127c9.857,7.624,20.211,14.442,30.991,20.692 c9.848,5.71,20.991,12.231,32.611,13.01c0.391,0.026,0.468-0.588,0.092-0.681c-23.521-5.794-43.783-19.631-63.615-33.126 C247.721,283.981,247.642,284.081,247.702,284.127L247.702,284.127z"/>
          </g>
        </g>
        <g>
          <g>
            <g>
              <path style="fill:#822F0C;" d="M230.987,292.732c1.579,8.202,5.621,16.86,12.198,22.259c0.316,0.26,0.709-0.132,0.448-0.448 c-5.614-6.828-10.052-13.22-12.604-21.823C231.021,292.693,230.981,292.704,230.987,292.732L230.987,292.732z"/>
            </g>
          </g>
          <g>
            <g>
              <path style="fill:#822F0C;" d="M232.489,286.137c-0.345,3.835,0.053,7.594,1.556,11.159c0.201,0.476,0.985,0.288,0.796-0.219 c-1.32-3.553-2.111-7.132-2.028-10.939C232.818,285.925,232.508,285.932,232.489,286.137L232.489,286.137z"/>
            </g>
          </g>
          <g>
            <g>
              <path style="fill:#822F0C;" d="M227.182,285.807c-0.32,7.212,1.865,14.303,6.174,20.1c0.282,0.379,0.919,0.034,0.649-0.38 c-3.971-6.09-6.101-12.457-6.602-19.72C227.393,285.665,227.188,285.663,227.182,285.807L227.182,285.807z"/>
            </g>
          </g>
        </g>
        <path style="opacity:0.5;fill:#FFD2A8;" d="M292.566,346.281c-22.071-3.209-18.786-11.865-18.786-11.865 s-10.472-2.615-27.152-16.139c-13.029-10.564-18.476-30.938-20.138-38.687c-7.217,9.446,8.032,46.591,39.783,56.337 C266.272,335.927,263.741,347.257,292.566,346.281z"/>
        <g>
          <path style="fill:#FFE8D3;" d="M237.42,284.109c-5.939,4.335-0.495,19.173,11.541,29.725s31.49,19.949,30.171,21.433 c-1.319,1.484-4.616,3.462,1.978,5.111c6.595,1.649,12.86,1.154,15.003,0c2.143-1.154,4.583-6.715,2.638-6.925 c-1.945-0.21-10.057-1.484-8.243-2.803s5.77-1.319,5.77-1.319s-8.738-3.297-15.663-8.573c-6.925-5.276-5.441-7.09,3.297-2.638 c8.738,4.451,20.312,7.254,22.356,5.935c2.045-1.319-1.753-3.129-16.091-10.057C269.418,303.968,241.871,280.86,237.42,284.109 z"/>
          <g>
            <path style="fill:#822F0C;" d="M236.889,283.578c-6.082,5.142-0.659,15.563,2.667,20.623 c6.464,9.833,16.498,16.455,26.282,22.623c3.322,2.094,8.766,4.198,11.333,7.226c1.466,1.73,0.609,0.733-0.282,2.537 c-0.365,0.74-0.644,1.273-0.344,2.1c1.121,3.086,7.996,3.211,10.627,3.401c3.474,0.251,8.182,0.488,10.754-2.323 c1.331-1.455,3.505-5.268,1.43-6.853c-1.076-0.822-3.649-0.649-4.966-0.946c-4.057-0.915-0.601-1.843,1.886-1.885 c0.887-0.015,0.965-1.179,0.199-1.473c-4.464-1.714-8.844-3.965-12.822-6.615c-1.776-1.183-3.603-2.448-5.12-3.963 c-1.167-1.166-1.616-1.118-0.665-1.534c1.947-0.852,7.959,3.413,10.056,4.285c1.807,0.752,18.771,7.826,19.58,2.752 c0.229-1.435-1.797-2.452-2.761-3.05c-5.029-3.123-10.671-5.324-15.936-8c-11.151-5.668-21.42-12.933-31.855-19.785 c-4.355-2.859-8.734-5.869-13.455-8.102c-1.821-0.861-4.474-2.26-6.459-1.134c-0.84,0.476-0.085,1.773,0.757,1.295 c2.89-1.639,9.903,3.821,12.175,5.233c6.061,3.766,11.939,7.823,17.911,11.727c6.369,4.164,12.811,8.277,19.582,11.763 c3.69,1.899,7.47,3.621,11.184,5.475c1.78,0.889,4.791,1.837,6.166,3.345c0.249,0.272,1.337,0.695,1.075,1.109 c-0.492,0.778-4.528-0.099-4.944-0.172c-3.771-0.668-7.493-1.881-11.054-3.269c-1.828-0.713-11.845-7.149-14.032-4.705 c-3.548,3.965,17.349,13.692,20.219,14.793c0.066-0.491,0.133-0.982,0.199-1.473c-1.474,0.025-6.662,0.167-6.77,2.372 c-0.122,2.482,5.577,2.387,6.91,2.92c0.271,0.109,1.571,0.027,1.782,0.263c1.368,1.523-1.293,4.881-2.466,5.594 c-3.211,1.952-9.311,0.983-12.638,0.322c-1.424-0.283-5.079-0.597-4.715-2.947c0.068-0.44,1.385-0.942,1.339-1.384 c-0.047-0.443,0.174-0.746,0.012-1.291c-0.642-2.155-5.498-4.141-7.191-5.198c-5.498-3.431-11.035-6.808-16.292-10.606 c-6.481-4.681-12.464-10.042-16.544-17.01c-2.535-4.33-6.671-12.821-1.755-16.978 C238.688,284.015,237.622,282.959,236.889,283.578z"/>
          </g>
        </g>
        <g>
          <g>
            <path style="fill:#822F0C;" d="M322.851,310.4c-18.873,1.016-36.606-8.635-52.155-18.036 c-9.42-5.696-19.141-12.402-29.817-15.533c-4.742-1.39-11.57-2.145-15.028,2.326c-6.279,8.118,1.813,23.393,6.197,30.399 c4.215,6.737,9.599,12.772,15.899,17.622c3.49,2.687,7.255,5,11.258,6.84c1.739,0.799,5.974,1.753,6.272,2.247 c0.342,0.567,0.188,2.028,0.467,2.741c0.603,1.538,1.74,2.765,3.041,3.749c6.641,5.026,17.246,4.524,24.985,4.227 c0.962-0.037,0.967-1.537,0-1.5c-7.494,0.288-18.286,1.011-24.498-4.239c-1.404-1.186-2.859-3.277-2.477-5.118 c0.085-0.41-0.117-0.792-0.524-0.922c-12.45-3.99-22.992-12.154-30.635-22.699c-5.379-7.421-10.623-17.205-10.372-26.655 c0.356-13.412,16.572-7.556,23.964-3.916c15.207,7.486,28.667,18.357,44.58,24.408c8.916,3.39,19.182,6.079,28.843,5.56 C323.811,311.849,323.817,310.348,322.851,310.4L322.851,310.4z"/>
          </g>
        </g>
      </g>
      <g>
        <g>
          <g>
            <path style="fill:#822F0C;" d="M322.08,313.759c2.036-2.429,4.595-4.506,7.172-6.314c2.516-1.765,5.192-3.312,8.04-4.475 c0.428-0.175,7.382-2.449,5.734-0.288c-0.395,0.518,0.261,1.307,0.847,1.102c2.534-0.889,5.161-1.561,7.785-2.122 c2.761-0.591,5.592-1.105,8.412-1.27c1.368-0.08,2.463-0.519,3.13,0.902c0.771,1.642-1.183,2.299-2.56,3.215 c-0.497,0.331-0.494,1.233,0.179,1.371c2.274,0.466,4.562,1.096,6.693,2.018c2.119,0.916,5.31,3.65,1.728,5.103 c-0.876,0.355-2.165,0.308-3.11,0.287c-0.608-0.013-0.881,0.637-0.648,1.129c1.962,4.132-5.229,2.184-6.946,1.663 c-0.585-0.177-1.244,0.563-0.847,1.102c3.215,4.361-11.005,2.183-11.638,2.082c-0.944-0.151-1.351,1.295-0.399,1.446 c1.704,0.272,18.253,2.39,13.332-4.286c-0.282,0.367-0.565,0.734-0.847,1.102c3.182,0.965,11.545,2.251,8.64-3.867 c-0.216,0.376-0.432,0.752-0.648,1.129c2.717,0.059,8.243-0.844,6.623-4.823c-1.472-3.617-8.218-4.852-11.535-5.532 c0.06,0.457,0.119,0.914,0.179,1.371c2.151-1.43,7.572-5.375,2.487-6.806c-3.27-0.92-7.766,0.269-11.02,0.892 c-3.168,0.606-6.343,1.379-9.39,2.449c0.282,0.367,0.565,0.734,0.847,1.102c3.189-4.182-4.18-3.117-6.047-2.488 c-6.345,2.141-12.919,6.575-17.254,11.747C320.403,313.434,321.459,314.5,322.08,313.759L322.08,313.759z"/>
          </g>
        </g>
        <path style="opacity:0.5;fill:#FFD2A8;" d="M370.331,313.619c-0.062-0.032-0.125-0.065-0.187-0.098 c-1.779,0.596-4.015,0.517-4.015,0.517s3.184,6.368-7.793,2.765c0,0,4.693,6.117-12.485,3.184l-0.292-0.081 c0.84,0.564,1.362,0.877,1.362,0.877s11.934,4.953,15.09,0c0,0,7.755,1.644,7.442-3.72c0,0,5.844-0.938,8.282-4.141 C374.722,313.345,372.207,313.538,370.331,313.619z"/>
      </g>
    </g>
  </g>
</svg>