<?xml version="1.0" encoding="utf-8"?>
<svg viewBox="62.0104 287.8006 165.2466 159.4329" width="165.2466" height="159.4329" xmlns="http://www.w3.org/2000/svg">
  <g transform="matrix(1, 0, 0, 1, 3.552713678800501e-15, 0)">
    <path style="fill:#FFCF7D;" d="M145.818,439.782c-31.727,0.41-69.688-11.454-81.154-58.416 C53.198,334.404,81.433,300,100.803,302.289c19.37,2.29,14.816,63.328,49.26,51.859c34.444-11.469,59.823-13.984,71.961,9.894 C234.161,387.921,231.266,438.679,145.818,439.782z"/>
    <path style="fill:#FFCF7D;" d="M186.912,336.57c-16.943-9.138-7.922-33.24,17.457-18.53 C229.748,332.749,211.385,349.77,186.912,336.57z"/>
  </g>
  <g transform="matrix(1, 0, 0, 1, 3.552713678800501e-15, 0)">
    <g>
      <g>
        <path style="fill:#FFE8D3;" d="M168.494,405.667l-21.843,1.269l-21.843-1.269c-21.844,2.01-31.965,26.653-31.965,26.653 c17.134,15.23,53.808,14.913,53.808,14.913s36.674,0.317,53.808-14.913C200.459,432.32,190.338,407.676,168.494,405.667z"/>
        <path style="opacity:0.9;fill:#FFE8D3;" d="M168.46,405.615l-21.843,1.269l-21.844-1.269c-10.871,1-18.836,7.606-24.097,13.99 c1.38,0.415,3.795,0.32,8.021-1.328c0,0,0.579,6.855,13.035,2.124c0,0-0.386,8.979,14.676,2.703c0,0,8.378,10.717,19.541,0.193 c0,0,11.55,5.6,14.543-2.221c0,0,10.331,4.152,12.262-3.379c0,0,4.868,1.264,9.412,1.443 C186.902,412.904,179.067,406.591,168.46,405.615z"/>
        <g>
          <g>
            <g>
              <path style="fill:#702624;" d="M105.478,439.824c3.393,3.548,9.293-5.145,10.558-7.56c-0.444-0.058-0.888-0.116-1.332-0.174 c2.731,7.316,9.19,0.501,10.137-4.319c0.116-0.591-0.715-1.031-1.028-0.434c-0.711,1.357-5.437,10.397-7.703,4.365 c-0.204-0.543-1.019-0.775-1.332-0.174c-1.308,2.511-5.666,9.448-9.277,8.256 C105.478,439.778,105.463,439.808,105.478,439.824L105.478,439.824z"/>
            </g>
          </g>
          <g>
            <g>
              <path style="fill:#702624;" d="M187.732,439.785c-3.63,1.199-7.917-5.646-9.277-8.256c-0.314-0.603-1.127-0.371-1.332,0.174 c-1.875,1.834-3.35,2.094-4.424,0.78c-0.654-0.618-1.218-1.316-1.69-2.094c-0.617-0.966-1.058-2.038-1.589-3.051 c-0.311-0.593-1.145-0.164-1.028,0.434c0.946,4.811,7.398,11.655,10.137,4.319c-0.444,0.058-0.888,0.116-1.332,0.174 c1.282,2.45,7.177,11.096,10.558,7.56C187.77,439.808,187.755,439.778,187.732,439.785L187.732,439.785z"/>
            </g>
          </g>
        </g>
        <g>
          <g>
            <path style="fill:#702624;" d="M201.147,432.069c-2.914-6.996-7.769-13.623-13.465-18.581 c-4.538-3.951-9.908-6.925-15.839-8.124c-3.932-0.795-7.867-0.238-11.843-0.007c-7.775,0.452-15.063,0.68-22.821,0.229 c-4.057-0.236-8.282-0.846-12.348-0.717c-5.686,0.18-11.497,2.828-16.064,6.073c-7.231,5.138-13.266,12.923-16.683,21.128 c-0.371,0.89,1.08,1.278,1.447,0.399c2.705-6.496,7.612-13.161,13.079-17.919c4.917-4.28,11.524-7.926,18.192-8.181 c3.416-0.131,6.986,0.406,10.396,0.604c6.447,0.375,12.488,0.601,18.917,0.228c10.249-0.595,18.991-1.848,28.172,4.08 c7.563,4.883,14.045,13.1,17.414,21.189C200.067,433.345,201.519,432.96,201.147,432.069L201.147,432.069z"/>
          </g>
        </g>
      </g>
      <g>
        <g>
          <path style="fill:#FFE8D3;" d="M209.702,399.194c-0.833-3.498-2.665-10.495-3.332-22.988 c-0.666-12.493,0.833-29.318-15.658-52.306c-16.491-22.988-44.096-22.155-44.096-22.155s-27.604-0.833-44.095,22.155 c-16.491,22.988-14.992,39.812-15.659,52.306c-0.666,12.493-2.499,19.49-3.331,22.988c-0.833,3.498,5.728,3.165,9.277,3.165 c0,0-1.314,4.664,0.035,5.331c1.349,0.666,5.014,1.166,8.179,0.666c0,0-1,4.997,0.666,5.83 c1.666,0.833,6.882,1.166,11.52-0.333c0,0-1.646,3.665,1.829,4.498c3.475,0.833,9.805-1.499,9.805-1.499 s0.374,4.164,3.935,4.331c3.561,0.167,8.891-2.241,8.891-2.241s3.069,4.573,8.947,5.073c5.878-0.5,8.947-5.073,8.947-5.073 s5.331,2.408,8.891,2.241c3.561-0.167,3.935-4.331,3.935-4.331s6.33,2.332,9.805,1.499c3.475-0.833,1.829-4.498,1.829-4.498 c4.638,1.499,9.855,1.166,11.52,0.333c1.666-0.833,0.666-5.83,0.666-5.83c3.165,0.5,6.83,0,8.179-0.666 c1.349-0.666,0.035-5.331,0.035-5.331C203.974,402.359,210.535,402.692,209.702,399.194z"/>
          <g>
            <path style="fill:#FFE8D3;" d="M209.702,399.194c-0.833-3.498-2.665-10.495-3.332-22.988 c-0.666-12.493,0.833-29.318-15.658-52.306c-16.491-22.988-44.096-22.155-44.096-22.155s-27.604-0.833-44.095,22.155 c-16.491,22.988-14.992,39.812-15.659,52.306c-0.666,12.493-2.499,19.49-3.331,22.988c-0.833,3.498,5.728,3.165,9.277,3.165 c0,0-1.314,4.664,0.035,5.331c1.349,0.666,5.014,1.166,8.179,0.666c0,0-1,4.997,0.666,5.83 c1.666,0.833,6.882,1.166,11.52-0.333c0,0-1.646,3.665,1.829,4.498c3.475,0.833,9.805-1.499,9.805-1.499 s0.374,4.164,3.935,4.331c3.561,0.167,8.891-2.241,8.891-2.241s3.069,4.573,8.947,5.073c5.878-0.5,8.947-5.073,8.947-5.073 s5.331,2.408,8.891,2.241c3.561-0.167,3.935-4.331,3.935-4.331s6.33,2.332,9.805,1.499c3.475-0.833,1.829-4.498,1.829-4.498 c4.638,1.499,9.855,1.166,11.52,0.333c1.666-0.833,0.666-5.83,0.666-5.83c3.165,0.5,6.83,0,8.179-0.666 c1.349-0.666,0.035-5.331,0.035-5.331C203.974,402.359,210.535,402.692,209.702,399.194z"/>
          </g>
          <g>
            <path style="opacity:0.9;fill:#FFE8D3;" d="M165.212,305.094c-10.251-3.591-18.596-3.349-18.596-3.349 s-13.054-0.394-26.571,6.836c-0.108,3.708,1.691,9.281,14,7.9c0,0,1.97,16.065,12.606,10.566 C157.283,321.551,155.426,306.213,165.212,305.094z"/>
            <path style="opacity:0.9;fill:#FFE8D3;" d="M155.598,418.941c0,0,5.331,2.408,8.891,2.241 c3.561-0.167,3.935-4.331,3.935-4.331s6.33,2.332,9.805,1.499c3.475-0.833,1.829-4.498,1.829-4.498 c4.638,1.499,9.855,1.166,11.52,0.333c1.666-0.833,0.666-5.83,0.666-5.83c3.165,0.5,6.83,0,8.179-0.666 c1.349-0.666,0.035-5.331,0.035-5.331c3.549,0,10.11,0.333,9.277-3.165c-0.833-3.498-2.665-10.495-3.332-22.988 c-0.157-2.937-0.195-6.118-0.375-9.557c-1.474,12.741-0.92,28.148-1.925,31.152c-1.165,3.483-6.757,0.904-6.757,0.904 c1.398,8.581-7.922,6.962-7.922,6.962c1.357,10.141-13.721,4.706-13.721,4.706c3.056,7.2-10.444,3.052-10.444,3.052 c-1.563,7.689-9.531,1.398-9.531,1.398c-8.064,8.388-17.365,0.233-17.365,0.233c-12.614,6.058-9.683-2.62-9.683-2.62 c-16.472,5.536-11.99-4.262-11.99-4.262c-14.016,7.099-12.547-2.507-12.547-2.507c-12.582,1.329-7.456-6.557-7.456-6.557 s-9.553,1.966-8.388-4.792c0.511-2.962-0.35-9.952-1.477-16.871c-0.718,11.709-2.452,18.368-3.256,21.747 c-0.833,3.498,5.728,3.165,9.277,3.165c0,0-1.314,4.664,0.035,5.331c1.349,0.666,5.014,1.166,8.179,0.666 c0,0-0.999,4.997,0.666,5.83c1.666,0.833,6.882,1.166,11.52-0.333c0,0-1.646,3.665,1.829,4.498 c3.475,0.833,9.805-1.499,9.805-1.499s0.374,4.164,3.935,4.331c3.561,0.167,8.891-2.241,8.891-2.241s3.069,4.573,8.947,5.073 C152.529,423.514,155.598,418.941,155.598,418.941z"/>
          </g>
          <g>
            <g>
              <path style="fill:#702624;" d="M210.425,398.995c-2.727-11.371-2.996-22.714-3.795-34.3 c-0.882-12.8-4.812-24.781-11.597-35.684c-10.511-16.888-28.116-27.969-48.305-28.018 c-17.083-0.042-34.19,8.185-44.391,21.902c-8.198,11.024-13.76,23.789-15.342,37.471 c-1.391,12.029-0.844,24.018-3.549,35.935c-0.851,3.748-1.013,5.821,3.395,6.582c1.222,0.211,2.769,0.408,3.989,0.234 c1.534-0.218,1.165-1.22,0.91,0.553c-0.182,1.262-0.636,2.999,0.184,4.129c1.056,1.454,5.087,1.889,6.679,1.49 c2.064-0.517,1.166-1.268,1.49,0.276c0.238,1.132-0.343,2.39,0.065,3.558c1.559,4.454,10.031,2.347,13.25,1.453 c-0.307-0.308-0.615-0.615-0.923-0.923c-3.298,8.206,9.088,4.471,12.407,3.975c-0.414,0.062-0.999-1.202-0.686-0.05 c0.165,0.609,0.333,1.201,0.638,1.756c0.606,1.104,1.451,1.955,2.662,2.379c1.851,0.648,4.215-0.002,6.002-0.494 c0.996-0.274,2.372-0.525,3.248-1.095c0.83-0.54,1.479-0.172,0.33-0.714c0.792,0.374,1.666,1.882,2.399,2.469 c1.563,1.253,3.53,2.3,5.522,2.653c3.58,0.636,7.68-1.128,10.075-3.857c0.171-0.195,0.681-0.991,0.971-1.14 c0.205-0.105-1.248,0.052-0.238,0.321c2.468,0.657,4.676,1.865,7.299,2.029c2.797,0.176,5.249-1.063,5.843-4.029 c0.293-1.465,0.075-0.126-0.615-0.229c0.798,0.12,1.632,0.532,2.415,0.741c2.072,0.554,4.466,1.156,6.627,0.857 c3.007-0.417,4.54-2.649,3.365-5.573c-0.307,0.307-0.615,0.615-0.923,0.923c3.189,0.886,10.608,2.734,12.95-0.68 c1.085-1.582-0.223-3.432,0.29-4.946c-0.258-0.935-0.005-0.826,0.758,0.326c1.055,0.059,2.108,0.037,3.159-0.066 c1.005-0.103,2.732-0.164,3.608-0.797c1.012-0.731,1.111-1.463,1.154-2.703c0.021-0.588-0.168-1.461-0.251-2.04 c-0.27-1.878-0.743-0.632,0.91-0.553c2.829,0.135,8.352,0.073,8.05-3.923c-0.072-0.957-1.573-0.965-1.5,0 c0.24,3.172-6.721,2.424-8.527,2.415c-0.491-0.002-0.848,0.481-0.723,0.949c1.514,5.674-2.936,5.529-7.49,5.047 c-0.526-0.056-0.802,0.521-0.723,0.949c0.379,2.065,0.747,4.177-1.279,5.27c-2.435,1.313-7.729-0.069-9.985-0.695 c-0.503-0.14-1.143,0.374-0.923,0.923c2.389,5.944-8.344,2.923-10.712,2.076c-0.509-0.182-0.895,0.282-0.949,0.723 c-0.656,5.294-8.414,2.883-11.698,1.442c-0.397-0.174-0.769-0.095-1.026,0.269c-4.101,5.804-12.502,5.798-16.6,0 c-0.255-0.36-0.626-0.445-1.026-0.269c-3.258,1.429-11.035,3.907-11.698-1.442c-0.055-0.442-0.441-0.905-0.949-0.723 c-1.353,0.484-2.751,0.897-4.159,1.189c-1.372,0.285-4.042,1.112-5.247,0.31c-0.665-0.443-1.612-2.811-1.305-3.575 c0.22-0.548-0.419-1.062-0.923-0.923c-2.458,0.682-7.469,2.012-9.985,0.695c-2.02-1.057-1.651-3.241-1.279-5.27 c0.079-0.428-0.198-1.005-0.723-0.949c-2.229,0.236-6.248,0.857-7.579-1.11c-0.773-1.142-0.251-2.665,0.088-3.938 c0.125-0.469-0.233-0.952-0.723-0.949c-1.824,0.009-5.505,0.58-7.021-0.46c-2.177-1.492-1.12-3.404-0.708-5.281 c1.024-4.663,1.705-9.394,2.138-14.148c0.782-8.578,0.403-17.234,1.92-25.743c3.908-21.92,18.149-43.13,39.79-50.411 c8.04-2.705,16.479-3.752,24.872-2.519c22.129,3.251,37.924,18.546,46.23,38.898c7.456,18.271,4.4,38.482,8.949,57.448 C209.203,400.332,210.65,399.934,210.425,398.995z"/>
            </g>
          </g>
        </g>
        <g>
          <g>
            <g>
              <path style="fill:#BC263B;" d="M141.86,387.037c0,0-6.746,13.492-3.855,16.576c2.891,3.084,7.669-1.542,7.669-1.542 s4.746,9.83,9.044,8.096c4.297-1.735-4.043-23.13-4.043-23.13H141.86z"/>
            </g>
            <path style="opacity:0.5;fill:#BC263B;" d="M141.86,387.037l-1.541,4.164c2.519,1.038,4.352,2.279,9.394,1.036 c0,0,4.467,10.132,4.006,13.378c-0.461,3.246-7.526-6.91-7.526-6.91s-4.762,5.614-8.9,2.785 c0.043,0.902,0.259,1.641,0.712,2.124c2.891,3.084,7.669-1.542,7.669-1.542s4.747,9.83,9.044,8.095 c4.297-1.735-4.043-23.13-4.043-23.13H141.86z"/>
            <g>
              <g>
                <path style="fill:#702624;" d="M141.212,386.659c-2.139,4.317-5.23,10.169-4.641,15.105c0.661,5.54,6.836,3.438,9.633,0.839 c-0.393-0.051-0.785-0.101-1.178-0.152c1.439,2.92,3.659,6.838,6.795,8.205c2.497,1.088,4.372,0.058,4.806-2.519 c1.122-6.657-2.866-15.203-5.229-21.298c-0.121-0.313-0.369-0.551-0.723-0.551c-2.938,0-5.876,0-8.815,0 c-0.965,0-0.967,1.5,0,1.5c1.616,0,3.232,0,4.847,0c1.125,0,4.296,0.572,3.261-0.507c1.503,1.566,2.104,5.866,2.722,7.852 c1.06,3.406,3.238,8.684,2.496,12.332c-1.243,6.119-7.814-3.638-8.865-5.77c-0.222-0.451-0.847-0.459-1.178-0.152 c-1.803,1.675-5.457,3.865-6.948,0.583c-0.78-1.717,0.38-4.68,0.918-6.391c0.897-2.852,2.067-5.639,3.394-8.317 C142.935,386.554,141.641,385.793,141.212,386.659z"/>
              </g>
            </g>
          </g>
          <g>
            <path style="fill:#B75555;" d="M141.167,374.874c1.177-9.943,0.367-27.819-9.495-37.147 c-10.671-10.094-25.005-7.496-32.834,4.997s-6.145,21.655-0.815,20.822c0,0-4.331,4.164-4.165,7.163 c0.167,2.998,3.665,1.133,3.665,1.133s-7.329,5.364-5.497,12.527c1.832,7.163,10.828,3.664,10.828,3.664 s-1.378,7.663,6.307,9.495c7.685,1.832,13.68-6.163,13.68-6.163s0.449,6.195,6.473,4.513 C135.337,394.197,139.903,385.549,141.167,374.874z"/>
            <g>
              <path style="fill:#702624;" d="M141.917,374.874c1.85-16.982-3.594-46.066-26.503-44.015 c-10.259,0.919-17.294,9.543-20.835,18.56c-1.528,3.891-4.25,15.477,3.444,14.878c-0.177-0.427-0.354-0.854-0.53-1.28 c-1.839,1.816-4.857,5.033-4.357,7.893c0.451,2.578,2.752,2.562,4.767,1.581c-0.252-0.432-0.505-0.863-0.757-1.295 c-4.225,3.199-7.838,9.222-5.435,14.561c1.987,4.415,7.357,4.485,11.343,3.001c-0.308-0.307-0.615-0.615-0.923-0.923 c-0.682,4.302,1.411,8.483,5.567,10.036c5.847,2.186,12.113-1.368,15.674-5.975c-0.427-0.177-0.854-0.354-1.28-0.53 c0.451,4.533,4.287,6.551,8.45,4.876c7.774-3.128,10.356-13.861,11.349-21.168c0.128-0.944-1.317-1.352-1.446-0.399 c-0.774,5.693-2.191,11.626-5.765,16.259c-2.623,3.401-10.408,7.267-11.088,0.432c-0.055-0.556-0.838-1.103-1.28-0.53 c-2.461,3.184-6.372,6.085-10.514,6.211c-5.034,0.154-9.013-3.809-8.219-8.813c0.08-0.505-0.329-1.144-0.923-0.923 c-3.306,1.23-7.308,1.455-9.282-1.927c-2.612-4.474,0.875-10.126,4.53-12.893c0.759-0.575,0.129-1.727-0.757-1.295 c-4.01,1.952-0.535-4.931-0.105-5.46c0.471-0.58,0.982-1.133,1.514-1.658c0.437-0.431,0.134-1.332-0.53-1.28 c-9.187,0.715,0.485-18.381,2.295-20.951c5.458-7.749,14.98-11.874,24.056-8.05c15.327,6.458,17.622,26.585,16.043,41.079 C140.313,375.832,141.813,375.824,141.917,374.874z"/>
            </g>
          </g>
          <g>
            <path style="fill:#B75555;" d="M152.065,374.874c-1.177-9.943-0.367-27.819,9.495-37.147 c10.671-10.094,25.005-7.496,32.834,4.997c7.829,12.493,6.145,21.655,0.815,20.822c0,0,4.331,4.164,4.165,7.163 c-0.167,2.998-3.665,1.133-3.665,1.133s7.329,5.364,5.497,12.527c-1.832,7.163-10.828,3.664-10.828,3.664 s1.378,7.663-6.307,9.495c-7.686,1.832-13.68-6.163-13.68-6.163s-0.449,6.195-6.473,4.513 C157.896,394.197,153.329,385.549,152.065,374.874z"/>
            <g>
              <path style="fill:#702624;" d="M152.815,374.874c-1.579-14.495,0.714-34.62,16.043-41.079 c8.596-3.622,17.658-0.136,23.217,6.977c2.008,2.569,12.695,22.769,3.134,22.025c-0.663-0.052-0.969,0.847-0.53,1.28 c0.532,0.525,1.043,1.078,1.514,1.658c0.429,0.529,3.904,7.413-0.105,5.46c-0.885-0.431-1.518,0.719-0.757,1.295 c3.658,2.77,7.144,8.417,4.53,12.893c-1.983,3.396-5.957,3.164-9.282,1.927c-0.594-0.221-1.003,0.418-0.923,0.923 c0.793,4.999-3.224,8.967-8.219,8.813c-4.147-0.127-8.048-3.021-10.514-6.211c-0.444-0.574-1.225-0.03-1.28,0.53 c-0.681,6.845-8.454,2.983-11.088-0.432c-3.576-4.636-4.991-10.562-5.765-16.259c-0.129-0.952-1.575-0.547-1.446,0.399 c0.994,7.316,3.571,18.038,11.349,21.168c4.171,1.678,7.999-0.341,8.45-4.876c-0.427,0.177-0.854,0.353-1.28,0.53 c3.56,4.606,9.828,8.161,15.674,5.975c4.153-1.553,6.249-5.737,5.567-10.036c-0.308,0.307-0.615,0.615-0.923,0.923 c3.988,1.484,9.357,1.416,11.343-3.001c2.4-5.336-1.211-11.362-5.435-14.561c-0.252,0.432-0.505,0.863-0.757,1.295 c2.001,0.974,4.317,0.997,4.767-1.581c0.497-2.85-2.529-6.087-4.357-7.893c-0.177,0.427-0.354,0.853-0.53,1.28 c7.352,0.573,5.158-10.238,3.726-14.165c-3.391-9.295-10.637-18.334-21.118-19.273 c-22.907-2.051-28.352,27.032-26.502,44.015C151.419,375.823,152.92,375.833,152.815,374.874z"/>
            </g>
          </g>
          <g>
            <g>
              <path style="fill:#FF8285;" d="M110.005,378.623c-11.275-2.585-7.669-10.295,0-8.461 C120.621,372.7,119.231,380.738,110.005,378.623z"/>
              <path style="fill:#FF8285;" d="M183.227,378.623c11.275-2.585,7.669-10.295,0-8.461 C172.611,372.7,174.002,380.738,183.227,378.623z"/>
            </g>
            <g>
              <g>
                <g>
                  <path style="fill:#702624;" d="M163.29,366.334c1.537-1.732,3.296-2.984,5.23-4.066c1.929-1.065,4.01-1.85,6.156-2.406 c2.156-0.484,4.367-0.805,6.584-0.819c1.113-0.063,2.209,0.064,3.321,0.093c1.1,0.1,2.191,0.263,3.293,0.397 c1.179,0.143,2.018,1.215,1.875,2.393c-0.143,1.179-1.215,2.019-2.394,1.875c-0.07-0.009-0.139-0.02-0.206-0.035 l-0.186-0.042c-0.959-0.214-1.919-0.465-2.888-0.658c-0.971-0.12-1.948-0.347-2.929-0.388 c-1.965-0.195-3.936-0.112-5.899,0.112c-1.947,0.296-3.874,0.797-5.703,1.571c-1.808,0.76-3.611,1.818-4.998,3.084 l-0.068,0.062c-0.341,0.312-0.871,0.287-1.182-0.054C163.007,367.135,163.011,366.65,163.29,366.334z"/>
                </g>
                <g>
                  <path style="fill:#702624;" d="M163.733,368.963c0.973-0.448,1.937-0.79,2.936-1.103c0.996-0.306,2.01-0.562,3.039-0.766 c0.521-0.104,1.028,0.233,1.132,0.754c0.104,0.521-0.233,1.028-0.754,1.132c-0.046,0.009-0.099,0.015-0.145,0.018 c-0.981,0.045-1.965,0.139-2.945,0.284c-0.973,0.148-1.967,0.344-2.891,0.61l-0.024,0.007 c-0.266,0.076-0.543-0.077-0.619-0.342C163.392,369.315,163.512,369.064,163.733,368.963z"/>
                </g>
              </g>
              <path style="fill:#702624;" d="M179.357,352.644c-2.1-0.479-4.871-0.582-7.755,1.09c-2.063,1.196-3.608-0.349-2.222-1.91 c1.597-1.797,6.115-3.496,9.673-2.488c3.558,1.008,3.534,2.144,3.387,2.814C182.293,352.821,181.331,353.094,179.357,352.644 z"/>
            </g>
            <g>
              <path style="fill:#702624;" d="M113.209,352.644c2.1-0.479,4.871-0.582,7.754,1.09c2.063,1.196,3.608-0.349,2.222-1.91 c-1.597-1.797-6.114-3.496-9.673-2.488c-3.558,1.008-3.534,2.144-3.386,2.814 C110.273,352.821,111.235,353.094,113.209,352.644z"/>
              <g>
                <g>
                  <path style="fill:#702624;" d="M128.018,367.445c-1.387-1.266-3.191-2.324-4.998-3.084 c-1.829-0.773-3.756-1.275-5.703-1.571c-1.963-0.224-3.933-0.307-5.899-0.112c-0.98,0.042-1.958,0.268-2.929,0.388 c-0.969,0.193-1.929,0.444-2.888,0.658l-0.182,0.041c-1.159,0.259-2.308-0.471-2.567-1.63 c-0.259-1.159,0.471-2.308,1.63-2.567c0.069-0.015,0.141-0.027,0.209-0.036c1.102-0.134,2.194-0.297,3.293-0.397 c1.113-0.028,2.209-0.155,3.321-0.093c2.217,0.014,4.428,0.334,6.584,0.819c2.146,0.556,4.227,1.341,6.156,2.406 c1.935,1.083,3.694,2.334,5.23,4.066c0.307,0.346,0.275,0.875-0.071,1.181c-0.322,0.286-0.804,0.278-1.117-0.005 L128.018,367.445z"/>
                </g>
                <g>
                  <path style="fill:#702624;" d="M128.461,369.891c-0.924-0.266-1.918-0.462-2.891-0.61c-0.979-0.145-1.964-0.24-2.945-0.284 c-0.531-0.024-0.941-0.474-0.917-1.005c0.024-0.531,0.474-0.941,1.005-0.917c0.047,0.002,0.1,0.009,0.145,0.018 c1.029,0.205,2.043,0.46,3.039,0.766c0.999,0.313,1.963,0.655,2.936,1.103c0.251,0.116,0.361,0.413,0.245,0.664 c-0.105,0.228-0.359,0.339-0.593,0.272L128.461,369.891z"/>
                </g>
              </g>
            </g>
          </g>
          <g>
            <g>
              <path style="fill:#ED9A55;" d="M155.695,384.869c0,2.392-4.065,5.331-9.079,5.331c-5.014,0-9.079-2.939-9.079-5.331 c0-2.392,4.065-4.331,9.079-4.331C151.63,380.538,155.695,382.477,155.695,384.869z"/>
              <g>
                <path style="fill:#702624;" d="M154.945,384.869c-0.767,6.075-15.09,6.216-16.124,0.479c-0.409-2.27,1.396-2.89,3.413-3.496 c1.41-0.424,2.916-0.565,4.383-0.565c2.524,0,7.897,0.533,8.355,3.78c0.134,0.952,1.58,0.547,1.446-0.399 c-1.035-7.336-20.982-6.489-19.546,0.859c1.51,7.727,18.581,7.197,19.573-0.66 C156.565,383.914,155.064,383.922,154.945,384.869z"/>
              </g>
            </g>
            <g>
              <path style="fill:#ED9A55;" d="M156.396,376.52c-4.831-2.485-4.901-9.143-9.78-9.476c-4.879,0.333-4.949,6.991-9.78,9.476 c-3.252,1.673-4.165,4.85,0,7.348c4.164,2.499,9.78,2.105,9.78,2.105s5.616,0.393,9.78-2.105 C160.561,381.37,159.648,378.193,156.396,376.52z"/>
              <g>
                <path style="fill:#702624;" d="M156.775,375.873c-4.106-2.468-7.582-13.962-13.871-7.801 c-1.179,1.155-1.885,2.709-2.784,4.067c-1.324,2-2.811,2.856-4.64,4.342c-2.134,1.734-2.928,4.035-1.075,6.348 c3.373,4.211,10.78,4.338,15.74,3.751c3.241-0.383,8.358-1.645,9.561-5.224 C160.535,378.885,158.761,377.054,156.775,375.873c-0.832-0.495-1.587,0.802-0.757,1.295 c6.101,3.629-1.637,7.25-5.271,7.832c-1.419,0.227-2.818,0.239-4.243,0.23c-2.089-0.014-4.157-0.104-6.183-0.702 c-1.661-0.49-4.506-1.433-5.167-3.19c-1.151-3.063,1.438-3.543,2.989-4.742c2.744-2.12,5.139-9.552,9.135-8.696 c2.561,0.549,3.724,3.884,5.045,5.766c1.011,1.44,2.181,2.591,3.695,3.501C156.847,377.667,157.602,376.37,156.775,375.873z "/>
              </g>
            </g>
            <g style="opacity:0.4;">
              <g>
                <path style="fill:#FFFFFF;" d="M137.1,379.116c1.642-0.457,3.02-1.452,4.104-2.761c1.598-1.931,2.762-3.985,4.607-5.724 c0.416-0.392-0.125-1.11-0.615-0.798c-3.501,2.23-4.061,7.646-8.179,8.981C136.827,378.876,136.905,379.17,137.1,379.116 L137.1,379.116z"/>
              </g>
            </g>
          </g>
        </g>
        <g>
          <path style="fill:#BC263B;" d="M165.226,305.092c-6.758-16.643-29.223-18.172-34.886-15.174 c-5.664,2.998-1.562,8.995-1.562,8.995c-5.893,2.499-6.826,8.698-2.936,12.327s13.493,0,13.493,0 c-2.499,5.331-1.499,12.66,4.331,12.66c5.83,0,9.342-9.113,9.662-10.661C155.712,301.671,165.226,305.092,165.226,305.092z"/>
          <g>
            <path style="fill:#BC263B;" d="M165.226,305.092c-6.758-16.643-29.223-18.172-34.886-15.174 c-5.664,2.998-1.562,8.995-1.562,8.995c-5.893,2.499-6.826,8.698-2.936,12.327s13.493,0,13.493,0 c-2.499,5.331-1.499,12.66,4.331,12.66c5.83,0,9.342-9.113,9.662-10.661C155.712,301.671,165.226,305.092,165.226,305.092z"/>
          </g>
          <g>
            <g style="opacity:0.7;">
              <g>
                <path style="fill:#FFFFFF;" d="M156.665,299.51c-8.689-3.358-19.194-0.216-26.032,5.717 c-0.339,0.294,0.097,0.835,0.473,0.613c8.437-4.957,15.571-7.776,25.505-6.135 C156.741,299.728,156.788,299.558,156.665,299.51L156.665,299.51z"/>
              </g>
            </g>
            <g style="opacity:0.7;">
              <g>
                <path style="fill:#FFFFFF;" d="M154.952,296.478c-6.909-3.538-16.289-6.715-23.431-2.071 c-0.309,0.201-0.12,0.768,0.265,0.628c8.235-2.992,15.046-0.608,23.064,1.685 C154.992,296.761,155.088,296.547,154.952,296.478L154.952,296.478z"/>
              </g>
            </g>
          </g>
          <path style="opacity:0.5;fill:#BC263B;" d="M165.226,305.092c-0.2-0.492-0.416-0.969-0.642-1.435 c-7.572-4.795-12.563,3.986-14.388,9.065c-2.035,5.662-6.635,7.785-8.185,3.76c-1.55-4.025,2.351-11.805,2.351-11.805 s-5.932,3.71-13.105,3.887c-4.091,0.101-6.038-3.021-6.957-5.723c-1.444,2.768-0.923,6.099,1.543,8.399 c3.89,3.629,13.493,0,13.493,0c-2.499,5.331-1.499,12.66,4.331,12.66c5.83,0,9.342-9.113,9.662-10.661 C155.712,301.671,165.226,305.092,165.226,305.092z"/>
          <g>
            <g>
              <g>
                <g>
                  <path style="fill:#702624;" d="M145.584,303.347c-4.035,2.93-7.47,8.005-7.575,13.135c-0.007,0.365,0.53,0.43,0.629,0.085 c1.459-5.094,3.221-9.212,7.201-12.889C146.012,303.519,145.781,303.204,145.584,303.347L145.584,303.347z"/>
                </g>
              </g>
              <g>
                <g>
                  <path style="fill:#702624;" d="M137.096,299.088c-3.714-1.593-8.666-1.693-11.841,1.163 c-0.285,0.257,0.078,0.622,0.379,0.491c3.821-1.664,7.21-2.702,11.372-1.44C137.13,299.34,137.22,299.141,137.096,299.088 L137.096,299.088z"/>
                </g>
              </g>
            </g>
            <g>
              <g>
                <g>
                  <path style="fill:#702624;" d="M165.873,304.713c-3.865-8.832-12.076-14.184-21.354-16.045 c-4.788-0.961-14.596-2.299-17.359,3.316c-0.582,1.183-0.642,2.472-0.437,3.749c0.065,0.407,1.455,3.194,1.339,3.457 c0.412-0.942-2.459,0.758-2.184,0.587c-0.981,0.613-1.857,1.885-2.355,2.927c-0.689,1.442-0.934,3.066-0.649,4.64 c1.449,8.002,10.978,6.703,16.659,4.62c-0.308-0.307-0.615-0.615-0.923-0.923c-1.496,3.601-2.32,8.965,0.865,12.003 c2.902,2.768,7.014,1.549,9.614-0.92c5.434-5.16,5.478-19.867,15.936-16.309c0.916,0.311,1.309-1.137,0.399-1.446 c-4.329-1.473-8.948,0.253-11.214,4.204c-1.869,3.26-2.124,6.998-4.303,10.197c-2.207,3.239-6.913,6.784-10.016,2.152 c-1.889-2.82-1.048-6.561,0.166-9.482c0.215-0.517-0.421-1.107-0.923-0.923c-2.306,0.845-4.861,1.488-7.315,1.568 c-8.181,0.267-9.77-8.952-2.665-12.524c0.35-0.176,0.479-0.702,0.269-1.026c-6.245-9.613,8.969-9.485,14.195-8.514 c9.121,1.695,17.161,6.772,20.958,15.449C164.964,306.353,166.257,305.59,165.873,304.713z"/>
                </g>
              </g>
            </g>
          </g>
        </g>
      </g>
    </g>
  </g>
</svg>