<?xml version="1.0" encoding="utf-8"?>
<svg viewBox="279.0566 273.6253 159.0949 173.6082" width="159.0949" height="173.6082" xmlns="http://www.w3.org/2000/svg">
  <g transform="matrix(1, 0, 0, 1, 3.552713678800501e-15, 0)">
    <path style="fill:#9FD4ED;" d="M285.094,323.653c-14.125,13.483-1.72,43.583,19.179,19.886 C325.171,319.841,307.462,302.299,285.094,323.653z"/>
    <path style="fill:#9FD4ED;" d="M344.39,274.017c-20.824-5.373-40.646,46.217-16.423,51.303 C352.19,330.406,369.677,280.542,344.39,274.017z"/>
    <path style="fill:#9FD4ED;" d="M349.934,437.265c35.603,0.447,61.916-2.997,79.052-42.068 c19.573-44.628,7.457-101.517-33.087-114.801c-50.366-16.501-16.75,69.947-59.87,64.47c-18.742-2.38-64.218,14.57-54.255,50.331 C291.735,430.958,319.546,436.884,349.934,437.265z"/>
    <path style="fill:#9FD4ED;" d="M296.323,289.296c-9.052,10.472,5.862,24.783,12.432,17.158 C315.326,298.829,302.952,281.627,296.323,289.296z"/>
  </g>
  <g transform="matrix(1, 0, 0, 1, 3.552713678800501e-15, 0)">
    <g>
      <path style="fill:#FFCF7D;" d="M381.482,405.667h-43.687c-21.844,2.01-31.965,26.653-31.965,26.653 c17.134,15.23,53.808,14.913,53.808,14.913s36.674,0.317,53.808-14.913C413.447,432.32,403.325,407.676,381.482,405.667z"/>
      <path style="opacity:0.5;fill:#FFCF7D;" d="M337.795,405.667c-7.845,0.722-14.17,4.367-19.065,8.737 c7.313,3.102,19.794,5.578,40.873,5.578c21.125,0,33.614-2.487,40.92-5.599c-4.892-4.361-11.209-7.997-19.042-8.717H337.795z"/>
      <g>
        <g>
          <path style="fill:#702624;" d="M414.068,432.087c-2.909-6.985-7.761-13.601-13.447-18.551 c-7.087-6.17-15.072-8.602-24.238-8.602c-10.216,0-20.432,0-30.648,0c-8.803,0-16.396,0.702-23.946,6.067 c-7.215,5.127-13.242,12.9-16.651,21.087c-0.337,0.808,0.98,1.161,1.313,0.362c2.739-6.576,7.613-13.177,13.097-17.95 c7.355-6.403,15.345-8.203,24.669-8.203c9.208,0,18.417,0,27.625,0c8.54,0,15.864,0.014,23.466,4.923 c7.583,4.896,14.042,13.058,17.446,21.231C413.087,433.246,414.405,432.896,414.068,432.087L414.068,432.087z"/>
        </g>
      </g>
      <g>
        <g>
          <g>
            <path style="fill:#702624;" d="M318.5,439.444c3.393,3.549,9.293-5.145,10.558-7.56c-0.444-0.058-0.888-0.116-1.332-0.174 c2.731,7.316,9.19,0.501,10.137-4.319c0.116-0.591-0.715-1.031-1.028-0.433c-0.711,1.357-5.437,10.396-7.704,4.365 c-0.204-0.543-1.019-0.775-1.332-0.174c-1.308,2.511-5.666,9.448-9.277,8.256C318.5,439.397,318.485,439.428,318.5,439.444 L318.5,439.444z"/>
          </g>
        </g>
        <g>
          <g>
            <path style="fill:#702624;" d="M400.754,439.405c-3.63,1.198-7.917-5.646-9.277-8.256c-0.314-0.603-1.127-0.37-1.332,0.174 c-1.875,1.834-3.35,2.094-4.424,0.78c-0.654-0.618-1.218-1.316-1.69-2.094c-0.617-0.966-1.058-2.038-1.589-3.051 c-0.311-0.593-1.145-0.164-1.028,0.433c0.946,4.811,7.398,11.655,10.137,4.319c-0.444,0.058-0.888,0.116-1.332,0.174 c1.282,2.45,7.177,11.096,10.558,7.56C400.792,439.428,400.777,439.397,400.754,439.405L400.754,439.405z"/>
          </g>
        </g>
      </g>
    </g>
    <g>
      <g>
        <g>
          <path style="fill:#FFCF7D;" d="M418.806,355.642c-2.311-15.321-9.929-31.824-25.29-42.637 c-18.455-12.991-49.37-12.991-67.824,0c-15.361,10.813-22.979,27.316-25.29,42.636c-3.124,12.675-1.218,32.702,1.042,37.705 c2.262,5.008,7.431,5.008,7.431,5.008c-0.674,3.91,2.952,16.628,50.73,16.628s51.404-12.718,50.73-16.628 c0,0,5.17,0,7.431-5.008C420.024,388.342,421.93,368.316,418.806,355.642z"/>
          <path style="opacity:0.5;fill:#FFCF7D;" d="M359.604,325.168c0,0-4.672,6.975-9.618,6.975c-4.946,0-5.157-9.131-5.157-9.131 s-15.261,6.214-20.334,0c-2.272-2.784-2.186-5.693-1.401-8.058c0.842-0.667,1.704-1.319,2.598-1.949 c1.308-0.921,2.685-1.769,4.11-2.56l50.367,6.733c1.015,5.327-4.566,4.316-4.566,4.316s4.439,6.59-1.224,10.648 C368.716,336.201,359.604,325.168,359.604,325.168z M415.798,386.497c-2.185,5.343-7.18,5.343-7.18,5.343 c0.651,4.172-2.852,17.741-49.015,17.741s-49.666-13.569-49.015-17.741c0,0-4.995,0-7.18-5.343 c-0.733-1.793-2.557-5.399-4.541-9.904c0.331,7.54,1.404,14.162,2.574,16.753c2.262,5.008,7.431,5.008,7.431,5.008 c-0.674,3.91,2.952,16.628,50.73,16.628s51.404-12.718,50.73-16.628c0,0,5.17,0,7.431-5.008 c1.17-2.591,2.243-9.213,2.574-16.753C418.355,381.098,416.532,384.704,415.798,386.497z"/>
          <g>
            <g>
              <path style="fill:#702624;" d="M419.53,355.443c-2.803-17.434-11.75-33.969-26.735-43.835 c-13.911-9.158-32.413-11.045-48.419-7.418c-36.451,8.26-50.151,47.898-45.447,81.547c0.673,4.816,1.483,10.292,6.443,12.528 c0.972,0.438,1.905,0.596,2.939,0.796c1.206,0.233-0.461-1.313-0.23-0.375c0.158,0.641,0.021,1.413,0.177,2.089 c1.268,5.502,7.707,8.497,12.456,10.204c15.866,5.702,34.602,5.351,51.147,4.439c11.035-0.608,24.701-1.427,34.06-8.122 c2.033-1.454,3.978-3.348,4.805-5.771c0.242-0.709,0.514-1.613,0.423-2.374c-0.121-1.022,0.3-0.696-0.693-0.049 c0.512-0.333,1.909-0.287,2.523-0.493c5.99-2.011,6.779-8.63,7.456-14.042C421.633,374.972,421.702,364.902,419.53,355.443 c-0.216-0.94-1.663-0.542-1.447,0.399c1.913,8.33,1.952,17.105,1.184,25.587c-0.525,5.797-1.04,15.933-8.934,16.176 c-0.531,0.016-0.797,0.464-0.723,0.949c1.558,10.21-19.276,13.312-25.269,14.178c-14.347,2.074-29.329,2.073-43.74,0.68 c-8.444-0.816-18.067-2.052-25.433-6.664c-2.646-1.656-6.114-4.639-5.571-8.194c0.074-0.486-0.193-0.933-0.723-0.949 c-5.926-0.183-7.547-6.139-8.306-10.948c-1.044-6.614-1.285-13.438-0.91-20.118c0.785-14.007,4.872-28.471,13.204-39.881 c17.491-23.953,54.352-30.06,79.177-13.753c14.674,9.639,23.308,25.911,26.046,42.938 C418.236,356.792,419.682,356.388,419.53,355.443z"/>
            </g>
          </g>
        </g>
        <g>
          <path style="fill:#FFCF7D;" d="M383.171,307.391c0,0-19.251-10.022-38.591-10.022c-10.745,0-14.336,4.173-12.116,4.789 c2.219,0.616,6.385,1.251,6.385,1.251s-11.667,0.042-12.407,11.262c-0.74,11.22,17.065,5.655,22.243,1.709 c0,0-1.356,9.864,1.603,10.85c2.959,0.986,9.315-8.631,9.315-8.631s5.234,11.097,11.029,10.48c5.795-0.617,0-11.467,0-11.467 s9.617,4.685,10.85-2.713C382.716,307.503,383.171,307.391,383.171,307.391z"/>
          <g>
            <g>
              <path style="fill:#702624;" d="M385.887,307.846c-11.737-5.793-25.332-11.094-38.551-11.225 c-3.117-0.031-15.522-0.228-16.733,3.999c-0.922,3.218,6.401,3.394,8.247,3.539c0-0.5,0-1,0-1.5 c-6.859,0.585-16.13,7.943-12.795,15.74c3.361,7.857,18.323,1.979,23.009-1.371c-0.376-0.216-0.752-0.432-1.129-0.648 c-0.353,2.699-1.566,10.736,2.353,11.6c3.926,0.866,8.166-6.313,9.963-9.002c-0.432,0-0.863,0-1.295,0 c1.885,3.913,7.068,12.842,12.697,10.646c4.755-1.855,1.187-9.412-0.373-12.389c-0.342,0.342-0.684,0.684-1.026,1.026 c3.535,1.669,8.668,3.069,11.127-0.86c0.513-0.821-0.784-1.574-1.295-0.757c-1.965,3.14-6.535,1.521-9.074,0.322 c-0.672-0.317-1.389,0.333-1.026,1.026c1.375,2.624,5.217,13.378-2.516,9.485c-3.305-1.664-5.657-6.015-7.218-9.256 c-0.261-0.541-1.007-0.431-1.295,0c-1.47,2.2-4.476,7.419-7.223,7.96c-3.649,0.72-2.603-7.463-2.298-9.801 c0.072-0.55-0.696-0.957-1.128-0.648c-4.128,2.951-14.825,7.453-19.544,3.718c-4.397-3.479,0.185-10.767,3.67-13.037 c1.859-1.211,4.186-2.065,6.417-2.255c0.962-0.082,0.968-1.424,0-1.5c-1.424-0.112-4.816,0.084-5.698-0.977 c-1.549-1.863,5.143-2.806,6.268-2.986c7.416-1.188,14.77-0.323,21.988,1.561c8.14,2.125,16.176,5.16,23.723,8.885 C385.992,309.567,386.753,308.274,385.887,307.846L385.887,307.846z"/>
            </g>
          </g>
          <g style="opacity:0.5;">
            <g>
              <g>
                <path style="fill:#FFFFFF;" d="M330.891,318.609c-3.508-8.778,11.153-14.806,17.844-14.063 c0.416,0.046,0.518-0.675,0.1-0.737c-6.657-0.973-23.238,5.855-18.016,14.83 C330.841,318.676,330.908,318.651,330.891,318.609L330.891,318.609z"/>
              </g>
            </g>
            <g>
              <g>
                <path style="fill:#FFFFFF;" d="M352.954,323.664c-2.602-0.135-1.088-6.88-0.833-7.85c0.615-2.345,1.672-4.416,3.066-6.38 c0.337-0.475-0.451-0.935-0.783-0.457c-2.177,3.137-3.478,6.701-3.602,10.539c-0.054,1.658-0.193,4.702,2.177,4.332 C353.088,323.831,353.054,323.669,352.954,323.664L352.954,323.664z"/>
              </g>
            </g>
            <g>
              <g>
                <path style="fill:#FFFFFF;" d="M369.174,325.234c-4.836-3.844-6.673-9.125-6.744-15.116 c-0.005-0.372-0.609-0.486-0.675-0.091c-1.012,6.043,2.348,12.088,7.305,15.355 C369.148,325.439,369.258,325.301,369.174,325.234L369.174,325.234z"/>
              </g>
            </g>
            <g>
              <g>
                <path style="fill:#FFFFFF;" d="M378.622,315.487c-4.962,0.1-8.785-1.739-12.148-5.295c-0.168-0.178-0.483,0.056-0.344,0.265 c2.654,3.968,7.877,5.96,12.506,5.138C378.697,315.584,378.682,315.486,378.622,315.487L378.622,315.487z"/>
              </g>
            </g>
          </g>
        </g>
      </g>
      <g>
        <g>
          <g>
            <path style="fill:#FF8285;" d="M318.992,385.623c-11.275-2.585-7.669-10.295,0-8.461 C329.609,379.7,328.218,387.738,318.992,385.623z"/>
            <path style="fill:#FF8285;" d="M400.215,385.623c11.275-2.585,7.669-10.295,0-8.461 C389.599,379.7,390.989,387.738,400.215,385.623z"/>
          </g>
          <path style="fill:#702624;" d="M325.408,350.296c1.98-0.848,4.688-1.446,7.824-0.319c2.244,0.806,3.487-0.991,1.843-2.278 c-1.893-1.482-6.642-2.342-9.962-0.712c-3.32,1.63-3.092,2.743-2.827,3.376C322.552,350.997,323.547,351.093,325.408,350.296z"/>
          <path style="fill:#702624;" d="M393.8,350.296c-1.98-0.848-4.688-1.446-7.824-0.319c-2.244,0.806-3.487-0.991-1.843-2.278 c1.893-1.482,6.642-2.342,9.962-0.712c3.32,1.63,3.092,2.743,2.827,3.376C396.656,350.997,395.66,351.093,393.8,350.296z"/>
          <g>
            <g>
              <path style="fill:#FFFFFF;" d="M330.446,351.574c-11.696-0.296-13.917,13.769-9.919,20.135 c1.999,3.183,4.498,5.395,9.919,5.395c5.247,0,7.921-2.212,9.919-5.395C344.363,365.343,342.142,351.278,330.446,351.574z"/>
              <g>
                <g>
                  <path style="fill:#702624;" d="M342.384,360.145c-2.411-8.08-11.94-12.562-19.274-7.157 c-5.666,4.176-6.611,13.248-3.231,19.1c0.483,0.836,1.779,0.081,1.295-0.757c-2.718-4.705-2.338-11.769,1.417-15.853 c5.96-6.482,16.039-2.668,18.347,5.065C341.213,361.466,342.661,361.073,342.384,360.145L342.384,360.145z"/>
                </g>
              </g>
              <ellipse style="fill:#702624;" cx="333.491" cy="364.756" rx="7.399" ry="9.146"/>
            </g>
            <g>
              <path style="fill:#FFCF7D;" d="M316.408,371.389c0,0,10.954-0.135,19.609,8.114 C336.017,379.503,320.329,380.991,316.408,371.389z"/>
              <g>
                <g>
                  <path style="fill:#702624;" d="M316.408,372.139c7.002-0.02,13.992,3.269,19.079,7.895 c0.713,0.648,1.777-0.409,1.061-1.061c-5.381-4.893-12.734-8.354-20.139-8.334 C315.443,370.642,315.441,372.142,316.408,372.139L316.408,372.139z"/>
                </g>
              </g>
            </g>
          </g>
          <g>
            <g>
              <path style="fill:#FFFFFF;" d="M388.553,351.574c11.696-0.296,13.917,13.769,9.919,20.135 c-1.999,3.183-4.498,5.395-9.919,5.395c-5.247,0-7.921-2.212-9.919-5.395C374.636,365.343,376.857,351.278,388.553,351.574z"/>
              <g>
                <g>
                  <path style="fill:#702624;" d="M378.061,360.543c2.312-7.75,12.393-11.539,18.347-5.065 c3.753,4.081,4.133,11.15,1.417,15.853c-0.484,0.837,0.812,1.594,1.295,0.757c3.38-5.852,2.434-14.925-3.231-19.1 c-7.329-5.402-16.864-0.921-19.274,7.157C376.338,361.072,377.786,361.468,378.061,360.543L378.061,360.543z"/>
                </g>
              </g>
              <ellipse style="fill:#702624;" cx="385.508" cy="364.756" rx="7.399" ry="9.146"/>
            </g>
            <g>
              <path style="fill:#FFCF7D;" d="M402.87,371.389c0,0-10.954-0.135-19.609,8.114 C383.26,379.503,398.948,380.991,402.87,371.389z"/>
              <g>
                <g>
                  <path style="fill:#702624;" d="M402.87,370.639c-7.405-0.021-14.759,3.441-20.139,8.334 c-0.716,0.651,0.348,1.709,1.061,1.061c5.088-4.627,12.076-7.914,19.079-7.895 C403.835,372.142,403.836,370.642,402.87,370.639L402.87,370.639z"/>
                </g>
              </g>
            </g>
          </g>
        </g>
        <g>
          <g>
            <path style="fill:#ED9A55;" d="M359.604,388.018l-14.775-2.044c0.609,8.586,12.289,10.675,14.775,10.675 c2.486,0,14.166-2.089,14.775-10.675L359.604,388.018z"/>
            <g>
              <path style="fill:#702624;" d="M359.803,387.295c-4.925-0.681-9.85-1.363-14.775-2.044c-0.415-0.057-1.021,0.182-0.949,0.723 c1.988,15.012,29.062,15.015,31.051,0c0.072-0.541-0.534-0.781-0.949-0.723c-4.925,0.681-9.85,1.363-14.775,2.044 c-0.952,0.132-0.547,1.577,0.399,1.447c4.194-0.58,9.406-2.272,13.59-1.88c1.756,0.164,0.533,0.443-0.566,1.948 c-1.577,2.16-2.637,3.557-5.063,4.843c-2.347,1.244-5.46,2.256-8.16,2.247c-2.576-0.009-5.421-0.91-7.713-2.016 c-2.069-0.998-3.742-2.371-5.106-4.223c-0.104-0.141-1.729-3.33-2.074-2.952c0.084-0.092,0.726,0.155,0.855,0.118 c1.966-0.551,5.868,0.812,7.888,1.091c1.983,0.274,3.967,0.549,5.95,0.823C360.348,388.872,360.757,387.427,359.803,387.295z "/>
            </g>
          </g>
          <g>
            <path style="fill:#ED9A55;" d="M379.153,381.428c-3.945-1.425-5.178-7.096-8.877-11.042 c-4.414-4.708-10.671-4.809-10.671-4.809s-6.257,0.1-10.672,4.809c-3.699,3.945-4.932,9.617-8.878,11.042 c-2.479,0.895-2.589,2.521,3.699,5.603c6.288,3.082,11.59,3.946,15.85,4.315c4.26-0.37,9.562-1.233,15.85-4.315 C381.742,383.949,381.632,382.324,379.153,381.428z"/>
            <g style="opacity:0.4;">
              <g>
                <path style="fill:#FFFFFF;" d="M347.798,378.08c3.073-6.295,9.392-10.139,16.325-7.583c0.436,0.16,0.75-0.568,0.319-0.757 c-7.214-3.166-14.107,1.528-16.83,8.262C347.569,378.108,347.747,378.183,347.798,378.08L347.798,378.08z"/>
              </g>
            </g>
            <path style="opacity:0.4;fill:#ED9A55;" d="M379.153,381.428c-3.946-1.425-5.178-7.096-8.878-11.042 c0,0,1.148,6.718,2.855,9.663c2.093,3.61-2.635,8.008-13.175,8.008c-10.54,0-17.206-4.418-15.127-7.208 c1.412-1.895,3.164-7.255,4.143-10.501c-0.013,0.014-0.026,0.025-0.039,0.038c-3.699,3.945-4.932,9.617-8.877,11.042 c-2.479,0.895-2.589,2.521,3.699,5.603s11.59,3.946,15.85,4.315c4.26-0.37,9.562-1.233,15.85-4.315 C381.742,383.949,381.632,382.324,379.153,381.428z"/>
            <g>
              <g>
                <path style="fill:#702624;" d="M379.531,380.781c-5.821-2.813-6.836-10.951-13.007-14.08 c-2.52-1.278-5.346-2.048-8.167-1.756c-4.925,0.509-9.098,3.37-11.877,7.351c-2.244,3.216-3.534,6.119-6.804,8.485 c-0.778,0.563-1.673,0.656-1.916,1.75c-0.655,2.958,5.821,5.285,7.484,6.012c5.174,2.259,11.305,4.032,16.985,3.267 c5.641-0.759,13.17-2.569,17.553-6.459C381.661,383.684,382.182,381.915,379.531,380.781 c-0.878-0.375-1.643,0.916-0.757,1.295c2.555,1.093-1.756,3.307-2.919,3.906c-2.496,1.285-5.112,2.336-7.813,3.105 c-4.783,1.361-9.103,1.732-13.993,0.711c-2.306-0.482-4.572-1.153-6.764-2.017c-1.121-0.441-7.096-2.499-7.516-4.099 c-0.328-1.245,4.105-4.333,5.119-5.889c3.786-5.81,8.428-12.474,16.302-11.291c5.429,0.815,9.011,4.445,11.744,8.965 c1.595,2.639,2.961,5.218,5.84,6.609C379.639,382.494,380.401,381.201,379.531,380.781z"/>
              </g>
            </g>
          </g>
        </g>
      </g>
    </g>
  </g>
</svg>