<?xml version="1.0" encoding="utf-8"?>
<svg viewBox="249.8051 262.0128 210.9096 173.8487" width="210.9096" height="173.8487" xmlns="http://www.w3.org/2000/svg">
  <g transform="matrix(1, 0, 0, 1, 3.552713678800501e-15, 0)">
    <path style="fill:#C4EEFF;" d="M357.904,428.265c-27.405,0.537-59.33-10.943-73.234-34.795c-13.904-23.852-19.15-54.116,0-78.053 c19.15-23.938,49.529-14.106,48.36-32.53c-1.169-18.423,14.64-27.106,50.147-15.85c44.527,14.115,53.575,43.259,55.037,84.43 C439.624,391.155,427.704,426.897,357.904,428.265z"/>
    <path style="fill:#C4EEFF;" d="M309.424,292.644c7.448,1.472,17.077,2.38,17.824-9.544 C327.996,271.176,280.486,286.924,309.424,292.644z"/>
    <path style="fill:#C4EEFF;" d="M318.432,264.386c-7.067,0.645,2.481,14.291,7.59,11.75 C331.132,273.596,326.928,263.611,318.432,264.386z"/>
  </g>
  <g transform="matrix(1, 0, 0, 1, 3.552713678800501e-15, 0)">
    <g>
      <path style="fill:#6D6A9C;" d="M377.206,394.294H333.52c-21.844,2.01-31.965,26.653-31.965,26.653 c17.134,15.23,53.808,14.913,53.808,14.913s36.674,0.317,53.808-14.913C409.171,420.947,399.05,396.303,377.206,394.294z"/>
      <path style="fill:#A7A7C7;" d="M390.78,430.632c-0.905-17.548-12.618-31.956-28.04-35.497h-14.755 c-15.422,3.541-27.135,17.949-28.04,35.497c16.876,5.383,35.417,5.229,35.417,5.229S373.904,436.015,390.78,430.632z"/>
      <path style="opacity:0.3;fill:#6D6A9C;" d="M355.328,406.275c0,0,18.838-0.308,35.243-7.484 c-3.835-2.326-8.278-4.029-13.365-4.497H333.52c-5.1,0.469-9.552,2.181-13.395,4.516 C336.521,405.968,355.328,406.275,355.328,406.275z"/>
      <g>
        <g>
          <path style="fill:#232345;" d="M409.894,420.748c-2.914-6.996-7.769-13.623-13.465-18.581 c-7.1-6.182-15.102-8.623-24.286-8.623c-10.216,0-20.432,0-30.648,0c-8.814,0-16.422,0.705-23.981,6.076 c-7.231,5.138-13.266,12.923-16.683,21.128c-0.371,0.89,1.08,1.278,1.447,0.399c2.705-6.496,7.612-13.161,13.079-17.919 c7.342-6.391,15.314-8.183,24.62-8.183c9.208,0,18.417,0,27.625,0c8.529,0,15.839,0.011,23.431,4.913 c7.563,4.884,14.045,13.1,17.414,21.19C408.813,422.025,410.266,421.639,409.894,420.748L409.894,420.748z"/>
        </g>
      </g>
      <g>
        <g>
          <g>
            <g>
              <path style="fill:#232345;" d="M327.491,404.189c-2.286,2.096-4.902,4.946-5.684,8.031c-0.091,0.358,0.371,0.522,0.571,0.241 c0.889-1.247,1.514-2.673,2.388-3.939c0.953-1.381,2.018-2.666,3.2-3.858C328.273,404.356,327.809,403.898,327.491,404.189 L327.491,404.189z"/>
            </g>
          </g>
          <g>
            <g>
              <path style="fill:#232345;" d="M328.771,399.662c-2.2,1.517-4.062,3.538-5.35,5.885c-0.223,0.406,0.344,0.712,0.607,0.355 c1.54-2.089,3.238-3.949,5.188-5.663C329.526,399.967,329.116,399.425,328.771,399.662L328.771,399.662z"/>
            </g>
          </g>
          <g>
            <g>
              <path style="fill:#232345;" d="M322.689,403.546c-2.103,1.756-3.852,4.159-4.917,6.676c-0.201,0.475,0.448,0.898,0.715,0.418 c1.343-2.412,2.857-4.547,4.655-6.641C323.413,403.684,323.005,403.282,322.689,403.546L322.689,403.546z"/>
            </g>
          </g>
        </g>
        <g>
          <g>
            <g>
              <path style="fill:#232345;" d="M390.599,417.142c0.567,1.296,1.058,2.632,1.478,3.982c0.335,1.077,0.434,2.3,1.016,3.269 c0.22,0.367,0.721,0.181,0.757-0.205c0.119-1.265-0.559-2.646-1.03-3.797c-0.5-1.222-1.13-2.36-1.83-3.478 C390.832,416.66,390.484,416.88,390.599,417.142L390.599,417.142z"/>
            </g>
          </g>
          <g>
            <g>
              <path style="fill:#232345;" d="M394.773,419.873c0.358,1.067,0.652,2.144,0.899,3.242c0.225,0.997,0.324,2.034,0.762,2.964 c0.248,0.526,0.966,0.209,1.005-0.272c0.164-2.061-1.109-4.41-2.009-6.211C395.249,419.234,394.643,419.486,394.773,419.873 L394.773,419.873z"/>
            </g>
          </g>
          <g>
            <g>
              <path style="fill:#232345;" d="M395.117,414.315c1.014,1.988,1.902,4.526,3.46,6.149c0.33,0.344,0.927-0.01,0.797-0.464 c-0.621-2.161-2.372-4.205-3.582-6.079C395.518,413.497,394.888,413.866,395.117,414.315L395.117,414.315z"/>
            </g>
          </g>
        </g>
      </g>
    </g>
    <g>
      <g>
        <path style="fill:#6D6A9C;" d="M389.24,301.632c-6.764-4.761-15.203-7.77-24.087-9.041c2.687-1.019,5.236-2.32,4.435-3.388 c-1.569-2.092-11.135-1.868-11.135-1.868s3.139-2.616,1.495-3.737c-1.644-1.121-7.623,4.036-7.623,4.036 s-3.438-4.708-4.932-4.708s-1.046,4.26-1.046,4.26s-6.502-9.716-8.321-8.445c-1.819,1.271,1.446,10.911,1.446,10.911 s-4.858-1.794-4.858,0c0,1.21,2.41,3.164,3.981,4.31c-6.306,1.614-12.198,4.165-17.179,7.671 c-27.511,19.367-30.204,56.985-22.012,73.369c12.281,24.562,55.924,25.274,55.924,25.274s43.643-0.712,55.923-25.274 C419.444,358.617,416.751,320.999,389.24,301.632z"/>
        <path style="opacity:0.3;fill:#6D6A9C;" d="M411.251,367.375c-12.281,24.562-55.923,25.274-55.923,25.274 s-43.642-0.712-55.924-25.274c-2.16-4.32-3.553-10.124-3.944-16.672c-0.552,9.633,0.976,18.362,3.944,24.298 c12.281,24.562,55.924,25.274,55.924,25.274s43.643-0.712,55.923-25.274c2.968-5.936,4.496-14.665,3.944-24.298 C414.804,357.251,413.411,363.055,411.251,367.375z"/>
        <g>
          <g>
            <g>
              <path style="fill:#FFFFFF;" d="M326.275,340.371c-11.696-0.296-13.917,13.769-9.919,20.135 c1.999,3.183,4.498,5.395,9.919,5.395c5.247,0,7.921-2.212,9.919-5.395C340.192,354.14,337.971,340.075,326.275,340.371z"/>
              <g>
                <g>
                  <path style="fill:#232345;" d="M338.212,348.942c-2.411-8.08-11.94-12.562-19.274-7.157 c-5.666,4.176-6.611,13.248-3.231,19.1c0.483,0.836,1.779,0.081,1.295-0.757c-2.717-4.705-2.338-11.769,1.417-15.852 c5.959-6.482,16.039-2.668,18.347,5.065C337.041,350.263,338.49,349.87,338.212,348.942L338.212,348.942z"/>
                </g>
              </g>
              <ellipse style="fill:#232345;" cx="329.319" cy="353.553" rx="7.399" ry="9.146"/>
            </g>
            <g>
              <path style="fill:#FFFFFF;" d="M384.381,340.371c11.696-0.296,13.917,13.769,9.919,20.135 c-1.999,3.183-4.498,5.395-9.919,5.395c-5.247,0-7.921-2.212-9.919-5.395C370.464,354.14,372.685,340.075,384.381,340.371z"/>
              <g>
                <g>
                  <path style="fill:#232345;" d="M373.89,349.34c2.312-7.75,12.393-11.539,18.347-5.065 c3.753,4.081,4.133,11.15,1.417,15.852c-0.484,0.838,0.812,1.594,1.295,0.757c3.38-5.852,2.434-14.925-3.231-19.1 c-7.329-5.402-16.864-0.921-19.274,7.157C372.167,349.869,373.614,350.265,373.89,349.34L373.89,349.34z"/>
                </g>
              </g>
              <ellipse style="fill:#232345;" cx="381.337" cy="353.553" rx="7.399" ry="9.146"/>
            </g>
            <g>
              <path style="fill:#FFB6C3;" d="M314.717,374.288c-11.275-2.585-7.669-10.295,0-8.461 C325.333,368.365,323.942,376.403,314.717,374.288z"/>
              <path style="fill:#FFB6C3;" d="M395.939,374.288c11.275-2.585,7.669-10.295,0-8.461 C385.323,368.365,386.714,376.403,395.939,374.288z"/>
            </g>
            <path style="fill:#232345;" d="M321.132,338.961c1.98-0.848,4.688-1.446,7.824-0.319c2.244,0.806,3.487-0.991,1.843-2.277 c-1.893-1.482-6.642-2.342-9.962-0.712c-3.32,1.63-3.092,2.743-2.827,3.376C318.276,339.661,319.271,339.758,321.132,338.961z "/>
            <path style="fill:#232345;" d="M389.524,338.961c-1.98-0.848-4.688-1.446-7.824-0.319c-2.244,0.806-3.487-0.991-1.843-2.277 c1.893-1.482,6.642-2.342,9.962-0.712c3.32,1.63,3.092,2.743,2.827,3.376C392.38,339.661,391.385,339.758,389.524,338.961z"/>
          </g>
          <g>
            <g>
              <g>
                <g>
                  <path style="fill:#232345;" d="M354.578,380.474c0,2.056,0,4.112,0,6.167c0,0.965,1.5,0.967,1.5,0c0-2.056,0-4.112,0-6.167 C356.078,379.509,354.578,379.507,354.578,380.474L354.578,380.474z"/>
                </g>
              </g>
              <g>
                <g>
                  <path style="fill:#232345;" d="M347.976,384.734c4.297,4.077,10.451,3.34,14.965,0.117 c0.779-0.556,0.031-1.858-0.757-1.295c-3.939,2.813-9.346,3.725-13.147,0.117 C348.337,383.009,347.274,384.067,347.976,384.734L347.976,384.734z"/>
                </g>
              </g>
            </g>
            <path style="fill:#232345;" d="M355.328,350.436c-9.987,1.825-12.868,23.657-11.029,28.386c1.839,4.729,20.219,4.729,22.058,0 C368.196,374.094,365.315,352.261,355.328,350.436z"/>
            <g>
              <g>
                <path style="fill:#6D6A9C;" d="M346.502,377.879c-0.065-8.194,1.184-20.253,9.254-24.631 c0.544-0.296,0.065-1.039-0.473-0.81c-8.633,3.68-10.175,17.484-9.057,25.478 C346.248,378.076,346.503,378.034,346.502,377.879L346.502,377.879z"/>
              </g>
            </g>
          </g>
        </g>
        <g>
          <g>
            <g>
              <path style="fill:#232345;" d="M341.89,287.854c1.722,2.255,3.155,4.735,4.9,6.962c0.251,0.321,0.676-0.088,0.528-0.407 c-1.173-2.525-3.245-4.788-5.207-6.725C342.001,287.576,341.79,287.724,341.89,287.854L341.89,287.854z"/>
            </g>
          </g>
          <g>
            <g>
              <path style="fill:#232345;" d="M348.558,288.751c0.827,2.219,1.486,4.542,2.571,6.65c0.239,0.465,0.888,0.125,0.8-0.337 c-0.449-2.339-1.656-4.503-2.899-6.512C348.882,288.315,348.452,288.466,348.558,288.751L348.558,288.751z"/>
            </g>
          </g>
          <g>
            <g>
              <path style="fill:#232345;" d="M341.841,293.759c2.014,3.197,3.844,6.385,5.362,9.849c0.194,0.443,0.862,0.12,0.757-0.319 c-0.901-3.737-3.399-6.864-5.75-9.814C342.042,293.266,341.701,293.536,341.841,293.759L341.841,293.759z"/>
            </g>
          </g>
          <g>
            <g>
              <path style="fill:#232345;" d="M348.78,297.619c0.489,1.493,0.914,3.015,1.256,4.549c0.341,1.53,0.447,3.139,0.954,4.62 c0.14,0.408,0.675,0.308,0.721-0.098c0.356-3.105-1.136-6.537-2.545-9.235C349.056,297.247,348.706,297.391,348.78,297.619 L348.78,297.619z"/>
            </g>
          </g>
          <g>
            <g>
              <path style="fill:#232345;" d="M356.382,287.557c-1.402,1.944-2.525,4.17-2.891,6.561c-0.066,0.435,0.558,0.635,0.678,0.187 c0.616-2.312,1.282-4.5,2.442-6.614C356.695,287.539,356.48,287.421,356.382,287.557L356.382,287.557z"/>
            </g>
          </g>
          <g>
            <g>
              <path style="fill:#232345;" d="M357.666,293.648c-1.798,2.079-3.353,4.595-3.771,7.355c-0.059,0.389,0.439,0.527,0.588,0.162 c1.028-2.531,1.94-5.015,3.429-7.328C358.006,293.69,357.783,293.512,357.666,293.648L357.666,293.648z"/>
            </g>
          </g>
          <g>
            <g>
              <path style="fill:#232345;" d="M365.169,289.573c-2.411,0.901-4.31,2.849-5.66,4.998c-0.221,0.352,0.274,0.713,0.565,0.436 c1.767-1.687,3.189-3.617,5.324-4.891C365.677,289.949,365.495,289.451,365.169,289.573L365.169,289.573z"/>
            </g>
          </g>
          <g>
            <g>
              <path style="fill:#232345;" d="M362.062,296.136c-1.936,2.559-4.09,5.553-4.945,8.687c-0.102,0.374,0.41,0.576,0.614,0.259 c1.776-2.764,3.037-5.874,4.803-8.67C362.727,296.106,362.268,295.863,362.062,296.136L362.062,296.136z"/>
            </g>
          </g>
          <g>
            <g>
              <path style="fill:#232345;" d="M354.973,303.254c-0.661,2.257-1.209,4.809-1.005,7.172c0.031,0.365,0.616,0.512,0.69,0.094 c0.415-2.345,0.509-4.758,0.842-7.12C355.548,303.061,355.075,302.906,354.973,303.254L354.973,303.254z"/>
            </g>
          </g>
        </g>
        <g>
          <g>
            <g>
              <path style="fill:#232345;" d="M388.909,300.496c-7.181-4.656-15.127-7.311-23.557-8.628c0,0.482,0,0.964,0,1.446 c2.159-0.882,7.23-2.785,3.9-5.313c-2.513-1.908-7.839-1.471-10.8-1.417c0.177,0.427,0.354,0.854,0.53,1.28 c1.223-1.071,3.354-3.503,1.343-4.915c-1.859-1.305-6.581,1.916-7.572,3.365c-0.787,1.151-0.978,0.203,0.098,0.779 c-0.544-0.291-1.188-1.524-1.562-1.954c-0.759-0.872-2.334-3.023-3.699-2.938c-2.354,0.147-2.145,3.263-1.996,4.983 c0.466-0.126,0.932-0.252,1.398-0.379c-1.373-2.035-5.916-9.97-8.996-8.846c-3.355,1.224,0.059,9.822,0.75,11.891 c0.307-0.307,0.615-0.615,0.923-0.923c-1.317-0.464-4.417-1.663-5.496-0.17c-1.537,2.127,2.83,4.932,4.042,5.851 c0.06-0.457,0.12-0.914,0.179-1.371c-5.717,1.55-11.03,3.725-16.061,6.868c-0.817,0.51-0.065,1.809,0.757,1.295 c4.9-3.061,10.136-5.207,15.703-6.717c0.68-0.184,0.667-1.001,0.179-1.371c-1.273-0.513-2.065-1.388-2.376-2.624 c-0.886-1.283-0.507-1.546,1.137-0.788c0.479,0.013,1.093,0.317,1.537,0.473c0.53,0.187,1.097-0.4,0.923-0.923 c-0.476-1.427-3.256-9.611-1.299-9.88c1.882-0.259,5.785,6.481,6.804,7.991c0.379,0.562,1.467,0.421,1.398-0.378 c-0.126-1.457,0.083-2.981,2.073-2.138c0.893,0.379,1.943,2.204,2.508,2.965c0.303,0.408,0.78,0.49,1.178,0.152 c1.055-0.897,2.222-2.008,3.474-2.599c1.956-0.924,3.95-0.825,1.594,1.239c-0.494,0.433-0.095,1.292,0.53,1.28 c1.322-0.024,2.647,0.002,3.966,0.083c2.972,0.184,8.97,1.073,2.534,3.7c-0.591,0.241-0.824,1.318,0,1.446 c8.297,1.296,16.12,3.887,23.198,8.477C388.965,302.318,389.717,301.02,388.909,300.496L388.909,300.496z"/>
            </g>
          </g>
          <g>
            <g>
              <path style="fill:#232345;" d="M305.332,384.068c12.569,12.146,32.819,17.055,49.981,16.957 c17.089-0.098,37.062-4.955,49.858-16.691c0.713-0.654-0.35-1.712-1.061-1.061c-12.458,11.426-32.145,16.173-48.797,16.251 c-16.755,0.079-36.65-4.661-48.92-16.518C305.698,382.336,304.636,383.396,305.332,384.068L305.332,384.068z"/>
            </g>
          </g>
        </g>
      </g>
      <g>
        <path style="fill:#6D6A9C;" d="M299.404,375.001c-8.192-16.385-5.5-54.003,22.012-73.369c0.186-0.131,0.382-0.251,0.571-0.38 l0,0c-4.05-5.723-14.47-17.498-31.438-17.057c-26.913,0.699-38.796,27.612-26.214,25.165c0,0-9.612,11.534-12.757,24.291 s0.524,20.272,5.592,17.65c0,0-1.544,10.019,3.32,19.922c4.544,9.25,11.01,7.34,13.282,4.544c0,0,6.291,14.33,18.874,14.854 c8.164,0.34,11.617-4.031,13.037-7.145l0,0C303.165,381.025,301.014,378.22,299.404,375.001z"/>
        <g>
          <path style="fill:#FFB6C3;" d="M299.404,375.001c-7.16-14.321-6.003-44.864,12.773-65.262c0,0-5.125-9.146-15.609-8.655 c-11.347,0.532-23.928,10.268-24.964,38.366c-0.97,26.305,8.437,38.715,14.226,42.919c4.058,2.948,11.709,4.206,16.86-2.207 C301.439,378.57,300.331,376.855,299.404,375.001z"/>
          <g>
            <g>
              <path style="fill:#232345;" d="M312.825,309.361c-8.579-14.8-27.754-9.268-35.258,3.11 c-6.581,10.856-7.467,25.09-6.533,37.419c0.74,9.762,3.184,20,9.225,27.915c5.818,7.622,15.738,10.93,22.962,2.887 c0.643-0.716-0.414-1.781-1.061-1.061c-9.452,10.524-20.048,0.188-24.464-8.911c-5.982-12.326-6.586-27.634-4.434-40.953 c1.59-9.839,5.577-20.785,14.965-25.676c8.104-4.222,18.545-2.182,23.302,6.026 C312.013,310.953,313.31,310.198,312.825,309.361L312.825,309.361z"/>
            </g>
          </g>
        </g>
        <path style="opacity:0.3;fill:#6D6A9C;" d="M273.206,371.295c-11.704,6.885-14.113-24.897-14.113-24.897 c-12.491,0.229,5.242-37.038,5.242-37.038s-9.612,11.534-12.757,24.291s0.524,20.272,5.592,17.65c0,0-1.544,10.019,3.32,19.922 c4.544,9.25,11.01,7.34,13.282,4.544c0,0,6.291,14.33,18.874,14.854c8.164,0.34,11.617-4.031,13.037-7.145 c0,0-3.676-3.921-5-6.186C287.784,392.615,273.206,371.295,273.206,371.295z"/>
        <g>
          <g>
            <g>
              <path style="fill:#232345;" d="M265.886,352.959c-0.684,4.906,0.149,9.933,2.077,14.475c0.202,0.476,1.025,0.134,0.842-0.355 c-1.718-4.615-2.352-9.123-2.305-14.037C266.503,352.702,265.936,352.603,265.886,352.959L265.886,352.959z"/>
            </g>
          </g>
          <g>
            <g>
              <path style="fill:#232345;" d="M264.263,330.379c-3.826,10.188-4.756,21.375-3.025,32.094 c0.105,0.649,1.067,0.365,0.979-0.27c-1.507-10.874-0.532-21.165,2.618-31.666 C264.947,330.165,264.395,330.027,264.263,330.379L264.263,330.379z"/>
            </g>
          </g>
          <g>
            <g>
              <path style="fill:#232345;" d="M267.664,313.927c-7.661,8.389-12.632,20.223-13,31.606c-0.014,0.429,0.708,0.546,0.767,0.104 c1.603-11.884,5.382-21.824,12.392-31.587C267.891,313.956,267.741,313.842,267.664,313.927L267.664,313.927z"/>
            </g>
          </g>
          <g>
            <g>
              <path style="fill:#232345;" d="M282.896,296.539c-5.509,3.002-10.326,7.336-13.517,12.777 c-0.292,0.499,0.454,0.924,0.769,0.449c3.468-5.221,7.595-9.565,12.938-12.903 C283.29,296.735,283.109,296.423,282.896,296.539L282.896,296.539z"/>
            </g>
          </g>
          <g>
            <g>
              <path style="fill:#232345;" d="M285.9,302.046c-15.954,7.983-20.814,30.174-18.953,46.342c0.038,0.333,0.516,0.35,0.531,0 c0.748-17.071,2.318-36.37,18.516-46.18C286.098,302.145,286.007,301.993,285.9,302.046L285.9,302.046z"/>
            </g>
          </g>
          <g>
            <g>
              <path style="fill:#232345;" d="M312.004,301.781c-7.688-6.77-19.217-7.853-27.779-1.897c-0.193,0.134-0.029,0.403,0.181,0.31 c10.063-4.436,18.153-4.715,27.446,1.783C311.968,302.058,312.11,301.875,312.004,301.781L312.004,301.781z"/>
            </g>
          </g>
        </g>
        <g>
          <g>
            <path style="fill:#232345;" d="M324.011,302.948c-10.384-16.661-30.734-24.503-49.049-15.849 c-6.556,3.098-13.791,8.826-15.935,16.104c-1.306,4.433,0.71,7.647,5.507,6.88c-0.243-0.418-0.487-0.836-0.73-1.253 c-6.545,7.941-12.038,17.884-13.668,28.12c-0.725,4.554-1.001,18.606,7.412,14.999c-0.367-0.282-0.734-0.565-1.102-0.847 c-1.153,8.158,0.577,21.338,8.018,26.296c2.206,1.47,5.85,2.184,8.125,0.358c0.261-0.21,1.01-0.876,1.27-0.976 c0.256-0.098-1.194-0.933-0.533-0.205c0.82,0.904,1.355,2.494,2.042,3.529c4.546,6.846,11.695,12.159,20.286,11.163 c5.686-0.659,10.829-4.718,11.694-10.594c0.139-0.944-1.306-1.352-1.447-0.399c-1.196,8.123-10.224,11.076-17.333,8.871 c-6.354-1.971-11.474-7.798-14.15-13.757c-0.196-0.436-0.876-0.48-1.178-0.152c-6.375,6.935-12.456-4.198-14.048-9.411 c-1.367-4.477-1.962-9.639-1.3-14.326c0.096-0.679-0.471-1.117-1.102-0.847c-5.231,2.243-5.75-6.498-5.591-9.583 c0.291-5.635,1.968-11.128,4.345-16.219c2.468-5.286,5.602-10.452,9.32-14.962c0.493-0.598,0.024-1.374-0.73-1.254 c-7.057,1.129-2.93-7.467-0.857-10.301c4.536-6.199,11.632-10.411,19.004-12.268c16.171-4.075,31.849,3.866,40.433,17.638 C323.225,304.523,324.524,303.771,324.011,302.948L324.011,302.948z"/>
          </g>
        </g>
        <g style="opacity:0.3;">
          <g>
            <path style="fill:#FFFFFF;" d="M316.598,299.465c-7.188-7.636-17.743-13.289-28.481-11.753 c-9.711,1.389-20.25,7.895-25.432,16.27c-0.449,0.725,0.636,1.31,1.12,0.655c5.618-7.614,14.332-13.738,23.785-15.487 c11.148-2.063,20.594,3.876,28.989,10.341C316.593,299.501,316.609,299.478,316.598,299.465L316.598,299.465z"/>
          </g>
        </g>
      </g>
      <g>
        <path style="fill:#6D6A9C;" d="M411.113,375.001c8.192-16.385,5.5-54.003-22.011-73.369c-0.186-0.131-0.382-0.251-0.571-0.38 l0,0c4.05-5.723,14.47-17.498,31.438-17.057c26.913,0.699,38.796,27.612,26.214,25.165c0,0,9.612,11.534,12.757,24.291 c3.146,12.757-0.524,20.272-5.592,17.65c0,0,1.544,10.019-3.32,19.922c-4.544,9.25-11.01,7.34-13.282,4.544 c0,0-6.291,14.33-18.874,14.854c-8.164,0.34-11.617-4.031-13.037-7.145l0,0C407.352,381.025,409.504,378.22,411.113,375.001z"/>
        <g>
          <path style="fill:#FFB6C3;" d="M411.113,375.001c7.161-14.321,6.003-44.864-12.773-65.262c0,0,5.125-9.146,15.609-8.655 c11.347,0.532,23.928,10.268,24.964,38.366c0.97,26.305-8.437,38.715-14.226,42.919c-4.058,2.948-11.709,4.206-16.86-2.207 C409.079,378.57,410.187,376.855,411.113,375.001z"/>
          <g>
            <g>
              <path style="fill:#232345;" d="M398.988,310.118c4.757-8.206,15.201-10.247,23.302-6.026 c9.382,4.888,13.385,15.836,14.965,25.676c2.145,13.361,1.519,28.58-4.434,40.953c-4.384,9.114-15.006,19.441-24.464,8.911 c-0.646-0.72-1.704,0.344-1.061,1.061c6.127,6.821,15.098,5.758,21.052-0.605c6.37-6.807,9.361-16.345,10.62-25.385 c2.421-17.393,0.9-48.019-20.44-53.668c-7.965-2.109-16.632,1.076-20.835,8.327 C397.208,310.198,398.504,310.954,398.988,310.118L398.988,310.118z"/>
            </g>
          </g>
        </g>
        <path style="opacity:0.3;fill:#6D6A9C;" d="M437.311,371.295c11.704,6.885,14.113-24.897,14.113-24.897 c12.491,0.229-5.242-37.038-5.242-37.038s9.612,11.534,12.757,24.291c3.146,12.757-0.524,20.272-5.592,17.65 c0,0,1.544,10.019-3.32,19.922c-4.544,9.25-11.01,7.34-13.282,4.544c0,0-6.291,14.33-18.874,14.854 c-8.164,0.34-11.617-4.031-13.037-7.145c0,0,3.676-3.921,5-6.186C422.733,392.615,437.311,371.295,437.311,371.295z"/>
        <g>
          <g>
            <g>
              <path style="fill:#232345;" d="M444.018,353.042c0.046,4.916-0.588,9.423-2.305,14.037c-0.18,0.484,0.638,0.836,0.842,0.355 c1.928-4.542,2.761-9.57,2.077-14.475C444.582,352.606,444.014,352.698,444.018,353.042L444.018,353.042z"/>
            </g>
          </g>
          <g>
            <g>
              <path style="fill:#232345;" d="M445.682,330.536c3.15,10.501,4.125,20.792,2.618,31.666c-0.088,0.634,0.874,0.92,0.979,0.27 c1.731-10.719,0.801-21.906-3.025-32.094C446.122,330.027,445.57,330.164,445.682,330.536L445.682,330.536z"/>
            </g>
          </g>
          <g>
            <g>
              <path style="fill:#232345;" d="M442.694,314.05c7.008,9.76,10.79,19.707,12.392,31.587c0.059,0.438,0.781,0.33,0.767-0.104 c-0.368-11.385-5.338-23.217-13-31.606C442.777,313.843,442.626,313.955,442.694,314.05L442.694,314.05z"/>
            </g>
          </g>
          <g>
            <g>
              <path style="fill:#232345;" d="M427.432,296.863c5.342,3.337,9.47,7.682,12.938,12.903c0.315,0.474,1.062,0.05,0.769-0.449 c-3.191-5.441-8.009-9.776-13.517-12.777C427.409,296.423,427.227,296.735,427.432,296.863L427.432,296.863z"/>
            </g>
          </g>
          <g>
            <g>
              <path style="fill:#232345;" d="M424.523,302.208c16.201,9.813,17.768,29.109,18.516,46.18c0.015,0.349,0.493,0.334,0.531,0 c1.862-16.171-2.999-38.36-18.953-46.342C424.511,301.993,424.419,302.145,424.523,302.208L424.523,302.208z"/>
            </g>
          </g>
          <g>
            <g>
              <path style="fill:#232345;" d="M398.665,301.977c9.293-6.498,17.383-6.218,27.446-1.783c0.21,0.092,0.374-0.176,0.181-0.31 c-8.561-5.956-20.091-4.872-27.779,1.897C398.409,301.874,398.548,302.059,398.665,301.977L398.665,301.977z"/>
            </g>
          </g>
        </g>
        <g>
          <g>
            <path style="fill:#232345;" d="M387.802,303.705c8.596-13.792,24.246-21.684,40.433-17.638 c7.367,1.841,14.479,6.076,19.004,12.268c2.067,2.829,6.219,11.433-0.857,10.301c-0.752-0.12-1.224,0.654-0.73,1.254 c3.716,4.508,6.856,9.677,9.32,14.962c2.26,4.849,3.949,10.119,4.311,15.484c0.206,3.056-0.022,12.69-5.557,10.318 c-0.634-0.272-1.197,0.171-1.102,0.847c0.666,4.713,0.038,9.805-1.3,14.326c-1.525,5.151-7.675,16.344-14.048,9.411 c-0.302-0.328-0.982-0.284-1.178,0.152c-2.664,5.931-7.801,11.829-14.15,13.757c-7.113,2.159-16.135-0.733-17.333-8.871 c-0.14-0.952-1.586-0.547-1.447,0.399c0.866,5.877,6.008,9.933,11.694,10.594c8.597,0.998,15.736-4.32,20.287-11.163 c0.695-1.045,1.179-2.421,1.964-3.372c0.796-0.964-0.524,0.02-0.454,0.047c-0.096-0.037,1.356,1.05,1.27,0.976 c2.205,1.88,5.966,1.081,8.125-0.358c7.439-4.957,9.17-18.144,8.017-26.296c-0.367,0.282-0.734,0.565-1.102,0.847 c8.403,3.603,8.147-10.426,7.412-14.999c-1.645-10.24-7.117-20.172-13.668-28.12c-0.243,0.418-0.486,0.836-0.73,1.253 c4.592,0.735,6.776-2.204,5.599-6.586c-1.992-7.414-9.43-13.282-16.026-16.398c-18.312-8.652-38.665-0.81-49.049,15.849 C385.994,303.77,387.292,304.524,387.802,303.705L387.802,303.705z"/>
          </g>
        </g>
        <g style="opacity:0.3;">
          <g>
            <path style="fill:#FFFFFF;" d="M393.939,299.49c8.395-6.465,17.84-12.404,28.989-10.341 c9.453,1.749,18.167,7.873,23.785,15.487c0.483,0.655,1.569,0.072,1.12-0.655c-5.184-8.379-15.716-14.881-25.432-16.27 c-10.738-1.535-21.293,4.118-28.481,11.753C393.908,299.478,393.924,299.501,393.939,299.49L393.939,299.49z"/>
          </g>
        </g>
      </g>
    </g>
  </g>
</svg>