<?xml version="1.0" encoding="utf-8"?>
<svg viewBox="276.5385 65.6747 176.1718 173.5288" width="176.1718" height="173.5288" xmlns="http://www.w3.org/2000/svg">
  <g transform="matrix(1, 0, 0, 1, 3.552713678800501e-15, 0)">
    <path style="fill:#B8DCFF;" d="M426.703,94.272c-45.012-55.889-120.035-17.731-132.64,12.124 c-16.532,39.156-0.3,52.876,3.586,64.062c7.831,22.539-16.922,21.264-6.027,35.669c10.894,14.405,31.861,27.148,57.774,28.303 c107.073,4.773,109.17-68.984,91.882-77.549C421.711,147.188,452.74,126.601,426.703,94.272z"/>
    <path style="fill:#B8DCFF;" d="M441.278,152.361c-4.993-1.764-1.052-26.759,4.972-21.68 C452.274,135.761,452.65,156.379,441.278,152.361z"/>
    <path style="fill:#B8DCFF;" d="M447.333,156.897c-1.005-1.621,3.355-6.486,5.032-3.117 C454.042,157.149,449.163,159.847,447.333,156.897z"/>
    <path style="fill:#B8DCFF;" d="M277.216,183.035c-4.322-10.386,13.259-13.036,18.157-5.455 C300.272,185.16,282.12,194.82,277.216,183.035z"/>
    <path style="fill:#B8DCFF;" d="M282.17,169.596c-6.951-4.712-1.504-13.022,5.595-6.812 C294.863,168.995,289.121,174.308,282.17,169.596z"/>
  </g>
  <g style="opacity:0.5;" transform="matrix(1, 0, 0, 1, 3.552713678800501e-15, 0)">
    <path style="fill:#CFB8E5;" d="M396.028,186.787c-2.579,6.706-10.523,9.904-31.399,1.857c-20.876,8.047-28.82,4.849-31.399-1.857 c0,0-0.621,8.612,8.291,10.328c0,0-0.524,3.124,0.699,3.644c1.223,0.519,8.077,1.568,9.543,0.869 c1.466-0.699,1.612-5.592,1.612-5.592s8.48-3.724,11.332-3.348c2.852,0.377,11.573,3.394,11.573,3.394s0.482,5.125,1.93,5.778 c1.447,0.653,8.415-0.687,8.79-1.49c0.375-0.804,0.107-3.966,0.107-3.966S395.248,195.268,396.028,186.787z"/>
  </g>
  <g transform="matrix(1, 0, 0, 1, 3.552713678800501e-15, 0)">
    <path style="fill:#B694DD;" d="M356.169,211.273c0.519,0.753,1.355,1.522,2.548,2.226c7.841,4.628,13.405,0,5.411-4.673 c-1.45-0.847-2.758-1.354-3.895-1.598C358.75,208.527,357.396,209.893,356.169,211.273z"/>
    <path style="fill:#B694DD;" d="M370.291,218.591c3.997,0.378,3.466-2.346-0.112-2.774 C366.876,215.421,365.468,218.136,370.291,218.591z"/>
    <path style="fill:#B694DD;" d="M361.999,220.134c4.056,0.075,5.412-2.65,0.526-2.991 C357.638,216.803,356.784,220.037,361.999,220.134z"/>
  </g>
  <g transform="matrix(1, 0, 0, 1, 3.552713678800501e-15, 0)">
    <path style="fill:#CFB8E5;" d="M386.468,197.637h-43.687c-21.843,2.01-31.965,26.653-31.965,26.653 c17.134,15.23,53.808,14.913,53.808,14.913s36.674,0.317,53.808-14.913C418.433,224.291,408.311,199.647,386.468,197.637z"/>
    <g>
      <path style="fill:#B694DD;" d="M382.512,203.282c-11.678,1.226-8.387,11.484,4.065,10.258 C399.028,212.315,393.557,202.123,382.512,203.282z"/>
      <path style="fill:#B694DD;" d="M388.383,216.895c-5.526,0.486-4.194,6.194,1.677,5.548 C395.931,221.799,396.447,216.186,388.383,216.895z"/>
      <path style="fill:#B694DD;" d="M398.383,216.186c-4.476-0.442-4.71-3.419,0-2.839 C403.093,213.928,403.609,216.702,398.383,216.186z"/>
    </g>
    <path style="opacity:0.5;fill:#CFB8E5;" d="M325.189,205.12c17.213,9.133,39.471,9.499,39.471,9.499s22.215-0.365,39.406-9.494 c-4.673-3.799-10.515-6.836-17.598-7.487h-43.687C335.701,198.289,329.86,201.323,325.189,205.12z"/>
    <g>
      <g>
        <path style="fill:#42295C;" d="M419.156,224.091c-2.914-6.996-7.769-13.623-13.465-18.581 c-7.1-6.182-15.102-8.623-24.286-8.623c-10.216,0-20.432,0-30.648,0c-8.814,0-16.422,0.705-23.981,6.076 c-7.231,5.138-13.266,12.923-16.683,21.128c-0.371,0.89,1.08,1.279,1.446,0.399c2.705-6.496,7.612-13.161,13.079-17.92 c7.342-6.391,15.314-8.183,24.62-8.183c9.208,0,18.417,0,27.626,0c8.529,0,15.839,0.011,23.431,4.913 c7.564,4.883,14.045,13.1,17.414,21.189C418.075,225.368,419.527,224.983,419.156,224.091L419.156,224.091z"/>
      </g>
    </g>
  </g>
  <g transform="matrix(1, 0, 0, 1, 3.552713678800501e-15, 0)">
    <g>
      <g>
        <g>
          <path style="fill:#42295C;" d="M343.913,96.266c0.676,1.285,1.546,2.431,2.587,3.446c0.912,0.889,2.046,2.026,3.288,2.409 c0.397,0.122,0.67-0.396,0.395-0.679c-0.926-0.953-2.235-1.561-3.246-2.442c-1.02-0.888-1.972-1.848-2.902-2.829 C343.973,96.105,343.872,96.189,343.913,96.266L343.913,96.266z"/>
        </g>
        <g>
          <path style="fill:#42295C;" d="M344.128,89.622c1.634,4.237,4.955,9.013,9.002,11.262c0.47,0.261,0.964-0.358,0.577-0.748 c-1.597-1.615-3.429-2.954-4.976-4.644c-1.679-1.834-3.119-3.855-4.519-5.905C344.186,89.545,344.108,89.569,344.128,89.622 L344.128,89.622z"/>
        </g>
        <g>
          <path style="fill:#42295C;" d="M350.941,93.637c0.645,1.513,1.767,2.816,2.896,3.992c0.982,1.023,2.257,2.4,3.638,2.85 c0.394,0.129,0.598-0.369,0.372-0.64c-0.957-1.15-2.459-1.933-3.563-2.971c-1.126-1.058-2.07-2.285-3.172-3.364 C351.018,93.411,350.895,93.528,350.941,93.637L350.941,93.637z"/>
        </g>
        <g>
          <path style="fill:#42295C;" d="M355.818,91.336c0.289,2.812,1.306,6.765,3.772,8.483c0.276,0.192,0.53-0.169,0.417-0.417 c-0.588-1.288-1.611-2.363-2.245-3.652c-0.701-1.424-1.207-2.919-1.53-4.47C356.184,91.051,355.793,91.098,355.818,91.336 L355.818,91.336z"/>
        </g>
        <g>
          <path style="fill:#42295C;" d="M360.547,92.256c-0.585,2.229-0.755,5.929,0.772,7.828c0.231,0.288,0.59-0.039,0.549-0.319 c-0.215-1.45-0.714-2.788-0.817-4.283c-0.075-1.092-0.09-2.163-0.368-3.226C360.665,92.189,360.565,92.189,360.547,92.256 L360.547,92.256z"/>
        </g>
        <g>
          <path style="fill:#42295C;" d="M364.457,90.414c-0.211,1.648-0.47,3.283-0.865,4.898c-0.344,1.404-1.025,2.79-1.227,4.208 c-0.06,0.419,0.427,0.649,0.685,0.289c1.744-2.425,1.977-6.511,1.766-9.395C364.799,90.178,364.486,90.188,364.457,90.414 L364.457,90.414z"/>
        </g>
        <g>
          <path style="fill:#42295C;" d="M368.249,87.449c-0.428,1.997-0.894,3.98-1.54,5.919c-0.648,1.946-1.719,3.698-2.379,5.625 c-0.114,0.334,0.367,0.618,0.601,0.35c2.635-3.033,3.707-7.923,3.702-11.842C368.633,87.286,368.296,87.229,368.249,87.449 L368.249,87.449z"/>
        </g>
        <g>
          <path style="fill:#42295C;" d="M372.666,91.641c-0.843,1.472-1.743,2.866-2.852,4.155c-1.026,1.192-2.279,2.11-3.365,3.232 c-0.256,0.264,0.065,0.642,0.379,0.491c2.894-1.393,5.139-4.791,6.139-7.752C373.026,91.59,372.757,91.482,372.666,91.641 L372.666,91.641z"/>
        </g>
        <g>
          <path style="fill:#42295C;" d="M380.216,93.117c-3.097,2.537-6.494,4.328-9.894,6.385c-0.38,0.23-0.135,0.9,0.313,0.743 c3.757-1.319,7.113-4.025,9.879-6.83C380.709,93.218,380.423,92.948,380.216,93.117L380.216,93.117z"/>
        </g>
        <g>
          <path style="fill:#42295C;" d="M374.083,94.158c-1.449,2.059-3.274,3.566-5.323,4.994c-0.318,0.222-0.042,0.715,0.308,0.526 c2.236-1.208,4.02-3.186,5.366-5.316C374.576,94.139,374.232,93.947,374.083,94.158L374.083,94.158z"/>
        </g>
      </g>
      <g>
        <path style="fill:#CFB8E5;" d="M416.881,153.78c-2.525-14.973-3.782-32.691-18.309-43.804c-3.201-2.449-6.534-4.5-9.984-6.164 c2.428-1.832,2.793-4.193,2.793-4.193c-2.214,1.051-5.825,1.544-5.825,1.544c3.262-3.58,3.961-6.903,3.961-6.903 c-2.214,2.566-8.388,4.829-8.388,4.829c0.914-1.513,0.993-3.603,0.993-3.603c-2.289,1.984-5.337,3.259-7.12,3.891 c-3.38-0.625-6.84-0.945-10.377-0.944c-6.434-0.003-12.621,1.034-18.509,3.115c-2.209-0.821-4.124-2.819-4.124-2.819 c-0.506,1.77,0,3.351,0,3.351c-4.742-1.833-6.385-6.891-6.385-6.891c-0.443,5.248,2.023,9.23,2.023,9.23 c-2.155,0.177-4.046-0.717-4.046-0.717c0.662,1.434,1.509,2.277,2.216,2.771c-1.741,1.064-3.451,2.224-5.121,3.502 c-14.527,11.114-15.784,28.832-18.309,43.804c-8.835,12.263-7.441,22.088-3.702,29.565 c12.281,24.562,55.993,25.274,55.993,25.274s43.643-0.712,55.924-25.274C424.322,175.868,425.716,166.043,416.881,153.78z"/>
        <path style="opacity:0.5;fill:#CFB8E5;" d="M420.583,178.485c-12.281,24.562-55.924,25.274-55.924,25.274 s-43.712-0.712-55.993-25.274c-1.372-2.744-2.425-5.805-2.776-9.186c-0.553,5.364,0.774,10.042,2.776,14.046 c12.281,24.562,55.993,25.274,55.993,25.274s43.643-0.712,55.924-25.274c2.002-4.004,3.329-8.682,2.776-14.046 C423.008,172.68,421.955,175.741,420.583,178.485z"/>
        <g style="opacity:0.5;">
          <g>
            <path style="fill:#FFFFFF;" d="M310.885,163.821c3.326-6.079,6.277-10.368,7.219-17.408 c0.932-6.967,1.257-13.301,4.596-19.659c0.152-0.289-0.253-0.653-0.479-0.369c-3.477,4.383-4.048,10.036-4.618,15.431 c-0.41,3.883-0.701,7.821-1.918,11.557c-1.194,3.664-3.459,6.84-4.865,10.42 C310.807,163.831,310.867,163.856,310.885,163.821L310.885,163.821z"/>
          </g>
        </g>
        <g>
          <path style="fill:#B694DD;" d="M356.09,102.735c-4.192-0.437-6.196,1.937-1.328,2.38 C359.63,105.557,359.947,103.137,356.09,102.735z"/>
          <path style="fill:#B694DD;" d="M358.72,106.322c-3.393,0.77-2.972,3.609,0.316,2.787 C362.323,108.287,361.249,105.748,358.72,106.322z"/>
          <path style="fill:#B694DD;" d="M365.447,105.774c-5.114-0.953-5.374-5.351,1.201-4.098S378.344,108.177,365.447,105.774z"/>
          <path style="fill:#B694DD;" d="M361.496,110.843c-4.184-0.623-6.069,2.529-0.253,3.793 C367.059,115.901,369.145,111.981,361.496,110.843z"/>
          <path style="fill:#B694DD;" d="M371.26,111.814c-3.604,0.253-4.236,3.312,0.443,2.889 C376.381,114.28,374.863,111.561,371.26,111.814z"/>
          <path style="fill:#B694DD;" d="M367.087,110.357c-4.178-0.752-3.288-4.008,1.012-2.807 C372.397,108.751,372.144,111.267,367.087,110.357z"/>
        </g>
        <g>
          <path style="fill:#B694DD;" d="M326.287,191.557c-4.501-2.282-2.132-5.182,1.713-3.028 C331.844,190.683,330.079,193.479,326.287,191.557z"/>
          <path style="fill:#B694DD;" d="M316.903,186.052c-6.379-4.281-5.592-9.786,1.398-5.155 C325.291,185.528,321.576,189.189,316.903,186.052z"/>
          <path style="fill:#B694DD;" d="M326.287,185.441c-3.724-1.512-2.398-3.772,0.706-2.192 C330.097,184.829,329.73,186.839,326.287,185.441z"/>
        </g>
      </g>
      <g>
        <g>
          <g>
            <path style="fill:#FFFFFF;" d="M335.572,143.715c-11.696-0.296-13.917,13.769-9.919,20.135 c1.999,3.183,4.498,5.395,9.919,5.395c5.247,0,7.921-2.212,9.919-5.395C349.488,157.484,347.268,143.419,335.572,143.715z"/>
            <g>
              <g>
                <path style="fill:#42295C;" d="M347.509,152.285c-2.411-8.08-11.94-12.562-19.274-7.157 c-5.666,4.176-6.611,13.248-3.231,19.1c0.483,0.836,1.779,0.081,1.295-0.757c-2.718-4.705-2.338-11.769,1.416-15.853 c5.959-6.482,16.039-2.668,18.347,5.065C346.338,153.607,347.786,153.214,347.509,152.285L347.509,152.285z"/>
              </g>
            </g>
            <ellipse style="fill:#42295C;" cx="338.616" cy="156.897" rx="7.399" ry="9.146"/>
          </g>
          <g>
            <path style="fill:#FFFFFF;" d="M393.678,143.715c11.696-0.296,13.917,13.769,9.919,20.135 c-1.999,3.183-4.498,5.395-9.919,5.395c-5.247,0-7.921-2.212-9.92-5.395C379.761,157.484,381.982,143.419,393.678,143.715z"/>
            <g>
              <g>
                <path style="fill:#42295C;" d="M383.187,152.684c2.312-7.75,12.393-11.539,18.347-5.065 c3.753,4.081,4.133,11.15,1.417,15.853c-0.484,0.837,0.812,1.594,1.295,0.757c3.38-5.852,2.434-14.925-3.231-19.1 c-7.329-5.402-16.864-0.921-19.274,7.157C381.464,153.212,382.911,153.608,383.187,152.684L383.187,152.684z"/>
              </g>
            </g>
            <ellipse style="fill:#42295C;" cx="390.634" cy="156.897" rx="7.399" ry="9.146"/>
          </g>
          <g>
            <path style="fill:#FFB6C3;" d="M324.013,177.631c-11.275-2.585-7.669-10.295,0-8.461 C334.63,171.708,333.239,179.746,324.013,177.631z"/>
            <path style="fill:#FFB6C3;" d="M405.236,177.631c11.275-2.585,7.669-10.295,0-8.461 C394.62,171.708,396.01,179.746,405.236,177.631z"/>
          </g>
          <path style="fill:#42295C;" d="M330.429,140.304c1.98-0.848,4.688-1.446,7.824-0.319c2.244,0.806,3.487-0.991,1.843-2.277 c-1.893-1.482-6.642-2.342-9.962-0.712c-3.32,1.63-3.092,2.743-2.827,3.376C327.573,141.005,328.568,141.101,330.429,140.304z "/>
          <path style="fill:#42295C;" d="M398.821,140.304c-1.98-0.848-4.688-1.446-7.824-0.319c-2.244,0.806-3.487-0.991-1.843-2.277 c1.893-1.482,6.642-2.342,9.962-0.712c3.32,1.63,3.092,2.743,2.827,3.376C401.677,141.005,400.682,141.101,398.821,140.304z"/>
        </g>
        <g>
          <g>
            <g>
              <g>
                <path style="fill:#42295C;" d="M350.193,167.446c2.739-4.599,5.258-1.682,8.416-1.358c1.082,0.111,2.117-0.35,3.238-0.534 c2.716-0.445,5.29,0.768,7.797,0.552c3.56-0.308,6.283-2.845,9.482,1.34c0.578,0.757,1.882,0.01,1.295-0.757 c-1.561-2.042-3.361-3.667-6.029-3.562c-1.835,0.073-3.364,1.319-5.091,1.507c-1.853,0.201-4.262-0.927-6.375-0.757 c-1.25,0.1-2.734,0.835-3.911,0.779c-1.546-0.074-3.119-1.342-4.749-1.466c-2.592-0.198-4.096,1.363-5.368,3.5 C348.403,167.52,349.699,168.276,350.193,167.446L350.193,167.446z"/>
              </g>
            </g>
            <g>
              <path style="fill:#42295C;" d="M357.18,168.099c0,0-5.777,1.032-5.365,4.024 C352.228,175.115,356.212,171.091,357.18,168.099z"/>
              <path style="fill:#42295C;" d="M372.314,168.099c0,0,5.777,1.032,5.365,4.024 C377.266,175.115,373.282,171.091,372.314,168.099z"/>
            </g>
          </g>
          <g>
            <g>
              <path style="fill:#FFFFFF;" d="M343.474,192.288c0,0-0.771,4.201-0.072,5.074c0.699,0.874,6.302,1.801,7.35,0.927 c1.049-0.874,1.264-6.963,1.264-6.963S347.284,192.897,343.474,192.288z"/>
              <path style="fill:#FFFFFF;" d="M385.845,192.288c0,0,0.771,4.201,0.072,5.074c-0.699,0.874-6.302,1.801-7.35,0.927 c-1.049-0.874-1.264-6.963-1.264-6.963S382.036,192.897,385.845,192.288z"/>
            </g>
            <g>
              <g>
                <path style="fill:#42295C;" d="M336.365,170.799c-4.289,5.429-6.869,14.289-0.824,19.451 c2.579,2.203,6.088,2.8,9.381,2.787c2.429-0.009,4.878-0.383,7.251-0.874c4.068-0.842,8.396-3.232,12.487-3.232 c4.091,0,8.42,2.39,12.487,3.232c2.378,0.492,4.818,0.865,7.251,0.874c3.196,0.012,6.566-0.544,9.128-2.59 c6.342-5.066,3.782-14.138-0.571-19.648c-0.598-0.757-1.653,0.311-1.061,1.061c4.467,5.656,6.311,15.612-1.769,18.808 c-3.501,1.385-7.662,0.933-11.266,0.306c-2.42-0.421-4.809-1.068-7.156-1.784c-2.013-0.614-4.946-2.413-7.043-2.413 c-2.098,0-4.981,1.782-7.043,2.413c-2.349,0.719-4.736,1.357-7.157,1.784c-3.514,0.62-7.465,1.02-10.912-0.187 c-8.412-2.947-6.681-13.158-2.123-18.927C338.018,171.11,336.963,170.041,336.365,170.799L336.365,170.799z"/>
              </g>
            </g>
          </g>
          <g>
            <g>
              <g>
                <path style="fill:#42295C;" d="M354.692,157.62c6.421-1.729,13.515-1.407,19.936,0c0.941,0.206,1.343-1.24,0.399-1.446 c-6.711-1.47-14.033-1.804-20.733,0C353.362,156.424,353.757,157.872,354.692,157.62L354.692,157.62z"/>
              </g>
            </g>
            <g>
              <g>
                <path style="fill:#42295C;" d="M359.51,153.451c3.432-0.396,6.859-0.426,10.299-0.103c0.961,0.09,0.954-1.41,0-1.5 c-3.44-0.323-6.867-0.293-10.299,0.103C358.562,152.06,358.551,153.561,359.51,153.451L359.51,153.451z"/>
              </g>
            </g>
            <g>
              <g>
                <path style="fill:#42295C;" d="M361.745,149.888c1.942-0.146,3.883-0.179,5.829-0.1c0.965,0.039,0.964-1.461,0-1.5 c-1.946-0.079-3.887-0.046-5.829,0.1C360.789,148.46,360.781,149.961,361.745,149.888L361.745,149.888z"/>
              </g>
            </g>
          </g>
        </g>
      </g>
      <g>
        <g>
          <path style="fill:#42295C;" d="M417.604,153.581c-1.858-11.215-3.038-23.029-8.844-33.058 c-2.823-4.876-6.631-8.926-11.19-12.219c-1.422-1.027-7.123-3.303-7.402-4.907c-0.045-0.26,1.81-2.972,1.936-3.577 c0.104-0.499-0.349-1.151-0.923-0.923c-1.885,0.753-3.817,1.245-5.825,1.544c0.243,0.418,0.486,0.836,0.73,1.254 c1.784-2.134,3.485-4.482,4.154-7.234c0.175-0.719-0.712-1.269-1.254-0.73c-2.194,2.183-5.184,3.557-8.057,4.636 c0.282,0.367,0.565,0.735,0.847,1.102c0.59-1.31,0.986-2.537,1.096-3.981c0.055-0.725-0.824-0.886-1.28-0.53 c-3.428,2.669-5.734,3.45-9.996,3.149c-3.807-0.27-7.49-0.541-11.317-0.255c-2.914,0.217-5.805,0.649-8.651,1.313 c-3.819,0.891-5.984,2.122-9.106-0.964c-0.36-0.355-1.174-0.252-1.253,0.331c-0.178,1.309-0.306,2.457,0,3.75 c0.367-0.282,0.734-0.565,1.102-0.847c-2.788-1.314-5.006-3.496-6.041-6.443c-0.275-0.784-1.449-0.675-1.473,0.199 c-0.092,3.329,0.422,6.691,2.125,9.609c0.216-0.376,0.432-0.752,0.648-1.129c-1.503-0.036-2.568-0.158-3.847-0.69 c-0.636-0.264-1.142,0.585-0.847,1.102c0.037,0.064,1.593,2.296,1.592,2.304c-0.095,0.493-2.512,1.677-2.968,2.007 c-2.311,1.672-4.474,3.526-6.381,5.652c-3.387,3.774-5.908,8.207-7.734,12.925c-2.078,5.371-3.249,11.038-4.206,16.7 c-0.473,2.794-0.576,5.915-1.379,8.622c-1.01,3.403-3.584,6.333-4.893,9.667c-7.18,18.289,7.17,33.599,23.032,40.258 c22.022,9.245,47.154,9.265,69.184,0.038c8.483-3.553,16.63-8.955,21.282-17.106c6.116-10.717,3.84-21.934-2.935-31.746 c-0.545-0.789-1.846-0.04-1.295,0.757c6.831,9.891,8.855,21.136,2.106,31.606c-4.399,6.825-11.424,11.483-18.747,14.693 c-10.521,4.612-22.76,7.197-34.27,7.391c-21.354,0.36-58.194-9.137-58.804-35.595c-0.072-3.129,0.534-6.24,1.608-9.173 c1.218-3.325,3.659-5.924,4.966-9.101c1.892-4.597,1.683-11.086,2.736-15.992c2.835-13.208,8.721-23.563,20.35-30.866 c0.377-0.237,0.538-0.856,0.152-1.178c-0.932-0.663-1.632-1.536-2.099-2.62c-0.282,0.367-0.565,0.734-0.847,1.102 c1.43,0.595,2.724,0.707,4.246,0.744c0.573,0.014,0.929-0.646,0.648-1.129c-1.569-2.687-2.006-5.783-1.921-8.852 c-0.491,0.067-0.982,0.133-1.473,0.199c1.162,3.308,3.583,5.856,6.73,7.339c0.587,0.277,1.26-0.178,1.102-0.847 c0-0.984,0-1.968,0-2.952c-0.418,0.11-0.836,0.221-1.253,0.331c1.161,1.148,3.097,2.919,4.754,3.026 c1.615,0.104,4.18-1.296,5.811-1.676c2.993-0.699,6.045-1.136,9.114-1.324c2.325-0.142,4.671-0.142,6.996,0.004 c2.127,0.133,4.806,1.133,6.866,0.839c2.708-0.387,5.557-2.48,7.651-4.111c-0.427-0.177-0.854-0.354-1.28-0.53 c-0.065,1.129-0.362,2.203-0.891,3.224c-0.237,0.527,0.168,1.357,0.847,1.102c3.133-1.176,6.324-2.639,8.719-5.022 c-0.418-0.243-0.836-0.486-1.253-0.73c-0.603,2.48-2.165,4.654-3.768,6.572c-0.503,0.601-0.017,1.365,0.73,1.253 c2.01-0.3,3.936-0.79,5.825-1.544c-0.307-0.308-0.615-0.615-0.923-0.923c-0.339,1.623-1.419,2.797-2.6,3.862 c-0.344,0.31-0.268,0.968,0.152,1.178c10.34,5.177,18.293,12.6,22.39,23.556c3.115,8.329,4.114,17.245,5.558,25.964 C416.315,154.93,417.761,154.526,417.604,153.581z"/>
        </g>
      </g>
    </g>
    <g>
      <g>
        <path style="fill:#CFB8E5;" d="M331.749,110.161c0,0-5.637,2.621-11.855-3.146c-6.219-5.767-15.103-6.509-17.373,2.8 c-1.612,6.608,4.755,14.183,9.052,15.289c3.906,1.005,7.306,0.022,11.738-2.557L331.749,110.161z"/>
        <g>
          <path style="fill:#B694DD;" d="M318.902,106.16c-2.624-2.121-5.605-3.372-8.328-3.419c-0.269,1.433,0.896,3.46,3.631,4.495 C317.104,108.333,318.677,107.521,318.902,106.16z"/>
          <path style="fill:#B694DD;" d="M319.846,109.17c-1.853-0.806-3.264,1.542,0,1.934 C321.861,111.346,321.699,109.976,319.846,109.17z"/>
        </g>
        <g>
          <g>
            <path style="fill:#42295C;" d="M330.688,109.293c-6.189,3.245-11.565-5.301-17.183-6.847c-4.4-1.211-8.696,0.29-10.761,4.494 c-2.487,5.06-0.709,10.651,2.792,14.738c4.372,5.103,9.928,5.345,15.832,2.762c0.882-0.386,0.12-1.679-0.757-1.295 c-7.855,3.436-15.99-0.636-17.364-9.415c-1.214-7.754,5.507-12.315,12.292-8.884c4.919,2.487,9.601,9.049,15.907,5.743 C332.3,110.14,331.543,108.845,330.688,109.293L330.688,109.293z"/>
          </g>
        </g>
        <path style="fill:#FFB6C3;" d="M325.729,116.1c0,0-4.19,0.081-8.139-3.546c-3.949-3.626-7.172-6.769-10.234-3.626 s0.806,16.923,14.344,12.974L325.729,116.1z"/>
        <path style="opacity:0.5;fill:#CFB8E5;" d="M319.197,124.552c-11.089-4.403-12.742-15.515-12.889-20.675 c-1.72,1.099-3.077,3.027-3.788,5.938c-1.612,6.608,4.755,14.183,9.052,15.289 C314.185,125.776,316.577,125.541,319.197,124.552z"/>
        <g>
          <g>
            <path style="fill:#42295C;" d="M325.729,115.35c-3.136-0.019-5.861-1.849-8.138-3.812c-1.946-1.678-4.1-4.192-6.803-4.574 c-3.33-0.471-5.23,2.409-5.165,5.378c0.19,8.723,8.81,12.255,16.277,10.284c0.932-0.246,0.537-1.694-0.399-1.446 c-6.511,1.719-14.791-1.355-14.378-9.316c0.132-2.541,1.541-4.192,5.102-2.762c2.281,0.917,4.051,3.479,5.978,4.932 c2.109,1.59,4.841,2.8,7.528,2.817C326.694,116.856,326.695,115.356,325.729,115.35L325.729,115.35z"/>
          </g>
        </g>
        <g>
          <g>
            <g>
              <path style="fill:#42295C;" d="M312.533,113.271c3.279,2.695,7.238,4.595,11.503,4.987c0.512,0.047,0.636-0.821,0.122-0.905 c-4.155-0.683-7.893-1.965-11.322-4.474C312.609,112.712,312.314,113.09,312.533,113.271L312.533,113.271z"/>
            </g>
          </g>
          <g>
            <g>
              <path style="fill:#42295C;" d="M317.01,118.281c1.893,0.99,4.009,1.522,6.141,1.619c0.601,0.027,0.605-0.927,0-0.938 c-2.08-0.037-4.018-0.391-5.997-1.024C316.953,117.874,316.821,118.182,317.01,118.281L317.01,118.281z"/>
            </g>
          </g>
        </g>
      </g>
      <g>
        <path style="fill:#CFB8E5;" d="M397.5,110.161c0,0,5.637,2.621,11.855-3.146c6.219-5.767,15.103-6.509,17.373,2.8 c1.612,6.608-4.755,14.183-9.052,15.289c-3.906,1.005-7.306,0.022-11.738-2.557L397.5,110.161z"/>
        <g>
          <path style="fill:#B694DD;" d="M410.348,106.16c2.624-2.121,5.605-3.372,8.328-3.419c0.269,1.433-0.896,3.46-3.631,4.495 C412.145,108.333,410.572,107.521,410.348,106.16z"/>
          <path style="fill:#B694DD;" d="M409.403,109.17c1.853-0.806,3.264,1.542,0,1.934 C407.389,111.346,407.55,109.976,409.403,109.17z"/>
        </g>
        <g>
          <g>
            <path style="fill:#42295C;" d="M397.805,110.588c6.311,3.309,10.99-3.254,15.907-5.743c6.135-3.106,12.833,0.25,12.511,7.646 c-0.156,3.577-2.352,7.153-4.924,9.526c-3.722,3.435-8.19,3.082-12.659,1.126c-0.876-0.383-1.64,0.909-0.757,1.295 c5.645,2.469,11.012,2.429,15.386-2.277c3.798-4.087,5.825-9.96,3.238-15.222c-1.954-3.976-5.983-5.63-10.239-4.642 c-5.85,1.359-11.423,10.289-17.706,6.994C397.707,108.845,396.948,110.139,397.805,110.588L397.805,110.588z"/>
          </g>
        </g>
        <path style="fill:#FFB6C3;" d="M403.521,116.1c0,0,4.19,0.081,8.139-3.546c3.949-3.626,7.172-6.769,10.234-3.626 c3.062,3.143-0.806,16.923-14.344,12.974L403.521,116.1z"/>
        <path style="opacity:0.5;fill:#CFB8E5;" d="M410.052,124.552c11.089-4.403,12.742-15.515,12.89-20.675 c1.72,1.099,3.077,3.027,3.787,5.938c1.612,6.608-4.754,14.183-9.052,15.289C415.064,125.776,412.672,125.541,410.052,124.552z "/>
        <g>
          <g>
            <path style="fill:#42295C;" d="M403.521,116.85c2.497-0.015,5.018-1.069,7.036-2.471c1.872-1.301,4.271-4.785,6.47-5.277 c1.405-0.314,4.177-0.167,4.853,1.259c0.212,0.449,0.224,1.018,0.249,1.502c0.411,7.966-7.867,11.035-14.378,9.316 c-0.934-0.247-1.333,1.2-0.399,1.446c7.446,1.966,16.113-1.558,16.277-10.284c0.052-2.792-1.563-5.592-4.725-5.414 c-2.677,0.15-4.818,2.477-6.713,4.124c-2.465,2.142-5.228,4.278-8.668,4.299C402.556,115.356,402.554,116.856,403.521,116.85 L403.521,116.85z"/>
          </g>
        </g>
        <g>
          <g>
            <g>
              <path style="fill:#42295C;" d="M416.413,112.878c-3.429,2.509-7.167,3.792-11.322,4.474 c-0.508,0.083-0.395,0.953,0.123,0.905c4.263-0.392,8.225-2.292,11.503-4.987 C416.933,113.092,416.643,112.71,416.413,112.878L416.413,112.878z"/>
            </g>
          </g>
          <g>
            <g>
              <path style="fill:#42295C;" d="M412.095,117.938c-1.979,0.633-3.917,0.987-5.997,1.024c-0.604,0.011-0.602,0.965,0,0.938 c2.132-0.097,4.248-0.628,6.141-1.619C412.427,118.183,412.298,117.873,412.095,117.938L412.095,117.938z"/>
            </g>
          </g>
        </g>
      </g>
    </g>
  </g>
</svg>