<?xml version="1.0" encoding="utf-8"?>
<svg viewBox="269.9832 56.6432 166.4306 174.8533" width="166.4306" height="174.8533" xmlns="http://www.w3.org/2000/svg">
  <g transform="matrix(1, 0, 0, 1, -3.552713678800501e-15, 0)">
    <path style="fill:#CAEB9B;" d="M429.331,135.495c-10.472-17.413-56.062-8.448-47.322-55.654 c4.276-23.098-34.711-29.707-62.852-16.385c-29.628,14.027-53.031,44.075-48.643,93.341c3.037,34.099,25.595,68.511,86.187,67.981 C439.224,224.057,445.392,162.201,429.331,135.495z"/>
    <path style="fill:#CAEB9B;" d="M418.289,91.541c19.801,7.867,25.689,44.702-12.577,25.868 C388.317,108.847,393.894,81.849,418.289,91.541z"/>
    <path style="fill:#CAEB9B;" d="M400.722,67.704c8.14,4.097,5.355,34.767-13.442,24.905 C381.212,89.426,393.43,64.034,400.722,67.704z"/>
  </g>
  <g transform="matrix(1, 0, 0, 1, -3.552713678800501e-15, 0)">
    <g>
      <path style="fill:#4A3E4C;" d="M375.06,189.93h-43.687c-21.843,2.01-31.965,26.653-31.965,26.653 c17.134,15.23,53.808,14.913,53.808,14.913s36.674,0.317,53.808-14.913C407.024,216.583,396.903,191.939,375.06,189.93z"/>
      <path style="opacity:0.3;fill:#4A3E4C;" d="M361.911,203.404c3.403-0.365,7.756-3.37,7.773-3.382c0,0,0.001,0,0.001,0 c-0.991,1.244,0.628,2.164,4.159,1.069c3.531-1.096,8.39-4.293,8.39-4.293s0.377,2.101,4.108,0.883 c1.492-0.487,2.805-1.304,3.85-2.111c-4.216-2.905-9.245-5.098-15.133-5.64l-21.843,1.269l-21.844-1.269 c-5.905,0.543-10.947,2.748-15.17,5.665c1.04,0.798,2.341,1.603,3.817,2.085c3.731,1.218,4.108-0.883,4.108-0.883 s4.859,3.197,8.39,4.293c3.53,1.095,5.15,0.175,4.159-1.069c0,0,0.001,0,0.001,0c0.017,0.012,4.371,3.017,7.773,3.382 c3.41,0.365,2.565-1.902,2.565-1.902s2.11,2.267,6.165,2.51c4.056-0.243,6.165-2.51,6.165-2.51S358.502,203.769,361.911,203.404z "/>
      <path style="fill:#FFD3AE;" d="M382.535,215.156c0,0,3.942,1.223,4.108-0.175c0.166-1.398-11.193-9.262-11.193-9.262 s4.76-0.35,4.04-1.398c-0.72-1.049-9.219-3.146-10.824-7.428c-0.798-2.129-1.199-4.582-1.401-6.511h-28.099 c-0.202,1.929-0.602,4.381-1.401,6.511c-1.605,4.281-10.104,6.379-10.824,7.428c-0.72,1.048,4.04,1.398,4.04,1.398 s-11.359,7.864-11.193,9.262c0.166,1.398,4.108,0.175,4.108,0.175c-3.161,3.881-4.792,7.926-5.626,11.258 c16.748,5.231,34.945,5.082,34.945,5.082s18.198,0.15,34.945-5.082C387.327,223.083,385.696,219.037,382.535,215.156z"/>
      <path style="opacity:0.3;fill:#FFD3AE;" d="M361.911,203.404c3.403-0.365,7.756-3.37,7.773-3.382c0,0,0.001,0,0.001,0 c-0.939,1.178,0.468,2.063,3.621,1.222c-2.04-1.116-3.96-2.535-4.64-4.35c-0.798-2.129-1.199-4.582-1.401-6.511l-14.05,0.816 l-14.05-0.816c-0.202,1.929-0.602,4.382-1.401,6.511c-0.683,1.821-2.615,3.244-4.664,4.363c3.121,0.821,4.509-0.062,3.575-1.235 c0,0,0.001,0,0.001,0c0.017,0.012,4.371,3.017,7.773,3.382c3.41,0.365,2.565-1.902,2.565-1.902s2.11,2.267,6.165,2.51 c4.056-0.243,6.165-2.51,6.165-2.51S358.502,203.769,361.911,203.404z"/>
      <g>
        <g>
          <g>
            <g>
              <path style="fill:#2B1F2D;" d="M320.53,209.872c-0.83,0.619-1.636,1.268-2.406,1.961c-0.757,0.681-1.604,1.384-2.116,2.276 c-0.118,0.207,0.137,0.518,0.353,0.353c0.778-0.595,1.381-1.402,2.07-2.096c0.751-0.757,1.543-1.47,2.365-2.15 C320.985,210.059,320.73,209.723,320.53,209.872L320.53,209.872z"/>
            </g>
          </g>
          <g>
            <g>
              <path style="fill:#2B1F2D;" d="M317.251,209.898c-1.074,0.708-2.059,1.491-2.949,2.422c-0.753,0.788-1.841,1.811-2.055,2.919 c-0.047,0.242,0.216,0.522,0.459,0.353c0.928-0.646,1.481-1.798,2.229-2.639c0.824-0.925,1.726-1.795,2.676-2.589 C317.869,210.148,317.532,209.713,317.251,209.898L317.251,209.898z"/>
            </g>
          </g>
          <g>
            <g>
              <path style="fill:#2B1F2D;" d="M317.741,206.871c-1.45,1.001-2.7,2.147-3.712,3.594c-0.18,0.257,0.216,0.551,0.43,0.331 c1.164-1.197,2.363-2.382,3.662-3.435C318.394,207.14,318.033,206.67,317.741,206.871L317.741,206.871z"/>
            </g>
          </g>
        </g>
        <g>
          <g>
            <g>
              <path style="fill:#2B1F2D;" d="M378.89,201.788c1.646,0.97,2.975,2.263,4.485,3.403c0.363,0.274,0.676-0.281,0.445-0.577 c-1.168-1.499-3.07-2.454-4.816-3.098C378.844,201.458,378.748,201.705,378.89,201.788L378.89,201.788z"/>
            </g>
          </g>
          <g>
            <g>
              <path style="fill:#2B1F2D;" d="M383.205,202.487c0.536,0.587,1.064,1.182,1.579,1.788c0.486,0.571,0.941,1.186,1.538,1.644 c0.37,0.283,0.906-0.272,0.641-0.641c-0.462-0.646-1.121-1.13-1.738-1.622c-0.603-0.482-1.214-0.952-1.832-1.414 C383.247,202.131,383.091,202.362,383.205,202.487L383.205,202.487z"/>
            </g>
          </g>
          <g>
            <g>
              <path style="fill:#2B1F2D;" d="M382.879,200.229c1.102,0.832,1.998,1.872,3.044,2.76c0.374,0.317,1.079-0.112,0.736-0.568 c-0.89-1.185-2.211-1.986-3.52-2.637C382.836,199.633,382.618,200.032,382.879,200.229L382.879,200.229z"/>
            </g>
          </g>
        </g>
        <g>
          <g>
            <g>
              <path style="fill:#2B1F2D;" d="M396.22,213.266c0.613,0.694,1.198,1.412,1.794,2.12c0.591,0.702,1.111,1.492,1.768,2.132 c0.345,0.336,0.931-0.095,0.675-0.521c-0.944-1.573-2.521-2.888-3.906-4.062C396.322,212.74,396.018,213.038,396.22,213.266 L396.22,213.266z"/>
            </g>
          </g>
          <g>
            <g>
              <path style="fill:#2B1F2D;" d="M399.86,213.919c0.612,0.772,1.151,1.584,1.71,2.394c0.462,0.669,0.838,1.477,1.455,2.014 c0.216,0.188,0.579,0.012,0.496-0.289c-0.226-0.817-0.865-1.506-1.391-2.157c-0.625-0.774-1.359-1.468-2.082-2.149 C399.921,213.611,399.756,213.788,399.86,213.919L399.86,213.919z"/>
            </g>
          </g>
          <g>
            <g>
              <path style="fill:#2B1F2D;" d="M399.465,211.393c1.178,1.276,2.159,2.672,3.045,4.162c0.254,0.427,0.879,0.052,0.661-0.386 c-0.81-1.626-2.023-2.994-3.469-4.082C399.518,210.948,399.321,211.237,399.465,211.393L399.465,211.393z"/>
            </g>
          </g>
        </g>
      </g>
      <g>
        <g>
          <g>
            <g>
              <path style="fill:#EDAF7C;" d="M378.221,213.897c0.628,0.971,1.18,1.99,1.675,3.035c0.493,1.038,0.735,2.216,1.309,3.205 c0.101,0.174,0.407,0.108,0.393-0.106c-0.146-2.236-1.887-4.559-3.304-6.19C378.259,213.8,378.192,213.852,378.221,213.897 L378.221,213.897z"/>
            </g>
          </g>
          <g>
            <g>
              <path style="fill:#EDAF7C;" d="M378.677,218.246c0.638,1.772,0.659,3.632,1.175,5.417c0.07,0.242,0.417,0.186,0.43-0.058 c0.094-1.83-0.796-3.74-1.469-5.396C378.78,218.127,378.646,218.16,378.677,218.246L378.677,218.246z"/>
            </g>
          </g>
          <g>
            <g>
              <path style="fill:#EDAF7C;" d="M376.127,215.198c0.551,1.708,1.052,3.433,1.553,5.156c0.12,0.415,0.775,0.236,0.648-0.179 c-0.536-1.749-1.232-3.408-2.058-5.038C376.23,215.059,376.099,215.113,376.127,215.198L376.127,215.198z"/>
            </g>
          </g>
        </g>
        <g>
          <g>
            <g>
              <path style="fill:#EDAF7C;" d="M346.326,218.954c-0.642,1.71-1.056,3.65-0.862,5.482c0.017,0.166,0.292,0.242,0.322,0.044 c0.274-1.826,0.464-3.626,0.902-5.426C346.746,218.815,346.41,218.731,346.326,218.954L346.326,218.954z"/>
            </g>
          </g>
          <g>
            <g>
              <path style="fill:#EDAF7C;" d="M347.069,221.977c-0.51,1.618-0.728,3.363-0.295,5.027c0.068,0.263,0.481,0.211,0.476-0.064 c-0.03-1.656-0.175-3.29-0.082-4.95C347.171,221.932,347.086,221.925,347.069,221.977L347.069,221.977z"/>
            </g>
          </g>
          <g>
            <g>
              <path style="fill:#EDAF7C;" d="M348.334,218.771c-0.102,1.577-0.239,3.195,0.025,4.761c0.038,0.223,0.35,0.145,0.368-0.05 c0.15-1.56-0.019-3.148-0.065-4.712C348.656,218.558,348.347,218.561,348.334,218.771L348.334,218.771z"/>
            </g>
          </g>
        </g>
        <g>
          <g>
            <g>
              <path style="fill:#EDAF7C;" d="M365.013,205.113c0.324,1.593,0.943,3.483,2.208,4.588c0.191,0.167,0.483-0.041,0.356-0.274 c-0.401-0.737-0.967-1.376-1.393-2.101c-0.422-0.72-0.817-1.455-1.142-2.224C365.034,205.084,365.01,205.097,365.013,205.113 L365.013,205.113z"/>
            </g>
          </g>
          <g>
            <g>
              <path style="fill:#EDAF7C;" d="M364.539,207.871c0.47,1.634,1.209,3.418,2.529,4.55c0.24,0.206,0.666-0.062,0.466-0.36 c-0.961-1.43-2.085-2.689-2.866-4.244C364.632,207.745,364.518,207.796,364.539,207.871L364.539,207.871z"/>
            </g>
          </g>
          <g>
            <g>
              <path style="fill:#EDAF7C;" d="M362.576,205.95c0.051,1.865,0.437,3.81,1.489,5.383c0.2,0.298,0.611,0.042,0.472-0.276 c-0.738-1.692-1.443-3.301-1.762-5.134C362.755,205.809,362.573,205.837,362.576,205.95L362.576,205.95z"/>
            </g>
          </g>
        </g>
        <g>
          <g>
            <g>
              <path style="fill:#EDAF7C;" d="M335.102,206.332c-1.804,1.088-3.634,2.321-5.069,3.879c-0.159,0.173,0.059,0.502,0.265,0.344 c1.678-1.287,3.246-2.711,4.954-3.966C335.402,206.478,335.27,206.231,335.102,206.332L335.102,206.332z"/>
            </g>
          </g>
          <g>
            <g>
              <path style="fill:#EDAF7C;" d="M333.853,208.778c-1.701,1.173-3.328,2.605-4.415,4.382c-0.136,0.222,0.194,0.491,0.368,0.284 c1.331-1.576,2.632-3.103,4.264-4.384C334.23,208.935,334.021,208.663,333.853,208.778L333.853,208.778z"/>
            </g>
          </g>
          <g>
            <g>
              <path style="fill:#EDAF7C;" d="M336.263,208.089c-1.318,1.032-2.551,2.167-3.526,3.534c-0.151,0.211,0.18,0.457,0.356,0.275 c1.142-1.188,2.258-2.394,3.513-3.466C336.846,208.225,336.503,207.901,336.263,208.089L336.263,208.089z"/>
            </g>
          </g>
        </g>
      </g>
      <g>
        <g>
          <path style="fill:#2B1F2D;" d="M407.713,216.332c-2.914-6.996-7.769-13.623-13.465-18.581 c-7.101-6.182-15.102-8.622-24.287-8.622c-10.216,0-20.432,0-30.648,0c-8.814,0-16.422,0.705-23.981,6.076 c-7.231,5.138-13.266,12.923-16.683,21.128c-0.371,0.89,1.08,1.278,1.446,0.399c2.705-6.496,7.612-13.161,13.079-17.919 c7.342-6.391,15.314-8.183,24.62-8.183c9.209,0,18.417,0,27.626,0c8.529,0,15.839,0.011,23.431,4.913 c7.563,4.883,14.045,13.099,17.414,21.189C406.632,217.609,408.084,217.224,407.713,216.332L407.713,216.332z"/>
        </g>
      </g>
    </g>
    <g>
      <g>
        <g>
          <path style="fill:#4A3E4C;" d="M415.384,140.477c-6.849-24.796-21.307-38.305-28.273-43.209 c-5.912-4.162-13.105-6.983-20.755-8.478c-0.05-0.014-0.083-0.023-0.083-0.023c4.556-1.266,10.566,0.686,11.086-0.799 c0.27-0.771-2.747-3.934-5.939-4.899c-6.221-1.881-10.095,0.325-10.095,0.325c-2.375-5.837-7.868-6.189-7.126-4.185 c0.742,2.004,0,3.118,0,3.118s-2.375-2.895-7.868-3.489c-5.493-0.594-5.345,1.485-3.934,2.375 c1.41,0.891,3.192,2.078,4.231,2.895c0,0-3.489-1.262-8.017,0c-4.528,1.262-4.677,4.083-2.227,3.712 c2.449-0.371,5.751,0.589,5.751,0.589s-0.019,0.005-0.046,0.012c-8.411,1.37-16.365,4.316-22.802,8.847 c-6.966,4.904-21.424,18.413-28.273,43.209c-3.792,13.729-1.461,13.699,0.974,10.046c0,0-2.314,7.066-2.192,11.448 c0.122,4.382,2.443,4.747,3.413,3.408c0,0-1.1,4.018-0.491,7.549c0.609,3.531,1.843,3.41,3.235,2.192 c0,0,0.296,4.749,4.436,9.741c4.14,4.993,3.897,0.609,3.897,0.609s3.288,3.044,7.063,3.775c3.775,0.731,2.313-2.07,2.313-2.07 s2.644,3.288,6.375,4.505c3.731,1.218,4.108-0.883,4.108-0.883s4.859,3.197,8.39,4.293c3.53,1.095,5.15,0.175,4.159-1.069 c0,0,0.001,0,0.001,0c0.017,0.012,4.371,3.017,7.773,3.382c3.41,0.365,2.564-1.902,2.564-1.902s2.11,2.267,6.165,2.51 c4.056-0.243,6.165-2.51,6.165-2.51s-0.845,2.267,2.564,1.902c3.403-0.365,7.756-3.37,7.773-3.382c0,0,0.001,0,0.001,0 c-0.991,1.244,0.628,2.164,4.159,1.069c3.531-1.096,8.39-4.293,8.39-4.293s0.377,2.101,4.108,0.883 c3.731-1.218,6.375-4.505,6.375-4.505s-1.461,2.801,2.314,2.07c3.775-0.731,7.062-3.775,7.062-3.775s-0.243,4.384,3.897-0.609 c4.14-4.992,4.436-9.741,4.436-9.741c1.392,1.218,2.626,1.339,3.235-2.192c0.609-3.531-0.491-7.549-0.491-7.549 c0.97,1.34,3.291,0.974,3.413-3.408c0.122-4.382-2.192-11.448-2.192-11.448C416.845,154.176,419.176,154.206,415.384,140.477z"/>
          <g>
            <g>
              <g>
                <g>
                  <path style="fill:#2B1F2D;" d="M347.345,87.9c-1.899-1.317-4.46-2.398-6.822-2.089c-0.35,0.046-0.525,0.618-0.094,0.69 c2.4,0.405,4.433,0.698,6.568,1.992C347.381,88.726,347.704,88.149,347.345,87.9L347.345,87.9z"/>
                </g>
              </g>
              <g>
                <g>
                  <path style="fill:#2B1F2D;" d="M351.086,87.446c-0.576-2.591-2.07-5.513-4.705-6.489c-0.292-0.108-0.454,0.286-0.281,0.483 c1.739,1.988,3.561,3.58,4.489,6.143C350.701,87.893,351.158,87.773,351.086,87.446L351.086,87.446z"/>
                </g>
              </g>
              <g>
                <g>
                  <path style="fill:#2B1F2D;" d="M353.126,86.97c0.326-1.462-0.117-3.098-1.217-4.133c-0.24-0.226-0.646,0.064-0.466,0.36 c0.735,1.209,1.282,2.382,1.577,3.773C353.032,87.022,353.115,87.022,353.126,86.97L353.126,86.97z"/>
                </g>
              </g>
              <g>
                <g>
                  <path style="fill:#2B1F2D;" d="M356.128,87.259c1-0.344,1.339-1.972,1.457-2.877c0.188-1.434-0.01-3.111-0.889-4.295 c-0.222-0.299-0.73-0.137-0.628,0.265c0.295,1.17,0.703,2.229,0.706,3.459c0.001,0.755,0.04,2.943-0.684,3.357 C356.041,87.195,356.073,87.278,356.128,87.259L356.128,87.259z"/>
                </g>
              </g>
              <g>
                <g>
                  <path style="fill:#2B1F2D;" d="M358.308,87.149c1.004-0.54,1.818-1.64,1.582-2.826c-0.061-0.309-0.551-0.302-0.618,0 c-0.214,0.976-0.386,1.877-1.135,2.606C358.021,87.042,358.169,87.224,358.308,87.149L358.308,87.149z"/>
                </g>
              </g>
              <g>
                <g>
                  <path style="fill:#2B1F2D;" d="M360.839,87.704c2.706-2.451,5.944-3.06,9.463-2.483c0.463,0.076,0.645-0.546,0.195-0.708 c-3.538-1.277-7.565,0.12-10,2.848C360.289,87.594,360.607,87.914,360.839,87.704L360.839,87.704z"/>
                </g>
              </g>
              <g>
                <g>
                  <path style="fill:#2B1F2D;" d="M362.719,88.402c1.535-1.166,3.232-1.589,5.087-1.942c0.247-0.047,0.26-0.477,0-0.512 c-2.019-0.275-3.951,0.718-5.305,2.172C362.369,88.261,362.549,88.531,362.719,88.402L362.719,88.402z"/>
                </g>
              </g>
            </g>
            <g>
              <g>
                <g>
                  <path style="fill:#2B1F2D;" d="M294.748,152.773c-1.626,2.609-2.313,6.12-1.616,9.133c0.1,0.433,0.735,0.318,0.752-0.102 c0.122-3.095,0.444-5.862,1.279-8.857C295.232,152.697,294.883,152.557,294.748,152.773L294.748,152.773z"/>
                </g>
              </g>
              <g>
                <g>
                  <path style="fill:#2B1F2D;" d="M299.323,176.075c0.367,2.408,1.356,4.874,2.911,6.769c0.349,0.425,0.978-0.117,0.736-0.568 c-1.13-2.107-2.355-4.157-3.461-6.28C299.452,175.887,299.307,175.97,299.323,176.075L299.323,176.075z"/>
                </g>
              </g>
              <g>
                <g>
                  <path style="fill:#2B1F2D;" d="M298.311,167.254c-0.662,1.997-0.58,4.568,0.581,6.378c0.252,0.392,0.808,0.132,0.728-0.307 c-0.174-0.956-0.499-1.875-0.653-2.835c-0.168-1.049-0.22-2.124-0.272-3.184 C298.684,167.084,298.381,167.042,298.311,167.254L298.311,167.254z"/>
                </g>
              </g>
              <g>
                <g>
                  <path style="fill:#2B1F2D;" d="M300.861,171.551c-0.056,2.006,0.317,4.221,1.669,5.783c0.252,0.291,0.781-0.017,0.653-0.38 c-0.649-1.843-1.533-3.52-1.939-5.455C301.198,171.277,300.867,171.337,300.861,171.551L300.861,171.551z"/>
                </g>
              </g>
              <g>
                <g>
                  <path style="fill:#2B1F2D;" d="M295.541,164.895c-0.593,2.253-0.58,5.433,0.173,7.655c0.117,0.344,0.608,0.28,0.629-0.085 c0.073-1.245-0.14-2.505-0.2-3.749c-0.061-1.255-0.006-2.516-0.172-3.763C295.941,164.727,295.61,164.635,295.541,164.895 L295.541,164.895z"/>
                </g>
              </g>
              <g>
                <g>
                  <path style="fill:#2B1F2D;" d="M297.706,159.089c-0.53,2.219-0.672,4.913-0.018,7.119c0.091,0.308,0.51,0.227,0.537-0.073 c0.202-2.264,0.021-4.725-0.135-6.994C298.075,158.932,297.76,158.863,297.706,159.089L297.706,159.089z"/>
                </g>
              </g>
              <g>
                <g>
                  <path style="fill:#2B1F2D;" d="M296.488,156.482c-0.914,1.528-1.576,3.542-1.106,5.329c0.108,0.41,0.648,0.279,0.691-0.093 c0.199-1.749,0.183-3.399,0.716-5.109C296.844,156.428,296.582,156.324,296.488,156.482L296.488,156.482z"/>
                </g>
              </g>
              <g>
                <g>
                  <path style="fill:#2B1F2D;" d="M297.967,148.704c-0.898,1.551-1.543,3.524-1.58,5.326c-0.01,0.456,0.656,0.532,0.783,0.106 c0.502-1.689,0.833-3.555,1.126-5.293C298.327,148.651,298.075,148.516,297.967,148.704L297.967,148.704z"/>
                </g>
              </g>
              <g>
                <g>
                  <path style="fill:#2B1F2D;" d="M295.968,145.348c-1.013,1.457-1.636,3.792-1.105,5.53c0.087,0.285,0.504,0.294,0.588,0 c0.222-0.784,0.242-1.614,0.356-2.419c0.141-0.993,0.398-1.958,0.547-2.949 C296.389,145.277,296.111,145.143,295.968,145.348L295.968,145.348z"/>
                </g>
              </g>
              <g>
                <g>
                  <path style="fill:#2B1F2D;" d="M293.399,142.961c-1.123,1.311-1.956,3.482-1.508,5.206c0.073,0.279,0.504,0.287,0.573,0 c0.202-0.85,0.204-1.722,0.4-2.575c0.196-0.852,0.514-1.649,0.822-2.464C293.746,142.969,293.508,142.834,293.399,142.961 L293.399,142.961z"/>
                </g>
              </g>
              <g>
                <g>
                  <path style="fill:#2B1F2D;" d="M303.904,179.203c0.524,1.887,1.761,3.783,3.164,5.14c0.421,0.407,1.035-0.212,0.641-0.641 c-1.345-1.461-2.529-2.969-3.753-4.529C303.937,179.147,303.897,179.175,303.904,179.203L303.904,179.203z"/>
                </g>
              </g>
              <g>
                <g>
                  <path style="fill:#2B1F2D;" d="M308.664,182.247c0.836,1.59,1.891,2.96,3.209,4.181c0.456,0.422,1.143-0.292,0.674-0.674 c-1.322-1.077-2.513-2.34-3.505-3.728C308.88,181.799,308.531,181.993,308.664,182.247L308.664,182.247z"/>
                </g>
              </g>
              <g>
                <g>
                  <path style="fill:#2B1F2D;" d="M304.728,175.738c0.417,1.817,1.32,3.513,2.546,4.913c0.352,0.402,0.936-0.186,0.586-0.586 c-1.19-1.358-2.124-2.799-2.918-4.417C304.882,175.524,304.699,175.613,304.728,175.738L304.728,175.738z"/>
                </g>
              </g>
              <g>
                <g>
                  <path style="fill:#2B1F2D;" d="M312.674,181.746c1.457,2.001,3.101,4.076,5.217,5.416c0.419,0.265,0.937-0.375,0.54-0.699 c-1.93-1.576-3.904-2.971-5.523-4.896C312.8,181.439,312.575,181.609,312.674,181.746L312.674,181.746z"/>
                </g>
              </g>
              <g>
                <g>
                  <path style="fill:#2B1F2D;" d="M320.129,187.571c0.792,0.859,1.706,1.668,2.737,2.231c0.512,0.28,0.97-0.503,0.457-0.782 c-0.994-0.543-1.937-1.1-2.796-1.846C320.254,186.937,319.881,187.302,320.129,187.571L320.129,187.571z"/>
                </g>
              </g>
              <g>
                <g>
                  <path style="fill:#2B1F2D;" d="M320.011,185.052c1.135,1.197,2.449,2.248,3.934,2.977c0.486,0.238,0.914-0.489,0.426-0.729 c-1.449-0.711-2.787-1.534-3.985-2.624C320.134,184.447,319.774,184.803,320.011,185.052L320.011,185.052z"/>
                </g>
              </g>
              <g>
                <g>
                  <path style="fill:#2B1F2D;" d="M326.18,188.791c1.232,1.107,2.736,1.803,4.285,2.355c0.546,0.194,0.762-0.654,0.237-0.859 c-1.442-0.563-2.893-1.042-4.143-1.987C326.276,188.086,325.918,188.555,326.18,188.791L326.18,188.791z"/>
                </g>
              </g>
            </g>
            <g>
              <g>
                <g>
                  <path style="fill:#2B1F2D;" d="M411.236,152.948c0.834,2.994,1.157,5.76,1.279,8.857c0.016,0.416,0.651,0.539,0.752,0.102 c0.696-3.014,0.01-6.524-1.616-9.133C411.516,152.559,411.165,152.695,411.236,152.948L411.236,152.948z"/>
                </g>
              </g>
              <g>
                <g>
                  <path style="fill:#2B1F2D;" d="M406.888,175.997c-1.107,2.123-2.331,4.173-3.461,6.28 c-0.239,0.446,0.384,0.997,0.736,0.568c1.555-1.896,2.544-4.361,2.911-6.769 C407.09,175.971,406.946,175.886,406.888,175.997L406.888,175.997z"/>
                </g>
              </g>
              <g>
                <g>
                  <path style="fill:#2B1F2D;" d="M407.703,167.306c-0.052,1.058-0.103,2.136-0.272,3.184 c-0.155,0.96-0.479,1.879-0.653,2.835c-0.079,0.436,0.475,0.702,0.728,0.307c1.162-1.811,1.243-4.381,0.581-6.378 C408.017,167.044,407.714,167.083,407.703,167.306L407.703,167.306z"/>
                </g>
              </g>
              <g>
                <g>
                  <path style="fill:#2B1F2D;" d="M405.153,171.499c-0.406,1.935-1.29,3.612-1.939,5.455c-0.128,0.363,0.401,0.671,0.653,0.38 c1.352-1.562,1.726-3.777,1.67-5.783C405.531,171.339,405.2,171.275,405.153,171.499L405.153,171.499z"/>
                </g>
              </g>
              <g>
                <g>
                  <path style="fill:#2B1F2D;" d="M410.427,164.953c-0.166,1.247-0.112,2.508-0.172,3.763c-0.06,1.244-0.273,2.505-0.2,3.749 c0.021,0.363,0.512,0.432,0.629,0.085c0.753-2.223,0.767-5.402,0.173-7.655 C410.788,164.637,410.457,164.725,410.427,164.953L410.427,164.953z"/>
                </g>
              </g>
              <g>
                <g>
                  <path style="fill:#2B1F2D;" d="M408.308,159.141c-0.156,2.268-0.337,4.73-0.135,6.994c0.026,0.297,0.445,0.383,0.537,0.073 c0.654-2.206,0.512-4.9-0.018-7.119C408.638,158.865,408.323,158.93,408.308,159.141L408.308,159.141z"/>
                </g>
              </g>
              <g>
                <g>
                  <path style="fill:#2B1F2D;" d="M409.61,156.608c0.532,1.708,0.517,3.361,0.716,5.109c0.042,0.369,0.582,0.506,0.691,0.093 c0.469-1.787-0.193-3.801-1.106-5.329C409.816,156.326,409.553,156.427,409.61,156.608L409.61,156.608z"/>
                </g>
              </g>
              <g>
                <g>
                  <path style="fill:#2B1F2D;" d="M408.103,148.842c0.293,1.739,0.624,3.604,1.126,5.293c0.126,0.422,0.792,0.354,0.783-0.106 c-0.038-1.801-0.683-3.774-1.58-5.326C408.323,148.517,408.07,148.65,408.103,148.842L408.103,148.842z"/>
                </g>
              </g>
              <g>
                <g>
                  <path style="fill:#2B1F2D;" d="M410.044,145.51c0.149,0.991,0.408,1.956,0.547,2.949c0.113,0.807,0.134,1.633,0.356,2.419 c0.083,0.294,0.5,0.286,0.588,0c0.53-1.736-0.092-4.072-1.105-5.53C410.288,145.144,410.008,145.275,410.044,145.51 L410.044,145.51z"/>
                </g>
              </g>
              <g>
                <g>
                  <path style="fill:#2B1F2D;" d="M412.712,143.129c0.308,0.815,0.626,1.612,0.822,2.464c0.196,0.853,0.199,1.725,0.4,2.575 c0.068,0.287,0.5,0.279,0.573,0c0.449-1.724-0.383-3.894-1.508-5.206C412.89,142.834,412.651,142.969,412.712,143.129 L412.712,143.129z"/>
                </g>
              </g>
              <g>
                <g>
                  <path style="fill:#2B1F2D;" d="M402.441,179.173c-1.224,1.56-2.407,3.068-3.753,4.529 c-0.394,0.428,0.219,1.048,0.641,0.641c1.404-1.357,2.64-3.253,3.164-5.14 C402.501,179.175,402.461,179.147,402.441,179.173L402.441,179.173z"/>
                </g>
              </g>
              <g>
                <g>
                  <path style="fill:#2B1F2D;" d="M397.356,182.026c-0.992,1.387-2.183,2.65-3.505,3.728 c-0.469,0.382,0.218,1.096,0.674,0.674c1.318-1.221,2.374-2.59,3.209-4.181 C397.867,181.993,397.518,181.799,397.356,182.026L397.356,182.026z"/>
                </g>
              </g>
              <g>
                <g>
                  <path style="fill:#2B1F2D;" d="M401.456,175.648c-0.793,1.618-1.728,3.06-2.918,4.417c-0.35,0.399,0.233,0.987,0.586,0.586 c1.226-1.399,2.13-3.096,2.546-4.913C401.698,175.614,401.517,175.523,401.456,175.648L401.456,175.648z"/>
                </g>
              </g>
              <g>
                <g>
                  <path style="fill:#2B1F2D;" d="M393.49,181.566c-1.62,1.925-3.593,3.32-5.523,4.896c-0.393,0.321,0.117,0.967,0.54,0.699 c2.116-1.339,3.76-3.415,5.217-5.416C393.822,181.611,393.599,181.438,393.49,181.566L393.49,181.566z"/>
                </g>
              </g>
              <g>
                <g>
                  <path style="fill:#2B1F2D;" d="M385.871,187.173c-0.859,0.746-1.802,1.303-2.796,1.846 c-0.512,0.279-0.055,1.062,0.457,0.782c1.031-0.562,1.944-1.371,2.737-2.231 C386.516,187.302,386.143,186.936,385.871,187.173L385.871,187.173z"/>
                </g>
              </g>
              <g>
                <g>
                  <path style="fill:#2B1F2D;" d="M386.011,184.676c-1.198,1.09-2.535,1.913-3.985,2.624c-0.487,0.239-0.06,0.967,0.426,0.729 c1.486-0.729,2.799-1.78,3.934-2.977C386.623,184.803,386.264,184.447,386.011,184.676L386.011,184.676z"/>
                </g>
              </g>
              <g>
                <g>
                  <path style="fill:#2B1F2D;" d="M379.839,188.3c-1.249,0.945-2.701,1.424-4.143,1.987c-0.524,0.205-0.31,1.054,0.237,0.859 c1.549-0.552,3.052-1.248,4.285-2.355C380.477,188.558,380.125,188.084,379.839,188.3L379.839,188.3z"/>
                </g>
              </g>
            </g>
          </g>
          <path style="opacity:0.3;fill:#4A3E4C;" d="M415.384,140.477c-2.614-9.463-6.337-17.277-10.328-23.602 c2.335,5.462,4.442,11.286,6.081,17.218c3.533,12.791,1.361,12.764-0.908,9.36c0,0,2.156,6.584,2.042,10.666 c-0.114,4.082-2.276,4.423-3.18,3.175c0,0,1.025,3.744,0.457,7.034c-0.567,3.29-1.717,3.177-3.014,2.042 c0,0-0.276,4.424-4.133,9.076c-3.857,4.652-3.63,0.567-3.63,0.567s-3.063,2.836-6.58,3.517 c-3.517,0.681-2.156-1.929-2.156-1.929s-2.463,3.063-5.94,4.198c-3.477,1.134-3.828-0.823-3.828-0.823s-4.527,2.979-7.817,4 c-3.289,1.021-4.798,0.163-3.875-0.996c-0.001,0-0.001,0-0.001,0c-0.016,0.011-4.072,2.811-7.242,3.151 c-3.177,0.34-2.389-1.772-2.389-1.772s-1.965,2.112-5.744,2.339c-3.779-0.227-5.744-2.339-5.744-2.339s0.787,2.112-2.389,1.772 c-3.17-0.34-7.227-3.14-7.242-3.151c0,0,0,0-0.001,0c0.923,1.159-0.585,2.016-3.875,0.996c-3.29-1.021-7.817-4-7.817-4 s-0.351,1.957-3.828,0.823c-3.477-1.135-5.94-4.198-5.94-4.198s1.361,2.609-2.155,1.929c-3.517-0.681-6.58-3.517-6.58-3.517 s0.227,4.084-3.63-0.567c-3.857-4.651-4.133-9.076-4.133-9.076c-1.297,1.134-2.447,1.248-3.014-2.042 c-0.567-3.29,0.457-7.034,0.457-7.034c-0.904,1.248-3.067,0.908-3.18-3.175c-0.114-4.082,2.042-10.666,2.042-10.666 c-2.269,3.404-4.441,3.431-0.908-9.36c1.638-5.932,3.746-11.756,6.081-17.218c-3.991,6.324-7.714,14.139-10.328,23.602 c-3.792,13.729-1.461,13.699,0.974,10.046c0,0-2.314,7.066-2.192,11.448c0.122,4.382,2.443,4.747,3.413,3.408 c0,0-1.1,4.018-0.491,7.549c0.609,3.531,1.843,3.41,3.235,2.192c0,0,0.296,4.749,4.436,9.741 c4.14,4.993,3.897,0.609,3.897,0.609s3.288,3.044,7.063,3.775c3.775,0.731,2.313-2.07,2.313-2.07s2.644,3.288,6.375,4.505 c3.731,1.218,4.108-0.883,4.108-0.883s4.859,3.197,8.39,4.293c3.53,1.095,5.15,0.175,4.159-1.069c0,0,0.001,0,0.001,0 c0.017,0.012,4.371,3.017,7.773,3.382c3.41,0.365,2.564-1.902,2.564-1.902s2.11,2.267,6.165,2.51 c4.056-0.243,6.165-2.51,6.165-2.51s-0.845,2.267,2.564,1.902c3.403-0.365,7.756-3.37,7.773-3.382c0,0,0.001,0,0.001,0 c-0.991,1.244,0.628,2.164,4.159,1.069c3.531-1.096,8.39-4.293,8.39-4.293s0.377,2.101,4.108,0.883 c3.731-1.218,6.375-4.505,6.375-4.505s-1.461,2.801,2.314,2.07c3.775-0.731,7.062-3.775,7.062-3.775s-0.243,4.384,3.897-0.609 c4.14-4.992,4.436-9.741,4.436-9.741c1.392,1.218,2.626,1.339,3.235-2.192c0.609-3.531-0.491-7.549-0.491-7.549 c0.97,1.34,3.291,0.974,3.413-3.408c0.122-4.382-2.192-11.448-2.192-11.448C416.845,154.176,419.176,154.206,415.384,140.477z"/>
        </g>
        <g>
          <path style="fill:#FFD3AE;" d="M393.061,119.817c-12.981-9.961-24.592-1.32-29.485,4.621c-4.893,5.942-15.792,5.942-20.685,0 c-4.893-5.942-16.504-14.582-29.485-4.621c-12.981,9.961-10.884,21.356-5.991,16.62c4.893-4.736,12.932-11.027,25.165-4.212 c12.233,6.816,9.959,21.221,2.009,29.747c-7.95,8.525-8.458,25.517,2.106,32.05c0.017,0.012,4.371,3.017,7.773,3.382 c3.41,0.365,2.564-1.902,2.564-1.902s2.11,2.267,6.165,2.51c0.012-0.001,0.023-0.004,0.035-0.004 c0.012,0.001,0.023,0.004,0.035,0.004c4.056-0.243,6.165-2.51,6.165-2.51s-0.845,2.267,2.565,1.902 c3.403-0.365,7.756-3.37,7.773-3.382c10.565-6.533,10.057-23.525,2.106-32.05c-7.951-8.525-10.224-22.931,2.009-29.747 c12.233-6.815,20.272-0.524,25.165,4.212C403.945,141.173,406.042,129.778,393.061,119.817z"/>
          <g>
            <g>
              <g>
                <g>
                  <path style="fill:#EDAF7C;" d="M320.213,121.601c-2.748,0.253-5.437,1.533-7.388,3.459 c-0.289,0.285,0.143,0.707,0.442,0.442c1.934-1.71,4.408-3.14,6.991-3.563 C320.448,121.908,320.406,121.584,320.213,121.601L320.213,121.601z"/>
                </g>
              </g>
              <g>
                <g>
                  <path style="fill:#EDAF7C;" d="M333.51,119.575c-2.575-1.438-5.664-2.369-8.583-1.587 c-0.312,0.084-0.262,0.624,0.079,0.583c2.782-0.332,5.837,0.111,8.468,1.089 C333.524,119.68,333.556,119.601,333.51,119.575L333.51,119.575z"/>
                </g>
              </g>
              <g>
                <g>
                  <path style="fill:#EDAF7C;" d="M322.906,118.003c-2.902,0.161-6.767,1.282-8.577,3.687 c-0.098,0.131,0.094,0.316,0.224,0.225c2.6-1.827,5.096-3.439,8.353-3.771 C322.995,118.135,322.998,117.998,322.906,118.003L322.906,118.003z"/>
                </g>
              </g>
              <g>
                <g>
                  <path style="fill:#EDAF7C;" d="M311.485,123.635c-2.195,1.861-4.64,4.506-5.353,7.377c-0.06,0.242,0.267,0.379,0.4,0.169 c0.768-1.212,1.286-2.558,2.087-3.761c0.875-1.316,1.875-2.542,2.988-3.663 C311.685,123.677,311.568,123.564,311.485,123.635L311.485,123.635z"/>
                </g>
              </g>
              <g>
                <g>
                  <path style="fill:#EDAF7C;" d="M309.688,129.12c-1.274,1.776-2.65,3.522-3.427,5.596c-0.07,0.187,0.199,0.266,0.3,0.126 c1.278-1.761,2.132-3.798,3.214-5.672C309.807,129.113,309.725,129.068,309.688,129.12L309.688,129.12z"/>
                </g>
              </g>
              <g>
                <g>
                  <path style="fill:#EDAF7C;" d="M316.657,125.29c-2.845,0.664-5.268,2.97-6.701,5.455c-0.105,0.183,0.144,0.382,0.294,0.227 c2.019-2.086,3.629-4.381,6.481-5.411C316.901,125.5,316.836,125.248,316.657,125.29L316.657,125.29z"/>
                </g>
              </g>
              <g>
                <g>
                  <path style="fill:#EDAF7C;" d="M325.689,123.293c-2.521-0.01-4.751,0.024-7.105,1.101c-0.255,0.117-0.072,0.51,0.187,0.443 c2.226-0.578,4.608-1.364,6.919-1.444C325.754,123.391,325.754,123.294,325.689,123.293L325.689,123.293z"/>
                </g>
              </g>
              <g>
                <g>
                  <path style="fill:#EDAF7C;" d="M333.805,126.998c-3.007-1-5.955-1.912-9.151-1.478c-0.277,0.038-0.214,0.512,0.066,0.491 c3.082-0.233,6.057,0.449,9.018,1.228C333.895,127.281,333.957,127.049,333.805,126.998L333.805,126.998z"/>
                </g>
              </g>
              <g>
                <g>
                  <path style="fill:#EDAF7C;" d="M332.382,122.862c-2.649-1.194-5.671-1.423-8.475-0.719 c-0.159,0.04-0.089,0.268,0.066,0.241c2.733-0.463,5.731-0.292,8.397,0.507 C332.387,122.895,332.398,122.869,332.382,122.862L332.382,122.862z"/>
                </g>
              </g>
              <g>
                <g>
                  <path style="fill:#EDAF7C;" d="M338.373,126.663c-2.334-1.25-5.045-2.273-7.728-2.223 c-0.177,0.003-0.233,0.293-0.044,0.322c2.727,0.424,5.186,0.803,7.716,1.995 C338.38,126.787,338.435,126.696,338.373,126.663L338.373,126.663z"/>
                </g>
              </g>
              <g>
                <g>
                  <path style="fill:#EDAF7C;" d="M328.442,120.109c-1.962-0.18-4.237-0.265-6.096,0.494 c-0.189,0.077-0.195,0.432,0.054,0.399c2.048-0.274,3.948-0.79,6.042-0.737 C328.544,120.268,328.54,120.118,328.442,120.109L328.442,120.109z"/>
                </g>
              </g>
              <g>
                <g>
                  <path style="fill:#EDAF7C;" d="M336.225,122.565c-1.35-0.772-2.809-1.377-4.334-1.699 c-0.157-0.033-0.221,0.193-0.066,0.241c1.478,0.457,2.926,0.936,4.353,1.539 C336.232,122.668,336.279,122.595,336.225,122.565L336.225,122.565z"/>
                </g>
              </g>
              <g>
                <g>
                  <path style="fill:#EDAF7C;" d="M321.458,125.926c-2.609,0.447-5.878,1.419-7.722,3.446 c-0.116,0.127,0.028,0.308,0.18,0.233c1.185-0.584,2.229-1.427,3.433-2.005c1.339-0.642,2.716-1.149,4.155-1.509 C321.613,126.064,321.565,125.908,321.458,125.926L321.458,125.926z"/>
                </g>
              </g>
              <g>
                <g>
                  <path style="fill:#EDAF7C;" d="M334.936,130.191c-2.274-1.324-4.735-2.238-7.379-2.387 c-0.19-0.011-0.238,0.306-0.046,0.338c2.559,0.426,5,1.036,7.338,2.198C334.948,130.388,335.033,130.247,334.936,130.191 L334.936,130.191z"/>
                </g>
              </g>
            </g>
            <g>
              <g>
                <g>
                  <path style="fill:#EDAF7C;" d="M386.208,121.939c2.582,0.423,5.059,1.855,6.991,3.563c0.299,0.265,0.731-0.157,0.442-0.442 c-1.952-1.927-4.639-3.205-7.388-3.459C386.063,121.584,386.017,121.908,386.208,121.939L386.208,121.939z"/>
                </g>
              </g>
              <g>
                <g>
                  <path style="fill:#EDAF7C;" d="M372.993,119.661c2.631-0.978,5.686-1.422,8.468-1.089c0.337,0.04,0.395-0.499,0.079-0.583 c-2.919-0.783-6.009,0.149-8.583,1.587C372.912,119.6,372.943,119.68,372.993,119.661L372.993,119.661z"/>
                </g>
              </g>
              <g>
                <g>
                  <path style="fill:#EDAF7C;" d="M383.561,118.144c3.259,0.332,5.751,1.943,8.353,3.771c0.13,0.091,0.323-0.094,0.224-0.225 c-1.81-2.405-5.675-3.527-8.577-3.687C383.469,117.998,383.472,118.135,383.561,118.144L383.561,118.144z"/>
                </g>
              </g>
              <g>
                <g>
                  <path style="fill:#EDAF7C;" d="M394.861,123.757c1.113,1.121,2.112,2.346,2.988,3.663c0.8,1.202,1.319,2.549,2.086,3.761 c0.132,0.209,0.461,0.076,0.4-0.169c-0.713-2.871-3.158-5.516-5.353-7.377 C394.899,123.564,394.782,123.677,394.861,123.757L394.861,123.757z"/>
                </g>
              </g>
              <g>
                <g>
                  <path style="fill:#EDAF7C;" d="M396.693,129.17c1.082,1.875,1.936,3.912,3.214,5.672c0.1,0.138,0.37,0.062,0.3-0.126 c-0.778-2.076-2.153-3.82-3.427-5.596C396.743,129.068,396.66,129.113,396.693,129.17L396.693,129.17z"/>
                </g>
              </g>
              <g>
                <g>
                  <path style="fill:#EDAF7C;" d="M389.735,125.561c2.852,1.03,4.463,3.326,6.481,5.411c0.149,0.154,0.401-0.043,0.294-0.227 c-1.433-2.485-3.855-4.791-6.701-5.455C389.632,125.249,389.566,125.5,389.735,125.561L389.735,125.561z"/>
                </g>
              </g>
              <g>
                <g>
                  <path style="fill:#EDAF7C;" d="M380.778,123.393c2.312,0.08,4.691,0.866,6.919,1.444c0.255,0.066,0.444-0.325,0.187-0.443 c-2.354-1.077-4.584-1.111-7.105-1.101C380.713,123.294,380.714,123.391,380.778,123.393L380.778,123.393z"/>
                </g>
              </g>
              <g>
                <g>
                  <path style="fill:#EDAF7C;" d="M372.729,127.239c2.962-0.779,5.934-1.462,9.018-1.228c0.277,0.021,0.347-0.453,0.066-0.491 c-3.195-0.434-6.144,0.478-9.151,1.478C372.511,127.049,372.572,127.281,372.729,127.239L372.729,127.239z"/>
                </g>
              </g>
              <g>
                <g>
                  <path style="fill:#EDAF7C;" d="M374.097,122.89c2.664-0.798,5.666-0.969,8.397-0.507c0.155,0.026,0.225-0.201,0.066-0.241 c-2.804-0.703-5.826-0.475-8.475,0.719C374.069,122.869,374.081,122.895,374.097,122.89L374.097,122.89z"/>
                </g>
              </g>
              <g>
                <g>
                  <path style="fill:#EDAF7C;" d="M368.15,126.757c2.529-1.192,4.987-1.571,7.716-1.995c0.188-0.029,0.135-0.319-0.044-0.322 c-2.684-0.05-5.393,0.973-7.728,2.223C368.032,126.696,368.087,126.787,368.15,126.757L368.15,126.757z"/>
                </g>
              </g>
              <g>
                <g>
                  <path style="fill:#EDAF7C;" d="M378.025,120.265c2.092-0.053,3.996,0.463,6.042,0.737c0.247,0.033,0.245-0.321,0.054-0.399 c-1.86-0.759-4.134-0.673-6.096-0.494C377.927,120.118,377.923,120.268,378.025,120.265L378.025,120.265z"/>
                </g>
              </g>
              <g>
                <g>
                  <path style="fill:#EDAF7C;" d="M370.289,122.646c1.427-0.603,2.875-1.082,4.353-1.539c0.154-0.048,0.091-0.274-0.066-0.241 c-1.525,0.322-2.985,0.927-4.334,1.699C370.188,122.595,370.235,122.668,370.289,122.646L370.289,122.646z"/>
                </g>
              </g>
              <g>
                <g>
                  <path style="fill:#EDAF7C;" d="M384.963,126.091c1.44,0.36,2.816,0.866,4.155,1.509c1.204,0.577,2.247,1.42,3.433,2.005 c0.15,0.074,0.296-0.105,0.18-0.233c-1.844-2.027-5.111-2.999-7.722-3.446 C384.902,125.908,384.854,126.064,384.963,126.091L384.963,126.091z"/>
                </g>
              </g>
              <g>
                <g>
                  <path style="fill:#EDAF7C;" d="M371.618,130.339c2.337-1.162,4.777-1.772,7.338-2.198c0.191-0.032,0.147-0.348-0.046-0.338 c-2.643,0.149-5.105,1.063-7.379,2.387C371.435,130.247,371.52,130.388,371.618,130.339L371.618,130.339z"/>
                </g>
              </g>
            </g>
            <g>
              <g>
                <g>
                  <path style="fill:#EDAF7C;" d="M333.368,187.22c0.962,1.834,2.314,3.345,4.03,4.503c0.324,0.219,0.639-0.315,0.307-0.526 c-1.657-1.055-3.039-2.461-4.054-4.143C333.542,186.873,333.27,187.033,333.368,187.22L333.368,187.22z"/>
                </g>
              </g>
              <g>
                <g>
                  <path style="fill:#EDAF7C;" d="M338.276,188.468c1.517,2.507,3.235,5.073,5.966,6.366c0.386,0.183,0.727-0.381,0.339-0.58 c-2.615-1.344-4.473-3.525-6.211-5.841C338.33,188.358,338.239,188.406,338.276,188.468L338.276,188.468z"/>
                </g>
              </g>
              <g>
                <g>
                  <path style="fill:#EDAF7C;" d="M349.111,189.463c0.419,0.932,0.905,1.808,1.547,2.606c0.176,0.219,0.562-0.074,0.393-0.303 c-0.59-0.798-1.175-1.6-1.67-2.461C349.279,189.127,349.03,189.283,349.111,189.463L349.111,189.463z"/>
                </g>
              </g>
              <g>
                <g>
                  <path style="fill:#EDAF7C;" d="M352.352,190.262c0.175,0.933,0.334,1.896,0.409,2.843c0.059,0.758,0.039,1.526,0.211,2.27 c0.049,0.211,0.348,0.19,0.407,0c0.51-1.642-0.043-3.679-0.679-5.209C352.611,189.955,352.309,190.029,352.352,190.262 L352.352,190.262z"/>
                </g>
              </g>
              <g>
                <g>
                  <path style="fill:#EDAF7C;" d="M357.025,189.166c-0.266,1.565-0.837,2.999-1.294,4.507 c-0.071,0.236,0.259,0.358,0.385,0.163c0.883-1.361,1.186-3.021,1.292-4.618 C357.423,189.002,357.062,188.948,357.025,189.166L357.025,189.166z"/>
                </g>
              </g>
              <g>
                <g>
                  <path style="fill:#EDAF7C;" d="M360.114,189.706c-0.83,1.692-1.924,3.155-2.96,4.716c-0.113,0.171,0.13,0.331,0.27,0.208 c1.428-1.25,2.364-3.031,3.004-4.792C360.494,189.656,360.199,189.531,360.114,189.706L360.114,189.706z"/>
                </g>
              </g>
              <g>
                <g>
                  <path style="fill:#EDAF7C;" d="M364.143,189.546c-1.088,1.391-2.331,2.635-3.519,3.937 c-0.141,0.154,0.051,0.447,0.237,0.307c1.459-1.094,2.533-2.578,3.361-4.184 C364.246,189.559,364.18,189.499,364.143,189.546L364.143,189.546z"/>
                </g>
              </g>
              <g>
                <g>
                  <path style="fill:#EDAF7C;" d="M367.925,188.218c-1.306,1.762-2.9,3.081-4.516,4.534c-0.152,0.137,0.041,0.352,0.208,0.27 c1.958-0.962,3.498-2.792,4.591-4.638C368.318,188.198,368.047,188.053,367.925,188.218L367.925,188.218z"/>
                </g>
              </g>
              <g>
                <g>
                  <path style="fill:#EDAF7C;" d="M369.198,190.523c-1.965,1.851-4.204,2.958-6.658,4.005c-0.211,0.09-0.055,0.404,0.15,0.357 c2.601-0.596,4.89-2.258,6.695-4.174C369.503,190.586,369.323,190.406,369.198,190.523L369.198,190.523z"/>
                </g>
              </g>
              <g>
                <g>
                  <path style="fill:#EDAF7C;" d="M341.916,188.558c0.488,1.494,1.356,3.169,2.734,4.024c0.28,0.174,0.549-0.211,0.341-0.442 c-0.505-0.56-1.083-1.032-1.562-1.621c-0.518-0.637-0.955-1.307-1.313-2.046 C342.062,188.362,341.878,188.44,341.916,188.558L341.916,188.558z"/>
                </g>
              </g>
              <g>
                <g>
                  <path style="fill:#EDAF7C;" d="M345.854,190.298c0.976,2.026,2.57,4.372,4.705,5.297c0.242,0.105,0.493-0.166,0.294-0.38 c-0.759-0.817-1.674-1.467-2.454-2.265c-0.839-0.86-1.59-1.82-2.248-2.825 C346.028,189.938,345.758,190.099,345.854,190.298L345.854,190.298z"/>
                </g>
              </g>
            </g>
          </g>
          <path style="opacity:0.3;fill:#FFD3AE;" d="M353.234,198.008C353.234,198.008,353.234,198.008,353.234,198.008 c4.032-0.255,6.13-2.506,6.13-2.506s-0.014,0.037-0.03,0.099c0.066-0.063,0.1-0.099,0.1-0.099s-0.73,1.965,1.927,1.939 c0.175-0.004,0.363-0.015,0.568-0.037c3.403-0.365,7.756-3.37,7.773-3.382c0,0,0.001,0,0.001,0 c-0.023,0.029-0.038,0.057-0.058,0.086c0.074-0.049,0.126-0.084,0.127-0.085c4.108-2.54,6.534-6.664,7.508-11.253 c-1.489,0.828-3.292,1.731-4.829,2.208c-3.289,1.021-4.798,0.163-3.875-0.996c-0.001,0-0.001,0-0.001,0 c-0.016,0.011-4.072,2.811-7.242,3.151c-3.177,0.34-2.389-1.772-2.389-1.772s-1.965,2.112-5.744,2.339 c-3.779-0.227-5.744-2.339-5.744-2.339s0.787,2.112-2.389,1.772c-3.17-0.34-7.227-3.14-7.242-3.151c0,0,0,0-0.001,0 c0.923,1.159-0.585,2.016-3.875,0.996c-1.51-0.469-3.276-1.348-4.75-2.164c0.979,4.572,3.404,8.678,7.498,11.21 c0.017,0.012,4.371,3.017,7.773,3.382c3.41,0.365,2.564-1.902,2.564-1.902s2.11,2.267,6.165,2.51 C353.211,198.012,353.221,198.009,353.234,198.008z"/>
        </g>
        <g>
          <g>
            <g>
              <path style="fill:#FFFFFF;" d="M324.146,136.441c-11.696-0.296-13.917,13.769-9.919,20.135 c1.999,3.183,4.498,5.395,9.919,5.395c5.247,0,7.921-2.212,9.919-5.395C338.063,150.21,335.842,136.145,324.146,136.441z"/>
              <g>
                <g>
                  <path style="fill:#2B1F2D;" d="M336.083,145.012c-2.411-8.08-11.94-12.562-19.274-7.157 c-5.666,4.176-6.611,13.248-3.231,19.1c0.483,0.836,1.779,0.081,1.295-0.757c-2.718-4.705-2.338-11.769,1.417-15.852 c5.959-6.482,16.039-2.668,18.347,5.065C334.912,146.333,336.361,145.94,336.083,145.012L336.083,145.012z"/>
                </g>
              </g>
              <ellipse style="fill:#2B1F2D;" cx="327.19" cy="149.623" rx="7.399" ry="9.146"/>
            </g>
            <g>
              <path style="fill:#FFFFFF;" d="M382.252,136.441c11.696-0.296,13.917,13.769,9.92,20.135 c-1.999,3.183-4.498,5.395-9.92,5.395c-5.247,0-7.921-2.212-9.919-5.395C368.335,150.21,370.556,136.145,382.252,136.441z"/>
              <g>
                <g>
                  <path style="fill:#2B1F2D;" d="M371.761,145.41c2.312-7.75,12.393-11.539,18.347-5.065 c3.753,4.081,4.133,11.15,1.417,15.852c-0.484,0.838,0.812,1.594,1.295,0.757c3.38-5.852,2.434-14.925-3.231-19.1 c-7.329-5.402-16.864-0.921-19.274,7.157C370.038,145.939,371.485,146.335,371.761,145.41L371.761,145.41z"/>
                </g>
              </g>
              <ellipse style="fill:#2B1F2D;" cx="379.208" cy="149.623" rx="7.399" ry="9.146"/>
            </g>
            <g>
              <path style="fill:#6F6072;" d="M312.588,170.357c-11.275-2.585-7.669-10.295,0-8.461 C323.204,164.434,321.813,172.473,312.588,170.357z"/>
              <path style="fill:#6F6072;" d="M393.81,170.357c11.275-2.585,7.669-10.295,0-8.461 C383.194,164.434,384.584,172.473,393.81,170.357z"/>
            </g>
            <path style="fill:#2B1F2D;" d="M319.003,135.031c1.98-0.848,4.688-1.446,7.824-0.319c2.244,0.806,3.487-0.991,1.843-2.277 c-1.893-1.482-6.642-2.342-9.962-0.712c-3.32,1.63-3.092,2.743-2.827,3.376C316.147,135.731,317.142,135.828,319.003,135.031z "/>
            <path style="fill:#2B1F2D;" d="M387.395,135.031c-1.98-0.848-4.688-1.446-7.824-0.319c-2.244,0.806-3.487-0.991-1.843-2.277 c1.893-1.482,6.642-2.342,9.962-0.712c3.32,1.63,3.092,2.743,2.827,3.376C390.251,135.731,389.256,135.828,387.395,135.031z"/>
          </g>
          <g>
            <path style="fill:#2B1F2D;" d="M353.199,158.77c0,0-10.667,0.179-11.1,4.36c-0.432,4.181,6.916,10.381,11.1,11.823 c4.184-1.442,11.532-7.642,11.1-11.823C363.866,158.949,353.199,158.77,353.199,158.77z"/>
            <g>
              <g>
                <path style="fill:#6F6072;" d="M344.151,163.373c5.586-2.025,10.858-1.012,16.525-0.178c0.47,0.069,0.665-0.56,0.199-0.723 c-5.472-1.917-11.674-2.085-16.742,0.859C344.11,163.343,344.125,163.382,344.151,163.373L344.151,163.373z"/>
              </g>
            </g>
            <g>
              <g>
                <g>
                  <path style="fill:#2B1F2D;" d="M352.449,175.015c0,2.683,0,5.366,0,8.049c0,0.965,1.5,0.967,1.5,0c0-2.683,0-5.366,0-8.049 C353.949,174.049,352.449,174.048,352.449,175.015L352.449,175.015z"/>
                </g>
              </g>
              <g>
                <g>
                  <path style="fill:#2B1F2D;" d="M359.94,175.832c-0.464,8.623-12.947,8.643-13.413,0c-0.052-0.96-1.552-0.966-1.5,0 c0.239,4.438,3.565,8.227,8.206,8.206c4.642-0.021,7.966-3.737,8.206-8.206C361.492,174.867,359.992,174.87,359.94,175.832 L359.94,175.832z"/>
                </g>
              </g>
            </g>
          </g>
        </g>
      </g>
      <g>
        <g>
          <path style="fill:#2B1F2D;" d="M416.107,140.278c-3.788-13.245-10.17-25.726-19.678-35.789 c-8.469-8.963-18.19-13.17-29.957-16.446c0,0.482,0,0.964,0,1.446c3.173-0.656,6.502,0.442,9.548-0.212 c0.706-0.152,1.541-0.086,1.928-0.855c1.071-2.132-3.452-4.81-4.801-5.466c-2.017-0.982-4.404-1.409-6.651-1.397 c-1.433,0.008-3.721,1.145-4.918,0.896c-0.401-0.083-0.731-1.747-1.751-2.796c-0.963-0.99-2.316-2.009-3.721-2.2 c-1.49-0.202-2.397,0.053-2.695,1.529c-0.663,3.279,2.688,2.648-0.021,1.633c-1.868-0.7-3.269-1.826-5.305-2.265 c-1.58-0.341-6.456-1.266-7.16,1.105c-0.73,2.455,3.996,4.305,5.324,5.295c0.193-0.457,0.385-0.914,0.578-1.371 c-3.121-1.018-10.989-1.248-12.5,2.623c-1.51,3.868,5.77,2.625,7.609,3.124c0-0.482,0-0.964,0-1.446 c-9.726,2.594-18.499,4.934-26.408,11.545c-6.632,5.543-12.128,12.479-16.45,19.939c-2.834,4.891-5.165,10.067-7.013,15.408 c-1.665,4.811-3.699,10.364-3.776,15.529c-0.061,4.092,2.389,3.604,4.347,0.795c-0.457-0.193-0.914-0.385-1.371-0.578 c-1.248,3.887-3.024,9.165-2.05,13.306c0.525,2.233,2.409,4.383,4.525,2.279c-0.418-0.243-0.836-0.486-1.254-0.73 c-0.634,2.496-1.63,14.656,3.846,10.588c-0.376-0.216-0.752-0.432-1.129-0.648c0.355,3.937,3.021,10.622,6.803,12.369 c1.836,0.849,3.079,0.127,3.03-2.019c-0.427,0.177-0.854,0.354-1.28,0.53c1.934,1.72,6.548,5.156,9.361,4.02 c1.518-0.613,1.919-1.668,1.193-3.224c-0.393,0.303-0.785,0.606-1.178,0.909c1.958,2.326,5.152,4.837,8.308,5.06 c1.066,0.075,1.837-0.072,2.718-0.648c1.691-1.104-0.725-0.773,0.021-0.409c3.247,1.583,7.286,5.135,11.224,4.618 c1.707-0.224,2.766-0.956,1.939-2.683c-0.282,0.367-0.565,0.734-0.847,1.102c1.127,0.282,13.155,6.952,11.261,0.558 c-0.418,0.243-0.836,0.486-1.254,0.73c3.572,3.506,9.818,3.507,13.391,0c-0.418-0.243-0.836-0.486-1.254-0.73 c-1.894,6.395,10.098-0.267,11.261-0.558c-0.282-0.367-0.565-0.735-0.847-1.102c-0.821,1.714,0.216,2.464,1.939,2.683 c3.81,0.485,8.155-2.903,11.224-4.618c0.66-0.369-1.618-0.787-0.055,0.351c0.895,0.652,1.693,0.772,2.794,0.707 c3.147-0.186,6.359-2.744,8.308-5.06c-0.393-0.303-0.785-0.606-1.178-0.909c-0.707,1.516-0.355,2.655,1.193,3.224 c2.92,1.074,7.345-2.227,9.361-4.02c-0.427-0.177-0.853-0.354-1.28-0.53c-0.049,2.146,1.194,2.868,3.03,2.019 c3.781-1.748,6.448-8.433,6.803-12.369c-0.376,0.216-0.752,0.432-1.129,0.648c5.489,4.078,4.479-8.096,3.846-10.588 c-0.418,0.243-0.836,0.486-1.253,0.73c2.117,2.105,3.997-0.034,4.525-2.279c0.978-4.159-0.797-9.404-2.05-13.306 c-0.457,0.193-0.914,0.385-1.371,0.578c0.803,1.152,2.241,3.259,3.785,2.029C419.977,150.996,416.607,142.141,416.107,140.278 c-0.25-0.931-1.697-0.536-1.446,0.399c0.737,2.746,2.104,6.168,1.927,9.053c-0.114,1.863-0.288,2.197-1.53,0.415 c-0.458-0.657-1.647-0.283-1.371,0.578c0.431,1.344,0.81,2.709,1.141,4.081c0.298,1.232,0.575,2.475,0.759,3.73 c0.043,0.291,0.419,8.59-1.869,6.315c-0.537-0.534-1.437,0.009-1.254,0.73c0.222,0.873,0.982,10.844-1.643,8.894 c-0.502-0.373-1.083,0.147-1.129,0.648c-0.18,1.995-1,4.008-1.916,5.745c-0.716,1.358-4.954,6.248-4.917,4.605 c0.016-0.683-0.814-0.945-1.28-0.53c-0.772,0.687-1.607,1.286-2.491,1.819c-0.099,0.06-6.739,3.008-5.707,0.795 c0.332-0.711-0.587-1.61-1.178-0.909c-1.215,1.444-8.361,7.041-9.23,3.953c-0.126-0.448-0.69-0.715-1.102-0.448 c-0.943,0.611-1.907,1.19-2.887,1.741c-0.785,0.441-1.576,0.874-2.389,1.26c-0.538,0.256-6.785,2.374-6.246,1.249 c0.278-0.581-0.18-1.268-0.847-1.102c-0.574,0.143-1.28,0.794-1.75,1.055c-0.741,0.412-8.193,3.128-7.666,1.348 c0.216-0.729-0.728-1.245-1.254-0.73c-3.014,2.957-8.257,2.957-11.27,0c-0.525-0.515-1.47,0-1.254,0.73 c0.786,2.654-8.919-2.279-9.416-2.403c-0.669-0.167-1.125,0.521-0.847,1.102c0.076,0.158-4.974-0.654-5.616-0.941 c-1.035-0.464-2.033-1.014-3.02-1.569c-0.98-0.55-1.944-1.129-2.887-1.741c-0.412-0.267-0.976,0-1.102,0.448 c-0.869,3.089-8.015-2.509-9.23-3.953c-0.585-0.695-1.513,0.191-1.178,0.909c1.031,2.213-5.608-0.734-5.708-0.795 c-0.883-0.533-1.719-1.133-2.49-1.819c-0.465-0.414-1.296-0.152-1.28,0.53c0.043,1.909-4.544-3.898-4.917-4.605 c-0.923-1.752-1.736-3.746-1.916-5.745c-0.045-0.501-0.627-1.02-1.128-0.648c-3.108,2.309-2.003-7.193-2.027-7.035 c0.098-0.625,0.229-1.247,0.385-1.86c0.183-0.721-0.716-1.265-1.254-0.73c-2.991,2.975-1.765-7.021-1.869-6.315 c0.184-1.251,0.462-2.501,0.759-3.73c0.332-1.373,0.71-2.736,1.142-4.081c0.274-0.853-0.908-1.241-1.371-0.578 c-2.429,3.485-1.276-2.386-0.964-3.939c0.924-4.602,2.311-9.163,3.969-13.549c3.065-8.11,7.319-15.814,12.748-22.585 c3.268-4.075,6.959-7.898,11.114-11.077c7.339-5.614,15.42-7.54,24.128-9.863c0.716-0.191,0.712-1.253,0-1.446 c-1.081-0.293-5.84-0.45-6.139-1.029c-1.199-2.318,8.539-2.378,10.233-1.826c0.869,0.283,1.212-0.898,0.578-1.371 c-0.471-0.351-2.943-1.732-3.121-2.182c-1.159-2.926,4.345-1.377,5.174-1.127c1.671,0.504,3.438,1.377,4.61,2.705 c0.309,0.35,0.967,0.262,1.178-0.152c0.41-0.807,0.193-1.55,0.389-2.363c-0.104-0.444-0.209-0.888-0.313-1.333 c0.885-0.195,1.696-0.011,2.432,0.553c1.613,0.811,2.588,2.674,3.323,4.21c0.181,0.377,0.691,0.444,1.026,0.269 c1.132-0.591,2.409-0.792,3.664-0.887c2.17-0.164,9.559,0.416,10.242,3.396c0.471,2.054-2.271,1.116-3.616,1.066 c-2.038-0.076-3.934,0.017-5.92,0.427c-0.745,0.154-0.683,1.256,0,1.446c11.499,3.201,21.027,7.309,29.295,16.06 c9.334,9.878,15.573,22.126,19.292,35.127C414.926,141.603,416.374,141.209,416.107,140.278z"/>
        </g>
      </g>
      <g>
        <path style="fill:#4A3E4C;" d="M305.42,116.991c0,0-15.516-3.461-14.795-20.474c0.721-17.014,20.762-19.032,27.972,3.172 L305.42,116.991z"/>
        <g>
          <g>
            <path style="fill:#2B1F2D;" d="M305.62,116.268c-10.034-2.346-16.024-12.812-13.879-22.752 c1.262-5.851,6.012-10.37,12.263-9.166c7.417,1.429,11.625,9.043,13.87,15.538c0.313,0.907,1.763,0.517,1.446-0.399 c-2.433-7.038-6.973-14.958-14.918-16.585c-5.713-1.171-10.942,1.986-13.182,7.25c-4.75,11.165,2.271,24.818,14.001,27.56 C306.16,117.934,306.561,116.488,305.62,116.268L305.62,116.268z"/>
          </g>
        </g>
        <g>
          <path style="fill:#FFD3AE;" d="M308.648,110.215c0,0-5.972,0.144-9.258-7.642c-3.286-7.786,3.75-11.681,9.258-6.344 c3.127,3.03,4.758,8.219,4.758,8.219"/>
          <g>
            <path style="fill:#2B1F2D;" d="M308.648,109.465c-5.211,0.04-10.662-7.233-9.146-12.135c1.427-4.613,6.826-2.569,9.152-0.014 c1.857,2.039,3.185,4.719,4.029,7.332c0.295,0.915,1.744,0.524,1.446-0.399c-1.182-3.661-3.254-7.685-6.554-9.837 c-2.893-1.887-7.162-2.052-9.036,1.336c-3.271,5.915,3.685,15.266,10.109,15.218 C309.613,110.957,309.615,109.457,308.648,109.465L308.648,109.465z"/>
          </g>
        </g>
        <g>
          <g>
            <g>
              <path style="fill:#2B1F2D;" d="M293.031,92.503c-1.852,2.624-1.363,6.518-0.264,9.344c0.178,0.456,0.832,0.287,0.738-0.203 c-0.61-3.194-0.677-5.787-0.089-8.978C293.46,92.428,293.171,92.304,293.031,92.503L293.031,92.503z"/>
            </g>
          </g>
          <g>
            <g>
              <path style="fill:#2B1F2D;" d="M293.949,98.409c-0.305,2.959,0.84,5.898,3.04,7.894c0.334,0.303,0.967-0.11,0.663-0.511 c-1.679-2.218-2.673-4.618-3.015-7.382C294.582,97.972,293.995,97.963,293.949,98.409L293.949,98.409z"/>
            </g>
          </g>
          <g>
            <g>
              <path style="fill:#2B1F2D;" d="M294.688,105.957c1.061,2.09,2.428,4.486,4.565,5.661c0.446,0.245,0.824-0.308,0.521-0.675 c-0.756-0.913-1.737-1.634-2.562-2.485c-0.813-0.838-1.678-1.68-2.4-2.597C294.753,105.79,294.65,105.883,294.688,105.957 L294.688,105.957z"/>
            </g>
          </g>
        </g>
        <g style="opacity:0.5;">
          <g>
            <path style="fill:#FFFFFF;" d="M314.567,96.247c-2.132-3.814-3.688-6.713-7.747-8.912c-2.808-1.521-7.308-1.803-9.782,0.663 c-0.255,0.254,0.006,0.667,0.342,0.588c4.259-1.012,6.763-1.821,10.874,0.91c2.854,1.896,4.207,4.194,6.11,6.869 C314.451,96.486,314.642,96.381,314.567,96.247L314.567,96.247z"/>
          </g>
        </g>
      </g>
      <g>
        <path style="fill:#4A3E4C;" d="M400.977,116.991c0,0,15.516-3.461,14.795-20.474c-0.721-17.014-20.762-19.032-27.972,3.172 L400.977,116.991z"/>
        <g>
          <g>
            <path style="fill:#2B1F2D;" d="M401.177,117.715c11.729-2.742,18.753-16.395,14.001-27.56 c-2.241-5.263-7.469-8.421-13.182-7.25c-7.945,1.628-12.485,9.547-14.918,16.585c-0.316,0.914,1.132,1.307,1.446,0.399 c2.245-6.495,6.453-14.108,13.87-15.538c6.251-1.205,11,3.315,12.263,9.166c2.145,9.939-3.845,20.406-13.879,22.752 C399.838,116.488,400.236,117.934,401.177,117.715L401.177,117.715z"/>
          </g>
        </g>
        <g>
          <path style="fill:#FFD3AE;" d="M397.749,110.215c0,0,5.972,0.144,9.258-7.642c3.286-7.786-3.75-11.681-9.258-6.344 c-3.127,3.03-4.758,8.219-4.758,8.219"/>
          <g>
            <path style="fill:#2B1F2D;" d="M397.749,110.965c6.424,0.049,13.38-9.301,10.109-15.218c-1.792-3.24-5.871-3.261-8.742-1.532 c-3.477,2.094-5.636,6.279-6.848,10.033c-0.297,0.921,1.151,1.315,1.446,0.399c0.843-2.612,2.172-5.293,4.029-7.332 c2.329-2.557,7.727-4.595,9.152,0.014c1.515,4.899-3.936,12.175-9.146,12.135 C396.784,109.457,396.783,110.957,397.749,110.965L397.749,110.965z"/>
          </g>
        </g>
        <g>
          <g>
            <g>
              <path style="fill:#2B1F2D;" d="M412.981,92.666c0.589,3.192,0.521,5.79-0.089,8.978c-0.094,0.489,0.56,0.661,0.738,0.203 c1.099-2.826,1.587-6.721-0.264-9.344C413.228,92.306,412.937,92.426,412.981,92.666L412.981,92.666z"/>
            </g>
          </g>
          <g>
            <g>
              <path style="fill:#2B1F2D;" d="M411.761,98.409c-0.342,2.764-1.336,5.164-3.015,7.382c-0.301,0.398,0.325,0.817,0.663,0.511 c2.199-1.995,3.344-4.935,3.04-7.894C412.403,97.964,411.815,97.971,411.761,98.409L411.761,98.409z"/>
            </g>
          </g>
          <g>
            <g>
              <path style="fill:#2B1F2D;" d="M411.587,105.863c-0.723,0.917-1.587,1.758-2.4,2.597c-0.825,0.85-1.807,1.573-2.563,2.485 c-0.301,0.364,0.071,0.922,0.521,0.675c2.136-1.175,3.503-3.571,4.565-5.661 C411.747,105.883,411.645,105.789,411.587,105.863L411.587,105.863z"/>
            </g>
          </g>
        </g>
        <g style="opacity:0.5;">
          <g>
            <path style="fill:#FFFFFF;" d="M392.033,96.365c1.906-2.679,3.246-4.966,6.11-6.869c4.049-2.69,6.633-1.918,10.874-0.91 c0.336,0.08,0.597-0.333,0.342-0.588c-2.474-2.467-6.976-2.183-9.781-0.663c-4.055,2.198-5.615,5.097-7.747,8.912 C391.755,96.381,391.947,96.486,392.033,96.365L392.033,96.365z"/>
          </g>
        </g>
      </g>
    </g>
  </g>
</svg>