<?xml version="1.0" encoding="utf-8"?>
<svg viewBox="47.2898 51.4863 187.9537 187.7181" width="187.9537" height="187.7181" xmlns="http://www.w3.org/2000/svg">
  <path style="fill:#FFB6C3;" d="M139.093,51.522C106.419,50.287,32.902,81,49.77,163.85c16.867,82.85,103.284,83.903,151.904,51.928 C255.949,180.083,250.706,55.738,139.093,51.522z" transform="matrix(1, 0, 0, 1, 3.552713678800501e-15, 0)"/>
  <g transform="matrix(1, 0, 0, 1, 3.552713678800501e-15, 0)">
    <g>
      <path style="fill:#FFC46E;" d="M161.599,197.637h-43.687c-21.843,2.01-31.965,26.653-31.965,26.653 c17.134,15.23,53.808,14.913,53.808,14.913s36.674,0.317,53.808-14.913C193.564,224.291,183.442,199.647,161.599,197.637z"/>
      <path style="fill:#FFE6C2;" d="M155.928,208.807c-1.551-2.911-1.148-7.277-0.397-10.817h-31.55 c0.75,3.54,1.154,7.907-0.397,10.817c-2.777,5.21-13.374,12.385-13.489,26.791c15.073,3.728,29.661,3.606,29.661,3.606 s14.588,0.122,29.661-3.606C169.302,221.193,158.704,214.017,155.928,208.807z"/>
      <path style="opacity:0.5;fill:#FFC46E;" d="M139.755,225.601c0,0,26.34-0.814,48.177-11.06 c-5.115-7.13-13.787-15.749-26.334-16.903h-43.687c-12.547,1.154-21.219,9.773-26.334,16.903 C113.415,224.787,139.755,225.601,139.755,225.601z"/>
      <g>
        <g>
          <path style="fill:#5B1A1A;" d="M194.252,224.039c-2.914-6.996-7.769-13.623-13.465-18.581 c-4.538-3.951-9.908-6.925-15.839-8.124c-3.932-0.795-7.867-0.238-11.843-0.007c-7.775,0.452-15.063,0.68-22.821,0.229 c-4.057-0.236-8.282-0.846-12.348-0.717c-5.686,0.18-11.497,2.828-16.064,6.073c-7.231,5.138-13.266,12.923-16.683,21.128 c-0.371,0.89,1.08,1.278,1.446,0.399c2.705-6.496,7.612-13.161,13.079-17.919c4.917-4.28,11.524-7.926,18.192-8.182 c3.416-0.131,6.986,0.406,10.396,0.604c6.447,0.375,12.488,0.601,18.917,0.228c10.249-0.596,18.991-1.848,28.172,4.08 c7.563,4.883,14.045,13.1,17.414,21.189C193.171,225.316,194.623,224.931,194.252,224.039L194.252,224.039z"/>
        </g>
      </g>
    </g>
    <g>
      <g>
        <path style="fill:#8A312D;" d="M218.121,110.279c-10.019-31.922-47.715-46.028-78.365-48.125 c-30.65,2.097-68.346,16.203-78.365,48.125c-10.275,32.738-6.605,64.467,10.252,84.69 c20.134,24.154,68.113,25.631,68.113,25.631s47.979-1.477,68.113-25.631C224.725,174.747,228.396,143.017,218.121,110.279z"/>
        <g>
          <g>
            <g>
              <path style="fill:#5B1A1A;" d="M120.865,65.121c3.714,10.178,5.457,20.505,6.71,31.234c0.061,0.523,0.889,0.53,0.828,0 c-1.229-10.632-2.32-21.696-7.352-31.312C120.998,64.942,120.825,65.012,120.865,65.121L120.865,65.121z"/>
            </g>
          </g>
          <g>
            <g>
              <path style="fill:#5B1A1A;" d="M104.269,70.49c6.505,8.692,11.804,17.725,15.356,28.029c0.176,0.51,0.99,0.292,0.814-0.224 c-3.484-10.23-8.722-19.911-16.096-27.861C104.307,70.395,104.236,70.447,104.269,70.49L104.269,70.49z"/>
            </g>
          </g>
          <g>
            <g>
              <path style="fill:#5B1A1A;" d="M89.62,76.978c7.118,8.273,13.772,16.481,18.875,26.188c0.285,0.543,1.109,0.062,0.823-0.481 c-5.012-9.508-11.347-18.812-19.62-25.784C89.644,76.856,89.574,76.925,89.62,76.978L89.62,76.978z"/>
            </g>
          </g>
          <g>
            <g>
              <path style="fill:#5B1A1A;" d="M75.23,89.079c4.629,3.018,8.721,6.658,12.471,10.695c0.353,0.38,0.893-0.178,0.563-0.563 c-3.645-4.259-8.062-7.592-13.003-10.186C75.226,89.006,75.196,89.057,75.23,89.079L75.23,89.079z"/>
            </g>
          </g>
          <g>
            <g>
              <path style="fill:#5B1A1A;" d="M63.031,105.958c9.238,5.363,17.76,11.14,25.406,18.657c0.402,0.395,1.014-0.217,0.619-0.619 c-7.408-7.523-16.17-14.129-25.953-18.209C63.004,105.745,62.942,105.906,63.031,105.958L63.031,105.958z"/>
            </g>
          </g>
          <g>
            <g>
              <path style="fill:#5B1A1A;" d="M57.941,126.11c9.335,2.311,17.892,4.986,26.397,9.604c0.486,0.264,0.912-0.461,0.434-0.742 c-8.095-4.763-17.393-8.317-26.806-9.046C57.86,125.918,57.839,126.085,57.941,126.11L57.941,126.11z"/>
            </g>
          </g>
          <g>
            <g>
              <path style="fill:#5B1A1A;" d="M56.031,146.148c8.88,1.217,17.641,2.189,26.459,3.897c0.449,0.087,0.642-0.567,0.191-0.693 c-8.365-2.34-17.918-3.891-26.617-3.45C55.932,145.909,55.884,146.128,56.031,146.148L56.031,146.148z"/>
            </g>
          </g>
          <g>
            <g>
              <path style="fill:#5B1A1A;" d="M57.803,163.496c8.364-0.959,16.611-1.763,25.035-1.894c0.723-0.011,0.726-1.126,0-1.125 c-8.392,0.007-16.911,0.787-25.06,2.835C57.678,163.337,57.696,163.509,57.803,163.496L57.803,163.496z"/>
            </g>
          </g>
          <g>
            <g>
              <path style="fill:#5B1A1A;" d="M64.628,183.779c6.582-3.96,13.122-7.29,20.243-10.197c0.49-0.2,0.297-0.998-0.224-0.814 c-7.134,2.529-14.12,6.185-20.215,10.673C64.233,183.587,64.407,183.912,64.628,183.779L64.628,183.779z"/>
            </g>
          </g>
          <g>
            <g>
              <path style="fill:#5B1A1A;" d="M80.585,202.72c4.311-5.668,9.558-10.324,15.803-13.765c0.669-0.368,0.063-1.413-0.599-1.025 c-6.247,3.658-11.596,8.522-15.662,14.523C79.93,202.741,80.383,202.985,80.585,202.72L80.585,202.72z"/>
            </g>
          </g>
          <g>
            <g>
              <path style="fill:#5B1A1A;" d="M100.125,212.075c3.27-5.591,7.03-10.125,11.846-14.437c0.396-0.355-0.144-1.08-0.577-0.749 c-5.095,3.889-8.994,9.16-11.701,14.933C99.559,212.11,99.96,212.358,100.125,212.075L100.125,212.075z"/>
            </g>
          </g>
          <g>
            <g>
              <path style="fill:#5B1A1A;" d="M118.571,217.462c1.588-6.945,4.429-12.832,8.927-18.358c0.387-0.476-0.272-1.162-0.685-0.685 c-4.605,5.316-7.727,11.931-8.844,18.877C117.906,217.684,118.479,217.862,118.571,217.462L118.571,217.462z"/>
            </g>
          </g>
          <g>
            <g>
              <path style="fill:#5B1A1A;" d="M158.46,65.043c-5.031,9.615-6.123,20.681-7.352,31.312c-0.061,0.529,0.767,0.524,0.828,0 c1.253-10.731,2.996-21.057,6.709-31.234C158.685,65.013,158.513,64.941,158.46,65.043L158.46,65.043z"/>
            </g>
          </g>
          <g>
            <g>
              <path style="fill:#5B1A1A;" d="M175.169,70.433c-7.374,7.95-12.612,17.631-16.096,27.861 c-0.176,0.516,0.637,0.735,0.814,0.224c3.551-10.302,8.851-19.337,15.357-28.029 C175.274,70.447,175.204,70.395,175.169,70.433L175.169,70.433z"/>
            </g>
          </g>
          <g>
            <g>
              <path style="fill:#5B1A1A;" d="M189.813,76.901c-8.272,6.972-14.609,16.276-19.62,25.784 c-0.286,0.542,0.537,1.025,0.823,0.481c5.103-9.708,11.756-17.913,18.875-26.188 C189.937,76.925,189.867,76.856,189.813,76.901L189.813,76.901z"/>
            </g>
          </g>
          <g>
            <g>
              <path style="fill:#5B1A1A;" d="M204.249,89.025c-4.941,2.594-9.358,5.926-13.003,10.186c-0.33,0.385,0.211,0.943,0.564,0.563 c3.751-4.038,7.842-7.676,12.471-10.695C204.314,89.057,204.285,89.006,204.249,89.025L204.249,89.025z"/>
            </g>
          </g>
          <g>
            <g>
              <path style="fill:#5B1A1A;" d="M216.407,105.786c-9.783,4.081-18.544,10.685-25.953,18.209 c-0.396,0.402,0.217,1.014,0.619,0.619c7.645-7.516,16.169-13.294,25.406-18.657 C216.568,105.907,216.508,105.744,216.407,105.786L216.407,105.786z"/>
            </g>
          </g>
          <g>
            <g>
              <path style="fill:#5B1A1A;" d="M221.545,125.926c-9.413,0.73-18.711,4.283-26.806,9.046 c-0.477,0.281-0.052,1.006,0.434,0.742c8.505-4.618,17.062-7.293,26.397-9.604 C221.671,126.085,221.652,125.918,221.545,125.926L221.545,125.926z"/>
            </g>
          </g>
          <g>
            <g>
              <path style="fill:#5B1A1A;" d="M223.447,145.902c-8.699-0.442-18.252,1.109-26.617,3.45c-0.45,0.126-0.259,0.78,0.191,0.693 c8.816-1.708,17.579-2.68,26.459-3.897C223.625,146.128,223.58,145.909,223.447,145.902L223.447,145.902z"/>
            </g>
          </g>
          <g>
            <g>
              <path style="fill:#5B1A1A;" d="M221.733,163.312c-8.149-2.048-16.669-2.828-25.06-2.835c-0.724-0.001-0.724,1.114,0,1.125 c8.424,0.132,16.672,0.936,25.035,1.894C221.814,163.508,221.834,163.337,221.733,163.312L221.733,163.312z"/>
            </g>
          </g>
          <g>
            <g>
              <path style="fill:#5B1A1A;" d="M215.08,183.442c-6.095-4.488-13.08-8.143-20.215-10.673c-0.52-0.185-0.715,0.613-0.224,0.814 c7.12,2.907,13.66,6.236,20.242,10.197C215.104,183.911,215.278,183.587,215.08,183.442L215.08,183.442z"/>
            </g>
          </g>
          <g>
            <g>
              <path style="fill:#5B1A1A;" d="M199.385,202.452c-4.066-6.001-9.416-10.865-15.662-14.523 c-0.661-0.387-1.269,0.657-0.599,1.025c6.245,3.441,11.493,8.098,15.803,13.765 C199.128,202.985,199.581,202.741,199.385,202.452L199.385,202.452z"/>
            </g>
          </g>
          <g>
            <g>
              <path style="fill:#5B1A1A;" d="M179.818,211.823c-2.707-5.773-6.605-11.044-11.701-14.933 c-0.43-0.328-0.978,0.39-0.577,0.749c4.816,4.312,8.576,8.845,11.846,14.437C179.551,212.357,179.952,212.11,179.818,211.823 L179.818,211.823z"/>
            </g>
          </g>
          <g>
            <g>
              <path style="fill:#5B1A1A;" d="M161.543,217.296c-1.118-6.947-4.24-13.561-8.844-18.877 c-0.413-0.476-1.072,0.209-0.685,0.685c4.498,5.526,7.339,11.413,8.927,18.358 C161.031,217.861,161.605,217.685,161.543,217.296L161.543,217.296z"/>
            </g>
          </g>
          <g>
            <g>
              <path style="fill:#5B1A1A;" d="M139.554,62.666c-0.394,10.842-1.035,21.894-0.391,32.732c0.033,0.563,0.841,0.563,0.875,0 c0.644-10.839,0.003-21.888-0.391-32.732C139.646,62.606,139.557,62.606,139.554,62.666L139.554,62.666z"/>
            </g>
          </g>
          <g>
            <g>
              <path style="fill:#5B1A1A;" d="M139.773,220.393c0.24-6.951,0.219-13.912,0.266-20.867c0.004-0.563-0.879-0.564-0.875,0 c0.046,6.955,0.025,13.915,0.266,20.867C139.437,220.615,139.766,220.615,139.773,220.393L139.773,220.393z"/>
            </g>
          </g>
        </g>
        <g>
          <g>
            <g>
              <path style="fill:#AF4545;" d="M119.128,72.86c1.578,4.087,2.479,8.382,3.992,12.466c0.101,0.273,0.593,0.264,0.552-0.075 c-0.513-4.297-2.469-8.609-4.33-12.482C119.286,72.652,119.08,72.736,119.128,72.86L119.128,72.86z"/>
            </g>
          </g>
          <g>
            <g>
              <path style="fill:#AF4545;" d="M106.7,89.085c1.845,2.362,3.311,4.958,5.057,7.384c0.188,0.26,0.55,0.041,0.425-0.248 c-1.196-2.766-3.211-5.182-5.217-7.401C106.799,88.636,106.555,88.9,106.7,89.085L106.7,89.085z"/>
            </g>
          </g>
          <g>
            <g>
              <path style="fill:#AF4545;" d="M76.073,77.818c4.356,2.696,8.075,5.937,11.668,9.563c0.305,0.307,0.722-0.142,0.464-0.464 c-3.187-3.979-7.423-7.118-11.961-9.392C76.05,77.427,75.885,77.702,76.073,77.818L76.073,77.818z"/>
            </g>
          </g>
          <g>
            <g>
              <path style="fill:#AF4545;" d="M76.989,83.25c2.98,1.95,5.297,4.387,7.798,6.876c0.269,0.268,0.775-0.089,0.543-0.419 c-2.027-2.883-5.087-5.111-8.104-6.862C76.963,82.693,76.738,83.086,76.989,83.25L76.989,83.25z"/>
            </g>
          </g>
          <g>
            <g>
              <path style="fill:#AF4545;" d="M64.415,123.707c5.51,1.084,10.16,3.262,15.203,5.629c0.305,0.143,0.523-0.246,0.26-0.445 c-4.335-3.284-10.092-4.893-15.42-5.506C64.275,123.364,64.234,123.672,64.415,123.707L64.415,123.707z"/>
            </g>
          </g>
          <g>
            <g>
              <path style="fill:#AF4545;" d="M72.755,122.395c2.461,1.077,4.792,2.454,7.252,3.514c0.448,0.193,0.819-0.39,0.39-0.668 c-2.248-1.454-4.929-2.421-7.426-3.36C72.676,121.769,72.463,122.267,72.755,122.395L72.755,122.395z"/>
            </g>
          </g>
          <g>
            <g>
              <path style="fill:#AF4545;" d="M70.578,142.589c1.134,0.088,2.214,0.32,3.274,0.724c1.056,0.402,1.946,1.043,2.955,1.53 c0.365,0.176,0.756-0.267,0.447-0.58c-1.649-1.669-4.423-2.175-6.677-2.143C70.273,142.125,70.28,142.566,70.578,142.589 L70.578,142.589z"/>
            </g>
          </g>
          <g>
            <g>
              <path style="fill:#AF4545;" d="M68.035,172.084c2.035-1.309,4.101-1.853,6.43-2.349c0.376-0.08,0.29-0.676-0.09-0.668 c-2.412,0.051-4.75,1.198-6.617,2.658C67.554,171.885,67.819,172.223,68.035,172.084L68.035,172.084z"/>
            </g>
          </g>
          <g>
            <g>
              <path style="fill:#AF4545;" d="M64.802,177.409c3.672-2.367,7.731-3.099,11.779-4.506c0.363-0.126,0.213-0.621-0.156-0.565 c-4.198,0.641-8.427,2.141-11.848,4.686C64.353,177.192,64.556,177.568,64.802,177.409L64.802,177.409z"/>
            </g>
          </g>
          <g>
            <g>
              <path style="fill:#AF4545;" d="M77.524,195.943c1.307-1.318,2.748-2.472,4.335-3.437c1.45-0.881,3.064-1.358,4.533-2.173 c0.224-0.125,0.059-0.42-0.162-0.386c-3.381,0.516-6.692,3.342-8.904,5.796C77.205,195.878,77.396,196.073,77.524,195.943 L77.524,195.943z"/>
            </g>
          </g>
          <g>
            <g>
              <path style="fill:#AF4545;" d="M81.23,210.411c2.185-4.881,6.675-8.085,10.659-11.397c0.304-0.253-0.102-0.787-0.426-0.552 c-4.39,3.188-8.25,6.822-10.301,11.921C81.145,210.421,81.212,210.449,81.23,210.411L81.23,210.411z"/>
            </g>
          </g>
          <g>
            <g>
              <path style="fill:#AF4545;" d="M84.979,210.813c2.44-3.57,5.315-6.65,8.528-9.53c0.272-0.244-0.099-0.744-0.398-0.515 c-3.471,2.663-6.309,6.052-8.514,9.82C84.448,210.838,84.818,211.047,84.979,210.813L84.979,210.813z"/>
            </g>
          </g>
          <g>
            <g>
              <path style="fill:#AF4545;" d="M144.753,57.858c-1.07,3.559-1.555,7.236-1.139,10.943c0.044,0.394,0.641,0.417,0.633,0 c-0.069-3.664,0.141-7.235,0.947-10.821C145.258,57.693,144.838,57.576,144.753,57.858L144.753,57.858z"/>
            </g>
          </g>
          <g>
            <g>
              <path style="fill:#AF4545;" d="M147.336,66.638c-0.684,3.066-0.816,6.103-0.245,9.199c0.058,0.315,0.596,0.247,0.564-0.076 c-0.302-2.994-0.223-5.975,0.405-8.923C148.159,66.367,147.441,66.165,147.336,66.638L147.336,66.638z"/>
            </g>
          </g>
          <g>
            <g>
              <path style="fill:#AF4545;" d="M164.102,78.912c-3.456,3.79-6.649,8.803-7.383,13.978c-0.037,0.258,0.302,0.362,0.395,0.109 c1.895-5.141,3.611-9.64,7.12-13.955C164.309,78.953,164.185,78.821,164.102,78.912L164.102,78.912z"/>
            </g>
          </g>
          <g>
            <g>
              <path style="fill:#AF4545;" d="M190.123,84.197c-4.37,2.393-8.249,5.724-10.926,9.96c-0.124,0.196,0.171,0.352,0.304,0.177 c3.03-3.968,6.432-7.37,10.682-10.036C190.246,84.258,190.19,84.16,190.123,84.197L190.123,84.197z"/>
            </g>
          </g>
          <g>
            <g>
              <path style="fill:#AF4545;" d="M190.429,87.166c-2.683,1.628-5.309,3.677-7.164,6.235c-0.173,0.238,0.207,0.524,0.405,0.312 c2.163-2.315,4.289-4.451,6.978-6.173C190.882,87.391,190.669,87.02,190.429,87.166L190.429,87.166z"/>
            </g>
          </g>
          <g>
            <g>
              <path style="fill:#AF4545;" d="M209.566,117.937c-4.038,1.269-7.962,3.145-11.318,5.741c-0.195,0.151,0.057,0.471,0.263,0.34 c3.59-2.281,7.152-4.243,11.149-5.743C209.868,118.198,209.786,117.868,209.566,117.937L209.566,117.937z"/>
            </g>
          </g>
          <g>
            <g>
              <path style="fill:#AF4545;" d="M216.281,139.388c-3.736,0.1-7.51,0.613-11.057,1.824c-0.355,0.121-0.214,0.65,0.156,0.565 c3.626-0.829,7.201-1.612,10.901-2.049C216.492,139.703,216.505,139.382,216.281,139.388L216.281,139.388z"/>
            </g>
          </g>
          <g>
            <g>
              <path style="fill:#AF4545;" d="M217.09,141.592c-5.616,0.158-11.442,1.289-16.592,3.568 c-0.287,0.127-0.082,0.591,0.212,0.503c5.468-1.634,10.751-3.004,16.412-3.83 C217.261,141.814,217.227,141.589,217.09,141.592L217.09,141.592z"/>
            </g>
          </g>
          <g>
            <g>
              <path style="fill:#AF4545;" d="M217.656,158.96c-3.898-1.155-7.807-1.342-11.804-0.584c-0.421,0.08-0.234,0.691,0.174,0.633 c3.862-0.549,7.722-0.486,11.568,0.177C217.74,159.212,217.804,159.004,217.656,158.96L217.656,158.96z"/>
            </g>
          </g>
          <g>
            <g>
              <path style="fill:#AF4545;" d="M226.926,174.488c-2.733-3.053-6.546-5.519-10.59-6.371c-0.293-0.062-0.392,0.334-0.122,0.441 c3.939,1.557,7.318,3.321,10.579,6.063C226.885,174.698,227.007,174.579,226.926,174.488L226.926,174.488z"/>
            </g>
          </g>
          <g>
            <g>
              <path style="fill:#AF4545;" d="M222.886,178.447c-5.505-4.786-12.1-9.093-19.23-10.95c-0.216-0.056-0.377,0.277-0.158,0.375 c6.881,3.057,13.253,6.054,19.214,10.749C222.833,178.717,223.007,178.553,222.886,178.447L222.886,178.447z"/>
            </g>
          </g>
          <g>
            <g>
              <path style="fill:#AF4545;" d="M219.632,181.885c-4.191-3.783-9.069-7.033-13.997-9.767c-0.291-0.161-0.543,0.272-0.26,0.445 c4.864,2.978,9.46,6.222,14.122,9.497C219.6,182.133,219.725,181.969,219.632,181.885L219.632,181.885z"/>
            </g>
          </g>
          <g>
            <g>
              <path style="fill:#AF4545;" d="M180.953,207.285c-1.331-2.876-3.451-5.868-5.942-7.856c-0.192-0.153-0.556,0.053-0.377,0.291 c1.966,2.614,4.127,5.121,6.163,7.685C180.872,207.5,180.997,207.379,180.953,207.285L180.953,207.285z"/>
            </g>
          </g>
          <g>
            <g>
              <path style="fill:#AF4545;" d="M184.51,209.447c-1.323-3.219-3.712-6.487-6.252-8.863c-0.323-0.302-0.731,0.142-0.472,0.472 c2.201,2.814,4.326,5.698,6.538,8.499C184.392,209.64,184.552,209.548,184.51,209.447L184.51,209.447z"/>
            </g>
          </g>
          <g>
            <g>
              <path style="fill:#AF4545;" d="M153.048,224.152c0.417-4.366-0.594-9.532-2.413-13.501c-0.179-0.392-0.77-0.108-0.675,0.284 c0.536,2.207,1.284,4.353,1.771,6.575c0.483,2.205,0.718,4.456,1.213,6.656C152.958,224.227,153.043,224.207,153.048,224.152 L153.048,224.152z"/>
            </g>
          </g>
          <g>
            <g>
              <path style="fill:#AF4545;" d="M156.225,222.318c0.441-3.175-1.122-7.253-2.644-9.995c-0.166-0.298-0.662-0.098-0.557,0.235 c0.973,3.08,2.84,6.434,2.878,9.716C155.905,222.452,156.199,222.507,156.225,222.318L156.225,222.318z"/>
            </g>
          </g>
          <g>
            <g>
              <path style="fill:#AF4545;" d="M111.549,213.021c0.38-1.253,0.58-2.521,1.085-3.739c0.511-1.233,1.203-2.375,1.771-3.581 c0.172-0.366-0.319-0.663-0.546-0.319c-1.345,2.027-3.068,5.125-2.388,7.64C111.481,213.061,111.537,213.059,111.549,213.021 L111.549,213.021z"/>
            </g>
          </g>
          <g>
            <g>
              <path style="fill:#AF4545;" d="M114.221,213.471c0.503-3.239,1.614-6.15,3.265-8.976c0.148-0.253-0.219-0.451-0.385-0.225 c-1.959,2.68-2.94,5.885-2.961,9.19C114.14,213.505,114.214,213.518,114.221,213.471L114.221,213.471z"/>
            </g>
          </g>
        </g>
        <path style="opacity:0.5;fill:#8A312D;" d="M190.242,123.409c3.076-1.1,7.889-4.157,7.933-12.542 c0.07-13.254-18.017-17.58-23.747-3.753c-18.946-13.157-50.387-13.17-69.357-0.038c-5.747-13.782-23.802-9.451-23.732,3.791 c0.044,8.333,4.797,11.403,7.875,12.521c-13.451,20.391-13.631,46.452-7.116,59.483c12.654,25.308,57.623,26.042,57.623,26.042 s44.969-0.734,57.622-26.042C203.856,169.844,203.679,143.797,190.242,123.409z"/>
      </g>
      <g>
        <g>
          <path style="fill:#FFC46E;" d="M173.633,104.976c-18.455-12.991-49.369-12.991-67.824,0 c-27.511,19.367-30.204,56.985-22.011,73.369c12.281,24.562,55.924,25.274,55.924,25.274s43.643-0.712,55.923-25.274 C203.836,161.96,201.144,124.342,173.633,104.976z"/>
          <path style="fill:#FFE6C2;" d="M152.416,129.96c4.497-13.618,10.617-23.077,14.992-28.649c-16.421-8.094-38.955-8.094-55.376,0 c4.375,5.571,10.495,15.031,14.992,28.649c7.79,23.592,3.394,31.806,3.394,31.806h18.603 C149.022,161.766,144.626,153.552,152.416,129.96z"/>
          <path style="opacity:0.5;fill:#FFC46E;" d="M195.644,173.443c-12.281,24.562-55.923,25.274-55.923,25.274 s-43.643-0.712-55.924-25.274c-2.305-4.611-3.749-10.904-4.02-17.998c-0.334,9.078,1.195,17.25,4.02,22.899 c12.281,24.562,55.924,25.274,55.924,25.274s43.643-0.712,55.923-25.274c2.824-5.648,4.354-13.821,4.02-22.899 C199.393,162.54,197.949,168.833,195.644,173.443z"/>
          <path style="fill:#FFE6C2;" d="M154.789,170.738c-3.394-7.987-8.328-8.972-15.068-8.972c-6.74,0-11.674,0.984-15.068,8.972 c-5.57,13.109-3.591,24.085,15.068,24.085S160.359,183.846,154.789,170.738z"/>
          <g>
            <g>
              <path style="fill:#5B1A1A;" d="M174.011,104.328c-26.225-17.865-65.225-11.269-83.254,14.845 c-12.811,18.555-19.025,51.853-0.414,68.939c12.526,11.499,32.983,16.401,49.73,16.248 c18.394-0.168,42.462-5.836,53.72-21.522c7.501-10.451,7.728-25.114,5.549-37.293 C196.39,129.039,187.656,114.188,174.011,104.328c-0.784-0.566-1.533,0.734-0.757,1.295 c20.408,14.747,32.486,46.014,22.659,70.302c-8.004,19.783-34.366,25.598-53.45,26.814 c-13.296,0.848-28.288-2.596-40.116-8.417c-10.653-5.242-18.444-13.5-20.828-25.321c-2.449-12.14-0.666-25.294,3.916-36.716 c6.425-16.019,19.265-28.979,36.024-33.794c17.043-4.897,36.972-2.967,51.796,7.132 C174.054,106.168,174.805,104.869,174.011,104.328z"/>
            </g>
          </g>
        </g>
        <g>
          <path style="fill:#FFC46E;" d="M93.196,121.222c0,0-10.073-0.792-10.136-12.757c-0.07-13.233,18.513-17.301,23.499-2.447 L93.196,121.222z"/>
          <g>
            <g>
              <path style="fill:#5B1A1A;" d="M93.196,120.472c-7.899-0.75-11.476-10.583-8.253-17.173c1.777-3.633,5.633-5.932,9.648-5.979 c5.562-0.065,9.417,3.98,11.245,8.898c0.333,0.897,1.784,0.509,1.446-0.399c-1.855-4.991-5.448-9.206-11-9.896 c-4.786-0.595-9.719,1.678-12.211,5.845c-4.565,7.633-0.209,19.319,9.125,20.205 C94.156,122.063,94.15,120.563,93.196,120.472L93.196,120.472z"/>
            </g>
          </g>
          <g>
            <path style="fill:#FFE6C2;" d="M93.72,118.95c0,0-6.109-1.739-6.117-8.563c-0.009-8.33,9.401-13.993,14.662-1.492"/>
            <g>
              <path style="fill:#5B1A1A;" d="M93.986,117.986c-4.814-1.447-6.535-7.229-4.549-11.55c0.915-1.991,2.771-3.88,5.112-3.827 c3.555,0.081,5.608,3.989,6.853,6.791c0.521,1.174,2.245,0.158,1.727-1.009c-1.504-3.384-4.004-7.408-8.112-7.753 c-3.039-0.255-5.656,1.744-7.065,4.309c-3.013,5.484-0.746,13.09,5.502,14.968C94.69,120.286,95.217,118.356,93.986,117.986 L93.986,117.986z"/>
            </g>
          </g>
        </g>
        <g>
          <path style="fill:#FFC46E;" d="M186.315,121.222c0,0,10.072-0.792,10.136-12.757c0.07-13.233-18.513-17.301-23.499-2.447 L186.315,121.222z"/>
          <g>
            <g>
              <path style="fill:#5B1A1A;" d="M186.315,121.972c9.335-0.886,13.69-12.572,9.125-20.205 c-2.415-4.038-7.133-6.312-11.788-5.886c-5.748,0.526-9.511,4.792-11.423,9.937c-0.337,0.906,1.113,1.297,1.446,0.399 c1.78-4.788,5.424-8.744,10.822-8.887c4.174-0.111,8.21,2.199,10.071,5.969c3.246,6.574-0.381,16.426-8.253,17.173 C185.362,120.563,185.353,122.063,186.315,121.972L186.315,121.972z"/>
            </g>
          </g>
          <g>
            <path style="fill:#FFE6C2;" d="M185.791,118.95c0,0,6.109-1.739,6.116-8.563c0.009-8.33-9.401-13.993-14.662-1.492"/>
            <g>
              <path style="fill:#5B1A1A;" d="M186.056,119.915c6.258-1.881,8.501-9.479,5.502-14.968c-1.363-2.495-3.883-4.462-6.831-4.323 c-4.226,0.2-6.815,4.321-8.346,7.768c-0.518,1.166,1.205,2.185,1.727,1.009c1.216-2.736,3.131-6.44,6.516-6.759 c2.487-0.234,4.472,1.676,5.449,3.794c1.993,4.317,0.259,10.105-4.549,11.55 C184.295,118.356,184.819,120.286,186.056,119.915L186.056,119.915z"/>
            </g>
          </g>
        </g>
        <g>
          <g>
            <g>
              <path style="fill:#FF8285;" d="M99.109,177.296c-11.275-2.585-7.669-10.295,0-8.461 C109.726,171.373,108.335,179.411,99.109,177.296z"/>
              <path style="fill:#FF8285;" d="M180.332,177.296c11.275-2.585,7.669-10.295,0-8.461 C169.715,171.373,171.106,179.411,180.332,177.296z"/>
            </g>
            <g>
              <g>
                <path style="fill:#FFFFFF;" d="M168.815,143.379c11.696-0.296,13.917,13.769,9.919,20.135 c-1.999,3.183-4.498,5.395-9.919,5.395c-5.247,0-7.921-2.212-9.919-5.395C154.898,157.148,157.119,143.083,168.815,143.379z "/>
                <ellipse style="fill:#5B1A1A;" cx="165.771" cy="156.561" rx="7.399" ry="9.146"/>
              </g>
              <g>
                <path style="fill:#FFC46E;" d="M181.136,146.012l-27.591,3.503C153.545,149.515,162.751,130.86,181.136,146.012z"/>
                <g>
                  <g>
                    <path style="fill:#5B1A1A;" d="M181.136,145.262c-4.927,0.626-9.853,1.251-14.78,1.877 c-3.184,0.404-6.369,0.809-9.553,1.213c-0.775,0.098-1.775,0.405-2.555,0.324c-0.135-0.014-0.513,0.138-0.657,0.083 c0.242,0.151,0.484,0.302,0.726,0.454c0.169-1.576,0.66-3.054,1.475-4.434c0.439-0.858-0.855-1.618-1.295-0.757 c-0.904,1.766-1.555,3.504-1.702,5.493c-0.027,0.369,0.368,0.799,0.75,0.75c9.197-1.168,18.394-2.335,27.591-3.503 C182.08,146.642,182.092,145.141,181.136,145.262L181.136,145.262z"/>
                  </g>
                </g>
                <path style="fill:#5B1A1A;" d="M173.946,135.203c-1.316,0.132-11.541,1.904-13.693,2.862s-0.991,3.925,0.739,3.59 c1.729-0.336,13.593-2.676,13.593-2.676C176.911,138.15,175.975,135,173.946,135.203z"/>
              </g>
            </g>
            <g>
              <g>
                <path style="fill:#FFFFFF;" d="M110.558,143.379c-11.696-0.296-13.917,13.769-9.919,20.135 c1.999,3.183,4.498,5.395,9.919,5.395c5.247,0,7.921-2.212,9.919-5.395C124.474,157.148,122.254,143.083,110.558,143.379z"/>
                <ellipse style="fill:#5B1A1A;" cx="113.602" cy="156.561" rx="7.399" ry="9.146"/>
              </g>
              <g>
                <path style="fill:#FFC46E;" d="M98.237,146.012l27.591,3.503C125.828,149.515,116.621,130.86,98.237,146.012z"/>
                <g>
                  <g>
                    <path style="fill:#5B1A1A;" d="M98.237,146.762c9.197,1.168,18.394,2.335,27.591,3.503c0.383,0.049,0.777-0.383,0.75-0.75 c-0.146-1.989-0.798-3.727-1.702-5.493c-0.44-0.859-1.735-0.101-1.295,0.757c0.696,1.102,1.131,2.283,1.305,3.544 c-0.09,1.033,0.209,1.178,0.896,0.436c-0.132,0.051-0.364-0.068-0.506-0.064c-0.873,0.021-1.84-0.234-2.705-0.343 c-3.184-0.404-6.369-0.809-9.553-1.213c-4.927-0.626-9.854-1.251-14.78-1.877 C97.282,145.141,97.291,146.642,98.237,146.762L98.237,146.762z"/>
                  </g>
                </g>
                <path style="fill:#5B1A1A;" d="M105.427,135.203c1.316,0.132,11.54,1.904,13.692,2.862c2.152,0.957,0.99,3.925-0.739,3.59 c-1.729-0.336-13.592-2.676-13.592-2.676C102.462,138.15,103.398,135,105.427,135.203z"/>
              </g>
            </g>
          </g>
          <g>
            <g>
              <g>
                <path style="fill:#FFFFFF;" d="M148.197,180.778c0,0-0.597,4.796-1.191,4.676c-0.595-0.119-2.141-3.805-2.141-3.805 S146.177,181.75,148.197,180.778z"/>
                <path style="fill:#FFFFFF;" d="M131.314,180.778c0,0,0.597,4.796,1.191,4.676c0.595-0.119,2.141-3.805,2.141-3.805 S133.334,181.75,131.314,180.778z"/>
              </g>
              <g>
                <g>
                  <g>
                    <path style="fill:#5B1A1A;" d="M138.97,169.973c0,3.182,0,6.364,0,9.546c0,0.965,1.5,0.967,1.5,0c0-3.182,0-6.364,0-9.546 C140.47,169.008,138.97,169.007,138.97,169.973L138.97,169.973z"/>
                  </g>
                </g>
                <g>
                  <g>
                    <path style="fill:#5B1A1A;" d="M127.399,177.508c2.208,5.098,8.909,6.446,12.887,2.542 c0.69-0.677-0.371-1.738-1.061-1.061c-3.336,3.274-8.728,1.925-10.531-2.238 C128.311,175.868,127.018,176.631,127.399,177.508L127.399,177.508z"/>
                  </g>
                </g>
                <g>
                  <g>
                    <path style="fill:#5B1A1A;" d="M150.817,176.751c-1.805,4.167-7.196,5.512-10.531,2.238 c-0.689-0.677-1.751,0.383-1.061,1.061c3.979,3.905,10.678,2.557,12.887-2.542 C152.492,176.632,151.2,175.867,150.817,176.751L150.817,176.751z"/>
                  </g>
                </g>
              </g>
            </g>
            <path style="fill:#5B1A1A;" d="M152.275,159.745c-1.705-3.239-12.554-2.849-12.554-2.849s-10.85-0.39-12.554,2.849 c-1.705,3.239,12.554,13.691,12.554,13.691S153.979,162.984,152.275,159.745z"/>
            <g style="opacity:0.5;">
              <g>
                <path style="fill:#FFFFFF;" d="M129.283,159.93c3.229,0.251,6.486-0.262,9.725-0.262c3.277,0,6.468,0.498,9.727,0.676 c0.568,0.031,0.672-0.838,0.133-0.982c-5.778-1.544-13.991-1.905-19.602,0.445 C129.202,159.834,129.209,159.924,129.283,159.93L129.283,159.93z"/>
              </g>
            </g>
          </g>
          <g>
            <g>
              <g>
                <g>
                  <path style="fill:#5B1A1A;" d="M123.731,167.028c2.643,1.192,5.103,2.565,7.627,3.976c0.27,0.151,0.473-0.229,0.237-0.405 c-2.279-1.695-5.081-2.938-7.81-3.7C123.711,166.879,123.656,166.995,123.731,167.028L123.731,167.028z"/>
                </g>
              </g>
              <g>
                <g>
                  <path style="fill:#5B1A1A;" d="M113.94,171.704c5.653-0.494,10.961-0.365,16.438,1.31c0.369,0.113,0.527-0.465,0.159-0.576 c-5.368-1.616-11.118-2.237-16.628-0.964C113.783,171.503,113.807,171.716,113.94,171.704L113.94,171.704z"/>
                </g>
              </g>
              <g>
                <g>
                  <path style="fill:#5B1A1A;" d="M116.364,176.004c4.533-1.508,8.904-1.672,13.581-0.862 c0.365,0.063,0.528-0.474,0.156-0.565c-4.619-1.126-9.45-0.562-13.8,1.277C116.215,175.89,116.276,176.033,116.364,176.004 L116.364,176.004z"/>
                </g>
              </g>
            </g>
            <g>
              <g>
                <g>
                  <path style="fill:#5B1A1A;" d="M155.656,166.9c-2.727,0.761-5.531,2.005-7.81,3.7c-0.236,0.176-0.033,0.556,0.237,0.405 c2.524-1.412,4.985-2.785,7.627-3.976C155.784,166.995,155.731,166.879,155.656,166.9L155.656,166.9z"/>
                </g>
              </g>
              <g>
                <g>
                  <path style="fill:#5B1A1A;" d="M165.532,171.474c-5.51-1.273-11.26-0.653-16.628,0.964 c-0.367,0.111-0.21,0.689,0.159,0.576c5.48-1.676,10.786-1.803,16.438-1.31 C165.632,171.716,165.66,171.504,165.532,171.474L165.532,171.474z"/>
                </g>
              </g>
              <g>
                <g>
                  <path style="fill:#5B1A1A;" d="M163.141,175.854c-4.351-1.839-9.18-2.403-13.8-1.277c-0.372,0.091-0.21,0.628,0.156,0.565 c4.674-0.81,9.054-0.643,13.581,0.862C163.164,176.033,163.227,175.89,163.141,175.854L163.141,175.854z"/>
                </g>
              </g>
            </g>
          </g>
        </g>
      </g>
    </g>
  </g>
</svg>