<?xml version="1.0" encoding="utf-8"?>
<svg viewBox="610.8006 298.8497 198.687 161.436" width="198.687" height="161.436" xmlns="http://www.w3.org/2000/svg">
  <rect x="414.376" y="291.965" style="fill:#FFB980;" width="161.436" height="161.436" transform="matrix(1, 0, 0, 1, 215.8175811767578, 6.884695053100586)"/>
  <g transform="matrix(1, 0, 0, 1, 215.8175811767578, 6.884695053100586)">
    <path style="fill:#993B24;" d="M503.559,417.184c-32.744-1.424-48.527,7.707-48.645,36.217H536.1 C537.46,437.005,527.599,418.229,503.559,417.184z"/>
    <path style="fill:#FFAB80;" d="M522.86,453.401c-2.698-12.373-13.649-21.636-26.755-21.636c-13.106,0-24.056,9.263-26.755,21.636 H522.86z"/>
    <path style="fill:none;stroke:#482725;stroke-width:2;stroke-miterlimit:10;" d="M536.1,453.401 c1.36-16.396-8.501-35.172-32.541-36.217c-32.744-1.424-48.527,7.707-48.645,36.217"/>
  </g>
  <g transform="matrix(1, 0, 0, 1, 215.8175811767578, 6.884695053100586)">
    <g>
      <path style="fill:#993B24;" d="M437.201,357.693c0,0-15.665-24.895-34.226-5.775c-22.006,22.669,5.341,65.01,34.715,33.014"/>
      <path style="fill:none;stroke:#482725;stroke-width:2;stroke-miterlimit:10;" d="M437.201,357.693 c0,0-15.665-24.895-34.226-5.775c-22.006,22.669,5.341,65.01,34.715,33.014"/>
      <path style="fill:#FF7777;" d="M429.883,365.642c0,0-13.612-14.447-22.138-1.786c-9.82,14.582,7.043,26.365,20.977,16.176 L429.883,365.642z"/>
      <path style="fill:none;stroke:#482725;stroke-width:1.5;stroke-miterlimit:10;" d="M429.883,365.642 c0,0-13.612-14.447-22.138-1.786c-9.82,14.582,7.043,26.365,20.977,16.176L429.883,365.642z"/>
      <path style="fill:#993B24;" d="M551.452,356.997c0,0,15.665-24.895,34.226-5.775c22.006,22.669-5.341,65.01-34.715,33.014"/>
      <path style="fill:none;stroke:#482725;stroke-width:2;stroke-miterlimit:10;" d="M551.452,356.997 c0,0,15.665-24.895,34.226-5.775c22.006,22.669-5.341,65.01-34.715,33.014"/>
      <path style="fill:#FF7777;" d="M558.769,364.946c0,0,13.612-14.447,22.138-1.786c9.82,14.582-7.043,26.365-20.977,16.176 L558.769,364.946z"/>
      <path style="fill:none;stroke:#482725;stroke-width:1.5;stroke-miterlimit:10;" d="M558.769,364.946 c0,0,13.612-14.447,22.138-1.786c9.82,14.582-7.043,26.365-20.977,16.176L558.769,364.946z"/>
      <g>
        <path style="fill:#993B24;" d="M421.731,386.751c-0.886-52.159,26.66-68.771,84.998-66.235 c71.736,3.118,71.244,96.599,24.171,105.405C495.753,432.496,422.616,438.845,421.731,386.751z"/>
      </g>
      <g>
        <path style="fill:#993B24;" d="M421.731,386.751c-0.886-52.159,26.66-68.771,84.998-66.235 c71.736,3.118,71.244,96.599,24.171,105.405C495.753,432.496,422.616,438.845,421.731,386.751z"/>
      </g>
      <g>
        <path style="fill:none;stroke:#482725;stroke-width:2;stroke-miterlimit:10;" d="M421.731,386.751 c-0.886-52.159,26.66-68.771,84.998-66.235c71.736,3.118,71.244,96.599,24.171,105.405 C495.753,432.496,422.616,438.845,421.731,386.751z"/>
      </g>
      <path style="fill:#FFAB80;" d="M548.616,383.376c1.981-4.984,3.093-10.511,3.093-16.336c0-21.931-15.628-39.709-34.905-39.709 c-8.616,0-16.497,3.559-22.586,9.445c-6.088-5.886-13.97-9.445-22.586-9.445c-19.278,0-34.905,17.779-34.905,39.709 c0,7.376,1.774,14.278,4.854,20.197c-3.482,4.003-5.352,8.392-5.171,12.935c0.649,16.354,27.53,28.487,60.04,27.102 c32.51-1.386,58.338-15.766,57.688-32.12C553.968,390.884,551.996,386.906,548.616,383.376z"/>
      <path style="fill:none;stroke:#482725;stroke-width:1.5;stroke-miterlimit:10;" d="M548.616,383.376 c1.981-4.984,3.093-10.511,3.093-16.336c0-21.931-15.628-39.709-34.905-39.709c-8.616,0-16.497,3.559-22.586,9.445 c-6.088-5.886-13.97-9.445-22.586-9.445c-19.278,0-34.905,17.779-34.905,39.709c0,7.376,1.774,14.278,4.854,20.197 c-3.482,4.003-5.352,8.392-5.171,12.935c0.649,16.354,27.53,28.487,60.04,27.102c32.51-1.386,58.338-15.766,57.688-32.12 C553.968,390.884,551.996,386.906,548.616,383.376z"/>
      <g>
        <path style="fill:#F3F3F3;" d="M466.409,390.716L466.409,390.716c-7.431,0.195-13.638-4.946-13.862-11.481l-0.216-6.265 c-0.225-6.535,5.617-11.991,13.048-12.186l0,0c7.431-0.195,13.637,4.946,13.862,11.481l0.215,6.265 C479.682,385.066,473.84,390.522,466.409,390.716"/>
        <path style="fill:none;stroke:#482725;stroke-width:1.5;stroke-miterlimit:10;" d="M466.409,390.716L466.409,390.716 c-7.431,0.195-13.638-4.946-13.862-11.481l-0.216-6.265c-0.225-6.535,5.617-11.991,13.048-12.186l0,0 c7.431-0.195,13.637,4.946,13.862,11.481l0.215,6.265C479.682,385.066,473.84,390.522,466.409,390.716"/>
        <path style="fill:#482725;" d="M479.24,372.265c-0.121-3.536-2.003-6.655-4.874-8.75c-1.073-0.31-2.2-0.47-3.363-0.439 c-6.556,0.172-11.673,6.076-11.429,13.188c0.245,7.112,5.759,12.739,12.316,12.567c0.595-0.016,1.173-0.094,1.741-0.201 c3.635-2.203,5.969-5.928,5.826-10.1L479.24,372.265z"/>
      </g>
      <g>
        <path style="fill:#F3F3F3;" d="M521.034,388.815L521.034,388.815c7.603,0.392,14.139-4.71,14.597-11.397l0.44-6.41 c0.459-6.686-5.333-12.425-12.936-12.818l0,0c-7.603-0.393-14.138,4.71-14.597,11.397l-0.439,6.41 C507.639,382.684,513.431,388.423,521.034,388.815"/>
        <path style="fill:none;stroke:#482725;stroke-width:1.5;stroke-miterlimit:10;" d="M521.034,388.815L521.034,388.815 c7.603,0.392,14.139-4.71,14.597-11.397l0.44-6.41c0.459-6.686-5.333-12.425-12.936-12.818l0,0 c-7.603-0.393-14.138,4.71-14.597,11.397l-0.439,6.41C507.639,382.684,513.431,388.423,521.034,388.815"/>
        <path style="fill:#482725;" d="M508.539,369.587c0.247-3.618,2.284-6.763,5.297-8.834c1.11-0.289,2.27-0.424,3.46-0.363 c6.708,0.346,11.741,6.526,11.243,13.802c-0.5,7.277-6.343,12.895-13.051,12.549c-0.609-0.032-1.198-0.126-1.776-0.251 c-3.646-2.351-5.906-6.226-5.612-10.494L508.539,369.587z"/>
      </g>
      <path style="fill:none;stroke:#482725;stroke-width:1.5;stroke-miterlimit:10;" d="M495.094,385.65c0,0,0.138,6.227-0.008,9.436 "/>
      <g>
        <path style="fill:none;stroke:#482725;stroke-width:1.5;stroke-miterlimit:10;" d="M484.481,392.514 c0,0,0.895,4.239,4.147,4.761c2.703,0.434,4.6-1.051,5.619-2.184c0.478-0.531,1.273-0.548,1.76-0.026 c1.072,1.15,3.072,2.61,5.74,1.56c4.104-1.616,3.734-4.407,3.734-4.407"/>
        <path style="fill:none;stroke:#482725;stroke-miterlimit:10;" d="M482.591,394.516c0,0,1.743-4.016,4.319-1.97"/>
        <path style="fill:none;stroke:#482725;stroke-miterlimit:10;" d="M503.354,392.243c0,0,2.955-1.061,4.319,2.046"/>
      </g>
      <g>
        <path style="fill:#FF7777;" d="M502.569,379.197c-1.275-3.886-15.47-3.713-15.708,0.85c-0.239,4.564,3.983,7.259,8.48,7.32 C499.302,387.419,503.844,383.082,502.569,379.197z"/>
        <path style="fill:none;stroke:#482725;stroke-width:1.5;stroke-miterlimit:10;" d="M502.569,379.197 c-1.275-3.886-15.47-3.713-15.708,0.85c-0.239,4.564,3.983,7.259,8.48,7.32C499.302,387.419,503.844,383.082,502.569,379.197z"/>
        <path style="fill:none;stroke:#FFFFFF;stroke-miterlimit:10;" d="M496.653,378.742c-1.321-0.111-2.991-0.08-4.697,0.399"/>
        <path style="fill:none;stroke:#FFFFFF;stroke-miterlimit:10;" d="M499.356,379.224c0,0-0.577-0.183-1.511-0.335"/>
      </g>
      <ellipse transform="matrix(0.1608 -0.987 0.987 0.1608 -16.4947 784.4026)" style="fill:#FF7777;" cx="453.017" cy="401.901" rx="12.128" ry="12.128"/>
      <circle style="fill:#FF7777;" cx="533.104" cy="401.498" r="12.128"/>
    </g>
    <g>
      <path style="fill:#FF7777;" d="M500.289,426.455c0,0,7.745-13.183,12.092-12.451c4.347,0.731,10.798,8.84,9.966,12.27 c-0.831,3.43-5.618,13.971-7.38,13.978c-1.762,0.007-13.441-5.861-13.441-5.861L500.289,426.455z"/>
      <path style="fill:none;stroke:#482725;stroke-width:1.5;stroke-miterlimit:10;" d="M512.318,424.724 c0,0-0.127-1.999-2.408-1.109c-2.282,0.889-8.689,5.889-6.951,5.882c1.737-0.007,7.981,1.874,9.161-0.725"/>
      <path style="fill:none;stroke:#482725;stroke-width:1.5;stroke-miterlimit:10;" d="M500.289,426.455 c0,0,7.745-13.183,12.092-12.451c4.347,0.731,10.798,8.84,9.966,12.27c-0.831,3.43-5.618,13.971-7.38,13.978 c-1.762,0.007-13.441-5.861-13.441-5.861L500.289,426.455z"/>
      <path style="fill:#FF7777;" d="M494.151,424.621c0,0-10.733-10.795-14.393-8.633c-3.66,2.162-7.938,13.111-6.721,15.761 c1.217,2.65,8.613,11.769,11.213,10.093c2.6-1.675,11.282-9.673,11.282-9.673L494.151,424.621z"/>
      <path style="fill:none;stroke:#482725;stroke-width:1.5;stroke-miterlimit:10;" d="M480.271,428.679 c0,0-0.607-3.044,1.131-3.051c1.737-0.007,11.124,2.171,10.438,3.435c-0.685,1.264-8.738,5.437-9.006,3.819"/>
      <path style="fill:none;stroke:#482725;stroke-width:1.5;stroke-miterlimit:10;" d="M494.151,424.621 c0,0-10.733-10.795-14.393-8.633c-3.66,2.162-7.938,13.111-6.721,15.761c1.217,2.65,8.613,11.769,11.213,10.093 c2.6-1.675,11.282-9.673,11.282-9.673L494.151,424.621z"/>
      <path style="fill:#FF7777;" d="M493.686,422.909c1.877-1.503,7.792-0.85,8.572,1.198c0.78,2.048,1.144,8.781-0.733,10.284 c-1.877,1.504-7.935,1.237-9.461,0.012C490.54,433.178,491.809,424.412,493.686,422.909z"/>
      <path style="fill:none;stroke:#482725;stroke-width:1.5;stroke-miterlimit:10;" d="M493.686,422.909 c1.877-1.503,7.792-0.85,8.572,1.198c0.78,2.048,1.144,8.781-0.733,10.284c-1.877,1.504-7.935,1.237-9.461,0.012 C490.54,433.178,491.809,424.412,493.686,422.909z"/>
    </g>
  </g>
</svg>