<?xml version="1.0" encoding="utf-8"?>
<svg viewBox="270.9072 270.3839 163.0599 172.9727" width="163.0599" height="172.9727" xmlns="http://www.w3.org/2000/svg">
  <g transform="matrix(1, 0, 0, 1, -3.552713678800501e-15, 0)">
    <path style="fill:#FFADBC;" d="M348.781,439.335c-68.79,3.214-88.691-62.577-72.63-89.283 c10.472-17.413,56.062-8.448,47.322-55.655c-4.276-23.098,35.656-31.543,62.852-16.385c27.426,15.287,45.367,37.174,47.524,69.851 s-26.075,36.868-16.111,53.875C427.043,417.621,391.688,437.33,348.781,439.335z"/>
    <path style="fill:#FFADBC;" d="M424.133,382.996c-8.323,8.628-7.061,22.604,2.539,15.18 C436.271,390.752,432.455,374.368,424.133,382.996z"/>
    <path style="fill:#FFADBC;" d="M289.872,319.667c-14.55,0.317-16.117,12.5-1.043,14.262 C303.902,335.69,316.086,319.095,289.872,319.667z"/>
  </g>
  <g transform="matrix(1, 0, 0, 1, -3.552713678800501e-15, 0)">
    <g>
      <path style="fill:#4B496B;" d="M374.952,401.79h-43.687c-21.843,2.009-31.965,26.653-31.965,26.653 c17.134,15.23,53.808,14.913,53.808,14.913s36.674,0.317,53.808-14.913C406.917,428.443,396.796,403.8,374.952,401.79z"/>
      <g>
        <g>
          <path style="fill:#232345;" d="M407.605,428.192c-2.914-6.996-7.769-13.623-13.465-18.581 c-7.1-6.182-15.102-8.622-24.286-8.622c-10.216,0-20.432,0-30.648,0c-8.814,0-16.422,0.705-23.981,6.076 c-7.231,5.138-13.266,12.923-16.683,21.128c-0.371,0.89,1.08,1.278,1.446,0.399c2.705-6.496,7.612-13.161,13.079-17.919 c7.342-6.391,15.314-8.183,24.62-8.183c9.208,0,18.417,0,27.626,0c8.529,0,15.839,0.011,23.431,4.913 c7.564,4.883,14.045,13.099,17.414,21.189C406.525,429.469,407.977,429.084,407.605,428.192L407.605,428.192z"/>
        </g>
      </g>
      <path style="opacity:0.3;fill:#4B496B;" d="M353.074,413.772c0,0,18.838-0.308,35.243-7.484 c-3.836-2.326-8.278-4.03-13.365-4.497h-43.687c-5.1,0.469-9.552,2.181-13.395,4.515 C334.267,413.465,353.074,413.772,353.074,413.772z"/>
      <g>
        <g>
          <g>
            <path style="fill:#232345;" d="M317.571,412.454c-2.756,1.75-6.008,4.481-7.066,7.689c-0.084,0.256,0.27,0.455,0.451,0.262 c1.167-1.245,2.024-2.759,3.169-4.034c1.143-1.273,2.425-2.441,3.766-3.503C318.126,412.682,317.821,412.295,317.571,412.454 L317.571,412.454z"/>
          </g>
        </g>
        <g>
          <g>
            <path style="fill:#232345;" d="M315.196,417.884c-2.243,2.078-4.994,5.06-5.684,8.129c-0.086,0.382,0.392,0.562,0.61,0.257 c0.89-1.243,1.451-2.734,2.291-4.025c0.926-1.424,1.986-2.759,3.14-4.005C315.773,418.001,315.435,417.663,315.196,417.884 L315.196,417.884z"/>
          </g>
        </g>
        <g>
          <g>
            <path style="fill:#232345;" d="M320.197,415.916c-2.065,2.217-4.476,4.875-5.483,7.776c-0.085,0.245,0.271,0.454,0.441,0.257 c0.917-1.066,1.587-2.32,2.39-3.472c0.98-1.406,2.036-2.763,3.142-4.072C320.969,416.069,320.504,415.586,320.197,415.916 L320.197,415.916z"/>
          </g>
        </g>
        <g>
          <g>
            <path style="fill:#232345;" d="M338.722,428.977c-0.825,2.213-1.71,5.002-1.477,7.397c0.038,0.391,0.614,0.528,0.725,0.098 c0.614-2.382,0.709-4.935,1.26-7.355C339.307,428.782,338.839,428.662,338.722,428.977L338.722,428.977z"/>
          </g>
        </g>
        <g>
          <g>
            <path style="fill:#232345;" d="M341.414,427.13c-0.657,1.932-1.126,4.005-0.966,6.054c0.026,0.328,0.562,0.461,0.621,0.084 c0.314-1.997,0.493-3.996,0.943-5.973C342.103,426.904,341.543,426.753,341.414,427.13L341.414,427.13z"/>
          </g>
        </g>
        <g>
          <g>
            <path style="fill:#232345;" d="M343.167,428.542c-0.451,2.588-1.028,5.774-0.285,8.341c0.079,0.274,0.566,0.327,0.61,0 c0.366-2.696-0.018-5.524,0.274-8.26C343.802,428.284,343.226,428.203,343.167,428.542L343.167,428.542z"/>
          </g>
        </g>
        <g>
          <g>
            <path style="fill:#232345;" d="M369.193,412.029c0.731,1.185,1.384,2.405,1.952,3.677c0.56,1.252,0.889,2.654,1.576,3.838 c0.176,0.304,0.734,0.194,0.699-0.189c-0.246-2.685-2.174-5.502-3.691-7.639C369.502,411.396,368.98,411.683,369.193,412.029 L369.193,412.029z"/>
          </g>
        </g>
        <g>
          <g>
            <path style="fill:#232345;" d="M373.476,414.224c0.775,1.428,1.487,2.883,2.107,4.384c0.547,1.324,0.887,2.832,1.705,4.013 c0.204,0.295,0.756,0.221,0.732-0.198c-0.08-1.399-0.795-2.74-1.394-3.991c-0.754-1.573-1.608-3.09-2.533-4.569 C373.85,413.474,373.256,413.819,373.476,414.224L373.476,414.224z"/>
          </g>
        </g>
        <g>
          <g>
            <path style="fill:#232345;" d="M374.979,411.291c1.369,1.734,2.404,3.71,3.793,5.415c0.228,0.279,0.751-0.022,0.617-0.359 c-0.825-2.075-2.442-3.898-3.905-5.561C375.175,410.434,374.701,410.938,374.979,411.291L374.979,411.291z"/>
          </g>
        </g>
        <g>
          <g>
            <path style="fill:#232345;" d="M390.416,421.253c0.684,0.993,1.341,2.002,1.962,3.035c0.563,0.936,1.023,1.963,1.73,2.8 c0.251,0.298,0.759-0.02,0.646-0.376c-0.665-2.104-2.361-4.096-3.66-5.855C390.8,420.458,390.126,420.831,390.416,421.253 L390.416,421.253z"/>
          </g>
        </g>
        <g>
          <g>
            <path style="fill:#232345;" d="M395.093,422.562c1.197,1.813,2.094,3.905,3.404,5.626c0.217,0.285,0.765,0.14,0.632-0.266 c-0.674-2.057-2.18-3.967-3.429-5.714C395.442,421.845,394.841,422.18,395.093,422.562L395.093,422.562z"/>
          </g>
        </g>
        <g>
          <g>
            <path style="fill:#232345;" d="M394.296,418.044c1.103,1.463,2.155,3.059,3.478,4.331c0.333,0.321,0.908-0.092,0.653-0.504 c-0.967-1.566-2.296-2.927-3.496-4.317C394.635,417.212,394.018,417.676,394.296,418.044L394.296,418.044z"/>
          </g>
        </g>
        <g>
          <g>
            <path style="fill:#232345;" d="M363.346,432.167c0.387,1.627,0.572,3.768,1.474,5.197c0.143,0.226,0.515,0.142,0.513-0.139 c-0.011-1.693-1.006-3.594-1.557-5.176C363.682,431.78,363.279,431.885,363.346,432.167L363.346,432.167z"/>
          </g>
        </g>
        <g>
          <g>
            <path style="fill:#232345;" d="M364.283,429.292c0.668,1.671,1.138,3.465,1.944,5.073c0.205,0.41,0.792,0.112,0.707-0.298 c-0.363-1.745-1.296-3.434-2.116-5.001C364.667,428.778,364.158,428.98,364.283,429.292L364.283,429.292z"/>
          </g>
        </g>
        <g>
          <g>
            <path style="fill:#232345;" d="M367.632,431.014c0.541,2.122,0.982,4.402,1.877,6.407c0.206,0.461,0.834,0.108,0.76-0.321 c-0.367-2.125-1.273-4.236-1.993-6.264C368.134,430.436,367.525,430.592,367.632,431.014L367.632,431.014z"/>
          </g>
        </g>
        <g>
          <g>
            <path style="fill:#232345;" d="M333.707,410.982c-0.72,0.819-1.389,1.667-1.976,2.586c-0.523,0.82-1.167,1.715-1.24,2.708 c-0.021,0.285,0.354,0.401,0.54,0.224c0.685-0.653,1.025-1.654,1.498-2.465c0.528-0.906,1.096-1.793,1.703-2.648 C334.45,411.079,333.957,410.698,333.707,410.982L333.707,410.982z"/>
          </g>
        </g>
        <g>
          <g>
            <path style="fill:#232345;" d="M334.099,414.28c-1.353,1.382-2.637,3.409-2.546,5.42c0.018,0.403,0.543,0.453,0.679,0.092 c0.686-1.817,1.125-3.443,2.406-4.973C334.948,414.448,334.448,413.923,334.099,414.28L334.099,414.28z"/>
          </g>
        </g>
        <g>
          <g>
            <path style="fill:#232345;" d="M336.988,412.745c-1.138,1.315-2.031,2.962-1.936,4.743c0.017,0.32,0.467,0.394,0.564,0.076 c0.466-1.533,0.906-2.995,1.919-4.273C337.837,412.91,337.318,412.363,336.988,412.745L336.988,412.745z"/>
          </g>
        </g>
        <g>
          <g>
            <path style="fill:#232345;" d="M354.346,415.603c0.142,1.426,0.145,2.962,0.533,4.345c0.1,0.358,0.615,0.273,0.633-0.086 c0.072-1.403-0.256-2.868-0.428-4.26C355.027,415.141,354.299,415.125,354.346,415.603L354.346,415.603z"/>
          </g>
        </g>
        <g>
          <g>
            <path style="fill:#232345;" d="M356.408,417.815c0.133,1.549,0.162,3.203,0.618,4.697c0.113,0.369,0.653,0.295,0.667-0.09 c0.058-1.562-0.339-3.168-0.607-4.699C357.021,417.343,356.375,417.426,356.408,417.815L356.408,417.815z"/>
          </g>
        </g>
        <g>
          <g>
            <path style="fill:#232345;" d="M357.699,416.053c0.171,0.867,0.257,1.802,0.652,2.599c0.149,0.3,0.573,0.13,0.59-0.16 c0.053-0.888-0.247-1.8-0.428-2.664C358.401,415.296,357.595,415.523,357.699,416.053L357.699,416.053z"/>
          </g>
        </g>
      </g>
    </g>
    <g>
      <g>
        <path style="fill:#4B496B;" d="M386.714,311.598c0,0-0.402-18.246,16.25-23.029c16.652-4.783,28.521,15.943,19.486,29.052 c-9.035,13.109-29.938,3.897-29.938,3.897L386.714,311.598z"/>
        <g>
          <path style="fill:#6D6A9C;" d="M391.626,314.786c0,0-1.33-12.577,9.458-16.12c11.565-3.798,16.583,11.105,9.674,17.715 c-5.89,5.634-15.498,2.282-15.498,2.282L391.626,314.786z"/>
          <g>
            <path style="fill:#232345;" d="M392.376,314.786c-0.339-3.517,0.453-7.465,2.382-10.433c4.016-6.18,13.887-7.992,17.384-0.432 c3.471,7.503-2.118,14.65-9.956,14.973c-1.903,0.078-4.928,0.068-6.662-0.933c-0.65-0.375-2.428-2.703-3.367-3.705 c-0.662-0.706-1.721,0.357-1.061,1.061c1.401,1.494,2.657,3.393,4.514,4.239c3.017,1.374,7.595,1.137,10.688,0.211 c7.056-2.112,10.25-9.922,7.199-16.525c-3.21-6.947-11.59-7.367-17.163-2.866c-4.126,3.332-5.957,9.219-5.457,14.411 C390.968,315.738,392.469,315.748,392.376,314.786z"/>
          </g>
        </g>
        <g style="opacity:0.5;">
          <g>
            <g>
              <path style="fill:#4B496B;" d="M419.678,302.798c0.152,2.82-0.382,5.555-1.077,8.27c-0.174,0.68,0.773,0.899,1.025,0.282 c1.143-2.799,1.014-5.733,0.176-8.569C419.781,302.716,419.674,302.725,419.678,302.798L419.678,302.798z"/>
            </g>
          </g>
          <g>
            <g>
              <path style="fill:#4B496B;" d="M422.048,310.024c-0.604,1.181-1.049,2.427-1.668,3.602c-0.63,1.197-1.561,2.217-2.148,3.421 c-0.175,0.359,0.208,0.867,0.599,0.599c2.153-1.477,3.569-5.048,3.334-7.59C422.159,309.999,422.078,309.964,422.048,310.024 L422.048,310.024z"/>
            </g>
          </g>
          <g>
            <g>
              <path style="fill:#4B496B;" d="M418.127,313.791c-0.7,0.849-1.353,1.738-2.074,2.57c-0.738,0.851-1.609,1.573-2.362,2.409 c-0.289,0.321,0.071,0.779,0.454,0.589c2.033-1.008,3.66-3.313,4.074-5.514C418.227,313.796,418.165,313.745,418.127,313.791 L418.127,313.791z"/>
            </g>
          </g>
          <g>
            <g>
              <path style="fill:#4B496B;" d="M417.407,307.521c-0.774,2.115-1.989,3.973-3.117,5.901c-0.255,0.435,0.359,0.938,0.712,0.549 c1.625-1.789,2.296-4.082,2.482-6.44C417.487,307.485,417.421,307.483,417.407,307.521L417.407,307.521z"/>
            </g>
          </g>
          <g>
            <g>
              <path style="fill:#4B496B;" d="M420.136,299.534c1.367,2.048,1.516,5.23,1.661,7.592c0.021,0.337,0.527,0.442,0.614,0.083 c0.363-1.505,0.02-3.08-0.427-4.538c-0.366-1.194-0.708-2.425-1.651-3.289C420.232,299.291,420.053,299.411,420.136,299.534 L420.136,299.534z"/>
            </g>
          </g>
        </g>
        <path style="opacity:0.3;fill:#4B496B;" d="M396.015,322.781c-0.292-1.119-0.382-1.82-0.382-1.82 c20.689,2.196,27.077-10.827,29.05-19.418c1.592,5.277,1.127,11.203-2.233,16.077 C415.707,327.405,402.355,324.755,396.015,322.781z"/>
        <g style="opacity:0.3;">
          <g>
            <path style="fill:#FFFFFF;" d="M391.989,300.751c5.424-8.72,18.961-11.911,25.398-2.721c0.303,0.433,0.915,0.066,0.702-0.41 c-5.142-11.479-22.006-6.411-26.207,3.068C391.849,300.76,391.946,300.821,391.989,300.751L391.989,300.751z"/>
          </g>
        </g>
      </g>
      <g>
        <path style="fill:#4B496B;" d="M319.684,311.598c0,0,0.402-18.246-16.25-23.029c-16.652-4.783-28.521,15.943-19.486,29.052 c9.034,13.109,29.938,3.897,29.938,3.897L319.684,311.598z"/>
        <g>
          <path style="fill:#6D6A9C;" d="M314.771,314.786c0,0,1.33-12.577-9.458-16.12c-11.565-3.798-16.582,11.105-9.674,17.715 c5.89,5.634,15.498,2.282,15.498,2.282L314.771,314.786z"/>
          <g>
            <path style="fill:#232345;" d="M315.521,314.786c0.5-5.193-1.329-11.077-5.457-14.411c-5.572-4.5-13.952-4.082-17.163,2.866 c-3.051,6.603,0.141,14.412,7.199,16.525c3.097,0.927,7.665,1.165,10.688-0.211c1.855-0.845,3.115-2.746,4.515-4.239 c0.66-0.704-0.399-1.767-1.061-1.061c-0.92,0.981-2.751,3.338-3.367,3.705c-1.704,1.017-4.794,1.01-6.662,0.933 c-7.887-0.325-13.375-7.458-9.957-14.973c3.447-7.579,13.404-5.731,17.384,0.432c1.923,2.978,2.721,6.909,2.382,10.433 C313.929,315.746,315.429,315.74,315.521,314.786z"/>
          </g>
        </g>
        <g style="opacity:0.5;">
          <g>
            <g>
              <path style="fill:#4B496B;" d="M286.597,302.781c-0.839,2.836-0.968,5.771,0.176,8.569c0.251,0.616,1.199,0.399,1.025-0.282 c-0.695-2.714-1.229-5.452-1.077-8.27C286.724,302.726,286.616,302.715,286.597,302.781L286.597,302.781z"/>
            </g>
          </g>
          <g>
            <g>
              <path style="fill:#4B496B;" d="M284.233,310.055c-0.234,2.543,1.182,6.114,3.335,7.59c0.39,0.268,0.774-0.239,0.599-0.599 c-0.588-1.204-1.518-2.224-2.148-3.421c-0.619-1.175-1.064-2.421-1.668-3.602 C284.319,309.964,284.239,309.999,284.233,310.055L284.233,310.055z"/>
            </g>
          </g>
          <g>
            <g>
              <path style="fill:#4B496B;" d="M288.18,313.844c0.414,2.199,2.042,4.507,4.074,5.514c0.38,0.189,0.746-0.265,0.454-0.589 c-0.753-0.835-1.624-1.557-2.362-2.409c-0.721-0.832-1.375-1.721-2.074-2.57C288.233,313.745,288.171,313.796,288.18,313.844 L288.18,313.844z"/>
            </g>
          </g>
          <g>
            <g>
              <path style="fill:#4B496B;" d="M288.914,307.532c0.187,2.357,0.858,4.652,2.483,6.44c0.349,0.385,0.969-0.11,0.712-0.549 c-1.128-1.928-2.344-3.786-3.117-5.901C288.977,307.483,288.91,307.485,288.914,307.532L288.914,307.532z"/>
            </g>
          </g>
          <g>
            <g>
              <path style="fill:#4B496B;" d="M286.066,299.383c-0.943,0.864-1.285,2.094-1.651,3.289c-0.447,1.458-0.79,3.032-0.427,4.538 c0.086,0.356,0.593,0.257,0.614-0.083c0.145-2.359,0.294-5.544,1.661-7.592C286.344,299.412,286.167,299.29,286.066,299.383 L286.066,299.383z"/>
            </g>
          </g>
        </g>
        <path style="opacity:0.3;fill:#4B496B;" d="M310.383,322.781c0.292-1.119,0.382-1.82,0.382-1.82 c-20.689,2.196-27.077-10.827-29.05-19.418c-1.592,5.277-1.126,11.203,2.233,16.077 C290.691,327.405,304.043,324.755,310.383,322.781z"/>
        <g style="opacity:0.3;">
          <g>
            <path style="fill:#FFFFFF;" d="M314.516,300.688c-4.201-9.478-21.065-14.546-26.207-3.068 c-0.213,0.475,0.398,0.844,0.702,0.41c6.437-9.19,19.973-6,25.398,2.721C314.452,300.82,314.548,300.76,314.516,300.688 L314.516,300.688z"/>
          </g>
        </g>
      </g>
      <g>
        <path style="fill:#EAEBFF;" d="M387.004,309.128c-8.666-6.101-20.08-9.335-31.661-9.706c3.326-2.005,11.872-3.593,7.435-5.299 c-4.606-1.772-9.652,1.354-9.652,1.354s-2.04-11.16-6.167-11.338c-4.127-0.177,0,10.629,0,10.629s-6.338-2.869-8.641-1.097 c-2.303,1.771,1.609,4.893,3.908,4.76c4.409-0.256,4.732,1.226,4.732,1.226h0.061c-10.243,0.892-20.13,4.044-27.841,9.471 c-27.511,19.367-30.204,56.985-22.011,73.369c12.281,24.562,55.924,25.274,55.924,25.274s43.643-0.712,55.924-25.274 C417.207,366.113,414.515,328.495,387.004,309.128z"/>
        <path style="opacity:0.7;fill:#EAEBFF;" d="M410.414,373.879c-12.588,25.176-57.322,25.906-57.322,25.906 s-44.734-0.73-57.322-25.906c-0.981-1.963-1.803-4.232-2.457-6.725c0.492,6.005,1.843,11.317,3.856,15.344 c12.281,24.562,55.924,25.274,55.924,25.274s43.643-0.712,55.924-25.274c2.013-4.026,3.364-9.339,3.856-15.344 C412.217,369.646,411.395,371.916,410.414,373.879z"/>
        <ellipse transform="matrix(0.9896 -0.1438 0.1438 0.9896 -47.6704 50.1864)" style="fill:#4B496B;" cx="323.439" cy="354.957" rx="21.923" ry="24.925"/>
        <ellipse transform="matrix(0.1438 -0.9896 0.9896 0.1438 -23.5517 682.6945)" style="fill:#4B496B;" cx="382.744" cy="354.957" rx="24.925" ry="21.923"/>
        <g style="opacity:0.8;">
          <g>
            <path style="fill:#FFFFFF;" d="M383.221,311.106c-19.496-9.191-45.627-11.141-63.805,2.391 c-0.497,0.37-0.084,1.066,0.482,0.824c10.427-4.461,19.489-9.406,31.201-9.342c10.925,0.061,21.756,2.862,32.079,6.23 C383.237,311.229,383.279,311.134,383.221,311.106L383.221,311.106z"/>
          </g>
        </g>
      </g>
      <g>
        <g>
          <g>
            <path style="fill:#FFFFFF;" d="M324.038,347.867c-11.696-0.296-13.917,13.769-9.919,20.135 c1.999,3.183,4.498,5.395,9.919,5.395c5.247,0,7.921-2.212,9.919-5.395C337.955,361.636,335.734,347.572,324.038,347.867z"/>
            <g>
              <g>
                <path style="fill:#232345;" d="M335.976,356.438c-2.411-8.08-11.94-12.562-19.274-7.157 c-5.666,4.176-6.611,13.248-3.231,19.1c0.483,0.836,1.779,0.081,1.295-0.757c-2.717-4.705-2.338-11.769,1.417-15.853 c5.959-6.482,16.039-2.668,18.347,5.065C334.805,357.759,336.253,357.366,335.976,356.438L335.976,356.438z"/>
              </g>
            </g>
            <ellipse style="fill:#232345;" cx="327.083" cy="361.05" rx="7.399" ry="9.146"/>
          </g>
          <g>
            <path style="fill:#FFFFFF;" d="M382.145,347.867c11.696-0.296,13.917,13.769,9.919,20.135 c-1.999,3.183-4.498,5.395-9.919,5.395c-5.247,0-7.921-2.212-9.919-5.395C368.228,361.636,370.449,347.572,382.145,347.867z"/>
            <g>
              <g>
                <path style="fill:#232345;" d="M371.654,356.837c2.312-7.75,12.393-11.539,18.347-5.065 c3.753,4.081,4.133,11.15,1.417,15.853c-0.484,0.837,0.812,1.594,1.295,0.757c3.38-5.852,2.434-14.925-3.231-19.1 c-7.329-5.402-16.864-0.921-19.274,7.157C369.93,357.365,371.378,357.761,371.654,356.837L371.654,356.837z"/>
              </g>
            </g>
            <ellipse style="fill:#232345;" cx="379.1" cy="361.05" rx="7.399" ry="9.146"/>
          </g>
          <g>
            <path style="fill:#FFADBC;" d="M312.48,381.784c-11.275-2.585-7.669-10.295,0-8.461 C323.097,375.861,321.706,383.899,312.48,381.784z"/>
            <path style="fill:#FFADBC;" d="M393.703,381.784c11.275-2.585,7.669-10.295,0-8.461 C383.086,375.861,384.477,383.899,393.703,381.784z"/>
          </g>
          <path style="fill:#232345;" d="M318.896,346.457c1.98-0.848,4.688-1.446,7.824-0.319c2.244,0.806,3.487-0.991,1.843-2.278 c-1.893-1.482-6.643-2.342-9.962-0.712c-3.32,1.63-3.092,2.743-2.827,3.376C316.039,347.158,317.035,347.254,318.896,346.457z"/>
          <path style="fill:#232345;" d="M387.287,346.457c-1.98-0.848-4.688-1.446-7.824-0.319c-2.244,0.806-3.487-0.991-1.843-2.278 c1.893-1.482,6.642-2.342,9.962-0.712s3.092,2.743,2.827,3.376C390.144,347.158,389.148,347.254,387.287,346.457z"/>
        </g>
        <g>
          <g>
            <g>
              <g>
                <path style="fill:#232345;" d="M352.324,378.992c0,3.107,0,6.214,0,9.32c0,0.965,1.5,0.967,1.5,0c0-3.107,0-6.214,0-9.32 C353.824,378.026,352.324,378.025,352.324,378.992L352.324,378.992z"/>
              </g>
            </g>
            <g>
              <g>
                <path style="fill:#232345;" d="M342.617,387.646c0.804,1.264,2.025,2.365,3.389,2.981c2.79,1.259,5.464,0,7.598-1.897 c0.723-0.643-0.341-1.7-1.061-1.061c-2.844,2.528-6.49,2.588-8.631-0.78C343.396,386.077,342.098,386.828,342.617,387.646 L342.617,387.646z"/>
              </g>
            </g>
            <g>
              <g>
                <path style="fill:#232345;" d="M362.27,386.889c-2.14,3.366-5.786,3.309-8.631,0.78c-0.719-0.639-1.784,0.418-1.061,1.061 c2.134,1.897,4.807,3.156,7.598,1.897c1.364-0.616,2.585-1.716,3.389-2.981C364.085,386.829,362.787,386.076,362.27,386.889 L362.27,386.889z"/>
              </g>
            </g>
          </g>
          <path style="fill:#232345;" d="M362.867,373.043c-0.414-2.847-5.626-3.136-9.776-3.094c-4.149-0.042-9.361,0.247-9.775,3.094 c-0.699,4.8,9.775,9.711,9.775,9.711S363.566,377.844,362.867,373.043z"/>
          <g>
            <path style="fill:#232345;" d="M346.372,373.129c4.562-1.15,9.414-1.127,13.965,0.066"/>
            <g>
              <path style="fill:#6D6A9C;" d="M346.439,373.372c4.823-0.887,9.102-0.388,13.898,0.175c0.421,0.049,0.436-0.562,0.094-0.691 c-4.426-1.664-9.661-1.233-14.126,0.03C345.989,372.976,346.124,373.43,346.439,373.372L346.439,373.372z"/>
            </g>
          </g>
        </g>
      </g>
      <g>
        <g>
          <g>
            <path style="fill:#232345;" d="M401.585,324.635c10.553,16.407,16.698,43.807,4.594,61.167 c-8.977,12.875-26.214,17.832-40.966,20.069c-6.379,0.968-12.409,1.341-18.8,0.689c-14.463-1.477-30.646-5.266-41.638-15.357 c-17.994-16.519-11.671-48.068,0.045-66.23c0.525-0.814-0.773-1.566-1.295-0.757c-10.717,16.614-16.929,43.568-5.408,61.458 c8.938,13.88,27.02,19.3,42.455,21.644c7.447,1.131,14.225,1.382,21.671,0.463c15.239-1.882,32.78-6.398,43.169-18.555 c15.015-17.572,8.827-47.686-2.533-65.348C402.359,323.069,401.06,323.82,401.585,324.635L401.585,324.635z"/>
          </g>
        </g>
        <g>
          <g>
            <path style="fill:#232345;" d="M319.558,309.776c8.234-5.575,17.626-8.389,27.462-9.369c0.6-0.06,1.048-0.802,0.53-1.28 c-0.73-0.674-1.962-0.811-2.873-1.017c-0.959-0.217-3.687-0.26-4.419-1.116c-4.467-5.232,5.717-1.881,6.323-1.577 c0.528,0.265,1.349-0.186,1.102-0.847c-0.719-1.919-3.565-11.282,1.111-8.417c2.294,1.406,3.129,6.995,3.609,9.524 c0.092,0.483,0.711,0.676,1.102,0.448c1.103-0.644,2.31-1.142,3.552-1.443c1.613-0.391,7.528-0.53,3.806,1.627 c-1.812,1.05-4.031,1.459-5.899,2.466c-0.684,0.369-0.332,1.366,0.378,1.398c11.152,0.496,21.967,3.299,31.283,9.604 c0.802,0.543,1.553-0.757,0.757-1.295c-9.52-6.443-20.643-9.302-32.04-9.809c0.126,0.466,0.252,0.932,0.379,1.398 c1.768-0.952,11.194-2.867,8.27-6.172c-1.88-2.124-6.932-0.908-9.07-0.09c-0.48,0.184-1.05,0.371-1.486,0.647 c-1.019,0.647,0.427,0.696,0.339,0.44c-0.372-1.085-0.518-2.275-0.853-3.378c-0.716-2.361-3.502-10.404-7.427-7.707 c-2.91,2-0.153,8.768,0.742,11.158c0.367-0.282,0.734-0.565,1.102-0.847c-2.217-1.112-9.734-3.904-10.344,0.573 c-0.686,5.033,7.481,3.632,9.496,5.494c0.177-0.427,0.354-0.853,0.53-1.28c-10.092,1.005-19.77,3.853-28.219,9.574 C318.006,309.019,318.756,310.319,319.558,309.776L319.558,309.776z"/>
          </g>
        </g>
        <g>
          <g>
            <path style="fill:#232345;" d="M387.535,308.876c0.736-5.428,2.777-10.873,6.84-14.703c6.272-5.912,16.049-7.625,23.051-2.057 c5.659,4.499,8.562,12.486,6.776,19.551c-2.583,10.216-12.365,13.159-21.771,11.867c-0.944-0.13-1.352,1.315-0.399,1.446 c9.109,1.251,18.669-0.824,22.653-10.045c3.183-7.367,1.178-16.346-4.262-22.114c-6.004-6.366-14.906-7.136-22.469-3.066 c-7.021,3.778-10.823,11.034-11.866,18.722C385.961,309.421,387.406,309.829,387.535,308.876L387.535,308.876z"/>
          </g>
        </g>
        <g>
          <g>
            <path style="fill:#232345;" d="M320.21,308.477c-1.01-7.446-4.606-14.548-11.286-18.411 c-7.615-4.404-16.901-3.794-23.048,2.755c-5.406,5.759-7.437,14.66-4.3,22.024c3.956,9.288,13.542,11.391,22.691,10.135 c0.952-0.131,0.547-1.576-0.399-1.446c-9.147,1.256-18.848-1.427-21.636-11.321c-2.032-7.211,0.818-15.468,6.641-20.097 c6.802-5.408,16.359-3.981,22.615,1.663c4.319,3.897,6.509,9.438,7.277,15.098 C318.893,309.828,320.338,309.422,320.21,308.477L320.21,308.477z"/>
          </g>
        </g>
      </g>
    </g>
  </g>
</svg>