<?xml version="1.0" encoding="utf-8"?>
<svg viewBox="253.8468 47.9638 181.5042 189.8157" width="181.5042" height="189.8157" xmlns="http://www.w3.org/2000/svg">
  <g transform="matrix(1, 0, 0, 1, 3.552713678800501e-15, 0)">
    <path style="fill:#ABDFFC;" d="M341.644,233.483c-15.225,0.717-58.583-9.446-69.66-36.918 c-11.077-27.471,15.225-25.304-3.756-48.165c-20.662-24.886,10.126-70.719,54.902-80.991c33.662-7.723,66.594,1.504,78.057,24.966 c14.581,29.844-4.223,40.727,18.244,59.651C434.657,164.85,443.895,228.668,341.644,233.483z"/>
    <path style="fill:#ABDFFC;" d="M272.045,162.314c-2.845,8.959-11.943-7.225-10.151-12.626 C263.686,144.287,273.949,156.316,272.045,162.314z"/>
    <path style="fill:#ABDFFC;" d="M414.875,124.015c-6.346,6.17-5.279,16.838,4.044,19.895 C428.241,146.967,424.099,115.047,414.875,124.015z"/>
    <path style="fill:#ABDFFC;" d="M260.787,165.751c-0.657,3.952,7.346,8.329,8.55,4.955 C270.542,167.332,261.75,159.955,260.787,165.751z"/>
  </g>
  <g transform="matrix(1, 0, 0, 1, 3.552713678800501e-15, 0)">
    <g>
      <path style="fill:#EAEBFF;" d="M366.393,196.212h-43.687c-21.844,2.009-31.965,26.653-31.965,26.653 c17.134,15.23,53.808,14.913,53.808,14.913s36.674,0.317,53.808-14.913C398.357,222.866,388.236,198.222,366.393,196.212z"/>
      <path style="fill:#FFFFFF;" d="M368.678,215.385c0,0,3.437,2.792,4.401,2.204c0.963-0.588-2.343-6.613-6.09-9.332 c0,0,2.719,0.955,3.306,0.147c0.531-0.73-3.257-8.102-7.893-11.96h-35.705c-4.636,3.859-8.424,11.23-7.893,11.96 c0.588,0.808,3.306-0.147,3.306-0.147c-3.747,2.719-7.054,8.744-6.09,9.332c0.963,0.588,4.4-2.204,4.4-2.204 c-3.177,6.947-4.183,13.793-4.366,19.068c14.65,3.44,28.496,3.326,28.496,3.326s13.845,0.114,28.495-3.326 C372.862,229.177,371.855,222.332,368.678,215.385z"/>
      <path style="opacity:0.7;fill:#EAEBFF;" d="M380.731,201.312c-4.049-2.636-8.818-4.592-14.338-5.1h-43.687 c-5.189,0.477-9.709,2.24-13.596,4.639C330.534,209.522,362.814,208.605,380.731,201.312z"/>
      <g>
        <g>
          <g>
            <g>
              <path style="fill:#FFFFFF;" d="M307.309,206.481c-1.774,1.221-3.307,2.79-4.208,4.771c-0.155,0.341,0.278,0.592,0.499,0.292 c1.222-1.66,2.513-3.224,4.116-4.536C308.009,206.769,307.623,206.265,307.309,206.481L307.309,206.481z"/>
            </g>
          </g>
          <g>
            <g>
              <path style="fill:#FFFFFF;" d="M306.78,210.638c-1.271,1.277-2.586,2.847-2.998,4.641c-0.061,0.266,0.278,0.398,0.428,0.181 c1.021-1.472,1.761-3.087,2.902-4.49C307.297,210.74,306.997,210.42,306.78,210.638L306.78,210.638z"/>
            </g>
          </g>
          <g>
            <g>
              <path style="fill:#FFFFFF;" d="M310.921,208.481c-1.423,1.298-2.585,2.782-3.252,4.598c-0.09,0.246,0.285,0.389,0.414,0.175 c0.936-1.562,1.954-3.071,3.269-4.342C311.635,208.638,311.21,208.218,310.921,208.481L310.921,208.481z"/>
            </g>
          </g>
        </g>
        <g>
          <g>
            <g>
              <path style="fill:#FFFFFF;" d="M315.524,222.702c-0.789,1.73-1.445,3.556-1.424,5.477c0.004,0.342,0.504,0.415,0.599,0.081 c0.488-1.732,0.837-3.472,1.554-5.132C316.464,222.638,315.751,222.205,315.524,222.702L315.524,222.702z"/>
            </g>
          </g>
          <g>
            <g>
              <path style="fill:#FFFFFF;" d="M312.636,226.36c-0.421,1.425-0.592,2.895-0.344,4.366c0.065,0.388,0.724,0.301,0.691-0.093 c-0.12-1.399-0.124-2.748,0.196-4.123C313.26,226.158,312.739,226.012,312.636,226.36L312.636,226.36z"/>
            </g>
          </g>
        </g>
        <g>
          <g>
            <g>
              <path style="fill:#FFFFFF;" d="M376.698,202.004c0.964,0.712,1.866,1.496,2.745,2.309c0.808,0.747,1.497,1.623,2.342,2.326 c0.328,0.272,0.881-0.073,0.626-0.483c-1.228-1.974-3.499-3.426-5.493-4.53C376.667,201.487,376.477,201.84,376.698,202.004 L376.698,202.004z"/>
            </g>
          </g>
          <g>
            <g>
              <path style="fill:#FFFFFF;" d="M377.861,205.667c1.772,1.701,3.083,3.662,4.508,5.642c0.195,0.27,0.721,0.121,0.585-0.247 c-0.882-2.389-2.728-4.349-4.734-5.861C377.949,204.996,377.622,205.438,377.861,205.667L377.861,205.667z"/>
            </g>
          </g>
          <g>
            <g>
              <path style="fill:#FFFFFF;" d="M374.771,204.788c1.406,1.564,2.446,3.36,3.751,4.99c0.268,0.335,0.703-0.092,0.552-0.426 c-0.852-1.881-2.491-3.499-3.994-4.873C374.872,204.288,374.583,204.579,374.771,204.788L374.771,204.788z"/>
            </g>
          </g>
        </g>
        <g>
          <g>
            <g>
              <path style="fill:#FFFFFF;" d="M372.217,219.813c0.669,1.78,1.049,3.641,1.676,5.428c0.114,0.326,0.68,0.305,0.645-0.087 c-0.177-1.94-1.008-3.807-1.892-5.521C372.525,219.4,372.123,219.562,372.217,219.813L372.217,219.813z"/>
            </g>
          </g>
          <g>
            <g>
              <path style="fill:#FFFFFF;" d="M375.131,222.074c0.468,1.619,0.687,3.317,1.211,4.915c0.108,0.33,0.643,0.291,0.629-0.085 c-0.061-1.709-0.691-3.396-1.283-4.983C375.56,221.578,375.025,221.71,375.131,222.074L375.131,222.074z"/>
            </g>
          </g>
          <g>
            <g>
              <path style="fill:#FFFFFF;" d="M375.975,219.113c0.639,1.421,1.086,2.891,1.448,4.404c0.131,0.547,0.975,0.316,0.844-0.233 c-0.376-1.572-0.988-3.065-1.739-4.494C376.333,218.418,375.809,218.744,375.975,219.113L375.975,219.113z"/>
            </g>
          </g>
        </g>
      </g>
      <g>
        <g>
          <g>
            <g>
              <path style="fill:#EAEBFF;" d="M327.441,205.897c-1.931,1.24-3.742,2.951-4.675,5.083c-0.102,0.233,0.201,0.547,0.393,0.303 c1.418-1.807,2.76-3.58,4.51-5.091C327.829,206.052,327.619,205.782,327.441,205.897L327.441,205.897z"/>
            </g>
          </g>
          <g>
            <g>
              <path style="fill:#EAEBFF;" d="M326.818,208.563c-1.416,1.837-2.566,3.927-3.091,6.2c-0.1,0.433,0.486,0.568,0.648,0.179 c0.876-2.102,1.779-4.124,3.01-6.047C327.619,208.529,327.067,208.24,326.818,208.563L326.818,208.563z"/>
            </g>
          </g>
          <g>
            <g>
              <path style="fill:#EAEBFF;" d="M329.238,207.743c-0.912,1.562-1.761,3.287-1.995,5.098c-0.056,0.434,0.616,0.485,0.737,0.1 c0.53-1.687,0.884-3.366,1.609-4.993C329.693,207.714,329.373,207.512,329.238,207.743L329.238,207.743z"/>
            </g>
          </g>
        </g>
        <g>
          <g>
            <g>
              <path style="fill:#EAEBFF;" d="M364.861,211.895c0.962,2.596,1.467,5.263,2.244,7.905c0.125,0.426,0.823,0.363,0.798-0.108 c-0.151-2.799-1.309-5.536-2.656-7.96C365.133,211.529,364.777,211.667,364.861,211.895L364.861,211.895z"/>
            </g>
          </g>
          <g>
            <g>
              <path style="fill:#EAEBFF;" d="M363.948,216.179c0.597,2.284,0.596,4.532,0.789,6.858c0.03,0.357,0.602,0.5,0.675,0.091 c0.427-2.374-0.154-4.854-0.952-7.091C364.347,215.72,363.861,215.844,363.948,216.179L363.948,216.179z"/>
            </g>
          </g>
          <g>
            <g>
              <path style="fill:#EAEBFF;" d="M361.831,213.824c0.374,1.801,0.428,3.66,0.858,5.445c0.079,0.327,0.524,0.224,0.553-0.075 c0.176-1.856-0.387-3.747-0.944-5.499C362.203,213.397,361.768,213.52,361.831,213.824L361.831,213.824z"/>
            </g>
          </g>
        </g>
        <g>
          <g>
            <g>
              <path style="fill:#EAEBFF;" d="M339.868,223.791c-0.638,2.058-1.159,4.776-0.318,6.842c0.128,0.313,0.573,0.278,0.599-0.081 c0.074-1.037-0.131-2.08-0.128-3.121c0.003-1.171,0.117-2.358,0.314-3.511C340.387,223.617,339.961,223.488,339.868,223.791 L339.868,223.791z"/>
            </g>
          </g>
          <g>
            <g>
              <path style="fill:#EAEBFF;" d="M341.127,226.055c-0.334,2.427-0.382,5.424,0.868,7.621c0.229,0.402,0.764,0.111,0.7-0.295 c-0.181-1.142-0.598-2.234-0.797-3.376c-0.223-1.28-0.293-2.584-0.264-3.881C341.64,225.841,341.167,225.762,341.127,226.055 L341.127,226.055z"/>
            </g>
          </g>
          <g>
            <g>
              <path style="fill:#EAEBFF;" d="M342.781,223.116c-0.18,1.998-0.034,4.141,0.979,5.917c0.181,0.318,0.643,0.098,0.571-0.241 c-0.403-1.907-0.894-3.705-0.878-5.676C343.457,222.678,342.819,222.693,342.781,223.116L342.781,223.116z"/>
            </g>
          </g>
        </g>
      </g>
      <g>
        <g>
          <path style="fill:#4C4C89;" d="M399.081,222.666c-2.914-6.996-7.769-13.623-13.465-18.581 c-7.1-6.182-15.102-8.622-24.286-8.622c-10.216,0-20.432,0-30.648,0c-8.814,0-16.422,0.705-23.981,6.076 c-7.231,5.138-13.266,12.923-16.683,21.128c-0.371,0.89,1.08,1.278,1.446,0.399c2.705-6.496,7.612-13.161,13.079-17.919 c7.342-6.391,15.314-8.183,24.62-8.183c9.209,0,18.417,0,27.626,0c8.529,0,15.839,0.011,23.431,4.913 c7.563,4.883,14.045,13.1,17.414,21.189C398,223.943,399.452,223.558,399.081,222.666L399.081,222.666z"/>
        </g>
      </g>
    </g>
    <g>
      <g>
        <g>
          <path style="fill:#EAEBFF;" d="M407.086,173.525c2-1.014,5.094-1.363,3.173-3.985c-1.921-2.621-2.951-23.031-11.436-39.522 c-12.772-24.825-28.581-32.414-42.12-35.17c1.838-0.79,4.344-1.929,2.276-3.17c-3.851-2.311-8.282,0.65-8.282,0.65 c2.022-2.457,1.26-4.201-0.91-2.8c-2.171,1.4-3.501,3.011-3.501,3.011c0.42-5.041-1.919-5.111-1.919-5.111 s-2.339,0.07-1.919,5.111c0,0-1.33-1.61-3.501-3.011c-2.17-1.4-2.932,0.343-0.91,2.8c0,0-4.431-2.96-8.282-0.65 c-2.115,1.269,0.315,2.432,2.034,3.223c-13.497,2.809-29.181,10.439-41.878,35.118c-8.484,16.491-9.515,36.901-11.436,39.522 c-1.921,2.621,1.173,2.971,3.173,3.985c2.497,1.266-5.829,0.974-2.086,5.308c2.398,2.777,11.462,9.897,27.778,16.737 c22.114,9.271,56.366,8.047,74.051,0c16.102-7.327,25.38-13.96,27.778-16.737C412.916,174.499,404.589,174.791,407.086,173.525 z"/>
          <g>
            <g>
              <g>
                <g>
                  <path style="fill:#FFFFFF;" d="M283.965,163.597c-0.582,0.883-0.732,1.989-1.077,2.979 c-0.443,1.273-1.11,2.413-1.678,3.627c-0.258,0.551,0.454,0.961,0.81,0.473c0.78-1.069,1.284-2.367,1.671-3.627 c0.332-1.081,0.711-2.328,0.365-3.44C284.043,163.567,283.988,163.561,283.965,163.597L283.965,163.597z"/>
                </g>
              </g>
              <g>
                <g>
                  <path style="fill:#FFFFFF;" d="M286.943,166.115c-0.503,1.145-1.015,2.291-1.68,3.353c-0.666,1.063-1.6,1.958-2.207,3.044 c-0.184,0.329,0.195,0.752,0.534,0.534c2.055-1.32,3.387-4.417,3.839-6.727 C287.482,166.046,287.072,165.822,286.943,166.115L286.943,166.115z"/>
                </g>
              </g>
              <g>
                <g>
                  <path style="fill:#FFFFFF;" d="M289.502,170.741c-0.767,0.854-1.638,1.576-2.616,2.177c-0.905,0.557-1.91,0.88-2.85,1.362 c-0.324,0.166-0.18,0.726,0.189,0.699c2.376-0.174,4.476-1.977,5.854-3.793 C290.33,170.854,289.778,170.433,289.502,170.741L289.502,170.741z"/>
                </g>
              </g>
              <g>
                <g>
                  <path style="fill:#FFFFFF;" d="M288.771,181.203c-2.744-0.79-4.619-2.259-6.602-4.228 c-0.277-0.276-0.772,0.083-0.552,0.426c1.491,2.326,4.362,3.835,7.029,4.254 C288.937,181.701,289.068,181.288,288.771,181.203L288.771,181.203z"/>
                </g>
              </g>
              <g>
                <g>
                  <path style="fill:#FFFFFF;" d="M292.54,176.437c-2.527,0.403-4.84,0.14-7.355-0.143c-0.404-0.046-0.415,0.535-0.089,0.66 c2.392,0.917,5.172,0.705,7.585-0.005C293.016,176.85,292.87,176.384,292.54,176.437L292.54,176.437z"/>
                </g>
              </g>
              <g>
                <g>
                  <path style="fill:#FFFFFF;" d="M295.722,179.63c-2.215,0.113-4.132-0.431-6.273-0.844c-0.25-0.048-0.369,0.253-0.168,0.4 c1.809,1.33,4.394,1.484,6.539,1.166C296.228,180.29,296.132,179.609,295.722,179.63L295.722,179.63z"/>
                </g>
              </g>
              <g>
                <g>
                  <path style="fill:#FFFFFF;" d="M295.814,184.71c-2.307-0.044-4.319-0.713-6.429-1.577 c-0.404-0.166-0.609,0.453-0.283,0.671c1.969,1.318,4.39,1.686,6.712,1.484C296.18,185.256,296.192,184.717,295.814,184.71 L295.814,184.71z"/>
                </g>
              </g>
              <g>
                <g>
                  <path style="fill:#FFFFFF;" d="M293.401,171.524c-0.566,0.598-1.195,1.158-1.881,1.615 c-0.615,0.41-1.278,0.729-1.841,1.212c-0.195,0.167-0.043,0.54,0.216,0.52c1.683-0.131,3.144-1.61,4.071-2.911 C294.203,171.624,293.678,171.231,293.401,171.524L293.401,171.524z"/>
                </g>
              </g>
              <g>
                <g>
                  <path style="fill:#FFFFFF;" d="M290.671,163.828c-0.318,1.042-0.723,2.068-1.231,3.034 c-0.466,0.885-1.114,1.665-1.547,2.563c-0.151,0.314,0.203,0.569,0.466,0.36c1.649-1.31,2.503-3.8,2.914-5.791 C291.354,163.602,290.789,163.44,290.671,163.828L290.671,163.828z"/>
                </g>
              </g>
              <g>
                <g>
                  <path style="fill:#FFFFFF;" d="M286.421,161.112c-0.176,0.803-0.379,1.598-0.6,2.39c-0.196,0.702-0.473,1.42-0.47,2.154 c0.001,0.243,0.31,0.305,0.437,0.118c0.816-1.207,0.921-3.121,1.116-4.529 C286.946,160.936,286.492,160.789,286.421,161.112L286.421,161.112z"/>
                </g>
              </g>
            </g>
            <g>
              <g>
                <g>
                  <path style="fill:#FFFFFF;" d="M404.681,163.609c-0.655,2.106,0.805,5.379,2.037,7.067c0.355,0.487,1.068,0.078,0.81-0.473 c-0.568-1.214-1.234-2.353-1.678-3.627c-0.345-0.99-0.495-2.097-1.077-2.979 C404.749,163.561,404.694,163.567,404.681,163.609L404.681,163.609z"/>
                </g>
              </g>
              <g>
                <g>
                  <path style="fill:#FFFFFF;" d="M401.309,166.32c0.452,2.311,1.784,5.407,3.839,6.727c0.339,0.218,0.718-0.206,0.534-0.534 c-0.607-1.085-1.542-1.983-2.207-3.044c-0.666-1.062-1.177-2.208-1.68-3.353 C401.666,165.824,401.254,166.043,401.309,166.32L401.309,166.32z"/>
                </g>
              </g>
              <g>
                <g>
                  <path style="fill:#FFFFFF;" d="M398.659,171.186c1.378,1.816,3.478,3.619,5.854,3.793c0.369,0.027,0.513-0.533,0.189-0.699 c-0.941-0.482-1.944-0.806-2.85-1.362c-0.978-0.601-1.85-1.324-2.616-2.177 C398.962,170.436,398.404,170.85,398.659,171.186L398.659,171.186z"/>
                </g>
              </g>
              <g>
                <g>
                  <path style="fill:#FFFFFF;" d="M400.091,181.655c2.667-0.42,5.538-1.928,7.029-4.254c0.218-0.34-0.272-0.704-0.552-0.426 c-1.983,1.969-3.861,3.439-6.602,4.228C399.67,181.288,399.8,181.701,400.091,181.655L400.091,181.655z"/>
                </g>
              </g>
              <g>
                <g>
                  <path style="fill:#FFFFFF;" d="M396.057,176.949c2.414,0.71,5.193,0.922,7.585,0.005c0.322-0.124,0.318-0.706-0.089-0.66 c-2.521,0.284-4.823,0.547-7.355,0.143C395.867,176.384,395.721,176.85,396.057,176.949L396.057,176.949z"/>
                </g>
              </g>
              <g>
                <g>
                  <path style="fill:#FFFFFF;" d="M392.918,180.351c2.147,0.318,4.729,0.165,6.539-1.166c0.199-0.146,0.083-0.449-0.169-0.4 c-2.141,0.414-4.055,0.958-6.273,0.844C392.61,179.609,392.505,180.29,392.918,180.351L392.918,180.351z"/>
                </g>
              </g>
              <g>
                <g>
                  <path style="fill:#FFFFFF;" d="M392.923,185.288c2.322,0.201,4.744-0.167,6.712-1.484c0.322-0.216,0.125-0.838-0.283-0.671 c-2.109,0.864-4.12,1.533-6.429,1.577C392.546,184.717,392.557,185.256,392.923,185.288L392.923,185.288z"/>
                </g>
              </g>
              <g>
                <g>
                  <path style="fill:#FFFFFF;" d="M394.772,171.959c0.927,1.302,2.388,2.781,4.071,2.911c0.257,0.02,0.411-0.352,0.215-0.52 c-0.562-0.483-1.226-0.803-1.841-1.212c-0.686-0.457-1.315-1.017-1.881-1.615 C395.062,171.234,394.532,171.621,394.772,171.959L394.772,171.959z"/>
                </g>
              </g>
              <g>
                <g>
                  <path style="fill:#FFFFFF;" d="M397.464,163.994c0.411,1.99,1.265,4.481,2.914,5.791c0.262,0.208,0.619-0.044,0.466-0.36 c-0.433-0.898-1.081-1.679-1.546-2.563c-0.508-0.965-0.913-1.991-1.231-3.034 C397.949,163.441,397.383,163.602,397.464,163.994L397.464,163.994z"/>
                </g>
              </g>
              <g>
                <g>
                  <path style="fill:#FFFFFF;" d="M401.834,161.245c0.195,1.408,0.3,3.322,1.116,4.529c0.126,0.187,0.436,0.125,0.437-0.118 c0.003-0.734-0.274-1.452-0.47-2.154c-0.221-0.792-0.424-1.587-0.601-2.39C402.246,160.79,401.792,160.936,401.834,161.245 L401.834,161.245z"/>
                </g>
              </g>
            </g>
            <g>
              <g>
                <g>
                  <path style="fill:#FFFFFF;" d="M338.526,97.248c-0.638-1.082-1.391-1.963-2.396-2.726 c-0.822-0.624-2.219-1.623-3.307-1.499c-0.187,0.021-0.327,0.248-0.166,0.4c0.746,0.7,1.941,0.954,2.82,1.521 c1.045,0.674,2.016,1.536,2.852,2.456C338.426,97.505,338.598,97.369,338.526,97.248L338.526,97.248z"/>
                </g>
              </g>
              <g>
                <g>
                  <path style="fill:#FFFFFF;" d="M342.003,97.131c-0.3-1.356-0.87-2.852-1.864-3.857c-0.273-0.276-0.784,0.09-0.552,0.426 c0.803,1.163,1.538,2.181,1.949,3.56C341.625,97.559,342.07,97.435,342.003,97.131L342.003,97.131z"/>
                </g>
              </g>
              <g>
                <g>
                  <path style="fill:#FFFFFF;" d="M344.856,97.212c-0.167-1.425-0.283-2.86-0.308-4.294c-0.008-0.473-0.756-0.472-0.734,0 c0.068,1.477,0.237,2.916,0.551,4.36C344.424,97.548,344.889,97.494,344.856,97.212L344.856,97.212z"/>
                </g>
              </g>
              <g>
                <g>
                  <path style="fill:#FFFFFF;" d="M346.862,97.58c0.441-1.464,1.14-2.804,2.06-4.023c0.282-0.374-0.359-0.756-0.634-0.371 c-0.923,1.294-1.549,2.714-1.908,4.261C346.308,97.761,346.769,97.889,346.862,97.58L346.862,97.58z"/>
                </g>
              </g>
              <g>
                <g>
                  <path style="fill:#FFFFFF;" d="M350.29,97.797c1.677-2.221,3.766-3.308,6.291-4.31c0.395-0.157,0.245-0.697-0.174-0.633 c-2.679,0.408-5.086,2.502-6.481,4.73C349.778,97.82,350.131,98.007,350.29,97.797L350.29,97.797z"/>
                </g>
              </g>
              <g>
                <g>
                  <path style="fill:#FFFFFF;" d="M338.837,100.465c-0.366-0.566-0.838-1.022-1.376-1.425 c-0.615-0.461-1.318-1.024-2.032-1.307c-0.28-0.111-0.471,0.292-0.281,0.483c0.479,0.482,1.215,0.712,1.808,1.033 c0.652,0.353,1.247,0.764,1.722,1.339C338.751,100.677,338.9,100.561,338.837,100.465L338.837,100.465z"/>
                </g>
              </g>
              <g>
                <g>
                  <path style="fill:#FFFFFF;" d="M341.282,101.541c0.045-1.616-0.449-3.271-1.511-4.508 c-0.165-0.192-0.464,0.054-0.344,0.265c0.788,1.376,1.342,2.704,1.563,4.283 C341.014,101.751,341.277,101.702,341.282,101.541L341.282,101.541z"/>
                </g>
              </g>
              <g>
                <g>
                  <path style="fill:#FFFFFF;" d="M343.504,101.449c0.315-1.444,0.257-2.9-0.332-4.268c-0.135-0.313-0.631-0.088-0.543,0.229 c0.367,1.316,0.59,2.617,0.491,3.987C343.104,101.616,343.457,101.664,343.504,101.449L343.504,101.449z"/>
                </g>
              </g>
              <g>
                <g>
                  <path style="fill:#FFFFFF;" d="M345.212,101.417c-0.052-1.432,0.273-2.698,0.682-4.05c0.068-0.224-0.28-0.381-0.386-0.163 c-0.63,1.306-0.693,2.826-0.465,4.235C345.059,101.536,345.216,101.513,345.212,101.417L345.212,101.417z"/>
                </g>
              </g>
              <g>
                <g>
                  <path style="fill:#FFFFFF;" d="M347.108,101.674c0.193-1.76,1.264-3.367,2.473-4.583c0.311-0.312-0.148-0.746-0.475-0.475 c-0.739,0.612-1.299,1.418-1.676,2.297c-0.41,0.958-0.423,1.744-0.422,2.761 C347.008,101.74,347.101,101.737,347.108,101.674L347.108,101.674z"/>
                </g>
              </g>
              <g>
                <g>
                  <path style="fill:#FFFFFF;" d="M348.941,101.484c0.956-1.361,2.158-2.38,3.679-3.056c0.328-0.146,0.093-0.715-0.247-0.585 c-1.659,0.63-3.02,1.883-3.703,3.527C348.602,101.534,348.852,101.611,348.941,101.484L348.941,101.484z"/>
                </g>
              </g>
              <g>
                <g>
                  <path style="fill:#FFFFFF;" d="M352.311,100.914c1.384-0.991,2.992-1.318,4.577-1.835c0.448-0.146,0.267-0.817-0.195-0.708 c-1.674,0.393-3.317,1.105-4.533,2.347C352.064,100.816,352.192,101,352.311,100.914L352.311,100.914z"/>
                </g>
              </g>
              <g>
                <g>
                  <path style="fill:#FFFFFF;" d="M336.427,100.235c-1.813-1.206-4.05-1.648-6.206-1.548c-0.249,0.012-0.336,0.414-0.062,0.46 c2.1,0.356,4.196,0.292,6.126,1.33C336.446,100.564,336.577,100.335,336.427,100.235L336.427,100.235z"/>
                </g>
              </g>
            </g>
          </g>
          <path style="opacity:0.7;fill:#EAEBFF;" d="M407.086,173.525c2-1.014,5.094-1.363,3.173-3.985 c-1.593-2.174-2.578-16.581-7.705-30.842c1.506,14.822,2.178,28.444,3.064,29.654c1.698,2.317-4.037,2.626-5.805,3.523 c-2.208,1.119,5.153,0.861,1.844,4.693c-2.12,2.455-10.322,8.319-24.557,14.796c-15.634,7.114-45.914,8.196-65.464,0 c-14.423-6.047-22.436-12.341-24.556-14.796c-3.309-3.832,4.052-3.573,1.844-4.693c-1.768-0.896-7.504-1.205-5.805-3.523 c0.886-1.209,1.558-14.832,3.064-29.654c-5.127,14.261-6.112,28.669-7.705,30.843c-1.921,2.621,1.173,2.971,3.173,3.985 c2.497,1.266-5.829,0.974-2.086,5.308c2.398,2.777,11.462,9.897,27.778,16.737c22.114,9.271,56.366,8.047,74.051,0 c16.102-7.327,25.38-13.96,27.778-16.737C412.916,174.499,404.589,174.791,407.086,173.525z"/>
          <g>
            <g>
              <path style="fill:#4C4C89;" d="M407.465,174.173c2.065-0.917,4.423-1.371,3.976-4.018c-0.196-1.158-1.131-2.52-1.438-3.744 c-0.457-1.82-0.742-3.696-1.088-5.538c-2.075-11.036-4.63-22.029-9.871-32.048c-8.993-17.192-22.802-30.621-42.14-34.7 c0,0.482,0,0.964,0,1.446c1.619-0.634,4.668-2.001,3.316-4.172c-1.761-2.826-7.732-0.641-9.9,0.281 c0.342,0.342,0.684,0.684,1.026,1.026c0.837-1.287,2.233-3.563,0.123-4.307c-1.896-0.668-4.609,2.343-5.712,3.608 c0.427,0.177,0.854,0.354,1.28,0.53c0.217-7.261-5.554-7.267-5.337,0c0.427-0.177,0.854-0.354,1.28-0.53 c-1.083-1.243-3.823-4.274-5.712-3.608c-2.091,0.737-0.708,3.029,0.123,4.307c0.342-0.342,0.684-0.684,1.026-1.026 c-2.233-1.384-7.494-2.958-9.467-0.244c-1.361,1.872,0.856,3.308,2.462,4.112c0.06-0.457,0.119-0.914,0.179-1.371 c-20.032,4.32-34.333,18.805-43.055,36.927c-4.843,10.062-7.02,20.974-9.106,31.86c-0.301,1.57-0.52,3.225-1.021,4.749 c-0.28,0.85-1.182,1.983-1.216,2.821c-0.036,0.893-0.005,1.167,0.567,1.887c0.357,0.449,1.177,0.772,1.673,0.978 c2.672,1.109,1.963,0.01,1.285,0.571c-1.349,1.118-3.094,1.097-2.811,3.363c0.25,2.006,2.942,3.852,4.347,4.987 c7.998,6.462,17.799,11.405,27.395,14.962c20.087,7.446,45.043,7.761,65.475,1.438c10.927-3.382,22.117-9.389,31.175-16.355 c1.479-1.138,4.276-2.984,4.531-5.032c0.134-1.078-0.194-1.68-0.964-2.405c-0.309-0.291-0.767-0.504-1.153-0.666 C407.64,173.808,407.773,173.973,407.465,174.173c0.807-0.523,0.057-1.822-0.757-1.295c-0.858,0.555-0.932,0.936-0.535,1.8 c0.224,0.486,1.102,0.416,1.447,0.738c2.057,1.918,1.235,2.769-0.497,4.365c-6.758,6.23-16.117,10.523-24.346,14.331 c-18.676,8.641-42.018,9.108-61.882,4.83c-10.886-2.345-21.236-7.05-30.681-12.899c-2.989-1.851-6.042-3.818-8.611-6.235 c-1.165-1.096-2.901-2.188-1.34-4.001c0.397-0.461,2.006-0.487,2.302-1.129c0.477-1.037,0.126-1.042-0.535-1.8 c-1.332-1.528-3.241,0.077-2.737-3.235c0.139-0.912,0.663-1.919,0.888-2.833c2.141-8.711,3.213-17.545,6.091-26.097 c7.227-21.481,22.979-40.185,45.719-45.089c0.614-0.132,0.749-1.086,0.179-1.371c-1.267-0.634-4.743-2.88,2.973-2.393 c0.771,0.049,1.857,0.707,2.518,1.116c0.626,0.388,1.437-0.394,1.026-1.026c-1.979-3.044,2.26,0.003,3.233,1.119 c0.428,0.492,1.299,0.097,1.28-0.53c-0.139-4.661,2.518-6.068,2.337,0c-0.019,0.624,0.851,1.023,1.28,0.53 c0.746-0.856,5.376-4.416,3.233-1.119c-0.455,0.699,0.405,1.29,1.026,1.026c1.411-0.6,3.426-1.342,4.934-1.3 c2.593,0.072,2.72,1.578,0.494,2.45c-0.624,0.244-0.797,1.278,0,1.446c18.006,3.798,31.098,15.787,39.951,31.617 c5.221,9.335,8.138,19.495,10.216,29.928c0.664,3.333,1.125,6.743,1.966,10.038c0.19,0.744,0.591,1.559,0.724,2.305 c0.426,2.383-0.661,2.534-2.655,3.419C405.827,173.268,406.589,174.561,407.465,174.173z"/>
            </g>
          </g>
        </g>
        <g>
          <g>
            <g>
              <path style="fill:#FFB6C3;" d="M303.758,177.932c-11.275-2.585-7.669-10.295,0-8.461 C314.374,172.009,312.983,180.047,303.758,177.932z"/>
              <path style="fill:#FFB6C3;" d="M384.98,177.932c11.275-2.585,7.669-10.295,0-8.461 C374.364,172.009,375.754,180.047,384.98,177.932z"/>
            </g>
            <path style="fill:#4C4C89;" d="M310.173,142.605c1.98-0.848,4.688-1.446,7.824-0.319c2.244,0.806,3.487-0.991,1.843-2.278 c-1.893-1.482-6.642-2.342-9.962-0.712c-3.32,1.63-3.092,2.743-2.827,3.376C307.317,143.306,308.312,143.402,310.173,142.605z "/>
            <path style="fill:#4C4C89;" d="M378.565,142.605c-1.98-0.848-4.688-1.446-7.824-0.319c-2.244,0.806-3.487-0.991-1.843-2.278 c1.893-1.482,6.642-2.342,9.962-0.712c3.32,1.63,3.092,2.743,2.827,3.376C381.421,143.306,380.425,143.402,378.565,142.605z"/>
            <g>
              <g>
                <path style="fill:#FFFFFF;" d="M315.211,143.883c-11.696-0.296-13.917,13.769-9.919,20.135 c1.999,3.183,4.498,5.395,9.919,5.395c5.247,0,7.921-2.212,9.919-5.395C329.128,157.652,326.907,143.587,315.211,143.883z"/>
                <g>
                  <g>
                    <path style="fill:#4C4C89;" d="M327.082,152.472c-2.397-8.034-11.87-12.497-19.166-7.121 c-5.639,4.155-6.576,13.189-3.213,19.011c0.438,0.759,1.615,0.074,1.176-0.687c-2.733-4.731-2.35-11.832,1.427-15.936 c5.998-6.517,16.14-2.688,18.462,5.096C326.019,153.671,327.334,153.315,327.082,152.472L327.082,152.472z"/>
                  </g>
                </g>
                <ellipse style="fill:#4C4C89;" cx="318.256" cy="157.065" rx="7.399" ry="9.146"/>
              </g>
              <g>
                <path style="fill:#EAEBFF;" d="M301.173,163.698c0,0,10.954-0.135,19.609,8.114 C320.782,171.812,305.094,173.299,301.173,163.698z"/>
                <g>
                  <g>
                    <path style="fill:#4C4C89;" d="M301.173,164.378c7.021-0.02,14.028,3.277,19.128,7.915 c0.647,0.589,1.613-0.372,0.963-0.963c-5.367-4.881-12.704-8.334-20.091-8.314 C300.296,163.019,300.295,164.381,301.173,164.378L301.173,164.378z"/>
                  </g>
                </g>
              </g>
            </g>
            <g>
              <g>
                <path style="fill:#FFFFFF;" d="M373.318,143.883c11.696-0.296,13.917,13.769,9.919,20.135 c-1.999,3.183-4.498,5.395-9.919,5.395c-5.247,0-7.921-2.212-9.919-5.395C359.401,157.652,361.622,143.587,373.318,143.883z "/>
                <g>
                  <g>
                    <path style="fill:#4C4C89;" d="M362.76,152.834c2.327-7.8,12.47-11.605,18.462-5.096 c3.776,4.102,4.159,11.207,1.427,15.936c-0.439,0.76,0.737,1.447,1.176,0.687c3.363-5.822,2.425-14.857-3.213-19.011 c-7.291-5.372-16.769-0.91-19.166,7.121C361.196,153.313,362.509,153.673,362.76,152.834L362.76,152.834z"/>
                  </g>
                </g>
                <ellipse style="fill:#4C4C89;" cx="370.273" cy="157.065" rx="7.399" ry="9.146"/>
              </g>
              <g>
                <path style="fill:#EAEBFF;" d="M387.635,163.698c0,0-10.954-0.135-19.609,8.114 C368.026,171.812,383.713,173.299,387.635,163.698z"/>
                <g>
                  <g>
                    <path style="fill:#4C4C89;" d="M387.635,163.017c-7.386-0.021-14.724,3.433-20.091,8.314 c-0.65,0.591,0.315,1.552,0.963,0.963c5.101-4.639,12.106-7.934,19.128-7.915 C388.511,164.381,388.512,163.019,387.635,163.017L387.635,163.017z"/>
                  </g>
                </g>
              </g>
            </g>
          </g>
          <g>
            <path style="fill:#FFFFFF;" d="M356.504,166.999c-3.233-5.505-7.387-8.825-12.136-8.214 c-4.749-0.612-8.903,2.709-12.136,8.214c-3.173,5.402-5.746,13.544-1.64,19.223c4.107,5.68,23.445,5.68,27.551,0 C362.251,180.542,359.677,172.4,356.504,166.999z"/>
            <g>
              <g>
                <g>
                  <path style="fill:#4C4C89;" d="M338.292,153.917c3.849-1.6,8.303-1.431,12.153,0c0.906,0.337,1.297-1.113,0.399-1.446 c-4.068-1.512-8.881-1.692-12.951,0C337.015,152.835,337.4,154.287,338.292,153.917L338.292,153.917z"/>
                </g>
              </g>
              <g>
                <g>
                  <path style="fill:#4C4C89;" d="M341.478,149.395c1.921-0.313,3.862-0.324,5.782-0.002c0.944,0.158,1.35-1.287,0.399-1.447 c-2.201-0.369-4.379-0.356-6.58,0.002C340.128,148.104,340.532,149.549,341.478,149.395L341.478,149.395z"/>
                </g>
              </g>
            </g>
            <g>
              <g>
                <g>
                  <g>
                    <path style="fill:#4C4C89;" d="M343.619,165.492c0,3.484,0,6.967,0,10.451c0,0.965,1.5,0.967,1.5,0 c0-3.484,0-6.967,0-10.451C345.119,164.527,343.619,164.525,343.619,165.492L343.619,165.492z"/>
                  </g>
                </g>
                <g>
                  <g>
                    <path style="fill:#4C4C89;" d="M332.033,172.618c0.82,0.273,1.639,0.547,2.459,0.821 c-0.184-0.241-0.367-0.482-0.551-0.723c0.14,5.785,6.888,6.088,10.805,3.875c0.84-0.475,0.085-1.771-0.757-1.295 c-2.895,1.635-8.44,1.925-8.548-2.58c-0.008-0.346-0.23-0.616-0.551-0.723c-0.82-0.273-1.639-0.547-2.459-0.82 C331.514,170.866,331.121,172.314,332.033,172.618L332.033,172.618z"/>
                  </g>
                </g>
                <g>
                  <g>
                    <path style="fill:#4C4C89;" d="M356.305,171.172c-0.82,0.273-1.639,0.547-2.459,0.82 c-0.322,0.107-0.542,0.379-0.551,0.723c-0.109,4.504-5.655,4.215-8.548,2.58c-0.842-0.475-1.598,0.82-0.757,1.295 c3.916,2.212,10.666,1.91,10.805-3.875c-0.184,0.241-0.367,0.482-0.551,0.723c0.82-0.273,1.639-0.547,2.459-0.821 C357.615,172.314,357.224,170.865,356.305,171.172L356.305,171.172z"/>
                  </g>
                </g>
              </g>
              <g>
                <g>
                  <path style="fill:#4C4C89;" d="M338.047,177.281c0,1.498,0,2.996,0,4.493c0,0.904-0.252,1.954,0.427,2.613 c0.901,0.875,2.858,1.185,4.021,1.345c2.742,0.376,5.332-0.246,7.823-1.38c0.233-0.106,0.371-0.404,0.371-0.648 c0-2.154,0-4.309,0-6.463c0-0.405-0.344-0.75-0.75-0.75c-1.792,0-3.578-0.435-5.193-1.197 c-0.227-0.107-0.535-0.165-0.757,0c-1.49,1.11-3.387,1.386-5.193,1.236c-0.962-0.08-0.957,1.421,0,1.5 c1.367,0.114,2.693,0.014,3.991-0.447c0.462-0.164,1.473-0.958,1.919-0.965c-0.44,0.006,0.75,0.6,0.768,0.607 c0.794,0.278,1.614,0.464,2.444,0.59c0.667,0.102,1.344,0.174,2.02,0.174c-0.25-0.25-0.5-0.5-0.75-0.75 c0,1.761,0,3.522,0,5.283c0,0.163,0.108,0.897,0,1.029c-0.022,0.027-2.035,0.41-2.4,0.494 c-1.679,0.389-3.42,0.416-5.098,0.012c-0.413-0.1-2.008-0.983-2.319-0.883c-0.31,0.1,0.141,0.494,0.174,0.378 c0.081-0.286,0-0.729,0-1.023c0-1.75,0-3.501,0-5.251C339.547,176.316,338.047,176.315,338.047,177.281z"/>
                </g>
              </g>
              <path style="fill:#FFB6C3;" d="M352.981,159.41c-1.338-3.792-15.887-3.792-17.226,0c-1.338,3.792,8.613,8.345,8.613,8.345 S354.32,163.202,352.981,159.41z"/>
              <g style="opacity:0.6;">
                <g>
                  <path style="fill:#FFFFFF;" d="M337.472,159.589c4.041-1.216,8.903-0.82,12.904,0.286c0.39,0.108,0.543-0.394,0.257-0.61 c-1.867-1.415-4.499-1.254-6.738-1.247c-2.358,0.008-4.371,0.39-6.469,1.464 C337.367,159.512,337.408,159.608,337.472,159.589L337.472,159.589z"/>
                </g>
              </g>
            </g>
          </g>
        </g>
      </g>
      <g>
        <g>
          <g>
            <path style="fill:#EAEBFF;" d="M319.04,99.66c-6.499-47.981-31.471-51.321-34.507-51.142 c-3.08,0.181-6.885,25.364-6.885,25.364l30.034,33.588C310.247,111.244,321.842,106.267,319.04,99.66z"/>
            <path style="fill:#FFB6C3;" d="M311.681,105.362c-8.31-22.41-23.34-26.047-23.34-26.047l-2.899,9.786l18.132,24.024 C306.333,110.072,308.85,107.473,311.681,105.362z"/>
            <g>
              <g>
                <path style="fill:#4C4C89;" d="M312.404,105.162c-4.062-10.531-11.944-23.553-23.864-26.571 c-0.398-0.101-0.805,0.128-0.923,0.524c-0.776,2.62-3.211,7.119-2.899,9.786c0.22,1.875,2.751,4.123,3.847,5.574 c4.787,6.342,9.574,12.685,14.361,19.027c0.574,0.761,1.877,0.014,1.295-0.757c-3.219-4.265-6.438-8.53-9.657-12.795 c-2.092-2.772-4.185-5.544-6.277-8.317c-0.528-0.699-1.467-1.586-1.811-2.399c-0.444-1.05-0.279,0.531,0.048-1.152 c0.327-1.682,1.004-3.39,1.49-5.032c0.216-0.731,1.357-3.509,0.584-3.218c-0.691,0.259,2.747,1.466,3.478,1.855 c9.29,4.95,15.193,14.313,18.88,23.872C311.301,106.452,312.752,106.065,312.404,105.162L312.404,105.162z"/>
              </g>
            </g>
            <path style="fill:#EAEBFF;" d="M309.924,109.996c0,0-8.884-18.269-9.832-16.982c-0.948,1.287,3.308,10.082,3.308,10.082 c-1.492-1.668-4.452-3.165-2.843,0.374c1.609,3.539,6.654,8.197,6.654,8.197L309.924,109.996z"/>
            <path style="fill:#EAEBFF;" d="M295.366,96.219c0,0,2.691-14.405-1.707-28.019c0,0-4.462,12.513-5.746,24.174l13.844,18.342 L295.366,96.219z"/>
          </g>
          <path style="fill:#EAEBFF;" d="M264.788,131.495c-4.964-0.32-11.957-19.837-9.783-44.069 c2.174-24.233,12.682-39.633,28.807-38.908c16.124,0.725,9.24,52.903,3.442,64.135 C281.456,123.886,270.404,131.858,264.788,131.495z"/>
          <path style="opacity:0.7;fill:#EAEBFF;" d="M287.253,112.653c3.345-6.482,7.052-26.597,6.492-42.593 c-2.902,26.557-18.436,48.806-27.04,50.89c-4.508,1.092-7.345-2.332-10.785-8.544c1.979,11.394,5.808,18.892,8.868,19.089 C270.404,131.858,281.456,123.886,287.253,112.653z"/>
          <g>
            <g>
              <g>
                <path style="fill:#FFFFFF;" d="M277.459,53.804c-3.541,0.356-7.31,2.687-9.195,5.724c-0.197,0.317,0.232,0.598,0.491,0.379 c1.415-1.202,2.727-2.451,4.31-3.442c1.427-0.894,2.982-1.555,4.497-2.282C277.738,54.098,277.657,53.784,277.459,53.804 L277.459,53.804z"/>
              </g>
            </g>
            <g>
              <g>
                <path style="fill:#FFFFFF;" d="M284.119,55.632c-2.819-0.284-5.648,0.416-8.029,1.941c-0.289,0.185-0.108,0.722,0.247,0.585 c2.57-0.989,5.122-1.666,7.838-2.112C284.427,56.005,284.337,55.654,284.119,55.632L284.119,55.632z"/>
              </g>
            </g>
            <g>
              <g>
                <path style="fill:#FFFFFF;" d="M289.86,52.155c-2.947-1.437-6.93-1.617-10.074-0.729c-0.371,0.105-0.272,0.616,0.087,0.645 c1.547,0.124,3.097-0.112,4.648-0.104c1.748,0.009,3.426,0.286,5.116,0.717C289.943,52.762,290.164,52.303,289.86,52.155 L289.86,52.155z"/>
              </g>
            </g>
            <g>
              <g>
                <path style="fill:#FFFFFF;" d="M302.425,61.826c-1.515-3.044-4.382-5.881-7.598-7.094c-0.376-0.142-0.726,0.439-0.403,0.692 c1.344,1.052,2.798,1.939,4.119,3.024c1.322,1.086,2.576,2.258,3.844,3.405C302.408,61.872,302.437,61.85,302.425,61.826 L302.425,61.826z"/>
              </g>
            </g>
            <g>
              <g>
                <path style="fill:#FFFFFF;" d="M306.697,70.588c-1.193-2.347-2.538-4.678-4.303-6.648c-0.291-0.324-0.882,0.115-0.613,0.473 c1.575,2.104,3.312,4.083,4.876,6.198C306.674,70.636,306.711,70.616,306.697,70.588L306.697,70.588z"/>
              </g>
            </g>
            <g>
              <g>
                <path style="fill:#FFFFFF;" d="M301.416,68.149c-1.117-2.339-2.72-4.987-5.021-6.327c-0.359-0.209-0.648,0.249-0.417,0.54 c1.62,2.038,3.445,4.062,5.278,5.911C301.342,68.358,301.464,68.25,301.416,68.149L301.416,68.149z"/>
              </g>
            </g>
            <g>
              <g>
                <path style="fill:#FFFFFF;" d="M295.433,64.177c-1.719-3.178-6.166-6.458-9.992-5.982c-0.292,0.036-0.428,0.499-0.077,0.568 c3.78,0.742,7.294,2.727,9.946,5.508C295.373,64.338,295.475,64.254,295.433,64.177L295.433,64.177z"/>
              </g>
            </g>
            <g>
              <g>
                <path style="fill:#FFFFFF;" d="M294.728,58.677c-1.874-2.02-4.505-3.431-7.121-4.246c-0.457-0.142-0.776,0.573-0.331,0.785 c2.479,1.183,5.022,1.921,7.11,3.803C294.617,59.228,294.941,58.906,294.728,58.677L294.728,58.677z"/>
              </g>
            </g>
          </g>
          <g>
            <g>
              <path style="fill:#4C4C89;" d="M293.052,66.863c0.522,18.664-0.284,42.326-14.504,56.254 c-2.976,2.914-6.673,5.945-10.748,7.166c-3.761,1.127-5.258-0.725-6.914-3.918c-4.311-8.308-5.33-18.688-5.52-27.869 c-0.346-16.715,2.882-41.395,21.389-47.854c7.755-2.707,14.475-0.573,20.778,4.367c13.812,10.823,18.529,29.82,20.468,46.376 c0.111,0.947,1.612,0.959,1.5,0c-1.964-16.776-6.676-35.746-20.359-46.996c-6.761-5.559-14.302-8.134-22.786-5.194 c-18.687,6.477-22.544,30.432-22.509,47.519c0.021,10.002,1.064,21.359,5.744,30.408c2.791,5.397,6.162,6.121,11.612,3.338 c22.353-11.417,23.961-41.762,23.35-63.596C294.525,65.899,293.025,65.896,293.052,66.863L293.052,66.863z"/>
            </g>
          </g>
        </g>
        <g>
          <g>
            <path style="fill:#EAEBFF;" d="M370.059,99.66c6.499-47.981,31.471-51.321,34.507-51.142 c3.08,0.181,6.885,25.364,6.885,25.364l-30.034,33.588C378.852,111.244,367.257,106.267,370.059,99.66z"/>
            <path style="fill:#FFB6C3;" d="M377.418,105.362c8.31-22.41,23.34-26.047,23.34-26.047l2.899,9.786l-18.132,24.024 C382.766,110.072,380.249,107.473,377.418,105.362z"/>
            <g>
              <g>
                <path style="fill:#4C4C89;" d="M378.141,105.561c3.655-9.474,9.464-18.72,18.604-23.724 c1.039-0.569,2.924-1.865,4.186-1.793c-1.468-0.084-0.667-0.7-0.629,0.373c0.025,0.691,0.45,1.518,0.65,2.193 c0.534,1.803,1.233,3.636,1.621,5.474c0.328,1.55,0.39,0.34,0.131,1.042c-0.275,0.744-1.233,1.633-1.7,2.252 c-2.059,2.728-4.117,5.456-6.176,8.183c-3.317,4.395-6.634,8.79-9.951,13.185c-0.582,0.771,0.72,1.519,1.295,0.757 c4.787-6.342,9.574-12.685,14.361-19.027c1.049-1.389,3.641-3.677,3.86-5.475c0.329-2.702-2.128-7.238-2.912-9.886 c-0.117-0.394-0.522-0.625-0.922-0.524c-11.918,3.017-19.805,16.048-23.864,26.571 C376.347,106.063,377.797,106.454,378.141,105.561L378.141,105.561z"/>
              </g>
            </g>
            <path style="fill:#EAEBFF;" d="M379.174,109.996c0,0,8.884-18.269,9.832-16.982c0.948,1.287-3.308,10.082-3.308,10.082 c1.492-1.668,4.452-3.165,2.843,0.374c-1.609,3.539-6.654,8.197-6.654,8.197L379.174,109.996z"/>
            <path style="fill:#EAEBFF;" d="M393.733,96.219c0,0-2.691-14.405,1.708-28.019c0,0,4.462,12.513,5.746,24.174l-13.844,18.342 L393.733,96.219z"/>
          </g>
          <path style="fill:#EAEBFF;" d="M424.311,131.495c4.965-0.32,11.957-19.837,9.783-44.069 c-2.174-24.233-12.682-39.633-28.807-38.908c-16.125,0.725-9.24,52.903-3.442,64.135 C407.643,123.886,418.694,131.858,424.311,131.495z"/>
          <path style="opacity:0.7;fill:#EAEBFF;" d="M401.845,112.653c-3.345-6.482-7.052-26.597-6.492-42.593 c2.902,26.557,18.436,48.806,27.04,50.89c4.508,1.092,7.346-2.332,10.785-8.544c-1.979,11.394-5.808,18.892-8.868,19.089 C418.694,131.858,407.643,123.886,401.845,112.653z"/>
          <g>
            <g>
              <g>
                <path style="fill:#FFFFFF;" d="M411.537,54.183c1.514,0.727,3.07,1.389,4.497,2.282c1.581,0.99,2.897,2.242,4.31,3.442 c0.256,0.218,0.689-0.059,0.491-0.379c-1.885-3.037-5.653-5.368-9.195-5.724C411.441,53.784,411.361,54.098,411.537,54.183 L411.537,54.183z"/>
              </g>
            </g>
            <g>
              <g>
                <path style="fill:#FFFFFF;" d="M404.923,56.046c2.716,0.446,5.268,1.123,7.838,2.112c0.352,0.135,0.539-0.398,0.247-0.585 c-2.38-1.525-5.211-2.225-8.029-1.941C404.764,55.654,404.669,56.005,404.923,56.046L404.923,56.046z"/>
              </g>
            </g>
            <g>
              <g>
                <path style="fill:#FFFFFF;" d="M399.462,52.683c1.688-0.431,3.367-0.708,5.116-0.717c1.55-0.008,3.101,0.228,4.648,0.104 c0.356-0.029,0.461-0.539,0.087-0.645c-3.147-0.888-7.12-0.711-10.074,0.729C398.938,52.302,399.152,52.762,399.462,52.683 L399.462,52.683z"/>
              </g>
            </g>
            <g>
              <g>
                <path style="fill:#FFFFFF;" d="M386.71,61.854c1.269-1.147,2.522-2.319,3.844-3.405c1.32-1.085,2.775-1.973,4.119-3.024 c0.323-0.252-0.027-0.834-0.403-0.692c-3.216,1.213-6.082,4.048-7.598,7.094C386.662,61.85,386.69,61.873,386.71,61.854 L386.71,61.854z"/>
              </g>
            </g>
            <g>
              <g>
                <path style="fill:#FFFFFF;" d="M382.443,70.612c1.564-2.115,3.301-4.094,4.876-6.198c0.266-0.355-0.319-0.801-0.613-0.473 c-1.766,1.97-3.11,4.301-4.303,6.648C382.388,70.616,382.425,70.636,382.443,70.612L382.443,70.612z"/>
              </g>
            </g>
            <g>
              <g>
                <path style="fill:#FFFFFF;" d="M387.842,68.272c1.833-1.849,3.658-3.872,5.278-5.911c0.229-0.288-0.055-0.751-0.417-0.54 c-2.301,1.341-3.904,3.989-5.021,6.327C387.635,68.249,387.756,68.359,387.842,68.272L387.842,68.272z"/>
              </g>
            </g>
            <g>
              <g>
                <path style="fill:#FFFFFF;" d="M393.788,64.272c2.651-2.781,6.166-4.767,9.946-5.508c0.348-0.068,0.218-0.531-0.077-0.568 c-3.823-0.476-8.273,2.806-9.991,5.982C393.624,64.253,393.725,64.338,393.788,64.272L393.788,64.272z"/>
              </g>
            </g>
            <g>
              <g>
                <path style="fill:#FFFFFF;" d="M394.713,59.019c2.087-1.882,4.632-2.621,7.11-3.803c0.44-0.21,0.13-0.929-0.331-0.785 c-2.616,0.815-5.247,2.227-7.121,4.246C394.158,58.906,394.482,59.228,394.713,59.019L394.713,59.019z"/>
              </g>
            </g>
          </g>
          <g>
            <g>
              <path style="fill:#4C4C89;" d="M394.546,66.863c-0.578,20.636,0.697,46.31,18.221,60.207 c3.606,2.86,10.391,7.739,14.533,3.425c5.385-5.609,6.613-16.303,7.399-23.562c1.948-18.005,0.425-44.918-17.153-55.5 c-8.626-5.192-17.287-4.361-25.264,1.189c-15.43,10.734-20.628,31.191-22.685,48.762c-0.112,0.957,1.389,0.949,1.5,0 c1.823-15.568,5.995-32.708,17.71-43.968c4.543-4.366,10.989-8.563,17.571-8.066c19.562,1.475,25.966,23.711,27.119,39.979 c0.738,10.417,0.099,21.29-3.031,31.308c-0.906,2.898-2.008,6.581-4.226,8.798c-2.749,2.746-6.828,0.312-9.598-1.428 c-19.891-12.49-21.184-40.104-20.595-61.144C396.073,65.897,394.573,65.898,394.546,66.863L394.546,66.863z"/>
            </g>
          </g>
        </g>
      </g>
    </g>
  </g>
</svg>