<?xml version="1.0" encoding="utf-8"?>
<svg viewBox="46.7895 70.8139 161.3936 166.9656" width="161.3936" height="166.9656" xmlns="http://www.w3.org/2000/svg">
  <g transform="matrix(1, 0, 0, 1, 3.552713678800501e-15, 0)">
    <path style="fill:#D7F0A8;" d="M129.816,233.483c-34.211,2.508-60.972-11.421-65.298-21.692 c-4.326-10.271,10.789-10.958-1.141-23.38c-19.458-20.258-22.766-54.793-4.739-80.202c10.93-15.405,37.94-39.155,76.512-36.717 c38.573,2.438,52.86,28.129,59.173,42.371c6.313,14.242-5.728,38.419,6.662,44.85C214.36,165.656,218.026,227.017,129.816,233.483 z"/>
    <path style="fill:#D7F0A8;" d="M64.518,198.629c0.405,7.06-12.616-5.334-12.616-13.524S64.202,193.114,64.518,198.629z"/>
    <path style="fill:#D7F0A8;" d="M55.387,204.178c-3.35-3.376,3.394-2.832,5.269-0.983C62.532,205.045,58.87,207.688,55.387,204.178 z"/>
    <path style="fill:#D7F0A8;" d="M200.968,154.712c-5.09-1.182-1.69-20.996,2.606-21.437 C207.869,132.835,209.191,156.62,200.968,154.712z"/>
  </g>
  <g transform="matrix(1, 0, 0, 1, 3.552713678800501e-15, 0)">
    <g>
      <path style="fill:#F6764D;" d="M149.329,196.212h-43.687c-21.843,2.009-31.965,26.653-31.965,26.653 c17.134,15.23,53.808,14.913,53.808,14.913s36.674,0.317,53.808-14.913C181.294,222.866,171.173,198.222,149.329,196.212z"/>
      <path style="fill:#FFDDA3;" d="M143.659,207.382c-1.551-2.911-1.148-7.277-0.398-10.817h-31.55 c0.75,3.54,1.154,7.907-0.397,10.817c-2.777,5.21-13.374,12.385-13.489,26.791c15.073,3.728,29.661,3.606,29.661,3.606 s14.588,0.122,29.661-3.606C157.033,219.768,146.435,212.592,143.659,207.382z"/>
      <path style="opacity:0.4;fill:#F6764D;" d="M105.643,196.212c-6.647,0.611-12.203,3.324-16.724,6.795 c0.513,0.223,1.011,0.446,1.541,0.668c22.114,9.271,56.367,8.047,74.051,0c0.516-0.235,1.001-0.466,1.5-0.699 c-4.514-3.456-10.055-6.154-16.683-6.764H105.643z"/>
      <g>
        <g>
          <path style="fill:#782520;" d="M182.017,222.614c-2.914-6.996-7.769-13.623-13.465-18.581 c-7.1-6.182-15.102-8.622-24.286-8.622c-10.216,0-20.432,0-30.648,0c-8.814,0-16.422,0.705-23.981,6.076 c-7.231,5.138-13.266,12.923-16.683,21.128c-0.371,0.89,1.08,1.278,1.446,0.399c2.705-6.496,7.612-13.161,13.079-17.919 c7.342-6.391,15.314-8.183,24.62-8.183c9.208,0,18.417,0,27.626,0c8.529,0,15.839,0.011,23.431,4.913 c7.563,4.883,14.045,13.1,17.414,21.189C180.937,223.891,182.389,223.506,182.017,222.614L182.017,222.614z"/>
        </g>
      </g>
      <g>
        <g>
          <g>
            <path style="fill:#782520;" d="M103.8,213.592c-2.959,2.083-5.278,5.406-6.066,8.959c-0.103,0.464,0.552,0.64,0.708,0.195 c1.225-3.479,2.935-6.274,5.594-8.848C104.192,213.748,103.985,213.461,103.8,213.592L103.8,213.592z"/>
          </g>
        </g>
        <g>
          <g>
            <path style="fill:#782520;" d="M98.002,216.461c-1.725,2.158-3.731,5.499-3.594,8.377c0.013,0.27,0.42,0.435,0.553,0.15 c0.563-1.21,0.748-2.567,1.206-3.822c0.564-1.546,1.329-3.038,2.142-4.468C98.414,216.513,98.145,216.283,98.002,216.461 L98.002,216.461z"/>
          </g>
        </g>
        <g>
          <g>
            <path style="fill:#782520;" d="M98.695,211.889c-2.061,1.208-3.574,4.002-4.333,6.187c-0.128,0.368,0.421,0.576,0.614,0.259 c1.176-1.93,2.226-4.435,4.09-5.811C99.437,212.249,99.113,211.644,98.695,211.889L98.695,211.889z"/>
          </g>
        </g>
        <g>
          <g>
            <path style="fill:#782520;" d="M149.502,210.944c2.292,2.413,3.889,5.24,5.856,7.885c0.228,0.306,0.865,0.138,0.686-0.289 c-1.298-3.094-3.926-5.588-6.497-7.64C149.515,210.875,149.474,210.914,149.502,210.944L149.502,210.944z"/>
          </g>
        </g>
        <g>
          <g>
            <path style="fill:#782520;" d="M154.418,212.638c1.01,1.309,2.023,2.613,2.892,4.023c0.872,1.415,1.48,2.992,2.423,4.356 c0.227,0.329,0.724,0.128,0.643-0.271c-0.637-3.131-3.299-6.306-5.688-8.316C154.551,212.315,154.29,212.473,154.418,212.638 L154.418,212.638z"/>
          </g>
        </g>
        <g>
          <g>
            <path style="fill:#782520;" d="M155.582,209.584c1.771,2.325,3.452,4.65,4.946,7.165c0.278,0.469,0.981,0.054,0.729-0.426 c-1.367-2.594-3.235-5.015-5.528-6.853C155.654,209.41,155.512,209.491,155.582,209.584L155.582,209.584z"/>
          </g>
        </g>
        <g>
          <g>
            <path style="fill:#782520;" d="M80.513,215.259c-1.97,1.499-3.707,3.97-3.971,6.485c-0.031,0.292,0.428,0.407,0.553,0.15 c0.544-1.114,0.917-2.296,1.535-3.378c0.611-1.07,1.346-2.069,2.097-3.043C80.821,215.351,80.635,215.166,80.513,215.259 L80.513,215.259z"/>
          </g>
        </g>
        <g>
          <g>
            <path style="fill:#782520;" d="M83.235,214.026c-1.856,1.685-3.361,4.338-3.778,6.813c-0.052,0.308,0.374,0.549,0.543,0.229 c0.593-1.131,1.053-2.324,1.658-3.449c0.607-1.128,1.338-2.179,1.97-3.29C83.77,214.078,83.443,213.837,83.235,214.026 L83.235,214.026z"/>
          </g>
        </g>
        <g>
          <g>
            <path style="fill:#782520;" d="M172.051,213.806c0.745,1.147,1.407,2.354,1.997,3.587c0.585,1.224,0.896,2.611,1.609,3.764 c0.177,0.286,0.668,0.183,0.655-0.177c-0.096-2.707-2.207-5.486-3.942-7.421C172.217,213.389,171.925,213.612,172.051,213.806 L172.051,213.806z"/>
          </g>
        </g>
        <g>
          <g>
            <path style="fill:#782520;" d="M172.469,217.866c0.694,2.263,0.951,4.81,1.842,6.986c0.154,0.376,0.751,0.363,0.752-0.102 c0.003-2.387-1.192-4.924-2.165-7.064C172.787,217.443,172.392,217.615,172.469,217.866L172.469,217.866z"/>
          </g>
        </g>
      </g>
    </g>
    <g>
      <g>
        <g>
          <path style="fill:#F6764D;" d="M190.203,175.63c2-1.014,4.094-1.363,2.173-3.985c-1.921-2.621-0.951-23.031-9.436-39.523 c-13.786-26.797-32.275-34.674-46.279-36.721c0.115-0.012,5.362-0.59,3.574-2.122c-1.807-1.549-8.391,0.774-8.391,0.774 s5.809-5.68,2.969-5.68c-2.782,0-7.184,4.052-7.363,4.302c-0.179-0.251-4.547-4.302-7.329-4.302c-2.84,0,2.969,5.68,2.969,5.68 s-6.583-2.324-8.391-0.774c-1.807,1.549,3.585,2.123,3.585,2.123l0.029-0.002c-14.004,2.045-32.496,9.921-46.284,36.721 c-8.484,16.491-7.515,36.901-9.436,39.523c-1.921,2.621,0.174,2.971,2.173,3.985c2.498,1.266-4.829,0.974-1.086,5.308 c2.398,2.777,10.462,9.897,26.778,16.737c22.114,9.271,56.367,8.047,74.051,0c16.102-7.327,24.38-13.961,26.778-16.737 C195.033,176.604,187.706,176.897,190.203,175.63z"/>
          <path style="fill:#FFDDA3;" d="M191.289,180.939c3.743-4.335-3.583-4.042-1.086-5.308c2-1.014,4.094-1.363,2.173-3.985 c-1.223-1.67-1.278-10.558-3.346-21.052c-0.11-0.343-0.202-0.687-0.274-1.033c-1.32,8.539-5.319,26.237-16.194,31.347 c-14.505,6.816-22.936-5.082-27.808-10.492c-4.872-5.41-9.462-7.755-17.303-6.495c-7.841-1.26-12.431,1.085-17.303,6.495 c-4.872,5.411-13.303,17.308-27.808,10.492c-10.875-5.11-14.873-22.809-16.194-31.347c-2.275,10.939-2.289,20.361-3.553,22.085 c-1.921,2.621,0.174,2.971,2.173,3.985c2.498,1.266-4.829,0.974-1.086,5.308c2.398,2.777,10.462,9.897,26.778,16.737 c22.114,9.271,56.367,8.047,74.051,0C180.614,190.349,188.891,183.715,191.289,180.939z"/>
          <path style="opacity:0.4;fill:#F6764D;" d="M190.203,175.63c2-1.014,4.094-1.363,2.173-3.985 c-1.921-2.621-0.951-23.028-9.434-39.518c4.494,15.335,4.109,34.582,5.621,36.645c1.809,2.469-0.164,2.798-2.047,3.753 c-2.352,1.192,4.548,0.917,1.023,4.999c-2.258,2.615-10.054,8.862-25.218,15.763c-16.655,7.579-48.913,8.731-69.739,0 c-15.365-6.442-22.96-13.148-25.219-15.763c-3.525-4.082,3.375-3.807,1.023-4.999c-1.883-0.955-3.856-1.284-2.047-3.753 c1.501-2.048,1.133-21.038,5.528-36.318c-8.304,16.433-7.364,36.588-9.273,39.192c-1.921,2.621,0.174,2.971,2.173,3.985 c2.498,1.266-4.829,0.974-1.086,5.308c2.398,2.777,10.462,9.897,26.778,16.737c22.114,9.271,56.367,8.047,74.051,0 c16.102-7.327,24.38-13.961,26.778-16.737C195.033,176.604,187.706,176.897,190.203,175.63z"/>
          <g>
            <g>
              <path style="fill:#782520;" d="M190.582,176.278c3.421-1.609,3.39-2.046,2.324-5.243c-1.135-3.404-1.18-7.222-1.619-10.771 c-1.456-11.773-4.245-22.926-10.281-33.232c-9.752-16.649-24.731-29.368-44.144-32.353c-0.066,0.491-0.133,0.982-0.199,1.473 c1.559-0.188,5.539-0.629,4.398-3.013c-1.292-2.7-7.578-0.436-9.414,0.192c0.243,0.418,0.487,0.836,0.73,1.254 c1.119-1.109,4.966-4.418,3.777-6.303c-2.077-3.29-8.136,3.653-8.7,3.651c0.065,0-3.924-3.301-5.014-3.73 c-0.971-0.382-2.783-1.098-3.595,0.003c-1.362,1.848,2.6,5.27,3.718,6.379c0.243-0.418,0.486-0.836,0.73-1.254 c-1.629-0.558-8.708-3.027-9.591,0.051c-0.609,2.126,3.157,2.871,4.614,2.769c-0.067-0.491-0.133-0.982-0.199-1.473 c-18.782,2.886-33.524,14.893-43.267,30.874c-6.197,10.165-9.364,21.101-10.926,32.837 c-0.505,3.793-0.327,8.333-1.602,11.963c-0.775,2.206-2.089,3.319,0.189,5.025c2.493,1.867,1.855-0.508,0.63,1.261 c-0.469,0.678-1.091,0.837-1.261,1.763c-0.367,1.993,1.927,3.838,3.204,5.028c7.103,6.615,16.293,11.305,25.177,14.97 c19.983,8.243,44.849,8.744,65.593,3.115c11.162-3.029,22.232-8.971,31.385-15.983c1.772-1.358,5.171-3.55,5.717-5.909 c0.221-0.955,0.156-1.561-0.423-2.362C191.871,176.344,190.775,176.153,190.582,176.278c0.807-0.524,0.056-1.823-0.757-1.295 c-1.046,0.68-0.805,0.908-0.568,1.882c0.233,0.958,2.344,0.969,2.062,2.775c-0.159,1.018-2.261,2.478-3.051,3.157 c-7.433,6.393-16.952,11.39-25.987,15.023c-18.579,7.469-41.882,7.364-61.086,2.575c-10.449-2.605-20.61-7.429-29.44-13.587 c-2.226-1.552-5.339-3.415-6.914-5.712c-0.805-1.175-1.295-0.994-0.823-2.454c0.476-1.471,0.745-0.569,1.254-1.457 c0.242-0.422,0.804-0.41,0.779-1.058c-0.096-2.515-3.33-0.421-2.644-4.379c0.374-2.162,0.937-4.258,1.199-6.479 c1.262-10.696,2.696-21.454,7.35-31.302c9.046-19.14,25.189-34.557,46.561-37.841c0.831-0.128,0.641-1.532-0.199-1.473 c-2.088,0.146-2.482-1.206,0.545-0.942c1.353,0.118,2.749,0.629,4.033,1.068c0.725,0.248,1.242-0.746,0.73-1.254 c-0.649-0.643-3.191-2.849-3.113-3.654c0.172-1.759,5.731,2.634,6.412,3.337c0.279,0.288,0.781,0.287,1.061,0 c0.563-0.578,6.281-5.164,6.446-3.337c0.082,0.903-2.473,3.02-3.113,3.654c-0.512,0.507,0.004,1.502,0.73,1.254 c1.149-0.393,2.33-0.735,3.523-0.963c2.101-0.401,4.215,0.46,1.094,0.838c-0.751,0.091-1.117,1.332-0.199,1.473 c18.097,2.783,32.372,14.12,41.919,29.467c6.1,9.805,9.402,20.318,11.015,31.692c0.512,3.614,0.792,7.259,1.33,10.868 c0.164,1.1,0.489,2.153,0.69,3.232c0.39,2.098,0.547,2.592-1.592,3.598C188.952,175.393,189.713,176.687,190.582,176.278z"/>
            </g>
          </g>
          <g>
            <g>
              <g>
                <path style="fill:#782520;" d="M123.09,95.953c-2.814,0.182-5.508,1.207-7.891,2.698c-0.493,0.308-0.064,1.01,0.45,0.769 c2.481-1.165,4.736-2.678,7.477-3.206C123.272,96.186,123.24,95.943,123.09,95.953L123.09,95.953z"/>
              </g>
            </g>
            <g>
              <g>
                <path style="fill:#782520;" d="M122.485,98.716c-2.181,2.066-3.801,4.641-4.613,7.545c-0.166,0.596,0.724,0.83,0.919,0.253 c0.924-2.734,2.198-5.234,3.981-7.511C122.93,98.803,122.681,98.531,122.485,98.716L122.485,98.716z"/>
              </g>
            </g>
            <g>
              <g>
                <path style="fill:#782520;" d="M126.985,95.773c-1.535,1.539-3.33,4.538-2.992,6.801c0.048,0.323,0.544,0.357,0.685,0.09 c0.496-0.943,0.567-2.087,0.943-3.094c0.456-1.222,1.109-2.37,1.732-3.513C127.478,95.827,127.177,95.581,126.985,95.773 L126.985,95.773z"/>
              </g>
            </g>
            <g>
              <g>
                <path style="fill:#782520;" d="M128.792,99.384c-0.631,2.055-0.463,5.248,1.094,6.883c0.303,0.319,0.767-0.019,0.692-0.403 c-0.201-1.027-0.732-1.96-0.993-2.979c-0.291-1.133-0.36-2.294-0.455-3.455C129.115,99.241,128.852,99.191,128.792,99.384 L128.792,99.384z"/>
              </g>
            </g>
            <g>
              <g>
                <path style="fill:#782520;" d="M131.227,96.213c-0.061,1.861,0.488,4.211,1.79,5.604c0.293,0.313,0.87-0.01,0.731-0.426 c-0.275-0.824-0.747-1.543-1.112-2.328c-0.437-0.941-0.795-1.922-1.195-2.88C131.396,96.075,131.231,96.081,131.227,96.213 L131.227,96.213z"/>
              </g>
            </g>
            <g>
              <g>
                <path style="fill:#782520;" d="M135.17,97.835c1.088,0.786,2.17,1.627,3.084,2.615c0.915,0.99,1.596,2.135,2.397,3.21 c0.266,0.357,0.921,0.169,0.771-0.325c-0.822-2.712-3.486-4.965-6.125-5.8C135.108,97.475,135.028,97.732,135.17,97.835 L135.17,97.835z"/>
              </g>
            </g>
          </g>
        </g>
        <g>
          <g>
            <g>
              <path style="fill:#FFFFFF;" d="M98.433,144.885c-11.696-0.296-13.917,13.769-9.919,20.135 c1.999,3.183,4.498,5.395,9.919,5.395c5.247,0,7.921-2.212,9.919-5.395C112.35,158.654,110.129,144.589,98.433,144.885z"/>
              <g>
                <g>
                  <path style="fill:#782520;" d="M110.371,153.456c-2.411-8.08-11.94-12.562-19.274-7.157 c-5.666,4.176-6.611,13.248-3.231,19.1c0.483,0.836,1.779,0.081,1.295-0.757c-2.718-4.705-2.338-11.769,1.416-15.853 c5.96-6.482,16.039-2.668,18.347,5.065C109.2,154.777,110.648,154.384,110.371,153.456L110.371,153.456z"/>
                </g>
              </g>
              <ellipse style="fill:#782520;" cx="101.477" cy="158.067" rx="7.399" ry="9.146"/>
            </g>
            <g>
              <path style="fill:#FFFFFF;" d="M156.539,144.885c11.696-0.296,13.917,13.769,9.919,20.135 c-1.999,3.183-4.498,5.395-9.919,5.395c-5.247,0-7.921-2.212-9.919-5.395C142.622,158.654,144.843,144.589,156.539,144.885z"/>
              <g>
                <g>
                  <path style="fill:#782520;" d="M146.048,153.854c2.313-7.75,12.393-11.539,18.347-5.065 c3.753,4.081,4.133,11.15,1.417,15.853c-0.484,0.837,0.812,1.594,1.295,0.757c3.38-5.852,2.434-14.925-3.231-19.1 c-7.329-5.402-16.864-0.921-19.274,7.157C144.325,154.383,145.772,154.779,146.048,153.854L146.048,153.854z"/>
                </g>
              </g>
              <ellipse style="fill:#782520;" cx="153.495" cy="158.067" rx="7.399" ry="9.146"/>
            </g>
            <g>
              <path style="fill:#FFB6C3;" d="M86.875,178.801c-11.275-2.585-7.669-10.295,0-8.461 C97.491,172.879,96.1,180.917,86.875,178.801z"/>
              <path style="fill:#FFB6C3;" d="M168.097,178.801c11.275-2.585,7.669-10.295,0-8.461 C157.481,172.879,158.871,180.917,168.097,178.801z"/>
            </g>
            <path style="fill:#782520;" d="M93.29,143.475c1.98-0.848,4.688-1.446,7.824-0.319c2.244,0.806,3.487-0.991,1.843-2.278 c-1.893-1.482-6.642-2.342-9.962-0.712c-3.32,1.63-3.092,2.743-2.827,3.376C90.434,144.175,91.429,144.272,93.29,143.475z"/>
            <path style="fill:#782520;" d="M161.682,143.475c-1.98-0.848-4.688-1.446-7.824-0.319c-2.244,0.806-3.487-0.991-1.843-2.278 c1.894-1.482,6.643-2.342,9.962-0.712c3.32,1.63,3.092,2.743,2.827,3.376C164.538,144.175,163.543,144.272,161.682,143.475z"/>
          </g>
          <g>
            <path style="fill:#782520;" d="M134.896,161.703c-1.469-1.648-13.35-1.648-14.82,0c-1.469,1.648,1.283,5.479,7.41,8.395 C133.613,167.182,136.365,163.351,134.896,161.703z"/>
            <g style="opacity:0.3;">
              <g>
                <path style="fill:#FFFFFF;" d="M121.865,162.721c3.96-0.457,7.763-0.324,11.719,0.016c0.28,0.024,0.347-0.446,0.067-0.495 c-3.896-0.679-7.946-0.438-11.803,0.353C121.778,162.608,121.793,162.729,121.865,162.721L121.865,162.721z"/>
              </g>
            </g>
            <g>
              <g>
                <g>
                  <path style="fill:#782520;" d="M126.736,169.226c0,3.013,0,6.026,0,9.039c0,0.965,1.5,0.967,1.5,0c0-3.013,0-6.026,0-9.039 C128.236,168.261,126.736,168.259,126.736,169.226L126.736,169.226z"/>
                </g>
              </g>
              <g>
                <g>
                  <g>
                    <path style="fill:#782520;" d="M114.611,174.92c1.644-0.005,1.225,0.682,1.742,2.042c0.452,1.189,1.178,2.269,2.254,2.978 c2.975,1.961,6.96,0.85,9.409-1.421c0.709-0.658-0.353-1.717-1.061-1.061c-3.19,2.958-8.212,2.605-9.457-1.852 c-0.465-1.664-0.945-2.192-2.887-2.186C113.646,173.423,113.645,174.923,114.611,174.92L114.611,174.92z"/>
                  </g>
                </g>
                <g>
                  <g>
                    <path style="fill:#782520;" d="M140.36,173.42c-1.951-0.006-2.421,0.514-2.887,2.186c-1.24,4.443-6.274,4.805-9.457,1.852 c-0.707-0.656-1.77,0.402-1.061,1.061c2.449,2.271,6.434,3.382,9.409,1.421c1.009-0.665,1.724-1.668,2.176-2.775 c0.19-0.465,0.24-1.392,0.52-1.785c0.356-0.5,0.559-0.462,1.299-0.459C141.326,174.923,141.327,173.423,140.36,173.42 L140.36,173.42z"/>
                  </g>
                </g>
              </g>
            </g>
          </g>
        </g>
      </g>
      <g>
        <g>
          <path style="fill:#F6764D;" d="M70.1,147.879c0,0-8.738-6.641-15.728-28.485c-6.99-21.845-2.272-45.786,0-47.534 c2.272-1.748,36.349,1.573,52.602,35.825L70.1,147.879z"/>
          <path style="fill:#782520;" d="M79.624,90.471c-0.699-2.447,0.087-2.359,2.01-1.311c1.922,1.049,5.33,1.049,2.796-2.709 c-1.827-2.71,2.569-1.467,4.181-2.135C72.946,71.896,55.953,70.643,54.372,71.86c-2.081,1.601-6.209,21.826-1.514,42.003 c0.789-0.321,1.447-0.971,1.252-2.281c-0.437-2.936,0.614-3.304,1.268-1.897c0.654,1.407,3.537,1.32,3.363-1.476 c-0.175-2.796,3.408-21.845,11.097-18.175S80.323,92.918,79.624,90.471z"/>
          <g>
            <path style="fill:#FFDDA3;" d="M71.847,132.123c6.028-11.716,12.954-19.816,20.012-25.392 C75.924,85.176,58.852,78.182,57.517,78.85c-1.398,0.699-4.02,14.33,0,30.836c2.796,11.479,8.716,22.078,12.064,27.472 C70.252,135.455,71.001,133.769,71.847,132.123z"/>
          </g>
          <g>
            <g>
              <path style="fill:#782520;" d="M92.507,106.352c-6.883-9.148-14.972-17.567-24.7-23.714 c-1.943-1.228-8.44-6.052-10.986-4.182c-1.454,1.068-1.566,4.841-1.762,6.366c-0.752,5.852-0.503,11.855,0.323,17.684 c1.779,12.557,6.953,24.289,13.551,35.029c0.505,0.821,1.802,0.069,1.295-0.757c-5.206-8.473-9.615-17.6-11.988-27.293 c-1.474-6.019-2.204-12.247-2.104-18.445c0.045-2.789-0.374-8.092,1.309-10.507c1.003-1.439,1.886-0.655,3.677,0.139 c2.542,1.127,4.949,2.591,7.259,4.129c8.917,5.936,16.416,13.783,22.83,22.307C91.785,107.871,93.088,107.125,92.507,106.352 L92.507,106.352z"/>
            </g>
          </g>
          <path style="opacity:0.4;fill:#F6764D;" d="M71.847,132.123c5.16-10.03,10.979-17.409,16.976-22.824 c-3.323,2.083-6.714,4.744-9.333,8.013c-7.619,9.511-11.487,13.556-18.944-3.45c-4.649-10.603-7.327-24.83-8.686-34.043 c-1.591,9.192-2.199,24.854,2.511,39.574c4.429,13.841,9.557,21.573,12.722,25.385 C68.223,140.539,69.744,136.211,71.847,132.123z"/>
          <path style="fill:#F6764D;" d="M79.49,124.986c0,0-7.468-2.621-7.468-3.845c0-1.223,4.148-0.35,3.734-1.223 c-0.414-0.874-10.899-20.272-10.025-21.67c0.874-1.398,12.227,18.874,13.104,17.126c0.877-1.747,1.576-4.438,3.148-3.792 c1.573,0.646,2.447,6.763,2.447,6.763L79.49,124.986z"/>
          <g>
            <g>
              <path style="fill:#782520;" d="M68.945,145.747c-8.516-10.398-14.146-23.773-16.341-36.961 c-1.283-7.709-1.495-15.653-0.733-23.43c0.257-2.622,0.406-10.885,2.882-12.787c1.388-1.066,5.245,0.046,6.741,0.339 c4.24,0.831,8.387,2.222,12.337,3.959c11.931,5.247,21.882,13.863,29.014,24.746c0.527,0.804,1.826,0.054,1.295-0.757 c-9.955-15.191-26.854-27.821-45.342-29.885c-4.804-0.536-5.819,0.607-6.988,5.343c-2.744,11.113-2.462,23.429-0.346,34.602 c2.428,12.817,8.12,25.757,16.419,35.891C68.496,147.555,69.552,146.488,68.945,145.747L68.945,145.747z"/>
            </g>
          </g>
          <g style="opacity:0.5;">
            <g>
              <path style="fill:#FFFFFF;" d="M93.863,94.981c-7.426-9.402-18.462-18.536-30.666-20.586 c-0.329-0.055-0.608,0.424-0.248,0.589c5.462,2.511,10.974,4.407,16.085,7.671c5.402,3.45,10.457,7.641,14.746,12.409 C93.832,95.121,93.909,95.039,93.863,94.981L93.863,94.981z"/>
            </g>
          </g>
        </g>
        <g>
          <path style="fill:#F6764D;" d="M184.872,147.879c0,0,8.738-6.641,15.728-28.485c6.99-21.845,2.272-45.786,0-47.534 c-2.272-1.748-36.349,1.573-52.602,35.825L184.872,147.879z"/>
          <path style="fill:#782520;" d="M175.348,90.471c0.699-2.447-0.087-2.359-2.01-1.311c-1.922,1.049-5.33,1.049-2.796-2.709 c1.827-2.71-2.57-1.467-4.181-2.135c15.665-12.421,32.658-13.674,34.24-12.457c2.081,1.601,6.209,21.826,1.514,42.003 c-0.789-0.321-1.447-0.971-1.252-2.281c0.437-2.936-0.615-3.304-1.268-1.897c-0.654,1.407-3.537,1.32-3.363-1.476 c0.175-2.796-3.408-21.845-11.097-18.175C177.445,93.704,174.649,92.918,175.348,90.471z"/>
          <g>
            <path style="fill:#FFDDA3;" d="M183.124,132.123c-6.028-11.716-12.954-19.816-20.012-25.392 c15.936-21.555,33.007-28.549,34.342-27.881c1.398,0.699,4.02,14.33,0,30.836c-2.796,11.479-8.715,22.078-12.063,27.472 C184.72,135.455,183.971,133.769,183.124,132.123z"/>
          </g>
          <path style="opacity:0.4;fill:#F6764D;" d="M183.124,132.123c-5.16-10.03-10.979-17.409-16.975-22.824 c3.323,2.083,6.714,4.744,9.333,8.013c7.619,9.511,11.488,13.556,18.944-3.45c4.649-10.603,7.327-24.83,8.686-34.043 c1.591,9.192,2.199,24.854-2.511,39.574c-4.429,13.841-9.557,21.573-12.722,25.385 C186.748,140.539,185.227,136.211,183.124,132.123z"/>
          <g>
            <g>
              <path style="fill:#782520;" d="M163.76,107.109c6.308-8.384,13.659-16.096,22.377-22.005 c2.445-1.657,5.006-3.231,7.712-4.431c1.854-0.822,2.616-1.536,3.677-0.139c1.731,2.28,1.266,7.807,1.309,10.507 c0.094,5.877-0.568,11.774-1.887,17.499c-2.315,10.046-6.829,19.488-12.205,28.239c-0.507,0.825,0.79,1.579,1.295,0.757 c6.599-10.741,11.77-22.471,13.551-35.029c0.801-5.651,1.054-11.457,0.387-17.136c-0.2-1.702-0.233-5.745-1.826-6.914 c-2.538-1.864-9.068,2.969-10.986,4.182c-9.728,6.149-17.816,14.565-24.7,23.714 C161.884,107.124,163.186,107.872,163.76,107.109L163.76,107.109z"/>
            </g>
          </g>
          <path style="fill:#F6764D;" d="M175.482,124.986c0,0,7.468-2.621,7.468-3.845c0-1.223-4.148-0.35-3.734-1.223 c0.414-0.874,10.899-20.272,10.025-21.67c-0.874-1.398-12.227,18.874-13.104,17.126c-0.877-1.747-1.576-4.438-3.148-3.792 c-1.573,0.646-2.447,6.763-2.447,6.763L175.482,124.986z"/>
          <g>
            <g>
              <path style="fill:#782520;" d="M187.087,146.807c14.998-18.313,20.757-43.931,16.767-67.075 c-0.719-4.174-0.913-9.035-5.856-8.916c-6.526,0.156-13.273,2.692-19.098,5.429c-11.529,5.418-21.103,13.98-28.07,24.611 c-0.531,0.81,0.768,1.562,1.295,0.757c7.033-10.731,16.802-19.26,28.524-24.53c4.097-1.842,8.414-3.311,12.828-4.176 c1.554-0.304,5.309-1.404,6.741-0.339c2.453,1.824,2.637,10.29,2.882,12.787c0.735,7.493,0.556,15.127-0.598,22.567 c-2.094,13.495-7.776,27.201-16.476,37.824C185.42,146.488,186.475,147.555,187.087,146.807L187.087,146.807z"/>
            </g>
          </g>
          <g style="opacity:0.5;">
            <g>
              <path style="fill:#FFFFFF;" d="M191.845,74.65c-11.587,3.163-24.308,9.759-30.972,20.211 c-0.204,0.319,0.243,0.629,0.506,0.391c4.626-4.203,8.644-8.66,13.904-12.177c5.127-3.428,10.76-6.308,16.594-8.311 C191.946,74.739,191.918,74.63,191.845,74.65L191.845,74.65z"/>
            </g>
          </g>
        </g>
      </g>
    </g>
  </g>
</svg>