<?xml version="1.0" encoding="utf-8"?>
<svg viewBox="35.6089 293.1538 173.7536 158.3528" width="173.7536" height="158.3528" xmlns="http://www.w3.org/2000/svg">
  <g transform="matrix(1, 0, 0, 1, 3.552713678800501e-15, 0)">
    <path style="fill:#C6A0F2;" d="M202.606,408.861c-9.331,24.167-31.936,36.815-69.368,38.848 c-19.515,1.06-65.528,2.203-85.73-41.639c-5.53-12.002-6.654-27.161,1.771-22.109c8.425,5.052,6.74-11.491,7.021-31.442 c0.281-19.951,14.702-46.387,54.248-56.758c39.546-10.37,61.132,12.642,69.66,26.136c9.762,15.445,7.66,42.279,18.795,36.908 C215.411,350.89,208.93,392.483,202.606,408.861z"/>
    <path style="fill:#C6A0F2;" d="M45.378,360.368c-4.59,4.708,2.497,26.867,7.833,20.674 C58.546,374.85,50.463,355.152,45.378,360.368z"/>
    <path style="fill:#C6A0F2;" d="M42.627,380.19c-4.074-0.039-10.671-9.948-4.493-7.529 C44.312,375.079,48.525,380.245,42.627,380.19z"/>
    <path style="fill:#C6A0F2;" d="M196.421,354.882c-6.803-0.421-6.608-23.423,2.097-21.62 C207.223,335.064,208.084,355.603,196.421,354.882z"/>
  </g>
  <g transform="matrix(1, 0, 0, 1, 3.552713678800501e-15, 0)">
    <g>
      <path style="fill:#6D6A9C;" d="M149.329,409.94h-43.687c-21.843,2.009-31.965,26.653-31.965,26.653 c17.134,15.23,53.808,14.913,53.808,14.913s36.674,0.317,53.808-14.913C181.294,436.593,171.173,411.949,149.329,409.94z"/>
      <g>
        <g>
          <g>
            <path style="fill:#232345;" d="M94.417,416.406c-1.858,0.844-3.764,1.981-5.071,3.58c-0.118,0.144,0.04,0.413,0.218,0.282 c1.669-1.227,3.223-2.523,5.05-3.525C94.838,416.62,94.641,416.304,94.417,416.406L94.417,416.406z"/>
          </g>
        </g>
        <g>
          <g>
            <path style="fill:#232345;" d="M92.39,419.362c-1.566,0.966-3.094,2.2-4.067,3.788c-0.134,0.219,0.164,0.427,0.343,0.265 c1.335-1.204,2.561-2.495,3.992-3.594C92.92,419.619,92.69,419.177,92.39,419.362L92.39,419.362z"/>
          </g>
        </g>
        <g>
          <g>
            <path style="fill:#232345;" d="M96.427,417.709c-1.281,0.957-2.522,1.977-3.51,3.244c-0.201,0.257,0.109,0.589,0.365,0.365 c1.181-1.035,2.29-2.146,3.505-3.142C97.045,417.964,96.698,417.507,96.427,417.709L96.427,417.709z"/>
          </g>
        </g>
        <g>
          <g>
            <path style="fill:#232345;" d="M169.697,424.471c0.8,0.937,1.552,1.915,2.277,2.911c0.61,0.838,1.114,1.765,1.786,2.553 c0.281,0.33,0.698-0.091,0.552-0.426c-0.882-2.028-2.714-3.856-4.284-5.369C169.808,423.928,169.503,424.244,169.697,424.471 L169.697,424.471z"/>
          </g>
        </g>
        <g>
          <g>
            <path style="fill:#232345;" d="M170.508,428.758c0.543,0.875,1.035,1.772,1.512,2.684c0.422,0.806,0.732,1.781,1.361,2.445 c0.184,0.194,0.587,0.056,0.56-0.232c-0.085-0.898-0.637-1.724-1.083-2.492c-0.547-0.943-1.19-1.831-1.851-2.696 C170.788,428.18,170.305,428.432,170.508,428.758L170.508,428.758z"/>
          </g>
        </g>
        <g>
          <g>
            <path style="fill:#232345;" d="M167.685,427.179c0.947,1.689,1.648,3.583,2.736,5.179c0.165,0.242,0.566,0.099,0.486-0.205 c-0.502-1.901-1.81-3.615-3.001-5.145C167.806,426.879,167.61,427.044,167.685,427.179L167.685,427.179z"/>
          </g>
        </g>
        <g>
          <g>
            <path style="fill:#232345;" d="M93.915,437.846c-1.015,1.125-1.983,2.356-2.541,3.775c-0.092,0.235,0.259,0.347,0.386,0.163 c0.83-1.208,1.569-2.444,2.542-3.551C94.533,437.97,94.152,437.583,93.915,437.846L93.915,437.846z"/>
          </g>
        </g>
        <g>
          <g>
            <path style="fill:#232345;" d="M91.093,439.225c-0.581,0.768-1.118,1.576-1.477,2.473c-0.085,0.213,0.244,0.33,0.357,0.15 c0.495-0.783,0.954-1.578,1.525-2.311C91.725,439.246,91.32,438.926,91.093,439.225L91.093,439.225z"/>
          </g>
        </g>
      </g>
      <path style="fill:#A7A7C7;" d="M156.805,435.166c0,0,3.942,1.223,4.108-0.175c0.166-1.398-11.193-9.262-11.193-9.262 s4.76-0.35,4.04-1.398c-0.72-1.049-9.219-3.146-10.824-7.428c-0.798-2.129-1.199-4.582-1.4-6.511h-28.1 c-0.202,1.929-0.603,4.381-1.401,6.511c-1.605,4.281-10.104,6.379-10.824,7.428c-0.72,1.048,4.04,1.398,4.04,1.398 s-11.359,7.864-11.193,9.262c0.166,1.398,4.108,0.175,4.108,0.175c-3.161,3.881-4.792,7.926-5.627,11.258 c16.748,5.231,34.945,5.082,34.945,5.082s18.198,0.149,34.945-5.082C161.596,443.092,159.966,439.046,156.805,435.166z"/>
      <path style="opacity:0.3;fill:#6D6A9C;" d="M105.643,409.94c-6.647,0.611-12.203,3.324-16.724,6.795 c0.513,0.223,1.011,0.446,1.541,0.668c22.114,9.271,56.367,8.047,74.051,0c0.516-0.235,1.001-0.466,1.5-0.699 c-4.514-3.456-10.055-6.155-16.683-6.764H105.643z"/>
      <g>
        <g>
          <path style="fill:#232345;" d="M182.017,436.342c-2.914-6.996-7.769-13.623-13.465-18.581 c-7.1-6.182-15.102-8.622-24.286-8.622c-10.216,0-20.432,0-30.648,0c-8.814,0-16.422,0.705-23.981,6.076 c-7.231,5.138-13.266,12.923-16.683,21.128c-0.371,0.89,1.08,1.278,1.446,0.399c2.705-6.496,7.612-13.161,13.079-17.919 c7.342-6.391,15.314-8.183,24.62-8.183c9.208,0,18.417,0,27.626,0c8.529,0,15.839,0.011,23.431,4.913 c7.563,4.883,14.045,13.099,17.414,21.189C180.937,437.619,182.389,437.233,182.017,436.342L182.017,436.342z"/>
        </g>
      </g>
      <g>
        <g>
          <g>
            <path style="fill:#6D6A9C;" d="M105.754,428.649c-2.042,0.668-4.134,1.953-5.118,3.934c-0.112,0.226,0.18,0.493,0.368,0.284 c1.439-1.601,2.808-3.043,4.842-3.886C106.043,428.898,105.969,428.578,105.754,428.649L105.754,428.649z"/>
          </g>
        </g>
        <g>
          <g>
            <path style="fill:#6D6A9C;" d="M104.293,431.953c-1.429,1.304-2.646,2.949-3.031,4.874c-0.055,0.277,0.346,0.492,0.485,0.205 c0.821-1.687,1.673-3.269,3.043-4.582C105.119,432.136,104.627,431.65,104.293,431.953L104.293,431.953z"/>
          </g>
        </g>
        <g>
          <g>
            <path style="fill:#6D6A9C;" d="M107.649,429.801c-1.429,1.305-2.507,2.775-3.197,4.596c-0.161,0.425,0.515,0.603,0.678,0.187 c0.648-1.651,1.537-3.253,2.707-4.595C107.949,429.86,107.776,429.685,107.649,429.801L107.649,429.801z"/>
          </g>
        </g>
        <g>
          <g>
            <path style="fill:#6D6A9C;" d="M126.104,437.086c-0.765,1.559-1.29,3.245-1.251,4.997c0.01,0.429,0.708,0.566,0.783,0.106 c0.267-1.651,0.484-3.289,0.94-4.904C126.652,437.01,126.235,436.818,126.104,437.086L126.104,437.086z"/>
          </g>
        </g>
        <g>
          <g>
            <path style="fill:#6D6A9C;" d="M127.128,439.594c-0.766,1.919-1.164,4.113-0.678,6.159c0.079,0.333,0.545,0.235,0.568-0.077 c0.15-2.014,0.063-4.05,0.209-6.069C127.23,439.547,127.147,439.546,127.128,439.594L127.128,439.594z"/>
          </g>
        </g>
        <g>
          <g>
            <path style="fill:#6D6A9C;" d="M129.324,437.145c-0.754,2.08-0.971,4.281-0.287,6.415c0.151,0.471,0.84,0.278,0.738-0.204 c-0.435-2.059-0.611-4.057-0.18-6.136C129.632,437.042,129.385,436.976,129.324,437.145L129.324,437.145z"/>
          </g>
        </g>
        <g>
          <g>
            <path style="fill:#6D6A9C;" d="M148.295,427.122c1.349,1.247,2.538,2.617,3.689,4.045c0.326,0.404,0.913-0.175,0.575-0.575 c-1.179-1.394-2.557-2.62-3.999-3.736C148.375,426.713,148.113,426.953,148.295,427.122L148.295,427.122z"/>
          </g>
        </g>
        <g>
          <g>
            <path style="fill:#6D6A9C;" d="M149.387,430.409c1.18,1.336,2.094,2.813,2.928,4.382c0.248,0.466,0.927,0.056,0.702-0.41 c-0.793-1.642-1.928-3.103-3.199-4.402C149.542,429.695,149.13,430.117,149.387,430.409L149.387,430.409z"/>
          </g>
        </g>
        <g>
          <g>
            <path style="fill:#6D6A9C;" d="M152.026,429.207c1.454,1.502,2.796,3.115,4.01,4.817c0.325,0.456,0.971-0.03,0.614-0.473 c-1.334-1.657-2.801-3.165-4.413-4.554C152.092,428.874,151.891,429.068,152.026,429.207L152.026,429.207z"/>
          </g>
        </g>
      </g>
    </g>
    <g>
      <path style="fill:#6D6A9C;" d="M190.203,389.358c2-1.014,4.094-1.363,2.173-3.985c-1.921-2.621-0.951-23.031-9.436-39.522 c-17.092-33.223-41.417-37.371-55.455-37.371c-14.038,0-38.363,4.147-55.455,37.371c-8.484,16.491-7.515,36.901-9.436,39.522 c-1.921,2.621,0.174,2.971,2.173,3.985c2.498,1.266-4.829,0.974-1.086,5.308c2.398,2.777,10.462,9.897,26.778,16.737 c22.114,9.271,56.367,8.047,74.051,0c16.102-7.327,24.38-13.961,26.778-16.737C195.033,390.331,187.706,390.624,190.203,389.358z "/>
      <path style="fill:#6D6A9C;" d="M190.203,389.358c2-1.014,4.094-1.363,2.173-3.985c-1.921-2.621-0.951-23.031-9.436-39.522 c-17.092-33.223-41.417-37.371-55.455-37.371c-14.038,0-38.363,4.147-55.455,37.371c-8.484,16.491-7.515,36.901-9.436,39.522 c-1.921,2.621,0.174,2.971,2.173,3.985c2.498,1.266-4.829,0.974-1.086,5.308c2.398,2.777,10.462,9.897,26.778,16.737 c22.114,9.271,56.367,8.047,74.051,0c16.102-7.327,24.38-13.961,26.778-16.737C195.033,390.331,187.706,390.624,190.203,389.358z "/>
      <g>
        <path style="fill:#3F3C6B;" d="M163.292,342.238c-13.921-3.913-20.158,3.913-23.827,9.049 c-3.669,5.136-6.227,11.74-11.98,12.474c-5.753-0.734-8.311-7.338-11.98-12.474c-3.669-5.136-9.906-12.963-23.827-9.049 c-13.921,3.913-23.256,22.379-20.81,36.932c2.446,14.553,17.26,19.405,27.263,16.876c11.75-2.97,29.354-14.908,29.354-14.908 s17.603,11.938,29.354,14.908c10.003,2.528,24.817-2.324,27.263-16.876C186.548,364.617,177.213,346.151,163.292,342.238z"/>
        <path style="fill:#A7A7C7;" d="M183.607,364.334c0,0,3.061,1.625-0.153-4.078c-1.618-2.87-3.375-4.968-5.101-6.651 c0.648,0.039,1.629-0.174,0.461-2.176c-1.627-2.79-7.573-6.839-11.168-7.43c0,0,2.915-0.359,2.449-1.637 c-0.465-1.279-10.281-2.995-16.301-1.032c0,0,1.304-1.293,0.49-2.455c-0.814-1.163-8.366,0.995-14.82,12.413 c-3.669,5.136-6.227,11.74-11.98,12.474c-5.753-0.734-8.311-7.338-11.98-12.474c-6.454-11.418-14.006-13.576-14.82-12.413 c-0.814,1.163,0.49,2.455,0.49,2.455c-6.02-1.962-15.836-0.247-16.301,1.032c-0.465,1.279,2.449,1.637,2.449,1.637 c-3.596,0.591-9.541,4.64-11.168,7.43c-1.168,2.002-0.187,2.215,0.461,2.176c-1.726,1.683-3.483,3.781-5.101,6.651 c-3.214,5.703-0.153,4.078-0.153,4.078c-4.282,11.941-0.729,13.034-0.729,13.034c1.198-12.673,9.556-25.813,21.044-29.043 c13.921-3.913,20.158,3.913,23.827,9.049c3.669,5.136,8.235,9.752,11.98,9.474c3.745,0.278,8.311-4.337,11.98-9.474 c3.669-5.136,9.906-12.963,23.827-9.049c11.488,3.229,19.846,16.37,21.044,29.043 C184.336,377.369,187.889,376.275,183.607,364.334z"/>
      </g>
      <path style="opacity:0.3;fill:#6D6A9C;" d="M190.203,389.358c2-1.014,4.094-1.363,2.173-3.985 c-1.357-1.851-1.276-12.578-4.098-24.528c1.14,10.683-0.698,20.019,0.528,21.691c1.815,2.477-0.164,2.807-2.054,3.765 c-2.36,1.197,4.564,0.92,1.026,5.016c-2.266,2.624-10.088,8.892-25.305,15.816c-16.712,7.605-49.08,8.761-69.978,0 c-15.418-6.464-23.038-13.192-25.305-15.816c-3.537-4.096,3.387-3.82,1.026-5.016c-1.89-0.958-3.869-1.288-2.054-3.765 c1.226-1.672-0.613-11.008,0.528-21.691c-2.822,11.951-2.741,22.677-4.098,24.529c-1.921,2.621,0.174,2.971,2.173,3.985 c2.498,1.266-4.829,0.974-1.086,5.308c2.398,2.777,10.462,9.897,26.778,16.737c22.114,9.271,56.367,8.047,74.051,0 c16.102-7.327,24.38-13.961,26.778-16.737C195.033,390.331,187.706,390.624,190.203,389.358z"/>
      <g>
        <g>
          <path style="fill:#232345;" d="M190.582,390.005c5.093-2.396,2.117-4.635,1.508-9.154c-1.016-7.538-1.687-15.054-3.646-22.437 c-4.24-15.976-14.486-31.424-28.179-40.852c-17.19-11.836-41.243-13.127-59.739-3.503 c-14.212,7.395-25.227,21.268-31.213,35.944c-3.199,7.844-4.688,16.228-5.702,24.599c-0.333,2.75-0.435,5.623-1.038,8.33 c-0.34,1.527-1.862,3.232-1.358,4.792c0.219,0.678,0.766,0.981,1.298,1.38c0.123,0.092,1.778,0.666,1.879,0.901 c-0.09-0.209-0.056-0.674-0.528-0.052c-0.924,1.219-2.147,1.066-1.948,3.018c0.33,3.23,5.86,6.545,8.171,8.213 c13.806,9.961,30.094,15.557,46.975,17.017c18.823,1.628,37.567-0.731,54.477-9.351c6.553-3.341,13.408-7.104,18.823-12.176 c1.111-1.041,2.997-2.644,2.759-4.346c-0.106-0.758-0.419-1.132-0.92-1.669C191.515,389.927,190.732,389.908,190.582,390.005 c0.807-0.524,0.056-1.823-0.757-1.295c-0.573,0.373-0.976,0.708-0.838,1.433c0.381,2.005,3.378,1.185,1.481,4.317 c-2.311,3.816-8.488,6.769-12.167,8.959c-14.047,8.361-28.333,12.822-44.667,13.598c-16.447,0.782-32.965-1.483-47.932-8.545 c-6.502-3.068-12.959-6.679-18.437-11.381c-1.372-1.177-3.836-2.905-3.249-4.722c0.317-0.981,1.967-1.397,2.019-2.415 c0.059-1.167-1.267-1.08-1.878-1.709c-1.549-1.592-0.492-3.141-0.083-5.259c1.116-5.778,1.312-11.719,2.403-17.515 c3.13-16.629,11.713-32.461,24.776-43.407c15.521-13.004,38.001-16.388,56.882-9.204c16.047,6.105,28.27,20.184,35.219,35.574 c3.897,8.632,5.55,17.998,6.645,27.343c0.293,2.502,0.431,5.083,0.953,7.553c0.518,2.451,1.759,4.02-1.129,5.379 C188.952,389.121,189.713,390.414,190.582,390.005z"/>
        </g>
      </g>
      <g>
        <g>
          <g>
            <g>
              <path style="fill:#FFFFFF;" d="M98.433,358.81c-11.696-0.296-13.917,13.769-9.919,20.135 c1.999,3.183,4.498,5.395,9.919,5.395c5.247,0,7.921-2.212,9.919-5.395C112.35,372.578,110.129,358.514,98.433,358.81z"/>
              <ellipse style="fill:#232345;" cx="101.477" cy="371.992" rx="7.399" ry="9.146"/>
            </g>
            <g>
              <path style="fill:#3F3C6B;" d="M85.716,360.465l26.346,5.447C112.062,365.911,107.496,350.81,85.716,360.465z"/>
              <g>
                <g>
                  <path style="fill:#232345;" d="M85.517,361.188c8.782,1.815,17.564,3.631,26.346,5.447 c0.375,0.077,0.839-0.106,0.923-0.524c0.394-1.958,0.23-3.809-0.166-5.755c-0.193-0.945-1.639-0.545-1.447,0.399 c0.227,1.112-0.287,4.89,1.043,4.424c-0.134,0.047-0.363-0.108-0.507-0.105c-0.838,0.022-1.88-0.389-2.698-0.558 c-2.986-0.617-5.973-1.235-8.959-1.852c-4.712-0.974-9.424-1.948-14.135-2.922 C84.974,359.547,84.571,360.992,85.517,361.188L85.517,361.188z"/>
                </g>
              </g>
              <path style="fill:#232345;" d="M94.045,353.375c1.311,0.172,11.477,2.258,13.598,3.281c2.121,1.023,0.869,3.954-0.849,3.565 c-1.718-0.388-13.504-3.093-13.504-3.093C90.991,356.228,92.023,353.109,94.045,353.375z"/>
            </g>
          </g>
          <g>
            <path style="fill:#FFB6C3;" d="M86.875,392.726c-11.275-2.585-7.669-10.295,0-8.461 C97.491,386.803,96.1,394.841,86.875,392.726z"/>
            <path style="fill:#FFB6C3;" d="M168.097,392.726c11.275-2.585,7.669-10.295,0-8.461 C157.481,386.803,158.871,394.841,168.097,392.726z"/>
          </g>
          <g>
            <g>
              <path style="fill:#FFFFFF;" d="M156.503,358.81c11.696-0.296,13.917,13.769,9.919,20.135 c-1.999,3.183-4.498,5.395-9.919,5.395c-5.247,0-7.921-2.212-9.919-5.395C142.586,372.578,144.806,358.514,156.503,358.81z"/>
              <ellipse style="fill:#232345;" cx="153.458" cy="371.992" rx="7.399" ry="9.146"/>
            </g>
            <g>
              <path style="fill:#3F3C6B;" d="M169.219,360.465l-26.346,5.447C142.873,365.911,147.439,350.81,169.219,360.465z"/>
              <g>
                <g>
                  <path style="fill:#232345;" d="M169.02,359.742c-4.712,0.974-9.424,1.948-14.135,2.922 c-2.986,0.617-5.973,1.235-8.959,1.852c-0.747,0.154-1.782,0.576-2.548,0.527c-0.129-0.008-0.516,0.185-0.657,0.136 c1.513,0.522,0.807-3.268,1.043-4.424c0.192-0.942-1.254-1.345-1.446-0.399c-0.397,1.946-0.56,3.797-0.166,5.755 c0.084,0.415,0.549,0.601,0.923,0.524c8.782-1.816,17.564-3.631,26.346-5.447 C170.363,360.993,169.963,359.547,169.02,359.742L169.02,359.742z"/>
                </g>
              </g>
              <path style="fill:#232345;" d="M160.89,353.375c-1.311,0.172-11.477,2.258-13.598,3.281 c-2.122,1.023-0.869,3.954,0.849,3.565c1.718-0.388,13.504-3.093,13.504-3.093 C163.945,356.228,162.912,353.109,160.89,353.375z"/>
            </g>
          </g>
        </g>
        <g>
          <path style="fill:#A7A7C7;" d="M141.51,381.138c-4.337-4.659-23.71-4.659-28.047,0c-3.667,3.938-4.551,10.525,0.489,15.642 c5.179,5.259,10.682,5.992,13.534,5.992c2.853,0,8.355-0.734,13.535-5.992C146.06,391.664,145.176,385.077,141.51,381.138z"/>
          <g>
            <g>
              <g>
                <g>
                  <path style="fill:#232345;" d="M126.718,382.99c0,3.107,0,6.214,0,9.32c0,0.965,1.5,0.967,1.5,0c0-3.107,0-6.214,0-9.32 C128.218,382.025,126.718,382.023,126.718,382.99L126.718,382.99z"/>
                </g>
              </g>
              <g>
                <g>
                  <path style="fill:#232345;" d="M117.012,391.645c0.804,1.264,2.025,2.365,3.389,2.981c2.79,1.259,5.464-0.001,7.598-1.897 c0.723-0.643-0.341-1.7-1.061-1.061c-2.844,2.528-6.49,2.588-8.631-0.78C117.791,390.075,116.492,390.827,117.012,391.645 L117.012,391.645z"/>
                </g>
              </g>
              <g>
                <g>
                  <path style="fill:#232345;" d="M136.665,390.888c-2.14,3.366-5.786,3.309-8.631,0.78c-0.719-0.639-1.784,0.418-1.061,1.061 c2.134,1.897,4.807,3.156,7.598,1.897c1.364-0.616,2.585-1.716,3.389-2.981 C138.479,390.828,137.182,390.074,136.665,390.888L136.665,390.888z"/>
                </g>
              </g>
            </g>
            <path style="fill:#232345;" d="M135.64,377.146c-1.515-2.447-14.794-2.447-16.309,0c-1.514,2.447,5.241,7.107,8.154,7.922 C130.4,384.253,137.155,379.593,135.64,377.146z"/>
            <g style="opacity:0.7;">
              <g>
                <path style="fill:#FFFFFF;" d="M121.063,378.475c4.432-0.619,8.251-0.502,12.663,0.081c0.395,0.052,0.419-0.538,0.089-0.656 c-3.979-1.421-8.915-1.133-12.77,0.532C121.018,378.444,121.039,378.478,121.063,378.475L121.063,378.475z"/>
              </g>
            </g>
          </g>
        </g>
      </g>
      <path style="fill:#6D6A9C;" d="M131.635,308.607c0,0-4.585-3.984-12.522-5.557c-7.937-1.573-6.155,0.874-1.454,3.845 c0,0-4.646-0.121-8.682,2.362c-4.036,2.484,0.186,3.291,7.575,3.539c0,0-4.905,5.153-5.091,11.424 c-0.186,6.271,4.408,4.346,10.307-4.098c0,0,1.863,8.258,6.209,9.748c4.346,1.49,4.967-9.189,4.967-9.189L131.635,308.607z"/>
      <g>
        <g>
          <path style="fill:#232345;" d="M132.165,308.076c-4.05-3.407-11.722-7.01-17.078-6.266c-4.963,0.689,0.362,4.532,2.193,5.732 c0.126-0.466,0.252-0.932,0.379-1.398c-2.403-0.004-10.797,1.059-10.963,4.478c-0.167,3.436,8.106,2.85,9.856,2.923 c-0.177-0.427-0.354-0.854-0.53-1.28c-2.806,3.05-7.741,11.076-4.669,15.267c3.273,4.465,9.588-4.993,11.063-7.031 c-0.457-0.06-0.914-0.119-1.371-0.179c0.776,3.266,3.62,11.511,8.347,10.363c3.623-0.88,4.105-7.024,4.303-10.003 c0.064-0.964-1.437-0.96-1.5,0c-0.129,1.946-0.434,7.013-2.368,8.1c-3.918,2.201-6.703-6.198-7.335-8.858 c-0.162-0.681-1.018-0.668-1.371-0.179c-1.246,1.723-3.012,4.558-4.924,5.804c-3.943,2.568-4.422-0.68-3.57-4.151 c0.721-2.935,2.407-5.842,4.457-8.07c0.447-0.486,0.128-1.253-0.53-1.28c-2.215-0.093-10.014,0.142-5.756-2.812 c1.817-1.261,4.716-1.593,6.863-1.589c0.771,0.001,0.985-1,0.379-1.398c-1.327-0.869-3.806-1.908-2.437-2.918 c1.136-0.838,6.608,1.248,7.941,1.725c2.631,0.943,5.402,2.266,7.562,4.084C131.839,309.755,132.905,308.699,132.165,308.076 L132.165,308.076z"/>
        </g>
      </g>
      <g>
        <g>
          <g>
            <path style="fill:#232345;" d="M65.958,378.094c-0.479,2.669-0.861,5.319-1.692,7.91c-0.206,0.641,0.836,0.931,1.009,0.278 c0.711-2.677,1.16-5.423,0.779-8.189C66.047,378.046,65.966,378.047,65.958,378.094L65.958,378.094z"/>
          </g>
        </g>
        <g>
          <g>
            <path style="fill:#232345;" d="M67.646,383.862c-0.257,1.216-0.793,2.269-1.282,3.399c-0.164,0.379,0.323,0.888,0.638,0.492 c0.863-1.086,1.209-2.435,1.38-3.792C68.436,383.543,67.733,383.451,67.646,383.862L67.646,383.862z"/>
          </g>
        </g>
        <g>
          <g>
            <path style="fill:#232345;" d="M69.223,387.468c-0.437,1.077-1.228,1.842-2.188,2.46c-0.423,0.272-0.053,0.907,0.394,0.674 c1.16-0.604,1.948-1.759,2.307-2.994C69.833,387.272,69.348,387.16,69.223,387.468L69.223,387.468z"/>
          </g>
        </g>
        <g>
          <g>
            <path style="fill:#232345;" d="M72.026,397.209c-2.432-0.733-4.218-2.013-6.161-3.587c-0.25-0.202-0.721,0.07-0.491,0.379 c1.517,2.031,4.047,3.307,6.481,3.826C72.257,397.912,72.423,397.329,72.026,397.209L72.026,397.209z"/>
          </g>
        </g>
        <g>
          <g>
            <path style="fill:#232345;" d="M71.946,392.748c-1.752-0.065-3.385-0.456-5.075-0.877c-0.354-0.088-0.584,0.413-0.253,0.6 c1.612,0.91,3.507,1.159,5.328,0.996C72.401,393.426,72.415,392.765,71.946,392.748L71.946,392.748z"/>
          </g>
        </g>
      </g>
      <g>
        <g>
          <g>
            <path style="fill:#232345;" d="M188.918,378.094c-0.381,2.766,0.068,5.512,0.779,8.189c0.173,0.652,1.215,0.364,1.01-0.278 c-0.831-2.591-1.213-5.241-1.692-7.91C189.006,378.047,188.924,378.046,188.918,378.094L188.918,378.094z"/>
          </g>
        </g>
        <g>
          <g>
            <path style="fill:#232345;" d="M186.589,383.961c0.171,1.357,0.517,2.706,1.38,3.792c0.312,0.393,0.804-0.109,0.638-0.492 c-0.489-1.131-1.025-2.184-1.282-3.399C187.24,383.456,186.535,383.538,186.589,383.961L186.589,383.961z"/>
          </g>
        </g>
        <g>
          <g>
            <path style="fill:#232345;" d="M185.236,387.609c0.358,1.234,1.146,2.389,2.307,2.994c0.446,0.233,0.818-0.402,0.394-0.674 c-0.961-0.619-1.752-1.383-2.188-2.46C185.624,387.16,185.138,387.272,185.236,387.609L185.236,387.609z"/>
          </g>
        </g>
        <g>
          <g>
            <path style="fill:#232345;" d="M183.117,397.827c2.434-0.519,4.965-1.794,6.481-3.826c0.229-0.306-0.238-0.583-0.491-0.379 c-1.943,1.574-3.729,2.854-6.161,3.587C182.55,397.328,182.714,397.912,183.117,397.827L183.117,397.827z"/>
          </g>
        </g>
        <g>
          <g>
            <path style="fill:#232345;" d="M183.026,393.466c1.821,0.163,3.716-0.086,5.328-0.996c0.328-0.185,0.105-0.689-0.253-0.6 c-1.69,0.421-3.324,0.812-5.075,0.877C182.558,392.765,182.57,393.425,183.026,393.466L183.026,393.466z"/>
          </g>
        </g>
      </g>
    </g>
    <g>
      <g>
        <path style="fill:#6D6A9C;" d="M71.332,353.359c0,0-9.262-13.261-10.835-29.164c-1.573-15.903,4.719-25.864,7.689-26.913 c2.971-1.048,21.495-1.048,36.175,19.922L71.332,353.359z"/>
        <g style="opacity:0.3;">
          <g>
            <path style="fill:#FFFFFF;" d="M73.202,299.429c9.37,1.617,16.165,6.107,22.954,12.5c0.25,0.235,0.691-0.071,0.491-0.379 c-4.967-7.633-14.53-11.984-23.397-12.474C73.05,299.065,73,299.394,73.202,299.429L73.202,299.429z"/>
          </g>
        </g>
        <g>
          <path style="fill:#FFB6C3;" d="M72.031,345.85c6.211-12.073,13.378-20.292,20.658-25.882 c-7.097-12.771-17.817-15.674-19.785-15.346c-2.097,0.349-6.815,7.514-6.99,20.524c-0.127,9.448,3.616,17.756,5.675,21.598 C71.736,346.446,71.879,346.146,72.031,345.85z"/>
        </g>
        <g>
          <g>
            <path style="fill:#232345;" d="M93.337,319.59c-3.544-6.075-8.44-11.491-14.991-14.35c-2.676-1.168-5.362-2.261-7.612,0.018 c-4.282,4.337-5.254,12.362-5.514,18.071c-0.38,8.341,1.871,16.445,5.723,23.795c0.448,0.855,1.743,0.098,1.295-0.757 c-5.827-11.12-8.658-27.11-1.609-38.416c5.484-8.795,18.857,8.016,21.413,12.397C92.528,321.18,93.825,320.426,93.337,319.59 L93.337,319.59z"/>
          </g>
        </g>
        <path style="opacity:0.4;fill:#6D6A9C;" d="M72.031,345.85c3.002-5.835,6.23-10.757,9.584-14.933 c-6.582,4.578-11.117,8.812-11.117,8.812c-7.154-12.672-8.423-25.179-8.198-33.582c-1.552,4.53-2.536,10.632-1.803,18.047 c1.167,11.802,6.567,22.144,9.275,26.695C70.443,349.187,71.184,347.497,72.031,345.85z"/>
        <g>
          <g>
            <path style="fill:#232345;" d="M70.979,351.98c-9.005-13.549-15.007-36.244-5.505-50.906c2.919-4.505,7.7-3.862,12.474-2.785 c10.454,2.36,18.653,9.822,24.765,18.294c0.56,0.776,1.861,0.028,1.295-0.757c-6.347-8.798-14.813-16.509-25.661-18.983 c-4.065-0.927-9.539-1.878-12.694,1.482c-6.444,6.864-6.819,19.184-5.678,27.821c1.215,9.203,4.537,18.809,9.709,26.591 C70.216,353.537,71.516,352.787,70.979,351.98L70.979,351.98z"/>
          </g>
        </g>
        <path style="fill:#6D6A9C;" d="M80.943,335.554c0,0-7.191-1.223-7.266-3.146c-0.074-1.922,5.747-1.048,5.747-1.048 s-6.197-7.689-5.747-12.408c0.45-4.719,7.266,8.301,7.266,8.301s2.272-5.155,3.495-3.932s0.995,7.165,0.995,7.165 L80.943,335.554z"/>
        <g>
          <g>
            <g>
              <path style="fill:#232345;" d="M70.128,302.997c-2.501,2.043-3.852,4.938-4.971,7.899c-0.242,0.64,0.835,1.102,1.114,0.47 c1.21-2.739,2.326-5.577,4.587-7.639C71.355,303.271,70.632,302.585,70.128,302.997L70.128,302.997z"/>
            </g>
          </g>
          <g>
            <g>
              <path style="fill:#232345;" d="M64.348,307.482c-1.717,2.58-2.259,5.719-2.514,8.76c-0.047,0.559,0.902,0.697,0.99,0.134 c0.462-2.964,0.774-5.825,2.07-8.575C65.067,307.435,64.576,307.139,64.348,307.482L64.348,307.482z"/>
            </g>
          </g>
          <g>
            <g>
              <path style="fill:#232345;" d="M68.16,299.845c-1.289,1.419-2.466,2.991-3.259,4.743c-0.329,0.727,0.707,1.372,1.093,0.639 c0.858-1.63,1.753-3.193,2.928-4.619C69.356,300.081,68.633,299.324,68.16,299.845L68.16,299.845z"/>
            </g>
          </g>
          <g>
            <g>
              <path style="fill:#232345;" d="M64.445,314.796c-0.871,3.135-1.179,6.422-0.976,9.668c0.04,0.642,1.019,0.654,1.008,0 c-0.054-3.201,0.215-6.293,0.759-9.45C65.324,314.503,64.589,314.277,64.445,314.796L64.445,314.796z"/>
            </g>
          </g>
        </g>
      </g>
      <g>
        <path style="fill:#6D6A9C;" d="M183.64,353.359c0,0,9.262-13.261,10.835-29.164c1.573-15.903-4.719-25.864-7.689-26.913 c-2.971-1.048-21.495-1.048-36.175,19.922L183.64,353.359z"/>
        <g style="opacity:0.3;">
          <g>
            <path style="fill:#FFFFFF;" d="M181.722,299.076c-8.867,0.491-18.43,4.841-23.397,12.474 c-0.199,0.305,0.239,0.616,0.491,0.379c6.791-6.395,13.595-10.885,22.954-12.5 C181.969,299.395,181.924,299.065,181.722,299.076L181.722,299.076z"/>
          </g>
        </g>
        <g>
          <path style="fill:#FFB6C3;" d="M182.941,345.85c-6.211-12.073-13.378-20.292-20.658-25.882 c7.097-12.771,17.817-15.674,19.784-15.346c2.097,0.349,6.816,7.514,6.99,20.524c0.127,9.448-3.616,17.756-5.675,21.598 C183.236,346.446,183.093,346.146,182.941,345.85z"/>
        </g>
        <path style="opacity:0.4;fill:#6D6A9C;" d="M182.941,345.85c-3.002-5.835-6.23-10.757-9.583-14.933 c6.582,4.578,11.117,8.812,11.117,8.812c7.154-12.672,8.423-25.179,8.198-33.582c1.552,4.53,2.536,10.632,1.803,18.047 c-1.167,11.802-6.567,22.144-9.275,26.695C184.529,349.187,183.788,347.497,182.941,345.85z"/>
        <g>
          <g>
            <path style="fill:#232345;" d="M162.93,320.347c2.587-4.434,15.94-21.173,21.413-12.397 c7.048,11.303,4.217,27.298-1.609,38.416c-0.448,0.854,0.847,1.613,1.295,0.757c3.7-7.06,5.973-14.869,5.75-22.886 c-0.165-5.939-1.048-14.474-5.542-18.98c-2.169-2.174-4.593-1.276-7.225-0.186c-6.734,2.788-11.771,8.337-15.378,14.519 C161.148,320.425,162.444,321.181,162.93,320.347L162.93,320.347z"/>
          </g>
        </g>
        <g>
          <g>
            <path style="fill:#232345;" d="M185.288,352.737c5.172-7.782,8.494-17.39,9.709-26.591c1.141-8.637,0.766-20.958-5.678-27.821 c-3.155-3.361-8.627-2.409-12.694-1.482c-10.848,2.474-19.315,10.186-25.661,18.983c-0.566,0.784,0.735,1.534,1.295,0.757 c6.038-8.369,14.055-15.683,24.318-18.185c4.843-1.181,9.938-1.949,12.921,2.675c9.475,14.687,3.512,37.338-5.505,50.906 C183.457,352.786,184.755,353.538,185.288,352.737L185.288,352.737z"/>
          </g>
        </g>
        <path style="fill:#6D6A9C;" d="M174.028,335.554c0,0,7.191-1.223,7.266-3.146c0.074-1.922-5.747-1.048-5.747-1.048 s6.197-7.689,5.747-12.408c-0.45-4.719-7.266,8.301-7.266,8.301s-2.272-5.155-3.495-3.932c-1.223,1.223-0.995,7.165-0.995,7.165 L174.028,335.554z"/>
        <g>
          <g>
            <g>
              <path style="fill:#232345;" d="M184.115,303.726c2.261,2.062,3.376,4.9,4.587,7.639c0.276,0.625,1.358,0.177,1.114-0.47 c-1.119-2.961-2.47-5.855-4.971-7.899C184.34,302.585,183.617,303.271,184.115,303.726L184.115,303.726z"/>
            </g>
          </g>
          <g>
            <g>
              <path style="fill:#232345;" d="M190.077,307.801c1.296,2.75,1.609,5.61,2.07,8.575c0.087,0.557,1.037,0.431,0.99-0.134 c-0.255-3.042-0.796-6.18-2.514-8.76C190.396,307.14,189.904,307.434,190.077,307.801L190.077,307.801z"/>
            </g>
          </g>
          <g>
            <g>
              <path style="fill:#232345;" d="M186.05,300.607c1.176,1.427,2.071,2.989,2.928,4.619c0.385,0.732,1.422,0.089,1.093-0.639 c-0.793-1.752-1.97-3.324-3.259-4.743C186.339,299.324,185.616,300.081,186.05,300.607L186.05,300.607z"/>
            </g>
          </g>
          <g>
            <g>
              <path style="fill:#232345;" d="M189.736,315.014c0.545,3.157,0.813,6.247,0.759,9.45c-0.011,0.653,0.968,0.643,1.008,0 c0.203-3.246-0.105-6.532-0.976-9.668C190.383,314.278,189.647,314.502,189.736,315.014L189.736,315.014z"/>
            </g>
          </g>
        </g>
      </g>
    </g>
  </g>
</svg>