<?xml version="1.0" encoding="utf-8"?>
<svg viewBox="283.4791 283.65 162.2911 164.8635" width="162.2911" height="164.8635" xmlns="http://www.w3.org/2000/svg">
  <g transform="matrix(1, 0, 0, 1, 3.552713678800501e-15, 0)">
    <path style="fill:#FF8285;" d="M367.263,444.138c-24.94,1.501-55.639-7.016-67.849-25.347c-12.21-18.331,10.812-10.747,0-25.957 c-10.812-15.21-16.217-40.494,0-72.124c16.217-31.63,76.382-59.19,118.608-10.958c48.832,55.776-1.025,82.745,13.469,89.877 C445.684,406.612,431.318,440.283,367.263,444.138z"/>
    <path style="fill:#FF8285;" d="M287.398,389.889c-7.136,6.933,7.245,15.771,10.344,10.462 C300.841,395.041,291.728,385.682,287.398,389.889z"/>
    <path style="fill:#FF8285;" d="M287.879,385.348c-3.849,1.772-6.332-3.511-2.444-6.283 C289.322,376.295,291.728,383.577,287.879,385.348z"/>
    <path style="fill:#FF8285;" d="M432.802,395.402c-3.163-2.486,8.553-17.884,12.162-12.001 C448.572,389.285,436.309,398.159,432.802,395.402z"/>
    <path style="fill:#FF8285;" d="M437.506,399.629c-1.41-1.267,7.088-4.811,8.115,0C446.647,404.44,442.211,403.855,437.506,399.629 z"/>
  </g>
  <g transform="matrix(1, 0, 0, 1, 3.552713678800501e-15, 0)">
    <g>
      <path style="fill:#FFD2A8;" d="M386.468,406.947h-43.687c-21.843,2.009-31.965,26.653-31.965,26.653 c17.134,15.23,53.808,14.913,53.808,14.913s36.674,0.317,53.808-14.913C418.433,433.6,408.311,408.957,386.468,406.947z"/>
      <g>
        <g>
          <path style="fill:#702222;" d="M318.193,421.548c3.567,2.569,8.946,6.082,10.571,5.182c1.639-0.907-1.321-7.724-3.557-12.315 C322.468,416.638,320.134,419.12,318.193,421.548z"/>
          <path style="fill:#702222;" d="M323.056,435.365c1.118-1.392-4.089-6.581-7.718-9.914c-1.674,2.507-2.871,4.714-3.611,6.2 C315.55,433.713,321.894,436.812,323.056,435.365z"/>
        </g>
        <g>
          <path style="fill:#702222;" d="M411.057,421.548c-3.567,2.569-8.946,6.082-10.571,5.182c-1.639-0.907,1.321-7.724,3.557-12.315 C406.781,416.638,409.115,419.12,411.057,421.548z"/>
          <path style="fill:#702222;" d="M406.194,435.365c-1.118-1.392,4.089-6.581,7.718-9.914c1.674,2.507,2.871,4.714,3.611,6.2 C413.699,433.713,407.355,436.812,406.194,435.365z"/>
        </g>
      </g>
      <path style="fill:#FFE8D3;" d="M393.713,433.6c0,0,2.912-2.451,0.762-5.87c-2.369-3.767-7.974-7.457-7.974-7.457 c5.199-2.516-3.674-10.858-7.357-12.901h-29.038c-3.682,2.044-12.556,10.385-7.357,12.901c0,0-5.605,3.689-7.974,7.457 c-2.15,3.419,0.762,5.87,0.762,5.87s-6.369,3.202-6.773,9.546c16.991,5.528,35.859,5.367,35.861,5.367 c0.002,0,18.87,0.162,35.861-5.367C400.082,436.803,393.713,433.6,393.713,433.6z"/>
      <path style="opacity:0.5;fill:#FFD2A8;" d="M342.781,406.947c-4.493,0.413-8.482,1.793-11.996,3.71 c3.02,1.323,16.719,6.882,33.805,6.882c17.164,0,30.908-5.609,33.843-6.899c-3.507-1.908-7.486-3.281-11.965-3.694H342.781z"/>
      <g>
        <g>
          <path style="fill:#451816;" d="M419.156,433.401c-2.914-6.996-7.769-13.623-13.465-18.581 c-7.1-6.182-15.102-8.622-24.286-8.622c-10.216,0-20.432,0-30.648,0c-8.814,0-16.422,0.705-23.981,6.076 c-7.231,5.138-13.266,12.923-16.683,21.128c-0.371,0.89,1.08,1.278,1.446,0.399c2.705-6.496,7.612-13.161,13.079-17.919 c7.342-6.391,15.314-8.183,24.62-8.183c9.208,0,18.417,0,27.626,0c8.529,0,15.839,0.011,23.431,4.913 c7.564,4.883,14.045,13.1,17.414,21.19C418.075,434.678,419.527,434.293,419.156,433.401L419.156,433.401z"/>
        </g>
      </g>
      <g>
        <g>
          <g>
            <g>
              <path style="fill:#FFD2A8;" d="M388.355,426.476c1.808,2.002,2.198,4.124,2.462,6.715c0.037,0.363,0.52,0.452,0.645,0.087 c0.896-2.626-0.695-5.646-2.823-7.17C388.413,425.946,388.185,426.288,388.355,426.476L388.355,426.476z"/>
            </g>
          </g>
          <g>
            <g>
              <path style="fill:#FFD2A8;" d="M388.005,430.677c0.603,2.037,0.902,4.108,1.027,6.225c0.029,0.488,0.766,0.497,0.766,0 c-0.004-2.205-0.487-4.319-1.326-6.354C388.357,430.269,387.914,430.369,388.005,430.677L388.005,430.677z"/>
            </g>
          </g>
          <g>
            <g>
              <path style="fill:#FFD2A8;" d="M385.303,429.719c0.912,2.143,1.309,4.394,1.497,6.707c0.04,0.495,0.775,0.51,0.781,0 c0.029-2.474-0.675-4.797-1.792-6.991C385.62,429.105,385.165,429.395,385.303,429.719L385.303,429.719z"/>
            </g>
          </g>
        </g>
        <g>
          <g>
            <g>
              <path style="fill:#FFD2A8;" d="M354.608,436.153c-0.746,1.633-0.939,3.445-0.761,5.22c0.063,0.624,1.048,0.631,0.984,0 c-0.171-1.702,0.037-3.294,0.405-4.955C355.315,436.059,354.778,435.781,354.608,436.153L354.608,436.153z"/>
            </g>
          </g>
          <g>
            <g>
              <path style="fill:#FFD2A8;" d="M355.791,438.518c-0.219,1.929-0.063,3.779,0.442,5.652c0.173,0.641,1.19,0.362,0.994-0.274 c-0.537-1.748-0.77-3.55-0.718-5.378C356.524,438.046,355.842,438.07,355.791,438.518L355.791,438.518z"/>
            </g>
          </g>
          <g>
            <g>
              <path style="fill:#FFD2A8;" d="M357.836,436.617c-0.046,1.653,0.111,3.282,0.458,4.898c0.141,0.658,1.153,0.38,1.009-0.278 c-0.333-1.527-0.474-3.059-0.436-4.62C358.884,435.953,357.854,435.953,357.836,436.617L357.836,436.617z"/>
            </g>
          </g>
        </g>
        <g>
          <g>
            <g>
              <path style="fill:#FFD2A8;" d="M347.097,413.01c-1.15,1.161-1.983,2.502-2.575,4.023c-0.16,0.41,0.511,0.598,0.663,0.183 c0.516-1.411,1.296-2.706,2.266-3.853C347.656,413.121,347.327,412.778,347.097,413.01L347.097,413.01z"/>
            </g>
          </g>
          <g>
            <g>
              <path style="fill:#FFD2A8;" d="M347.976,414.898c-1.013,1.637-1.799,3.389-2.264,5.259c-0.121,0.488,0.612,0.691,0.753,0.208 c0.524-1.787,1.22-3.477,2.185-5.073C348.911,414.86,348.24,414.471,347.976,414.898L347.976,414.898z"/>
            </g>
          </g>
          <g>
            <g>
              <path style="fill:#FFD2A8;" d="M350.038,414.365c-0.573,1.428-1.064,2.882-1.475,4.365c-0.129,0.466,0.61,0.668,0.723,0.199 c0.36-1.494,0.8-2.961,1.324-4.407C350.743,414.159,350.178,414.018,350.038,414.365L350.038,414.365z"/>
            </g>
          </g>
        </g>
      </g>
    </g>
    <g>
      <g>
        <g>
          <g>
            <g>
              <path style="fill:#451816;" d="M412.898,372.939c0,0,17.079,5.444,18.327-8.828c1.389-15.881-13.259-26-18.327-28.509 V372.939z"/>
              <g>
                <path style="fill:#451816;" d="M412.699,373.662c7.642,2.37,17.458,1.065,19.1-8.143 c2.294-12.871-7.681-25.015-18.522-30.565c-0.498-0.255-1.129,0.055-1.129,0.648c0,12.446,0,24.891,0,37.337 c0,0.965,1.5,0.967,1.5,0c0-12.446,0-24.891,0-37.337c-0.376,0.216-0.752,0.432-1.129,0.648 c9.699,4.966,18.447,15.018,18.039,26.434c-0.356,9.956-9.326,12.056-17.461,9.533 C412.174,371.929,411.779,373.377,412.699,373.662z"/>
              </g>
            </g>
          </g>
          <g>
            <path style="fill:#702222;" d="M431.035,365.528c0.081-0.451,0.148-0.919,0.191-1.417c1.39-15.881-13.259-26-18.327-28.509 v7.156C417.327,344.951,429.065,352.951,431.035,365.528z"/>
            <g>
              <path style="fill:#451816;" d="M431.758,365.727c1.777-13.163-7.141-24.967-18.481-30.773 c-0.498-0.255-1.129,0.055-1.129,0.648c0,2.385,0,4.771,0,7.156c0,0.253,0.14,0.529,0.371,0.648 c8.725,4.483,15.949,12.543,17.791,22.322c0.179,0.947,1.624,0.546,1.447-0.399c-1.469-7.792-6.102-14.236-12.237-19.125 c-1.254-0.999-5.323-2.788-5.872-3.612c-0.81-1.215,0-5.453,0-6.989c-0.376,0.216-0.752,0.432-1.129,0.648 c10.656,5.456,19.477,16.594,17.791,29.079C430.184,366.272,431.629,366.681,431.758,365.727z"/>
            </g>
          </g>
        </g>
        <g>
          <g>
            <g>
              <path style="fill:#451816;" d="M316.351,372.939c0,0-17.079,5.444-18.328-8.828c-1.389-15.881,13.259-26,18.328-28.509 V372.939z"/>
              <g>
                <path style="fill:#451816;" d="M316.152,372.216c-8.135,2.523-17.105,0.425-17.461-9.533 c-0.408-11.414,8.341-21.469,18.039-26.434c-0.376-0.216-0.752-0.432-1.128-0.648c0,12.446,0,24.891,0,37.337 c0,0.965,1.5,0.967,1.5,0c0-12.446,0-24.891,0-37.337c0-0.593-0.631-0.903-1.129-0.648 c-10.878,5.569-20.761,17.675-18.522,30.565c1.602,9.224,11.487,10.504,19.099,8.143 C317.469,373.377,317.077,371.929,316.152,372.216z"/>
              </g>
            </g>
          </g>
          <g>
            <path style="fill:#702222;" d="M298.215,365.528c-0.081-0.451-0.148-0.919-0.191-1.417c-1.389-15.881,13.259-26,18.327-28.509 v7.156C311.923,344.951,300.184,352.951,298.215,365.528z"/>
            <g>
              <path style="fill:#451816;" d="M298.938,365.328c-1.686-12.483,7.135-23.623,17.792-29.079 c-0.376-0.216-0.752-0.432-1.129-0.648c0,1.48,0.808,5.849,0,6.989c-0.612,0.865-4.566,2.573-5.872,3.612 c-6.138,4.885-10.769,11.334-12.237,19.125c-0.178,0.944,1.268,1.348,1.446,0.399c1.842-9.777,9.068-17.84,17.792-22.322 c0.231-0.119,0.371-0.395,0.371-0.648c0-2.385,0-4.771,0-7.156c0-0.592-0.631-0.903-1.129-0.648 c-11.339,5.806-20.258,17.61-18.481,30.773C297.62,366.68,299.066,366.274,298.938,365.328z"/>
            </g>
          </g>
        </g>
      </g>
      <g>
        <path style="fill:#FFD2A8;" d="M418.828,360.686c-2.447-29.883-17.65-43.689-23.78-48.757 c-8.192-6.774-19.669-9.744-30.924-9.743c-11.255,0-22.732,2.97-30.924,9.743c-6.129,5.068-21.333,18.874-23.78,48.757 c-2.447,29.884-0.35,34.253,2.097,32.33c0,0,2.097,11.709,7.165,8.913c0,0,5.592,5.767,11.01,2.446 c0,0,15.039,7.165,34.432,7.165c19.393,0,34.432-7.165,34.432-7.165c5.418,3.321,11.01-2.446,11.01-2.446 c5.068,2.796,7.165-8.913,7.165-8.913C419.177,394.938,421.275,390.569,418.828,360.686z"/>
        <path style="opacity:0.5;fill:#FFD2A8;" d="M416.731,385.337c0,0-2.097,11.709-7.165,8.913c0,0-5.592,5.767-11.01,2.447 c0,0-15.039,7.165-34.432,7.165c-19.393,0-34.432-7.165-34.432-7.165c-5.418,3.32-11.01-2.447-11.01-2.447 c-5.068,2.796-7.165-8.913-7.165-8.913c-1.472,1.157-2.816,0.026-3.121-7.56c-0.413,14.484,1.25,16.708,3.121,15.238 c0,0,2.097,11.709,7.165,8.913c0,0,5.592,5.767,11.01,2.446c0,0,15.039,7.165,34.432,7.165c19.393,0,34.432-7.165,34.432-7.165 c5.418,3.321,11.01-2.446,11.01-2.446c5.068,2.796,7.165-8.913,7.165-8.913c1.871,1.47,3.535-0.754,3.121-15.239 C419.547,385.363,418.203,386.494,416.731,385.337z"/>
        <g>
          <g>
            <path style="fill:#451816;" d="M419.578,360.686c-1.448-15.897-6.673-31.393-17.629-43.287 c-11.52-12.506-27.759-17.426-44.577-15.601c-14.45,1.569-26.253,8.746-34.901,20.188 c-11.233,14.863-13.722,32.747-14.629,50.865c-0.146,2.92-2.665,20.954,3.077,21.269c0.19,0.01,0.701-0.378,0.813-0.338 c-1.577-0.56-0.708-0.198-0.532,1.219c0.242,1.948,1.418,4.672,2.684,6.187c1.524,1.823,2.32,1.309,4.259,1.777 c0.34,0.082,0.109-0.41,0.105-0.411c0.349,0.075,1.029,0.921,1.324,1.11c0.951,0.608,1.819,1.246,2.875,1.685 c1.414,0.588,3.206,1.044,4.753,0.717c-0.009,0.002,2.358-0.962,2.287-0.963c1.392,0.017,3.619,1.495,4.903,1.953 c8.378,2.99,17.264,4.759,26.152,5.154c10.101,0.448,20.292-1.034,29.937-4.031c2.293-0.712,4.865-2.209,7.216-2.611 c0.363-0.062,0.828-0.531,1.196-0.525c0.103,0.002,0.409,0.628,0.716,0.667c1.189,0.149,1.997,0.486,3.244,0.388 c1.446-0.114,2.818-0.606,4.086-1.297c0.675-0.368,2.357-2.096,3.062-2.247c-0.513,0.11,1.409,0.534,1.749,0.478 c0.853-0.139,1.524-0.695,2.13-1.266c1.582-1.488,2.907-4.656,3.168-6.766c0.221-1.779,0.839-1.532-0.371-1.12 c0.18-0.061,0.67,0.314,0.928,0.27c2.25-0.382,2.477-3.203,2.724-5.073C421.556,379.8,420.319,369.94,419.578,360.686 c-0.076-0.956-1.577-0.964-1.5,0c0.669,8.361,1.43,16.853,1.004,25.249c-0.039,0.76-0.283,7.667-1.973,6.434 c-0.374-0.273-1.018,0.002-1.102,0.448c-0.468,2.498-2.16,10.125-6.063,8.464c-0.314-0.134-0.651-0.138-0.909,0.117 c-1.074,1.062-2.366,1.941-3.767,2.503c-2.852,1.143-3.183-0.394-6.334-0.173c-0.148,0.01-0.301-0.114-0.478-0.089 c-1.366,0.194-2.885,1.198-4.18,1.675c-9.607,3.544-19.912,5.467-30.153,5.477c-10.093,0.009-20.26-1.885-29.744-5.328 c-1.309-0.475-3.107-1.683-4.488-1.81c-2.106-0.193-3.729,1.331-6,0.644c-1.73-0.524-3.398-1.631-4.678-2.897 c-0.262-0.259-0.595-0.251-0.909-0.117c-3.924,1.669-5.594-5.958-6.063-8.464c-0.084-0.447-0.728-0.721-1.102-0.448 c-1.588,1.159-1.825-4.255-1.879-4.916c-0.504-6.15-0.078-12.414,0.31-18.557c1.023-16.211,3.796-31.999,13.615-45.371 c8.001-10.897,19.018-18.126,32.616-20.009c16.06-2.224,32.236,1.828,43.73,13.516c11.535,11.729,17.075,27.498,18.547,43.654 C418.165,361.639,419.666,361.648,419.578,360.686z"/>
          </g>
        </g>
        <g>
          <path style="fill:#702222;" d="M349.702,369.22c-2.491,9.25-16.24,11.175-28.802,8.388c0,0-6.466,2.403-7.34-2.556 c-0.874-4.959,0-10.026,0-10.026s-2.621,1.573-2.272-4.194c0.35-5.767,4.263-11.647,4.263-11.647s-2.372,0.634-0.593-2.38 c1.779-3.014,15.163-13.695,25.336-5.897C347.987,346.803,352.29,359.608,349.702,369.22z"/>
          <path style="fill:#702222;" d="M378.547,369.22c2.491,9.25,16.24,11.175,28.802,8.388c0,0,6.466,2.403,7.34-2.556 c0.874-4.959,0-10.026,0-10.026s2.621,1.573,2.272-4.194c-0.35-5.767-4.263-11.647-4.263-11.647s2.372,0.634,0.593-2.38 c-1.779-3.014-15.163-13.695-25.336-5.897C380.261,346.803,375.958,359.608,378.547,369.22z"/>
        </g>
        <path style="fill:#FFE8D3;" d="M374.925,371.311c-2.226-2.04-10.801-2.411-10.801-2.411s-8.575,0.371-10.801,2.411 c-2.226,2.04-6.066,10.794-4.754,14.643c1.821,5.341,8.397,7.967,15.555,7.935c7.158,0.032,13.734-2.594,15.555-7.935 C380.991,382.105,377.151,373.351,374.925,371.311z"/>
        <g>
          <path style="fill:#C9925C;" d="M395.04,311.928c-2.843-2.39-6.131-4.259-9.646-5.732c3.356-1.876-3.811-4.559-11.402-3.701 c0,0,2.564-6.008,1-6.549c-1.564-0.541-6.352,5.122-6.352,5.122s-0.779-8.016-4.519-8.016s-4.519,8.016-4.519,8.016 s-4.789-5.663-6.353-5.122c-1.564,0.541,1,6.549,1,6.549c-7.591-0.858-14.758,1.825-11.402,3.701 c-3.515,1.473-6.803,3.342-9.646,5.732c-14.469,12.165-18.79,26.183-18.791,26.183c4.321-5.848,21.034-13.339,31.876-10.055 c16.123,4.883,9.73,40.034,9.73,40.034h16.209c0,0-6.393-35.15,9.73-40.034c10.842-3.284,27.555,4.207,31.876,10.055 C413.83,338.112,409.509,324.094,395.04,311.928z"/>
          <g>
            <g>
              <path style="fill:#451816;" d="M395.57,311.398c-3.027-2.414-6.252-4.29-9.798-5.85c0,0.432,0,0.863,0,1.295 c2.101-1.58,0.925-2.986-1.085-3.981c-1.683-0.833-3.773-1.05-5.632-1.199c-1.107-0.087-2.215-0.106-3.324-0.055 c-0.913,1.135-1.167,1.287-0.762,0.457c-0.126-0.51,0.704-1.96,0.832-2.442c2.2-8.259-5.35-1.821-7.692,0.915 c0.427,0.177,0.854,0.353,1.28,0.53c-0.314-2.885-1.374-8.767-5.269-8.766c-3.894,0.001-4.955,5.878-5.269,8.766 c0.427-0.177,0.854-0.354,1.28-0.53c-2.359-2.755-9.872-9.149-7.693-0.915c0.082,0.312,0.917,2.108,0.832,2.442 c0.404,0.83,0.15,0.678-0.762-0.457c-0.838-0.047-1.675-0.041-2.51,0.016c-2.111,0.104-4.513,0.306-6.445,1.238 c-2.009,0.97-3.18,2.406-1.085,3.981c0-0.432,0-0.863,0-1.295c-12.922,5.683-24.48,18.781-28.781,32.364 c-0.216,0.682,0.775,1.323,1.254,0.73c5.29-6.564,15.598-10.066,23.747-10.584c8.593-0.547,14.019,3.61,16.29,11.705 c2.491,8.877,1.932,19.109,0.316,28.128c-0.085,0.472,0.201,0.949,0.723,0.949c5.403,0,10.806,0,16.209,0 c0.523,0,0.808-0.477,0.723-0.949c-1.615-9.02-2.174-19.251,0.317-28.128c2.197-7.83,7.281-12.012,15.623-11.73 c8.314,0.281,19.031,3.931,24.413,10.609c0.477,0.592,1.469-0.048,1.254-0.73 C411.277,327.564,403.634,318.365,395.57,311.398c-0.727-0.628-1.793,0.428-1.061,1.061 c7.874,6.803,15.394,15.735,18.598,25.852c0.418-0.243,0.836-0.486,1.254-0.73c-7.406-9.19-29.601-16.821-38.586-6.251 c-7.271,8.554-6.094,23.173-4.78,33.518c0.137,1.083,0.477,2.235,0.485,3.322c-0.016-2.037,1.261-0.068-0.368-0.831 c-0.988-0.463-3.559,0-4.593,0c-2.799,0-6.07-0.51-8.817,0c-1.914,0.355-1.049-0.724-0.957,0.919 c-0.019-0.341,0.11-1.047,0.216-1.345c1.507-4.215,1.101-10.253,1.051-14.639c-0.067-5.914-0.642-12.319-3.391-17.661 c-7.543-14.655-32.358-7.436-40.741,2.967c0.418,0.243,0.836,0.487,1.254,0.73c4.19-13.231,15.543-25.949,28.092-31.467 c0.575-0.253,0.393-1,0-1.295c-1.382-1.039,4.179-2.13,4.594-2.19c2.167-0.317,4.251-0.284,6.43-0.113 c0.446,0.035,0.904-0.515,0.723-0.949c-0.667-1.604-2.425-5.184,0.176-4.626c1.305,0.28,3.054,2.914,3.923,3.929 c0.469,0.547,1.217,0.05,1.28-0.53c0.272-2.504,0.916-6.552,3.769-6.539c2.89,0.013,3.494,4.008,3.769,6.539 c0.063,0.577,0.813,1.076,1.28,0.53c0.869-1.016,2.619-3.649,3.923-3.929c2.601-0.558,0.843,3.023,0.176,4.626 c-0.181,0.435,0.277,0.984,0.723,0.949c2.179-0.172,4.263-0.204,6.43,0.113c0.415,0.061,5.976,1.151,4.594,2.19 c-0.393,0.296-0.574,1.043,0,1.295c3.43,1.508,6.551,3.268,9.494,5.615C395.257,313.055,396.325,312,395.57,311.398z"/>
            </g>
          </g>
          <g>
            <g>
              <g>
                <path style="fill:#451816;" d="M345.349,305.219c4.639,0.279,7.709,1.959,11.245,4.819c0.325,0.263,0.925-0.084,0.635-0.49 c-2.566-3.596-7.673-5.272-11.926-4.675C345.096,304.902,345.162,305.207,345.349,305.219L345.349,305.219z"/>
              </g>
            </g>
            <g>
              <g>
                <path style="fill:#451816;" d="M355.383,299.988c1.542,2.168,2.572,4.492,3.378,7.017c0.2,0.627,1.121,0.371,0.983-0.271 c-0.577-2.692-1.966-5.146-3.772-7.2C355.694,299.218,355.134,299.639,355.383,299.988L355.383,299.988z"/>
              </g>
            </g>
            <g>
              <g>
                <path style="fill:#451816;" d="M363.551,297.766c-0.345,4.353-0.262,8.785,0.054,13.137c0.031,0.432,0.667,0.442,0.68,0 c0.121-4.363,0.14-8.779-0.136-13.137C364.125,297.38,363.582,297.383,363.551,297.766L363.551,297.766z"/>
              </g>
            </g>
            <g>
              <g>
                <path style="fill:#451816;" d="M382.938,304.873c-4.254-0.597-9.361,1.078-11.926,4.675 c-0.287,0.403,0.307,0.755,0.635,0.49c3.536-2.86,6.606-4.541,11.245-4.819 C383.076,305.208,383.146,304.902,382.938,304.873L382.938,304.873z"/>
              </g>
            </g>
            <g>
              <g>
                <path style="fill:#451816;" d="M372.269,299.534c-1.806,2.054-3.196,4.509-3.772,7.2c-0.137,0.641,0.783,0.899,0.983,0.271 c0.806-2.525,1.837-4.849,3.378-7.017C373.103,299.643,372.549,299.215,372.269,299.534L372.269,299.534z"/>
              </g>
            </g>
          </g>
        </g>
        <g>
          <g>
            <g>
              <path style="fill:#FFFFFF;" d="M335.071,350.025c-11.696-0.296-13.917,13.769-9.92,20.135 c1.999,3.183,4.498,5.395,9.92,5.395c5.247,0,7.921-2.212,9.919-5.395C348.988,363.793,346.767,349.728,335.071,350.025z"/>
              <g>
                <g>
                  <path style="fill:#451816;" d="M347.009,358.595c-2.411-8.08-11.94-12.562-19.274-7.157 c-5.666,4.176-6.611,13.248-3.231,19.1c0.483,0.836,1.779,0.081,1.295-0.757c-2.718-4.705-2.338-11.769,1.417-15.853 c5.959-6.482,16.039-2.668,18.347,5.065C345.838,359.916,347.286,359.523,347.009,358.595L347.009,358.595z"/>
                </g>
              </g>
              <ellipse style="fill:#451816;" cx="338.116" cy="363.207" rx="7.399" ry="9.146"/>
            </g>
            <g>
              <path style="fill:#FFFFFF;" d="M393.177,350.025c11.696-0.296,13.917,13.769,9.919,20.135 c-1.999,3.183-4.498,5.395-9.919,5.395c-5.247,0-7.921-2.212-9.919-5.395C379.261,363.793,381.481,349.728,393.177,350.025z"/>
              <g>
                <g>
                  <path style="fill:#451816;" d="M382.686,358.994c2.312-7.75,12.393-11.539,18.347-5.065 c3.753,4.081,4.133,11.15,1.417,15.853c-0.484,0.837,0.812,1.594,1.295,0.757c3.38-5.852,2.435-14.925-3.231-19.1 c-7.329-5.402-16.864-0.921-19.274,7.157C380.963,359.522,382.41,359.918,382.686,358.994L382.686,358.994z"/>
                </g>
              </g>
              <ellipse style="fill:#451816;" cx="390.133" cy="363.207" rx="7.399" ry="9.146"/>
            </g>
            <g>
              <path style="fill:#FF8285;" d="M323.513,383.941c-11.275-2.585-7.669-10.295,0-8.461 C334.129,378.018,332.739,386.056,323.513,383.941z"/>
              <path style="fill:#FF8285;" d="M404.735,383.941c11.275-2.585,7.669-10.295,0-8.461 C394.119,378.018,395.51,386.056,404.735,383.941z"/>
            </g>
            <path style="fill:#451816;" d="M329.928,348.614c1.98-0.848,4.688-1.446,7.824-0.319c2.244,0.806,3.487-0.991,1.843-2.278 c-1.893-1.482-6.642-2.342-9.962-0.712c-3.32,1.63-3.092,2.743-2.827,3.376S328.068,349.411,329.928,348.614z"/>
            <path style="fill:#451816;" d="M398.32,348.614c-1.98-0.848-4.688-1.446-7.824-0.319c-2.244,0.806-3.487-0.991-1.843-2.278 c1.893-1.482,6.642-2.342,9.962-0.712c3.32,1.63,3.092,2.743,2.827,3.376C401.176,349.315,400.181,349.411,398.32,348.614z"/>
          </g>
          <g>
            <g>
              <g>
                <g>
                  <path style="fill:#451816;" d="M363.374,372.473c0,2.909,0,5.819,0,8.728c0,0.965,1.5,0.967,1.5,0c0-2.909,0-5.819,0-8.728 C364.874,371.508,363.374,371.506,363.374,372.473L363.374,372.473z"/>
                </g>
              </g>
              <g>
                <g>
                  <path style="fill:#451816;" d="M353.341,380.655c0.924,2.278,3.009,4.116,5.51,4.329c2.504,0.213,5.205-1.09,5.997-3.602 c0.291-0.923-1.157-1.318-1.446-0.399c-0.619,1.964-2.984,2.794-4.852,2.456c-1.699-0.307-3.251-1.921-3.762-3.183 C354.429,379.373,352.977,379.759,353.341,380.655L353.341,380.655z"/>
                </g>
              </g>
              <g>
                <g>
                  <path style="fill:#451816;" d="M352.248,381.206c1.459,0.148,2.9-0.576,3.72-1.761c0.551-0.796-0.749-1.547-1.295-0.757 c-0.533,0.77-1.511,1.111-2.425,1.018C351.289,379.608,351.296,381.109,352.248,381.206L352.248,381.206z"/>
                </g>
              </g>
              <g>
                <g>
                  <path style="fill:#451816;" d="M373.461,380.256c-0.513,1.265-2.063,2.875-3.762,3.183 c-1.872,0.339-4.232-0.489-4.852-2.456c-0.289-0.917-1.738-0.526-1.446,0.399c0.791,2.509,3.493,3.821,5.997,3.602 c2.503-0.219,4.585-2.047,5.51-4.329C375.27,379.761,373.82,379.372,373.461,380.256L373.461,380.256z"/>
                </g>
              </g>
              <g>
                <g>
                  <path style="fill:#451816;" d="M376,379.706c-0.914,0.092-1.892-0.248-2.425-1.018c-0.546-0.788-1.846-0.039-1.295,0.757 c0.82,1.185,2.261,1.909,3.72,1.761C376.951,381.109,376.961,379.608,376,379.706L376,379.706z"/>
                </g>
              </g>
            </g>
            <path style="fill:#451816;" d="M374.216,366.727c-1.073-3.219-19.111-3.219-20.184,0c-1.073,3.219,5.377,8.082,10.092,8.511 C368.839,374.809,375.289,369.946,374.216,366.727z"/>
            <g style="opacity:0.5;">
              <g>
                <path style="fill:#FFFFFF;" d="M355.348,367.582c5.647-1.024,10.935-1.046,16.593-0.111c0.544,0.09,0.788-0.693,0.233-0.844 c-5.561-1.514-11.492-1.23-16.879,0.759C355.171,367.432,355.219,367.605,355.348,367.582L355.348,367.582z"/>
              </g>
            </g>
          </g>
        </g>
      </g>
    </g>
  </g>
</svg>