<?xml version="1.0" encoding="utf-8"?>
<svg viewBox="53.7475 52.766 185.7713 183.711" width="185.7713" height="183.711" xmlns="http://www.w3.org/2000/svg">
  <path style="fill:#FF8285;" d="M215.091,137.417c31.618-30.177,12.993-83.093-65.894-84.651 c-78.887,1.558-97.513,54.473-65.894,84.651c28.493,27.194-16.965,34.716-9.738,62.697c5.304,20.535,48.556,32.723,75.632,31.232 c27.076,1.491,70.328-12.697,75.632-33.232C232.056,170.133,186.598,164.612,215.091,137.417z" transform="matrix(1, 0, 0, 1, 3.552713678800501e-15, 0)"/>
  <path style="fill:#FF8285;" d="M74.613,171.974c7.951-2.451,16.112-14.023,7.547-24.799c-8.565-10.775-19.893-13.842-26.524-3.882 C49.005,153.254,60.913,176.197,74.613,171.974z" transform="matrix(1, 0, 0, 1, 3.552713678800501e-15, 0)"/>
  <path style="fill:#FF8285;" d="M69.932,132.071c-1.572,7.073-17.888-4.221-14.296-12.794 C59.228,110.705,71.963,122.934,69.932,132.071z" transform="matrix(1, 0, 0, 1, 3.552713678800501e-15, 0)"/>
  <path style="fill:#FF8285;" d="M211.869,151.387c-0.753,5.937,1.839,22.442,16.741,17.745 c14.903-4.697,13.066-25.938,3.298-32.771C225.831,132.109,213.104,141.654,211.869,151.387z" transform="matrix(1, 0, 0, 1, 3.552713678800501e-15, 0)"/>
  <g transform="matrix(1, 0, 0, 1, 3.552713678800501e-15, 0)">
    <g>
      <g>
        <g>
          <g>
            <path style="fill:#FFE8D3;" d="M198.051,215.007c0.741-7.646-7.441-7.397-7.441-7.397 c-0.035-8.872-18.739-11.382-22.099-11.691h-43.687c-3.392,0.312-22.133,2.819-22.168,11.691c0,0-8.181-0.25-7.441,7.397 c0,0-6.048,1.951-2.962,7.514c0,0,25.397,13.956,54.415,13.956c29.018,0,54.345-13.956,54.345-13.956 C204.099,216.958,198.051,215.007,198.051,215.007z"/>
          </g>
          <path style="fill:#FFE8D3;" d="M152.485,229.932c0,0,3.809-1.286,6.938-3.943c3.128-2.657-0.845-11.263-0.845-11.263 c20.152-2.588,26.471-9.387,28.442-13.098c-5.612-4.106-16.076-5.485-18.508-5.709h-43.687 c-2.406,0.221-12.533,1.551-18.23,5.47c1.825,3.651,7.974,10.692,28.566,13.336c0,0-3.973,8.606-0.845,11.263 c3.128,2.657,6.938,3.943,6.938,3.943s1.161,4.711,5.616,4.882C151.324,234.644,152.485,229.932,152.485,229.932z"/>
          <g>
            <g>
              <g>
                <path style="fill:#702624;" d="M201.661,222.9c1.03-2.257,1.454-4.391-0.189-6.467c-0.633-0.8-1.644-1.041-2.262-1.742 c-0.945-1.07-0.321-0.205-0.516-2.268c-0.216-2.289-2.251-4.05-4.23-4.853c-0.865-0.351-1.886-0.306-2.716-0.645 c-1.785-0.729,0.048,0.826-0.63-1.104c-2.986-8.5-16.732-10.59-24.598-10.651c-12.209-0.095-24.422,0-36.631,0 c-8.467,0-21.158,0.754-26.505,8.202c-0.713,0.993-0.778,2.308-1.392,3.226c-0.283,0.423,1.061-0.231-0.669,0.354 c-2.377,0.804-4.611,1.065-6.017,3.485c-0.274,0.471-0.68,1.449-0.731,1.987c-0.009,0.099,0.128,2.311,0.342,1.896 c-0.199,0.385-1.622,0.785-2.051,1.118c-2.618,2.033-2.542,4.652-1.259,7.463c0.4,0.877,1.693,0.116,1.295-0.757 c-1.43-3.135-0.27-5.431,2.514-6.412c0.305-0.108,0.562-0.379,0.551-0.723c-0.137-4.19,2.662-6.693,6.691-6.647 c0.426,0.005,0.722-0.349,0.75-0.75c0.578-8.238,15.346-10.644,21.881-10.941c7.096-0.322,14.279,0,21.381,0 c7.102,0,14.286-0.324,21.381,0c6.531,0.298,21.235,2.721,21.811,10.941c0.028,0.401,0.321,0.755,0.75,0.75 c4.041-0.046,6.83,2.383,6.691,6.647c-0.011,0.346,0.244,0.615,0.551,0.723c2.749,0.969,3.955,3.253,2.514,6.412 C199.968,223.014,201.26,223.778,201.661,222.9L201.661,222.9z"/>
              </g>
            </g>
          </g>
          <g>
            <g>
              <g>
                <path style="fill:#702624;" d="M124.79,212.014c-1.22,0.265-2.271,0.857-2.973,1.922c-0.567,0.86-1.055,2.509,0.184,3.008 c0.208,0.084,0.437-0.027,0.593-0.157c0.566-0.472,0.398-1.446,0.818-2.053c0.446-0.644,1.225-1.116,1.884-1.521 C125.941,212.817,125.515,211.857,124.79,212.014L124.79,212.014z"/>
              </g>
            </g>
            <g>
              <g>
                <path style="fill:#702624;" d="M116.267,217.666c-1.398-0.238-2.702,0.568-3.402,1.777 c-0.669,1.156-1.129,3.243,0.142,4.138c0.303,0.213,0.641-0.03,0.757-0.308c0.178-0.426,0.134-0.845,0.141-1.3 c0.01-0.674,0.127-1.237,0.461-1.83c0.478-0.848,1.267-1.482,1.998-2.105C116.487,217.935,116.428,217.694,116.267,217.666 L116.267,217.666z"/>
              </g>
            </g>
            <g>
              <g>
                <path style="fill:#702624;" d="M130.939,216.617c-1.994,0.296-2.875,1.615-3.438,3.445 c-0.433,1.404-0.879,3.581,0.589,4.515c0.389,0.248,1.044-0.069,0.987-0.567c-0.135-1.2-0.369-2.082-0.091-3.317 c0.321-1.426,0.861-2.699,2.251-3.369C131.666,217.117,131.335,216.558,130.939,216.617L130.939,216.617z"/>
              </g>
            </g>
            <g>
              <g>
                <path style="fill:#702624;" d="M165.651,213.918c1.65,1.479,2.364,3.5,2.977,5.549c0.28,0.937,1.821,0.805,1.762-0.238 c-0.152-2.69-2.072-4.711-4.427-5.715C165.719,213.408,165.413,213.704,165.651,213.918L165.651,213.918z"/>
              </g>
            </g>
            <g>
              <g>
                <path style="fill:#702624;" d="M176.149,220.592c1.327,1.695,1.2,3.595,1.606,5.581c0.121,0.59,0.983,0.663,1.264,0.165 c1.317-2.339-0.344-5.124-2.245-6.556C176.264,219.399,175.823,220.176,176.149,220.592L176.149,220.592z"/>
              </g>
            </g>
            <g>
              <g>
                <path style="fill:#702624;" d="M165.098,225.61c1.196,1.717,0.804,3.387,0.492,5.294c-0.112,0.685,0.593,1.104,1.136,0.661 c2.103-1.716,1.162-5.157-0.634-6.722C165.585,224.401,164.662,224.984,165.098,225.61L165.098,225.61z"/>
              </g>
            </g>
            <g>
              <g>
                <path style="fill:#702624;" d="M178.413,212.995c0.632,0.879,1.196,1.833,1.692,2.795c0.504,0.979,0.622,2.124,1.252,3.033 c0.354,0.511,1.135,0.449,1.328-0.173c0.759-2.445-1.656-5.26-3.711-6.216C178.644,212.281,178.149,212.627,178.413,212.995 L178.413,212.995z"/>
              </g>
            </g>
            <g>
              <g>
                <path style="fill:#702624;" d="M189.013,215.968c0.6,0.781,1.076,1.703,1.351,2.651c0.255,0.881,0.244,1.832,0.689,2.645 c0.245,0.447,0.902,0.419,1.154,0c1.256-2.09-0.886-4.834-2.617-5.872C189.253,215.188,188.746,215.62,189.013,215.968 L189.013,215.968z"/>
              </g>
            </g>
            <g>
              <g>
                <path style="fill:#702624;" d="M183.313,207.003c0.867,0.801,1.551,1.725,2.132,2.752c0.545,0.964,0.749,2.08,1.353,3.007 c0.394,0.605,1.219,0.323,1.288-0.349c0.261-2.524-2.304-4.914-4.291-6.036C183.411,206.16,182.973,206.688,183.313,207.003 L183.313,207.003z"/>
              </g>
            </g>
            <g>
              <g>
                <path style="fill:#702624;" d="M122.282,223.335c-1.292,1.923-1.954,4.994-0.39,6.962c0.275,0.346,0.911,0.061,0.88-0.365 c-0.069-0.954-0.357-1.867-0.341-2.833c0.019-1.114,0.299-2.217,0.802-3.208 C123.555,223.257,122.677,222.747,122.282,223.335L122.282,223.335z"/>
              </g>
            </g>
            <g>
              <g>
                <path style="fill:#702624;" d="M111.533,207.253c-2.158,0.771-4.213,3.041-3.902,5.474c0.058,0.449,0.736,0.803,0.983,0.266 c0.413-0.9,0.742-1.847,1.266-2.691c0.533-0.859,1.324-1.628,2.121-2.246C112.38,207.762,111.968,207.098,111.533,207.253 L111.533,207.253z"/>
              </g>
            </g>
            <g>
              <g>
                <path style="fill:#702624;" d="M100.787,214.19c-2.063,1.144-4.354,4.108-3.309,6.596c0.194,0.461,0.88,0.558,1.04,0 c0.288-1.012,0.29-2.055,0.747-3.022c0.484-1.025,1.2-1.879,2.149-2.501C102.079,214.827,101.491,213.799,100.787,214.19 L100.787,214.19z"/>
              </g>
            </g>
            <g>
              <g>
                <path style="fill:#702624;" d="M107.135,218.491c-2.099,1.177-3.63,4.427-2.174,6.644c0.332,0.505,1.113,0.309,1.136-0.308 c0.035-0.98-0.091-1.913,0.151-2.88c0.25-0.999,0.79-1.93,1.47-2.702C108.07,218.844,107.627,218.215,107.135,218.491 L107.135,218.491z"/>
              </g>
            </g>
            <g>
              <g>
                <path style="fill:#702624;" d="M134.486,227.84c-0.981,1.673-1.265,4.744,0.294,6.193c0.307,0.285,0.979,0.114,0.92-0.381 c-0.107-0.902-0.564-1.697-0.709-2.6c-0.162-1.011-0.132-2.071-0.047-3.088C134.965,227.712,134.603,227.64,134.486,227.84 L134.486,227.84z"/>
              </g>
            </g>
            <g>
              <g>
                <path style="fill:#702624;" d="M157.574,228.469c-0.192,0.951-0.444,1.902-0.744,2.824c-0.271,0.835-0.92,1.687-0.848,2.577 c0.033,0.407,0.42,0.645,0.794,0.455c0.896-0.456,1.198-1.74,1.405-2.66c0.245-1.084,0.18-2.127-0.087-3.197 C158.032,228.219,157.627,228.205,157.574,228.469L157.574,228.469z"/>
              </g>
            </g>
          </g>
        </g>
        <g>
          <g>
            <g>
              <g>
                <path style="fill:#B694DD;" d="M182.136,192.548h-71.004c0,0-2.243,3.66-0.691,7.896 c1.882,5.136,18.331,12.311,36.193,12.311s34.311-7.176,36.193-12.311C184.378,196.208,182.136,192.548,182.136,192.548z"/>
                <g>
                  <path style="fill:#702624;" d="M182.136,191.867c-23.668,0-47.336,0-71.004,0c-0.237,0-0.471,0.129-0.588,0.337 c-9.556,16.951,27.273,21.222,36.09,21.231c8.812,0.01,45.639-4.294,36.09-21.231c-0.43-0.764-1.607-0.078-1.176,0.687 c9.38,16.639-32.493,19.613-40.398,18.962c-8.689-0.715-18.294-2.736-25.759-7.476c-3.983-2.529-4.982-4.923-4.381-9.779 c0.096-0.777,0.968-1.756,0.24-1.371c0.172-0.091,0.566,0.039,0.753,0c2.304-0.478,5.216,0,7.56,0c4.33,0,8.66,0,12.991,0 c10.293,0,20.585,0,30.878,0c6.235,0,12.469,0,18.704,0C183.012,193.229,183.013,191.867,182.136,191.867z"/>
                </g>
              </g>
              <path style="opacity:0.5;fill:#B694DD;" d="M146.634,205.695c17.487,0,33.611-6.876,36.046-11.984 c-0.282-0.729-0.544-1.163-0.544-1.163h-71.004c0,0-0.262,0.434-0.544,1.163 C113.024,198.819,129.147,205.695,146.634,205.695z"/>
            </g>
          </g>
          <g>
            <g>
              <path style="fill:#ED9A55;" d="M150.171,228.14c0,1.954-1.584,3.537-3.537,3.537c-1.954,0-3.537-1.584-3.537-3.537 c0-1.954,1.584-3.538,3.537-3.538C148.587,224.602,150.171,226.186,150.171,228.14z"/>
              <g>
                <path style="fill:#702624;" d="M149.49,228.14c-0.197,3.658-5.713,3.691-5.713,0 C143.777,224.448,149.293,224.48,149.49,228.14c0.047,0.872,1.409,0.877,1.362,0c-0.123-2.288-1.831-4.218-4.218-4.218 c-2.293,0-4.218,1.926-4.218,4.218c0,2.223,1.808,4.109,4.026,4.208c2.462,0.11,4.284-1.841,4.411-4.208 C150.899,227.264,149.537,227.267,149.49,228.14z"/>
              </g>
            </g>
            <g>
              <g>
                <path style="fill:#FFC42F;" d="M153.784,213.27c-2.211-5.236-7.15-5.343-7.15-5.343s-4.939,0.107-7.15,5.343 c-2.211,5.236-2.91,10.764-2.91,10.764s3.395,4.106,10.06,4.106c6.664,0,10.06-4.106,10.06-4.106 S155.995,218.506,153.784,213.27z"/>
                <g>
                  <path style="fill:#702624;" d="M154.372,212.926c-1.997-4.071-6.24-6.888-10.665-4.948 c-3.307,1.449-4.765,4.469-5.863,7.727c-0.597,1.771-2.735,6.761-1.804,8.742c0.772,1.644,3.826,2.919,5.313,3.458 c3.728,1.353,8.007,1.215,11.621-0.431c1.201-0.547,3.95-1.846,4.39-3.349c0.2-0.684-0.313-2.12-0.435-2.73 c-0.57-2.849-1.414-5.607-2.487-8.306c-0.32-0.805-1.638-0.454-1.313,0.362c1.189,2.991,1.945,6.008,2.647,9.137 c0.143,0.64-0.02,1.887,0.393,1.017c-0.229,0.483-1.053,0.999-1.439,1.287c-4.389,3.272-13.73,4.018-17.379-1.026 c-0.433-0.599-0.085,0.761-0.016-0.34c0.068-1.082,0.403-2.213,0.647-3.264c0.829-3.566,1.82-8.09,4.979-10.283 c4.02-2.79,8.177-0.564,10.236,3.634C153.582,214.4,154.756,213.71,154.372,212.926z"/>
                </g>
              </g>
              <path style="opacity:0.5;fill:#FFB6C3;" d="M146.634,228.14c6.665,0,10.06-4.106,10.06-4.106s-0.699-5.528-2.91-10.764 c-1.095-2.592-2.857-3.925-4.359-4.613c3.429,6.251,1.656,14.942,1.656,14.942c-8.874,3.135-14.508,0.435-14.508,0.435 S139.969,228.14,146.634,228.14z"/>
            </g>
          </g>
        </g>
      </g>
      <g>
        <g>
          <g>
            <path style="fill:#FFCABA;" d="M201.31,155.769c0,0,10.029,5.913,20.738-3.029c8.41-7.023,7.236-10.764,4.078-10.253 c-6.059,0.981-11.301-4.66-16.078-18.757s-16.893-26.537-34.835-25.21C157.271,99.847,201.31,155.769,201.31,155.769z"/>
            <path style="opacity:0.5;fill:#FFCABA;" d="M201.31,155.769c0,0-44.039-55.922-26.097-57.249 c4.296-0.318,8.255,0.161,11.862,1.256c1.206,3.359,2.265,6.58,2.265,6.58c22.324,19.323,21.061,46.949,21.061,46.949 c6.986-0.499,14.462-3.143,17.812-7.805c-0.651,1.734-2.494,4.174-6.166,7.239C211.339,161.682,201.31,155.769,201.31,155.769 z"/>
            <g>
              <g>
                <path style="fill:#702624;" d="M200.931,156.417c5.412,3.058,12.415,2.439,17.718-0.453 c2.311-1.26,13.933-9.335,9.946-13.526c-1.297-1.364-3.61-0.4-5.233-0.743c-4.84-1.024-7.717-6.578-9.617-10.617 c-4.273-9.081-6.405-18.032-14.174-25.015c-6.374-5.729-15.674-9.479-24.357-8.293c-2.805,0.383-4.6,1.725-4.995,4.638 c-0.553,4.073,1.603,8.574,3.249,12.161c2.719,5.927,6.141,11.538,9.671,17.01c5.483,8.498,11.389,16.77,17.642,24.721 c0.596,0.758,1.651-0.31,1.061-1.061c-10.146-12.901-20.475-26.771-27.24-41.783c-1.394-3.092-3.669-7.727-2.847-11.264 c1.339-5.766,12.411-2.614,15.92-1.447c8.317,2.765,14.896,9.239,18.933,16.89c3.596,6.817,4.9,14.71,9.806,20.856 c1.528,1.915,3.442,3.703,5.83,4.453c1.033,0.325,2.148,0.109,3.13,0.381c0.348,0.096,0.968-0.309,1.288-0.134 c1.856,1.012,0.561,2.784-0.134,3.85c-4.985,7.648-16.28,12.916-24.839,8.08 C200.847,154.646,200.09,155.941,200.931,156.417z"/>
              </g>
            </g>
          </g>
          <g>
            <path style="fill:#FFCABA;" d="M91.957,155.769c0,0-10.029,5.913-20.738-3.029c-8.41-7.023-7.236-10.764-4.078-10.253 c6.059,0.981,11.301-4.66,16.078-18.757c4.777-14.097,16.893-26.537,34.835-25.21 C135.996,99.847,91.957,155.769,91.957,155.769z"/>
            <path style="opacity:0.5;fill:#FFCABA;" d="M91.957,155.769c0,0,44.039-55.922,26.097-57.249 c-4.296-0.318-8.255,0.161-11.862,1.256c-1.206,3.359-2.265,6.58-2.265,6.58c-22.324,19.323-21.061,46.949-21.061,46.949 c-6.986-0.499-14.462-3.143-17.812-7.805c0.651,1.734,2.494,4.174,6.166,7.239C81.928,161.682,91.957,155.769,91.957,155.769z "/>
            <g>
              <g>
                <path style="fill:#702624;" d="M91.579,155.122c-7.647,4.321-16.748,0.479-22.412-5.253 c-0.963-0.974-3.645-3.318-3.522-4.961c0.184-2.461,1.594-1.514,2.995-1.564c2.031-0.072,3.836-0.842,5.447-2.054 c5.336-4.013,7.675-11.366,9.856-17.36c2.962-8.141,7.852-15.506,15.302-20.178c3.882-2.434,8.329-3.953,12.888-4.415 c2.284-0.231,6.553-0.965,8.42,0.881c2.351,2.325,0.516,7.093-0.411,9.659c-3.507,9.703-9.62,18.635-15.399,27.1 c-4.245,6.218-8.661,12.344-13.316,18.263c-0.59,0.751,0.464,1.819,1.061,1.061c5.203-6.617,10.135-13.469,14.829-20.454 c3.823-5.689,7.517-11.501,10.673-17.591c2.137-4.123,4.543-8.78,5.017-13.479c1.313-13.027-19.467-5.62-25.071-1.975 c-7.075,4.602-12.046,11.718-15.013,19.528c-1.985,5.225-3.654,10.697-7.191,15.14c-1.36,1.708-2.967,3.346-5.106,4.031 c-1.571,0.503-3.029-0.137-4.504,0.234c-6.954,1.749,4.587,11.651,6.091,12.717c5.716,4.051,13.761,5.563,20.122,1.968 C93.176,155.942,92.421,154.646,91.579,155.122z"/>
              </g>
            </g>
          </g>
        </g>
        <g>
          <g>
            <path style="fill:#FFCABA;" d="M180.546,103.258c-18.455-12.991-49.369-12.991-67.824,0 c-27.511,19.367-30.204,56.985-22.011,73.369c12.281,24.562,55.924,25.274,55.924,25.274s43.643-0.712,55.923-25.274 C210.749,160.243,208.057,122.624,180.546,103.258z"/>
            <path style="opacity:0.5;fill:#FFCABA;" d="M180.546,103.258c-18.455-12.991-49.37-12.991-67.824,0 c-2.767,1.948-5.271,4.087-7.55,6.364c0.959,1.613,3.041,3.494,7.542,3.074c0,0,0.197,17.055,15.311,6.709 c0,0,4.106,9.928,12.137,2.575c0,0,7.587,9.589,12.282,0c0,0,11.45,7.591,12.799-2.677c0,0,15.235,8.438,14.799-5.591 c0,0,5.34-1.05,8.344-3.792C186.03,107.532,183.432,105.29,180.546,103.258z"/>
            <path style="opacity:0.5;fill:#FFCABA;" d="M202.557,167.659c-12.281,24.562-55.923,25.274-55.923,25.274 s-43.643-0.712-55.924-25.274c-2.088-4.177-3.464-9.738-3.907-16.021c-0.669,9.908,0.867,18.911,3.907,24.99 c12.281,24.562,55.924,25.274,55.924,25.274s43.643-0.712,55.923-25.274c3.039-6.079,4.575-15.082,3.907-24.99 C206.021,157.92,204.646,163.482,202.557,167.659z"/>
            <g>
              <g style="opacity:0.7;">
                <g>
                  <path style="fill:#FFFFFF;" d="M92.947,161.309c-1.984-16.585,3.006-31.613,13.078-44.71 c0.18-0.234-0.205-0.518-0.405-0.312c-11.298,11.635-15.716,29.29-12.719,45.028 C92.906,161.34,92.95,161.335,92.947,161.309L92.947,161.309z"/>
                </g>
              </g>
              <g style="opacity:0.7;">
                <g>
                  <path style="fill:#FFFFFF;" d="M200.367,161.315c2.997-15.738-1.422-33.394-12.719-45.028 c-0.198-0.204-0.587,0.076-0.405,0.312c10.073,13.097,15.062,28.128,13.078,44.71 C200.317,161.335,200.361,161.341,200.367,161.315L200.367,161.315z"/>
                </g>
              </g>
            </g>
          </g>
          <g>
            <g>
              <path style="fill:#702624;" d="M180.924,102.61C154.7,84.745,115.699,91.341,97.67,117.455 c-12.811,18.555-19.025,51.853-0.414,68.939c12.526,11.499,32.983,16.401,49.729,16.248 c18.394-0.169,42.462-5.836,53.72-21.522c7.501-10.451,7.728-25.114,5.549-37.293 C203.303,127.322,194.569,112.47,180.924,102.61c-0.784-0.566-1.533,0.734-0.757,1.295 c20.408,14.747,32.486,46.014,22.659,70.302c-8.004,19.783-34.367,25.598-53.45,26.814 c-13.296,0.847-28.288-2.596-40.116-8.417c-10.652-5.242-18.444-13.5-20.828-25.321c-2.449-12.14-0.666-25.294,3.916-36.716 c6.425-16.018,19.265-28.979,36.024-33.794c17.043-4.897,36.972-2.967,51.796,7.132 C180.967,104.45,181.718,103.151,180.924,102.61z"/>
            </g>
          </g>
          <g>
            <g>
              <g>
                <path style="fill:#FFFFFF;" d="M117.58,141.96c-11.696-0.296-13.917,13.769-9.919,20.135 c1.999,3.183,4.498,5.395,9.919,5.395c5.247,0,7.921-2.212,9.92-5.395C131.497,155.729,129.277,141.664,117.58,141.96z"/>
                <g>
                  <g>
                    <path style="fill:#702624;" d="M129.518,150.531c-2.411-8.08-11.94-12.562-19.274-7.157 c-5.666,4.176-6.611,13.248-3.231,19.1c0.483,0.836,1.779,0.081,1.295-0.757c-2.718-4.705-2.338-11.769,1.416-15.853 c5.96-6.482,16.039-2.668,18.347,5.065C128.347,151.852,129.795,151.459,129.518,150.531L129.518,150.531z"/>
                  </g>
                </g>
                <ellipse style="fill:#702624;" cx="120.625" cy="155.142" rx="7.399" ry="9.146"/>
              </g>
              <g>
                <path style="fill:#FFFFFF;" d="M175.687,141.96c11.696-0.296,13.917,13.769,9.919,20.135 c-1.999,3.183-4.498,5.395-9.919,5.395c-5.247,0-7.921-2.212-9.919-5.395C161.77,155.729,163.991,141.664,175.687,141.96z"/>
                <g>
                  <g>
                    <path style="fill:#702624;" d="M165.196,150.929c2.313-7.75,12.393-11.539,18.347-5.065 c3.753,4.081,4.133,11.15,1.417,15.853c-0.484,0.837,0.812,1.594,1.295,0.757c3.38-5.852,2.434-14.925-3.231-19.1 c-7.329-5.402-16.864-0.921-19.274,7.157C163.473,151.458,164.92,151.854,165.196,150.929L165.196,150.929z"/>
                  </g>
                </g>
                <ellipse style="fill:#702624;" cx="172.642" cy="155.142" rx="7.399" ry="9.146"/>
              </g>
              <g>
                <path style="fill:#FF8285;" d="M106.022,175.876c-11.275-2.585-7.669-10.295,0-8.461 C116.639,169.954,115.248,177.992,106.022,175.876z"/>
                <path style="fill:#FF8285;" d="M187.245,175.876c11.275-2.585,7.669-10.295,0-8.461 C176.628,169.954,178.019,177.992,187.245,175.876z"/>
              </g>
              <path style="fill:#702624;" d="M112.438,140.549c1.98-0.848,4.688-1.446,7.824-0.319c2.244,0.806,3.487-0.991,1.843-2.278 c-1.893-1.482-6.642-2.342-9.962-0.712c-3.32,1.63-3.092,2.743-2.827,3.376C109.582,141.25,110.577,141.347,112.438,140.549z "/>
              <path style="fill:#702624;" d="M180.829,140.549c-1.98-0.848-4.688-1.446-7.824-0.319c-2.244,0.806-3.487-0.991-1.843-2.278 c1.893-1.482,6.642-2.342,9.962-0.712c3.32,1.63,3.092,2.743,2.827,3.376C183.686,141.25,182.69,141.347,180.829,140.549z"/>
            </g>
            <g>
              <g>
                <g>
                  <path style="fill:#702624;" d="M132.213,168.602c2.939,4.252,9.109,8.448,14.421,8.376 c5.373-0.074,11.421-4.035,14.421-8.376c0.55-0.796-0.749-1.547-1.295-0.757c-6.483,9.381-19.776,9.37-26.251,0 C132.963,167.056,131.662,167.805,132.213,168.602L132.213,168.602z"/>
                </g>
              </g>
              <g>
                <g>
                  <path style="fill:#702624;" d="M145.884,176.227c0,2.927,0,5.854,0,8.782c0,0.965,1.5,0.967,1.5,0c0-2.927,0-5.854,0-8.782 C147.384,175.262,145.884,175.26,145.884,176.227L145.884,176.227z"/>
                </g>
              </g>
              <g>
                <g>
                  <path style="fill:#702624;" d="M140.875,184.792c3.572,2.037,8.167,1.572,11.81,0.076c0.881-0.362,0.495-1.814-0.399-1.447 c-3.269,1.342-7.422,1.919-10.654,0.076C140.792,183.018,140.036,184.314,140.875,184.792L140.875,184.792z"/>
                </g>
              </g>
            </g>
          </g>
        </g>
        <g>
          <path style="fill:#FFE8D3;" d="M184.563,101.751c-2.977-6.364-11.921-8.763-11.921-8.763s8.956-3.668,3.312-8.478 c-5.643-4.81-14.512-3.436-14.512-3.436s0.458-5.497-4.749-5.268c-5.207,0.229-10.06,5.524-10.06,5.524 s-4.853-5.295-10.06-5.524c-5.207-0.229-4.749,5.268-4.749,5.268s-8.869-1.374-14.512,3.436 c-5.643,4.81,3.313,8.478,3.313,8.478s-8.944,2.399-11.921,8.763c-2.977,6.364,4.106,8.417,6.672,8.725 c0,0-0.616,6.98,4.722,7.801c5.338,0.821,11.292-4.825,11.292-4.825s-2.489,5.83,1.334,7.391 c5.03,2.053,8.622-4.517,8.622-4.517s1.644,5.62,5.287,5.654c3.643-0.034,5.287-5.654,5.287-5.654s3.593,6.57,8.622,4.517 c3.823-1.56,1.335-7.391,1.335-7.391s5.954,5.646,11.291,4.825c5.338-0.821,4.722-7.801,4.722-7.801 C180.457,110.168,187.54,108.115,184.563,101.751z"/>
          <g>
            <g>
              <g>
                <path style="fill:#702624;" d="M185.211,101.372c-2.518-4.664-7.337-7.695-12.369-9.107c0.06,0.457,0.119,0.914,0.179,1.371 c2.156-0.921,5.025-2.673,5.455-5.2c0.643-3.777-4.049-6.223-6.97-7.214c-2.213-0.752-4.627-1.063-6.96-1.078 c-0.784-0.005-1.715-0.093-2.48,0.109c-1.235,0.326,0.059,0.189,0.134,0.565c-0.529-2.66-0.94-5.089-4.12-5.679 c-4.375-0.811-8.269,2.49-11.365,5.049c-1.097,0.907,0.693,0.568,0.066,0.219c-0.684-0.38-1.271-1.176-1.894-1.674 c-1.96-1.564-4.311-3.031-6.821-3.493c-3.048-0.561-6.257,0.503-6.824,3.901c-0.085,0.508-0.112,1.017-0.176,1.527 c-0.102,0.82,1.44-0.361,0.513-0.376c-2.031-0.033-3.981-0.207-6.02,0.073c-3.591,0.492-10.089,2.369-10.786,6.713 c-0.513,3.2,2.937,5.474,5.474,6.557c0.06-0.457,0.119-0.914,0.179-1.371c-4.47,1.255-9.351,3.943-11.785,8.025 c-2.545,4.269-0.994,9.252,4.184,10.368c0.859,0.185,2.032,0.538,1.784,0.207c0.263,0.35,0.108,2.078,0.223,2.622 c0.438,2.082,1.436,3.971,3.39,4.96c4.579,2.316,10.407-1.428,13.699-4.464c-0.418-0.243-0.836-0.487-1.254-0.73 c-1.244,3.093-1.395,7.351,2.425,8.477c3.765,1.11,7.154-1.972,8.902-5.025c-0.457-0.06-0.914-0.119-1.371-0.179 c0.835,2.663,2.79,6.204,6.01,6.204c3.22,0,5.176-3.541,6.01-6.204c-0.457,0.06-0.914,0.119-1.371,0.179 c1.751,3.059,5.132,6.136,8.902,5.025c3.82-1.126,3.67-5.383,2.425-8.477c-0.418,0.243-0.836,0.486-1.254,0.73 c4.442,4.096,14.391,8.725,16.908,0.285c0.223-0.747,0.03-3.17,0.393-3.69c-0.593,0.851,3.355-0.487,3.936-0.826 c3.269-1.906,4.025-4.745,2.702-8.201c-0.342-0.893-1.793-0.505-1.447,0.399c1.835,4.794-1.998,7.178-6.148,7.803 c-0.303,0.046-0.571,0.425-0.551,0.723c0.235,3.414-1.184,7.057-5.212,7.132c-3.394,0.063-7.118-2.469-9.521-4.685 c-0.5-0.461-1.553-0.014-1.254,0.73c1.193,2.967,0.345,7.964-4.457,6.325c-1.772-0.605-3.216-2.433-4.129-4.028 c-0.33-0.576-1.182-0.424-1.371,0.179c-0.708,2.259-1.971,4.7-4.564,4.7c-2.579,0-3.86-2.453-4.564-4.7 c-0.189-0.603-1.041-0.755-1.371-0.179c-0.92,1.608-2.335,3.416-4.129,4.028c-4.837,1.652-5.645-3.371-4.457-6.325 c0.299-0.743-0.753-1.191-1.254-0.73c-2.406,2.219-6.142,4.756-9.521,4.685c-3.963-0.084-5.447-3.711-5.212-7.132 c0.02-0.294-0.245-0.677-0.551-0.723c-1.681-0.253-3.39-0.714-4.777-1.737c-3.607-2.663-1.299-7.077,1.334-9.589 c2.343-2.236,5.587-3.844,8.692-4.716c0.563-0.158,0.801-1.105,0.179-1.371c-0.656-0.28-1.303-0.613-1.905-0.998 c-0.734-0.469-2.39-1.52-2.57-2.415c-0.444-2.202,2.755-5.008,4.519-5.779c3.237-1.415,7.067-1.846,10.578-1.351 c0.449,0.063,0.979-0.184,0.949-0.723c-0.485-8.733,10.702-2.207,13.528,0.787c0.272,0.288,0.788,0.289,1.061,0 c2.826-2.993,14.013-9.52,13.528-0.787c-0.03,0.539,0.501,0.787,0.949,0.723c3.513-0.496,7.34-0.065,10.578,1.351 c2.022,0.884,5.625,2.65,4.519,5.779c-0.319,0.902-1.554,1.711-2.255,2.207c-0.681,0.481-1.453,0.878-2.22,1.206 c-0.621,0.265-0.389,1.211,0.179,1.371c4.652,1.306,9.143,4.102,11.472,8.418 C184.374,102.979,185.67,102.222,185.211,101.372z"/>
              </g>
            </g>
            <g>
              <g>
                <g>
                  <path style="fill:#702624;" d="M122.617,97.599c-2.496,0.936-8.523,3.835-7.025,7.415c1.219,2.912,6.872,2.315,9.331,2.054 c-0.216-0.376-0.432-0.752-0.648-1.129c-0.635,1.334-1.281,3.087-0.939,4.579c0.672,2.934,4.164,1.943,6.152,1.187 c0.894-0.34,0.506-1.79-0.399-1.446c-1.773,0.674-4.618,1.657-4.27-1.2c0.097-0.798,0.405-1.636,0.751-2.362 c0.217-0.456-0.03-1.194-0.648-1.128c-2.126,0.225-4.959,0.508-6.949-0.386c-3.643-1.637,3.388-5.516,5.042-6.137 C123.912,98.709,123.524,97.259,122.617,97.599L122.617,97.599z"/>
                </g>
              </g>
              <g>
                <g>
                  <path style="fill:#702624;" d="M133.974,105.257c1.047,4.868,4.561,7.324,8.552,3.422c-0.354,0-0.707,0-1.061,0 c4.208,3.732,10.244,5.28,11.702-1.662c0.198-0.942-1.248-1.344-1.446-0.399c-0.766,3.648-2.965,4.735-6.219,3.051 c-1.062-0.55-2.08-1.256-2.975-2.05c-0.306-0.271-0.756-0.297-1.061,0c-3.237,3.165-5.322,0.6-6.045-2.76 C135.217,103.915,133.771,104.314,133.974,105.257L133.974,105.257z"/>
                </g>
              </g>
              <g>
                <g>
                  <path style="fill:#702624;" d="M157.27,105.588c2.192,2.815,6.021,6.371,9.926,5.531c2.4-0.516,3.515-2.616,3.023-4.964 c-0.308,0.308-0.615,0.615-0.923,0.923c4.196,1.224,9.536,0.682,8.931-4.854c-0.104-0.949-1.605-0.96-1.5,0 c0.49,4.482-3.931,4.312-7.032,3.408c-0.577-0.168-1.036,0.381-0.923,0.923c0.844,4.025-4.396,3.15-6.467,1.775 c-1.509-1.001-2.861-2.373-3.974-3.802C157.739,103.767,156.684,104.835,157.27,105.588L157.27,105.588z"/>
                </g>
              </g>
              <g>
                <g>
                  <path style="fill:#702624;" d="M168.772,88.461c-0.775,3.178-2.994,5.611-6.377,3.55c-0.528-0.322-1.071,0.109-1.128,0.648 c-0.319,3.012-2.481,4.545-5.234,2.208c-0.294-0.249-0.775-0.323-1.061,0c-2.27,2.569-5.374,3.521-6.891-0.641 c-0.328-0.9-1.778-0.511-1.447,0.399c0.822,2.256,2.078,4.557,4.825,4.214c1.035-0.129,1.981-0.718,2.809-1.312 c0.373-0.268,0.873-0.964,1.272-1.082c1.292-0.382-0.992-0.171,0.399,0.305c1.87,0.639,3.049,2.068,4.967,0.489 c1.261-1.038,1.698-3.046,1.86-4.58c-0.376,0.216-0.752,0.432-1.129,0.648c4.22,2.572,7.507-0.047,8.58-4.446 C170.447,87.922,169.001,87.522,168.772,88.461L168.772,88.461z"/>
                </g>
              </g>
              <g>
                <g>
                  <path style="fill:#702624;" d="M126.003,85.272c-2.215,0.793-5.108,3.063-2.737,5.414c2.162,2.143,6.768,1.89,9.553,1.723 c-0.25-0.25-0.5-0.5-0.75-0.75c0.305,4.552,3.618,5.93,7.338,3.414c0.795-0.538,0.046-1.838-0.757-1.295 c-1.705,1.153-3.598,1.99-4.654-0.276c-0.26-0.557-0.386-1.23-0.427-1.842c-0.026-0.386-0.323-0.776-0.75-0.75 c-1.722,0.104-3.494,0.08-5.2-0.178c-1.123-0.17-4.107-0.506-3.617-2.423c0.189-0.739,1.722-1.347,2.4-1.59 C127.304,86.395,126.915,84.945,126.003,85.272L126.003,85.272z"/>
                </g>
              </g>
              <g>
                <g>
                  <path style="fill:#702624;" d="M139.086,85.796c-0.995-4.577,6,0.652,7.128,1.513c0.206,0.157,0.547,0.122,0.757,0 c1.809-1.054,8.656-4.706,8.747-0.648c0.022,0.964,1.522,0.967,1.5,0c-0.061-2.672-1.777-3.669-4.304-3.314 c-1.565,0.22-3.087,0.869-4.509,1.532c-0.468,0.218-1.137,0.751-1.642,0.827c-0.955,0.144-0.671-0.302-1.803-1.182 c-2.671-2.077-8.494-3.726-7.321,1.67C137.845,87.137,139.291,86.738,139.086,85.796L139.086,85.796z"/>
                </g>
              </g>
            </g>
          </g>
        </g>
      </g>
    </g>
  </g>
</svg>